g acid2
v 5.874684 0.9708101 6.015434
v 3.819274 0.9708101 3.542679
v 5.351999 0.9708099 4.817058
v 3.245367 0.9708101 5.223765
v 4.231267 0.9708101 3.259274
v 3.381598 0.9708101 7.810177
v 2.413364 0.9708101 5.452969
v 1.407185 0.9708101 5.527198
v -0.462757 0.9708101 7.202387
v 0.9537838 0.9708099 5.557263
v -0.1878051 0.9708099 5.680485
v -1.619105 0.9708101 5.221694
v -1.701213 0.9708101 6.593286
v -2.120481 0.9708101 5.933254
v -5.649428 0.9708101 7.116188
v -3.235419 0.9708101 5.457722
v -3.866292 0.9708101 3.753061
v -4.745725 0.9708101 3.184777
v -4.745725 0.9708101 3.184777
v -4.745725 0.4731381 3.077321
v -3.866292 0.4731381 3.645605
v -3.866292 0.9708101 3.753061
v 0.9537838 0.9708099 5.557263
v 0.9537838 0.4731381 5.557263
v 1.407185 0.4731381 5.527198
v 1.407185 0.9708101 5.527198
v -2.120481 0.9708101 5.933254
v -2.120481 0.4731381 5.933254
v -1.619105 0.4731381 5.221694
v -1.619105 0.9708101 5.221694
v 3.819274 0.9708101 3.542679
v 3.819274 0.4731381 3.542679
v 4.231267 0.4731381 3.259274
v 4.231267 0.9708101 3.259274
v 3.819274 0.4731381 3.542679
v 3.134763 0.4731381 3.863095
v 4.128776 0.4731381 2.716909
v 4.231267 0.4731381 3.259274
v 3.149808 0.4731381 5.062544
v 2.464915 0.4731381 4.4265
v 3.89947 0.4731381 2.18696
v 3.41355 0.4731381 1.893782
v 1.930023 0.4731381 4.884267
v 1.407185 0.4731381 5.527198
v 1.040317 0.4731381 4.607382
v 0.9537838 0.4731381 5.557263
v -0.8597802 0.4731381 4.823349
v -0.01591593 0.4731381 5.592871
v -1.619105 0.4731381 5.221694
v -2.120481 0.4731381 4.718759
v -2.120481 0.4731381 5.933254
v -3.381184 0.4731381 4.026622
v -3.379532 0.4731381 5.260845
v -3.866292 0.4731381 3.645605
v -3.594606 0.4731381 1.674577
v -4.745725 0.4731381 3.077321
v -4.829268 0.4731381 2.463211
vt -3.569397 1.351703
vt -2.284288 -0.2070662
vt -3.243671 0.5974031
vt -1.916834 0.8541289
vt -2.542601 -0.3817027
vt -1.999541 2.469512
vt -1.397303 1.001877
vt -0.7728094 1.052629
vt 0.3766471 2.080496
vt -0.4947001 1.076791
vt 0.195697 1.150299
vt 1.055578 0.84816
vt 1.121889 1.68953
vt 1.401658 1.268258
vt 3.678306 2.151642
vt 2.155425 0.9891401
vt 2.641091 -0.09868419
vt 3.225302 -0.4364276
vt 3.225302 -0.4364276
vt 3.080123 -0.7321154
vt 2.534366 -0.3863143
vt 2.641091 -0.09868419
vt -0.4947001 1.076791
vt -0.4393963 0.7880293
vt -0.7216469 0.7433568
vt -0.7728094 1.052629
vt 1.401658 1.268258
vt 1.625876 1.055932
vt 1.272651 0.6533725
vt 1.055578 0.84816
vt -2.284288 -0.2070662
vt -2.126144 -0.4660702
vt -2.371205 -0.6318244
vt -2.542601 -0.3817027
vt -2.126144 -0.4660702
vt -1.73096 -0.2765175
vt -2.307015 -0.9487874
vt -2.371205 -0.6318244
vt -1.757247 0.4232219
vt -1.342197 0.05752596
vt -2.17172 -1.256838
vt -1.887505 -1.426156
vt -1.025407 0.3371236
vt -0.7216469 0.7433568
vt -0.457655 0.1718048
vt -0.4393963 0.7880293
vt 0.7839972 0.3847902
vt 0.2002159 0.8566825
vt 1.272651 0.6533725
vt 1.563504 0.3322155
vt 1.625876 1.055932
vt 2.257892 -0.1433707
vt 2.324297 0.5862602
vt 2.534366 -0.3863143
vt 2.35154 -1.585556
vt 3.080123 -0.7321154
vt 3.124635 -1.112723
vn 0 1 0
vn 0 1 0
vn 0 1 0
vn 0 1 0
vn 0 1 0
vn 0 1 0
vn 0 1 0
vn 0 1 0
vn 0 1 0
vn 0 1 0
vn 0 1 0
vn 0 1 0
vn 0 1 0
vn 0 1 0
vn 0 1 0
vn 0 1 0
vn 0 1 0
vn 0 1 0
vn 0.5340286 0.1784379 -0.826422
vn 0.5340286 0.1784379 -0.826422
vn 0.5340286 0.1784379 -0.826422
vn 0.5340286 0.1784379 -0.826422
vn -0.06616355 0 -0.9978088
vn -0.06616355 0 -0.9978088
vn -0.06616355 0 -0.9978088
vn -0.06616355 0 -0.9978088
vn -0.8174555 0 -0.5759918
vn -0.8174555 0 -0.5759918
vn -0.8174555 0 -0.5759918
vn -0.8174555 0 -0.5759918
vn -0.5667466 0 -0.8238922
vn -0.5667466 0 -0.8238922
vn -0.5667466 0 -0.8238922
vn -0.5667466 0 -0.8238922
vn 0 1 0
vn 0 1 0
vn 0 1 0
vn 0 1 0
vn 0 1 0
vn 0 1 0
vn 0 1 0
vn 0 1 0
vn 0 1 0
vn 0 1 0
vn 0 1 0
vn 0 1 0
vn 0 1 0
vn 0 1 0
vn 0 1 0
vn 0 1 0
vn 0 1 0
vn 0 1 0
vn 0 1 0
vn 0 1 0
vn 0 1 0
vn 0 1 0
vn 0 1 0
g acid2_0
f 3/3/3 2/2/2 1/1/1
f 1/1/1 2/2/2 4/4/4
f 3/3/3 5/5/5 2/2/2
f 1/1/1 4/4/4 6/6/6
f 4/4/4 7/7/7 6/6/6
f 7/7/7 8/8/8 6/6/6
f 6/6/6 8/8/8 9/9/9
f 8/8/8 10/10/10 9/9/9
f 10/10/10 11/11/11 9/9/9
f 11/11/11 12/12/12 9/9/9
f 9/9/9 12/12/12 13/13/13
f 12/12/12 14/14/14 13/13/13
f 13/13/13 14/14/14 15/15/15
f 14/14/14 16/16/16 15/15/15
f 16/16/16 17/17/17 15/15/15
f 17/17/17 18/18/18 15/15/15
f 21/21/21 20/20/20 19/19/19
f 22/22/22 21/21/21 19/19/19
f 25/25/25 24/24/24 23/23/23
f 26/26/26 25/25/25 23/23/23
f 29/29/29 28/28/28 27/27/27
f 30/30/30 29/29/29 27/27/27
f 33/33/33 32/32/32 31/31/31
f 34/34/34 33/33/33 31/31/31
f 37/37/37 36/36/36 35/35/35
f 38/38/38 37/37/37 35/35/35
f 35/35/35 36/36/36 39/39/39
f 36/36/36 40/40/40 39/39/39
f 37/37/37 41/41/41 36/36/36
f 41/41/41 42/42/42 36/36/36
f 40/40/40 43/43/43 39/39/39
f 39/39/39 43/43/43 44/44/44
f 43/43/43 45/45/45 44/44/44
f 44/44/44 45/45/45 46/46/46
f 45/45/45 47/47/47 46/46/46
f 48/48/48 46/46/46 47/47/47
f 48/48/48 47/47/47 49/49/49
f 47/47/47 50/50/50 49/49/49
f 49/49/49 50/50/50 51/51/51
f 50/50/50 52/52/52 51/51/51
f 53/53/53 51/51/51 52/52/52
f 53/53/53 52/52/52 54/54/54
f 54/54/54 52/52/52 55/55/55
f 54/54/54 55/55/55 56/56/56
f 55/55/55 57/57/57 56/56/56
