g ArenaV2_MushroomsBottom
v -0.04363706 -0.02995783 -0.1552979
v -0.05471359 0.02349643 -0.1721924
v -0.1214799 0.01277402 -0.1547886
v -0.1125574 -0.02995787 -0.1406413
v -0.1796221 0.09714091 -0.1850838
v -0.1049556 0.0828976 -0.1712725
v -0.2161289 -0.02995781 -0.01362692
v -0.2357544 0.03756509 -0.01035558
v -0.1796221 0.09714091 -0.1850838
v -0.271118 0.1458694 -0.03186386
v 0.007699471 0.049547 -0.1907929
v 0.01491219 -0.02995779 -0.1680876
v 0.09736205 0.04727373 -0.18389
v 0.09682249 -0.02995777 -0.1691252
v 0.1001984 0.1626438 -0.1864464
v 0.03682585 0.147097 -0.1919059
v -0.1049556 0.0828976 -0.1712725
v -0.09273907 0.08436971 -0.1451211
v -0.1456273 0.129335 -0.1342698
v -0.1796221 0.09714091 -0.1850838
v -0.05471359 0.02349643 -0.1721924
v -0.05014717 0.03284192 -0.1172484
v -0.05014717 0.03284192 -0.1172484
v -0.02274819 -0.02995775 -0.07591253
v -0.07639233 -0.02995782 -0.06483822
v -0.1013136 0.02781609 -0.09374803
v -0.09273907 0.08436971 -0.1451211
v -0.1456273 0.129335 -0.1342698
v -0.1051092 -0.02995772 0.007802793
v -0.1518228 0.05271306 0.0069635
v -0.01645866 0.06206184 -0.1366685
v 0.03555668 -0.02995772 -0.05724084
v 0.0472143 0.0533029 -0.1116438
v 0.1141938 0.05113231 -0.07767176
v 0.07808298 -0.02995772 -0.02224713
v 0.1196232 0.125168 -0.1095477
v 0.08283864 0.1665429 -0.1400073
v 0.01921932 0.1488119 -0.1546939
v -0.2167519 0.1653345 -0.06498336
v -0.1731786 0.0893707 0.08807308
v -0.1983343 0.1378278 0.04972542
v -0.09847429 -0.02995772 0.05384208
v -0.05213864 -0.02995772 0.08360881
v -0.08172502 0.05724347 0.1524332
v -0.1695864 0.1745124 0.1368985
v -0.1167245 0.2008101 0.1747651
v -0.1796221 0.09714091 -0.1850838
v -0.1456273 0.129335 -0.1342698
v -0.2167519 0.1653345 -0.06498336
v -0.271118 0.1458694 -0.03186386
v -0.1983343 0.1378278 0.04972542
v -0.2375816 0.1346931 0.05562694
v 0.159453 0.04192841 -0.1310706
v 0.09736205 0.04727373 -0.18389
v 0.09682249 -0.02995777 -0.1691252
v 0.1562484 -0.02995778 -0.1118335
v 0.1550134 0.1226623 -0.1441369
v 0.1001984 0.1626438 -0.1864464
v 0.1550134 0.1226623 -0.1441369
v 0.1196232 0.125168 -0.1095477
v 0.08283864 0.1665429 -0.1400073
v 0.1001984 0.1626438 -0.1864464
v 0.03682585 0.147097 -0.1919059
v 0.01921932 0.1488119 -0.1546939
v -0.01645866 0.06206184 -0.1366685
v 0.007699471 0.049547 -0.1907929
v -0.05014717 0.03284192 -0.1172484
v -0.05471359 0.02349643 -0.1721924
v 0.1422859 0.04146012 -0.1019172
v 0.1141938 0.05113231 -0.07767176
v 0.1196232 0.125168 -0.1095477
v 0.1550134 0.1226623 -0.1441369
v 0.159453 0.04192841 -0.1310706
v 0.1459055 -0.02995776 -0.08322483
v 0.1562484 -0.02995778 -0.1118335
v 0.1001984 0.1626438 -0.1864464
v 0.08283864 0.1665429 -0.1400073
v 0.01921932 0.1488119 -0.1546939
v 0.03682585 0.147097 -0.1919059
v 0.1104489 -0.02995787 0.1440681
v 0.111816 0.03581592 0.1513688
v 0.1838082 0.0257907 0.02217943
v 0.169525 -0.02995783 0.01993335
v 0.1547499 -0.02995776 -0.05500304
v 0.1635984 0.03455257 -0.04985236
v 0.1958391 0.1677002 0.1132785
v 0.2096636 0.1502251 0.05902828
v 0.1459055 -0.02995776 -0.08322483
v 0.1422859 0.04146012 -0.1019172
v 0.03184145 -0.02995784 0.1826828
v 0.02412227 0.02677313 0.1967929
v 0.1330303 0.1580128 0.1830616
v 0.07258243 0.1209756 0.2012944
v -0.001307559 0.04347026 0.2241001
v 0.006463695 0.09008276 0.1688234
v -0.007269487 0.1058355 0.1740279
v -0.06779212 0.1567162 0.2289277
v -0.05545332 0.1651972 0.1871748
v -0.1336482 0.1948561 0.2168093
v -0.1167245 0.2008101 0.1747651
v 0.006649222 -0.02995779 0.2076259
v 0.2096636 0.1502251 0.05902828
v 0.1682904 0.1611657 0.03804106
v 0.1421283 0.05547527 -0.04918104
v 0.1635984 0.03455257 -0.04985236
v 0.1499833 0.1751182 0.08297706
v 0.09821074 0.1647405 0.1457384
v 0.07733185 0.02063794 0.1058411
v 0.1101133 0.04333995 0.03097922
v 0.1421283 0.05547527 -0.04918104
v 0.1682904 0.1611657 0.03804106
v 0.09378481 -0.02995774 0.02976472
v 0.07808298 -0.02995772 -0.02224713
v 0.1141938 0.05113231 -0.07767176
v 0.05125067 0.1370889 0.1669141
v 0.006463695 0.09008276 0.1688234
v 0.05992906 -0.02995783 0.07802898
v 0.007953133 -0.02995776 0.09531612
v -0.007269487 0.1058355 0.1740279
v -0.05213864 -0.02995772 0.08360881
v -0.08172502 0.05724347 0.1524332
v -0.1167245 0.2008101 0.1747651
v -0.05545332 0.1651972 0.1871748
v 0.1958391 0.1677002 0.1132785
v 0.1499833 0.1751182 0.08297706
v 0.1682904 0.1611657 0.03804106
v 0.2096636 0.1502251 0.05902828
v 0.09821074 0.1647405 0.1457384
v 0.1330303 0.1580128 0.1830616
v 0.07258243 0.1209756 0.2012944
v 0.05125067 0.1370889 0.1669141
v 0.1635984 0.03455257 -0.04985236
v 0.1421283 0.05547527 -0.04918104
v 0.1141938 0.05113231 -0.07767176
v 0.1422859 0.04146012 -0.1019172
v 0.02412227 0.02677313 0.1967929
v 0.006463695 0.09008276 0.1688234
v 0.05125067 0.1370889 0.1669141
v 0.07258243 0.1209756 0.2012944
v -0.2162901 0.05060275 0.1362415
v -0.1175014 0.04585216 0.1935347
v -0.1047728 -0.02995778 0.1801469
v -0.1925975 -0.02995777 0.1197022
v -0.194425 0.1727756 0.1734613
v -0.1695864 0.1745124 0.1368985
v -0.1167245 0.2008101 0.1747651
v -0.1336482 0.1948561 0.2168093
v -0.197156 0.06667862 0.09359843
v -0.1731786 0.0893707 0.08807308
v -0.2162901 0.05060275 0.1362415
v -0.1789525 -0.02995775 0.08619476
v -0.1925975 -0.02995777 0.1197022
v -0.194425 0.1727756 0.1734613
v -0.1336482 0.1948561 0.2168093
v -0.1175014 0.04585216 0.1935347
v -0.2162901 0.05060275 0.1362415
v -0.001307559 0.04347026 0.2241001
v 0.006649222 -0.02995779 0.2076259
v -0.1047728 -0.02995778 0.1801469
v -0.06779212 0.1567162 0.2289277
v -0.2375816 0.1346931 0.05562694
v -0.1983343 0.1378278 0.04972542
v -0.1731786 0.0893707 0.08807308
v -0.197156 0.06667862 0.09359843
v -0.2357544 0.03756509 -0.01035558
v -0.197156 0.06667862 0.09359843
v -0.1789525 -0.02995775 0.08619476
v -0.2161289 -0.02995781 -0.01362692
v -0.271118 0.1458694 -0.03186386
v -0.2375816 0.1346931 0.05562694
v -0.222802 0.4253713 -0.2007782
v -0.1895241 0.2519983 -0.05916046
v -0.2185813 0.1980316 -0.111365
v -0.2589986 0.3582232 -0.2658061
v -0.1529819 0.4726623 -0.1527404
v -0.1334546 0.2899757 -0.02058326
v -0.05832041 0.4941478 -0.1277349
v -0.05741809 0.3071918 -0.0004809417
v 0.04431536 0.4901329 -0.1262063
v 0.02503078 0.3039665 0.0007470332
v 0.1377112 0.4612907 -0.1484109
v 0.1000544 0.2808411 -0.01710545
v 0.205022 0.4086353 -0.1944063
v 0.1541089 0.2385558 -0.05404239
v 0.1804019 0.1824238 -0.1054226
v 0.2377814 0.3387897 -0.2584071
v 0.07460695 0.1477506 0.08485318
v 0.01159292 0.1671741 0.09984786
v -0.05765767 0.1698831 0.09881646
v -0.1215224 0.1554229 0.08193196
v 0.1200084 0.1122342 0.05382902
v -0.1686164 0.123525 0.04953022
v 0.1420926 0.0650878 0.01067371
v -0.1930222 0.07819714 0.005682536
v -0.1571065 0.02915421 0.1330525
v -0.1790831 -0.01165082 0.09498406
v -0.1152454 0.05750786 0.161854
v 0.09868478 0.01914795 0.1368622
v 0.1185296 -0.02329307 0.09941656
v 0.05832812 0.05071788 0.1644391
v 0.002523884 0.06745499 0.1786867
v -0.05875285 0.06985206 0.177774
vt 0.4877833 0.3680607
vt 0.4885077 0.3723359
vt 0.4861771 0.3714783
vt 0.4856396 0.3680607
vt 0.4864072 0.3782257
vt 0.4876354 0.3770865
vt 0.4784955 0.3680608
vt 0.4779006 0.373461
vt 0.4864072 0.3782257
vt 0.4778503 0.3821228
vt 0.490943 0.3744192
vt 0.489617 0.3680608
vt 0.4928371 0.3742374
vt 0.4915528 0.3680608
vt 0.4942489 0.3834644
vt 0.4926435 0.382221
vt 0.4876354 0.3770865
vt 0.4868957 0.3772043
vt 0.4853556 0.3808005
vt 0.4864072 0.3782257
vt 0.4885077 0.3723359
vt 0.4865426 0.3730833
vt 0.4865426 0.3730833
vt 0.485301 0.3680608
vt 0.4836449 0.3680608
vt 0.4843725 0.3726813
vt 0.4868957 0.3772043
vt 0.4853556 0.3808005
vt 0.4802659 0.3680608
vt 0.4792656 0.3746725
vt 0.488307 0.3754202
vt 0.4859537 0.3680608
vt 0.4888178 0.3747197
vt 0.4890997 0.3745461
vt 0.4856312 0.3680608
vt 0.4911315 0.3804672
vt 0.4918487 0.3837762
vt 0.49063 0.3823581
vt 0.4796637 0.3836796
vt 0.4754722 0.3776043
vt 0.4763257 0.3814797
vt 0.4786994 0.3680608
vt 0.4786604 0.3680608
vt 0.4752308 0.3750348
vt 0.4732886 0.3844136
vt 0.4729651 0.3865168
vt 0.4864072 0.3782257
vt 0.4853556 0.3808005
vt 0.4796637 0.3836796
vt 0.4778503 0.3821228
vt 0.4763257 0.3814797
vt 0.4750672 0.381229
vt 0.4922234 0.37381
vt 0.4928371 0.3742374
vt 0.4915528 0.3680608
vt 0.4907885 0.3680608
vt 0.4934502 0.3802668
vt 0.4942489 0.3834644
vt 0.4934502 0.3802668
vt 0.4911315 0.3804672
vt 0.4918487 0.3837762
vt 0.4942489 0.3834644
vt 0.4926435 0.382221
vt 0.49063 0.3823581
vt 0.488307 0.3754202
vt 0.490943 0.3744192
vt 0.4865426 0.3730833
vt 0.4885077 0.3723359
vt 0.4906608 0.3737725
vt 0.4890997 0.3745461
vt 0.4911315 0.3804672
vt 0.4934502 0.3802668
vt 0.4922234 0.37381
vt 0.4894801 0.3680608
vt 0.4907885 0.3680608
vt 0.4942489 0.3834644
vt 0.4918487 0.3837762
vt 0.49063 0.3823581
vt 0.4926435 0.382221
vt 0.4801669 0.3680607
vt 0.4798396 0.3733211
vt 0.4867206 0.3725194
vt 0.4861729 0.3680608
vt 0.4886305 0.3680608
vt 0.4890893 0.3732201
vt 0.483999 0.3830318
vt 0.4865052 0.3824712
vt 0.4894801 0.3680608
vt 0.4906608 0.3737725
vt 0.4769037 0.3680607
vt 0.4761258 0.3725979
vt 0.4793118 0.3826578
vt 0.4765055 0.3801319
vt 0.4744039 0.3739333
vt 0.4772701 0.3763313
vt 0.4761828 0.3785877
vt 0.4715099 0.3834175
vt 0.4741974 0.3836686
vt 0.4703338 0.3860406
vt 0.4729651 0.3865168
vt 0.4753884 0.3680608
vt 0.4865052 0.3824712
vt 0.4864682 0.3833462
vt 0.4882663 0.3748934
vt 0.4890893 0.3732201
vt 0.4843736 0.3844621
vt 0.4800337 0.3836321
vt 0.4809124 0.3721072
vt 0.4846839 0.3739228
vt 0.4882663 0.3748934
vt 0.4864682 0.3833462
vt 0.4840515 0.3680608
vt 0.4856312 0.3680608
vt 0.4890997 0.3745461
vt 0.4779085 0.3814206
vt 0.4772701 0.3763313
vt 0.4814642 0.3680608
vt 0.4796146 0.3680608
vt 0.4761828 0.3785877
vt 0.4786604 0.3680608
vt 0.4752308 0.3750348
vt 0.4729651 0.3865168
vt 0.4741974 0.3836686
vt 0.483999 0.3830318
vt 0.4843736 0.3844621
vt 0.4864682 0.3833462
vt 0.4865052 0.3824712
vt 0.4800337 0.3836321
vt 0.4793118 0.3826578
vt 0.4765055 0.3801319
vt 0.4779085 0.3814206
vt 0.4890893 0.3732201
vt 0.4882663 0.3748934
vt 0.4890997 0.3745461
vt 0.4906608 0.3737725
vt 0.4761258 0.3725979
vt 0.4772701 0.3763313
vt 0.4779085 0.3814206
vt 0.4765055 0.3801319
vt 0.4725962 0.3745037
vt 0.4726706 0.3741238
vt 0.4738346 0.3680608
vt 0.474059 0.3680608
vt 0.4706037 0.3842747
vt 0.4732886 0.3844136
vt 0.4729651 0.3865168
vt 0.4703338 0.3860406
vt 0.4747043 0.3757894
vt 0.4754722 0.3776043
vt 0.4725962 0.3745037
vt 0.4756269 0.3680608
vt 0.474059 0.3680608
vt 0.4706037 0.3842747
vt 0.4703338 0.3860406
vt 0.4726706 0.3741238
vt 0.4725962 0.3745037
vt 0.4744039 0.3739333
vt 0.4753884 0.3680608
vt 0.4738346 0.3680608
vt 0.4715099 0.3834175
vt 0.4750672 0.381229
vt 0.4763257 0.3814797
vt 0.4754722 0.3776043
vt 0.4747043 0.3757894
vt 0.4779006 0.373461
vt 0.4747043 0.3757894
vt 0.4756269 0.3680608
vt 0.4784955 0.3680608
vt 0.4778503 0.3821228
vt 0.4750672 0.381229
vt 0.4966401 0.369001
vt 0.4921819 0.3803345
vt 0.4954363 0.3818399
vt 0.4988034 0.3723243
vt 0.492251 0.3665182
vt 0.4886594 0.3792883
vt 0.4861885 0.365188
vt 0.4846854 0.3787085
vt 0.4795433 0.3650512
vt 0.4804622 0.3786212
vt 0.4734302 0.3661303
vt 0.4764703 0.3790367
vt 0.4689407 0.3684303
vt 0.4729123 0.3799371
vt 0.4696043 0.3813077
vt 0.4666397 0.3716617
vt 0.4769365 0.3879893
vt 0.4804653 0.3879244
vt 0.4842608 0.3880041
vt 0.4877925 0.3882163
vt 0.4739691 0.388203
vt 0.4907638 0.3885524
vt 0.4715209 0.3885378
vt 0.4932176 0.3889849
vt 0.4925766 0.3953992
vt 0.4942944 0.3954366
vt 0.4892271 0.3953263
vt 0.4718313 0.3949476
vt 0.4701572 0.3949112
vt 0.4751497 0.3950199
vt 0.4796958 0.3951188
vt 0.4846657 0.395227
vn -0.1831977 -0.3172122 -0.9304918
vn -0.1405759 -0.2913339 -0.9462363
vn -0.6382868 -0.3966792 -0.6597239
vn -0.6397271 -0.2911041 -0.7113422
vn -0.03028169 -0.2219601 -0.9745855
vn -0.03028169 -0.22196 -0.9745855
vn -0.7651318 -0.2563758 -0.5906308
vn -0.7755873 -0.4291229 -0.4629448
vn -0.7707676 -0.4851116 -0.4130182
vn -0.7707676 -0.4851116 -0.4130182
vn 0.008776901 -0.1657904 -0.986122
vn -0.04781932 -0.2596613 -0.964515
vn 0.3425456 -0.1240872 -0.9312706
vn 0.3576339 -0.2205983 -0.9074329
vn 0.3205786 -0.0431257 -0.9462397
vn 0.08303805 -0.02963228 -0.9961057
vn 0.5317143 0.7178863 -0.4493541
vn 0.6259065 0.6812897 -0.379586
vn -0.1645608 0.8041072 -0.5712542
vn -0.1393567 0.8069854 -0.5738941
vn 0.7725027 0.5885687 -0.2383827
vn 0.7725027 0.5885687 -0.2383828
vn 0.262212 0.5695055 0.7790431
vn -0.08910273 0.568044 0.8181605
vn 0.6615805 0.5490711 0.5107173
vn 0.6816852 0.5655301 0.4641993
vn 0.4459151 0.5638575 0.6951435
vn 0.7309003 0.5683824 0.3777913
vn 0.8492212 0.5091571 0.1399374
vn 0.8333469 0.5306076 0.1548825
vn -0.261287 0.4401072 0.8590895
vn -0.3440025 0.5719547 0.7446677
vn -0.3341378 0.457781 0.8238863
vn -0.4400782 0.5063488 0.7415808
vn -0.7294774 0.5795118 0.3633577
vn -0.3796789 0.3576674 0.8531811
vn -0.3378555 0.3354521 0.8793894
vn -0.3027629 0.3164702 0.8989891
vn 0.7992819 0.5484301 0.2457089
vn 0.7442507 0.4910141 -0.452765
vn 0.8754825 0.4831575 -0.009442598
vn 0.7004144 0.5845204 -0.4095798
vn 0.2977301 0.5919927 -0.7489335
vn 0.3391528 0.4831109 -0.8072047
vn 0.5569574 0.3155157 -0.7682762
vn 0.4543606 0.3002948 -0.8386773
vn -0.1393567 0.8069854 -0.5738941
vn -0.1645608 0.8041072 -0.5712542
vn -0.3098816 0.8753147 -0.371211
vn -0.2310918 0.9712029 -0.05797816
vn -0.1205036 0.8683932 0.4810115
vn -0.1278193 0.9055018 0.4046338
vn 0.6387174 -0.1239984 -0.7593843
vn 0.3425456 -0.1240872 -0.9312706
vn 0.3576339 -0.2205983 -0.9074329
vn 0.6556312 -0.1834762 -0.7324508
vn 0.6166087 -0.05750968 -0.7851665
vn 0.3205786 -0.0431257 -0.9462397
vn 0.511589 0.8161904 0.2685329
vn 0.5115891 0.8161904 0.268533
vn 0.511589 0.8161904 0.268533
vn 0.5115891 0.8161904 0.268533
vn -0.8627473 0.2582186 -0.4347301
vn -0.8627473 0.2582185 -0.4347301
vn -0.7563882 0.5394047 -0.3700261
vn -0.806199 0.4365767 -0.3993044
vn -0.5563871 0.789777 -0.2582357
vn -0.5563872 0.789777 -0.2582358
vn 0.7891135 0.1905823 0.5839335
vn 0.6837017 0.2476762 0.6864462
vn 0.6837016 0.2476761 0.6864462
vn 0.7040519 0.2360297 0.6697768
vn 0.8786175 0.1215313 0.4618025
vn 0.8963923 0.1158405 0.4278571
vn 0.8963923 0.1158405 0.4278572
vn -0.2265482 0.9609035 -0.1591861
vn -0.2265482 0.9609035 -0.1591861
vn -0.2265482 0.9609035 -0.1591861
vn -0.2265482 0.9609035 -0.1591861
vn 0.7473084 -0.148344 0.647707
vn 0.7049254 -0.2748085 0.6538811
vn 0.9356553 -0.2409169 0.2578921
vn 0.9590951 -0.165516 0.2296544
vn 0.9488966 -0.1286943 -0.2881542
vn 0.9687406 -0.1560337 -0.1928604
vn 0.8312771 -0.3275716 0.4490826
vn 0.9805285 -0.1929993 -0.03626218
vn 0.9317203 -0.07131845 -0.3561051
vn 0.9317203 -0.07131844 -0.3561051
vn 0.5118464 -0.1208634 0.8505323
vn 0.55877 -0.1185154 0.8208107
vn 0.7140693 -0.336132 0.6141011
vn 0.4521359 -0.2868354 0.84457
vn 0.7798933 0.3568943 0.5141915
vn 0.7607074 0.4395606 0.4776092
vn 0.7737987 0.4667821 0.4281938
vn 0.6689422 0.6356288 0.3853471
vn 0.6767662 0.6256815 0.3879563
vn 0.07049786 0.9896418 0.1250562
vn 0.04878956 0.9922557 0.1142283
vn 0.7026875 -0.08145642 0.7068204
vn 0.4389092 0.7176565 -0.5406735
vn 0.4563591 0.6544908 -0.6028087
vn 0.4824079 0.4873787 -0.7278357
vn 0.4824079 0.4873787 -0.7278356
vn -0.8383915 0.3648124 -0.4049834
vn -0.7495175 0.338339 -0.5689905
vn -0.6415637 0.4104473 -0.6480193
vn -0.859822 0.3865011 -0.3336509
vn -0.8626414 0.4843405 -0.1458223
vn -0.8343238 0.4324429 -0.3419023
vn -0.8906065 0.3961341 -0.2233786
vn -0.7294774 0.5795118 0.3633577
vn -0.4400782 0.5063488 0.7415808
vn -0.4707089 0.3248001 -0.8203279
vn -0.3359653 0.4055268 -0.8501031
vn -0.5438142 0.4681031 -0.696524
vn -0.1040741 0.5392439 -0.835694
vn 0.1222703 0.4037946 -0.906642
vn 0.2977301 0.5919927 -0.7489335
vn 0.3391528 0.4831109 -0.8072047
vn 0.4543606 0.3002948 -0.8386773
vn 0.2124178 0.2521325 -0.944091
vn 0.1290901 0.9905463 0.04640985
vn 0.1386583 0.9897501 0.03418559
vn 0.4563591 0.6544908 -0.6028087
vn 0.4389092 0.7176565 -0.5406735
vn -0.1108561 0.9428747 0.314163
vn -0.09423871 0.9500087 0.2976618
vn -0.4618732 0.5601444 0.6876855
vn -0.4594186 0.5656143 0.6848466
vn 0.4241292 0.8755352 -0.2314142
vn 0.4241291 0.8755352 -0.2314142
vn 0.4241291 0.8755352 -0.2314142
vn 0.4241291 0.8755352 -0.2314142
vn -0.5379508 0.3410846 0.7708892
vn -0.5379508 0.3410846 0.7708892
vn -0.4594186 0.5656143 0.6848466
vn -0.4618732 0.5601444 0.6876855
vn -0.5147636 -0.2189855 0.8288931
vn -0.3929728 -0.2123484 0.8946957
vn -0.3782852 -0.2508348 0.8910568
vn -0.5179353 -0.2756196 0.8098004
vn -0.607538 0.7160627 -0.3437321
vn -0.6067067 0.6778606 -0.4152251
vn 0.04878956 0.9922557 0.1142283
vn 0.07049786 0.9896418 0.1250562
vn -0.87721 0.1531176 -0.455036
vn -0.7044448 0.4121342 -0.5778434
vn -0.9239919 0.02131485 -0.3818176
vn -0.8950816 -0.1551452 -0.4180417
vn -0.8950816 -0.1551452 -0.4180417
vn -0.5112549 -0.1768391 0.8410388
vn -0.4127767 -0.1815472 0.8925559
vn -0.3929728 -0.2123484 0.8946957
vn -0.5147636 -0.2189855 0.8288931
vn -0.2522568 -0.2052226 0.945648
vn -0.2430881 -0.2226072 0.9441156
vn -0.3782852 -0.2508348 0.8910568
vn -0.2630716 -0.184369 0.946996
vn -0.1278193 0.9055018 0.4046338
vn -0.1205036 0.8683932 0.4810115
vn -0.06008116 0.5231997 0.8500896
vn -0.06008116 0.5231997 0.8500896
vn -0.8977543 -0.2467228 0.3649179
vn -0.8977318 -0.2468393 0.3648943
vn -0.9005772 -0.2314567 0.3679518
vn -0.9005772 -0.2314567 0.3679518
vn -0.8945825 -0.2625231 0.3616681
vn -0.8945825 -0.2625231 0.3616681
vn -0.8374884 0.3405909 0.4273301
vn -0.8254955 0.2521687 0.5049436
vn -0.9654112 0.005912028 0.2606647
vn -0.9797309 0.08649621 0.1806811
vn -0.5137197 0.5598879 0.6500904
vn -0.5074222 0.4676083 0.7237855
vn -0.1549159 0.6451653 0.7481729
vn -0.1558832 0.5542269 0.8176386
vn 0.1825145 0.6319655 0.7531986
vn 0.1743105 0.54131 0.8225565
vn 0.5363197 0.5188115 0.6657295
vn 0.5206456 0.4273913 0.7390973
vn 0.8484523 0.2746387 0.4524404
vn 0.8272877 0.1875136 0.52956
vn 0.9547449 -0.06920229 0.2892632
vn 0.9776865 0.009924243 0.2098346
vn 0.5324866 0.4951631 0.6864923
vn 0.180306 0.6095543 0.7719672
vn -0.1550235 0.6226721 0.7669728
vn -0.5123646 0.5360366 0.6709303
vn 0.8441586 0.2513506 0.4735178
vn -0.8356554 0.317063 0.4484988
vn 0.9730748 -0.01060693 0.2302454
vn -0.9773458 0.06569134 0.201196
vn -0.7740256 0.09725349 0.6256406
vn -0.9093678 -0.1279542 0.3958254
vn -0.4865752 0.2919512 0.823413
vn 0.7603097 0.03723202 0.6484928
vn 0.8844234 -0.1981252 0.4225419
vn 0.4831901 0.2540151 0.8378565
vn 0.1622334 0.3668242 0.9160351
vn -0.1602555 0.3794395 0.9112321
g ArenaV2_MushroomsBottom_0
f 3/3/3 2/2/2 1/1/1
f 4/4/4 3/3/3 1/1/1
f 3/3/3 5/5/5 2/2/2
f 5/5/5 6/6/6 2/2/2
f 4/4/4 7/7/7 3/3/3
f 7/7/7 8/8/8 3/3/3
f 3/3/3 8/8/8 9/9/9
f 8/8/8 10/10/10 9/9/9
f 1/1/1 2/2/2 11/11/11
f 12/12/12 1/1/1 11/11/11
f 12/12/12 11/11/11 13/13/13
f 14/14/14 12/12/12 13/13/13
f 13/13/13 11/11/11 15/15/15
f 11/11/11 16/16/16 15/15/15
f 19/19/19 18/18/18 17/17/17
f 20/20/20 19/19/19 17/17/17
f 17/17/17 18/18/18 21/21/21
f 18/18/18 22/22/22 21/21/21
f 25/25/25 24/24/24 23/23/23
f 26/26/26 25/25/25 23/23/23
f 23/23/23 27/27/27 26/26/26
f 27/27/27 28/28/28 26/26/26
f 25/25/25 26/26/26 29/29/29
f 26/26/26 30/30/30 29/29/29
f 30/30/30 26/26/26 28/28/28
f 31/31/31 23/23/23 24/24/24
f 31/31/31 24/24/24 32/32/32
f 33/33/33 31/31/31 32/32/32
f 33/33/33 32/32/32 34/34/34
f 32/32/32 35/35/35 34/34/34
f 34/34/34 36/36/36 33/33/33
f 36/36/36 37/37/37 33/33/33
f 33/33/33 37/37/37 31/31/31
f 37/37/37 38/38/38 31/31/31
f 39/39/39 30/30/30 28/28/28
f 30/30/30 39/39/39 40/40/40
f 30/30/30 40/40/40 29/29/29
f 39/39/39 41/41/41 40/40/40
f 40/40/40 42/42/42 29/29/29
f 43/43/43 42/42/42 40/40/40
f 44/44/44 43/43/43 40/40/40
f 40/40/40 45/45/45 44/44/44
f 45/45/45 46/46/46 44/44/44
f 49/49/49 48/48/48 47/47/47
f 50/50/50 49/49/49 47/47/47
f 51/51/51 49/49/49 50/50/50
f 52/52/52 51/51/51 50/50/50
f 55/55/55 54/54/54 53/53/53
f 56/56/56 55/55/55 53/53/53
f 53/53/53 54/54/54 57/57/57
f 54/54/54 58/58/58 57/57/57
f 61/61/61 60/60/60 59/59/59
f 62/62/62 61/61/61 59/59/59
f 65/65/65 64/64/64 63/63/63
f 66/66/66 65/65/65 63/63/63
f 67/67/67 65/65/65 66/66/66
f 68/68/68 67/67/67 66/66/66
f 71/71/71 70/70/70 69/69/69
f 72/72/72 71/71/71 69/69/69
f 73/73/73 72/72/72 69/69/69
f 73/73/73 69/69/69 74/74/74
f 75/75/75 73/73/73 74/74/74
f 78/78/78 77/77/77 76/76/76
f 79/79/79 78/78/78 76/76/76
f 82/82/82 81/81/81 80/80/80
f 83/83/83 82/82/82 80/80/80
f 83/83/83 84/84/84 82/82/82
f 84/84/84 85/85/85 82/82/82
f 82/82/82 85/85/85 86/86/86
f 81/81/81 82/82/82 86/86/86
f 85/85/85 87/87/87 86/86/86
f 85/85/85 84/84/84 88/88/88
f 89/89/89 85/85/85 88/88/88
f 80/80/80 81/81/81 90/90/90
f 81/81/81 91/91/91 90/90/90
f 81/81/81 92/92/92 91/91/91
f 92/92/92 81/81/81 86/86/86
f 92/92/92 93/93/93 91/91/91
f 90/90/90 91/91/91 94/94/94
f 91/91/91 95/95/95 94/94/94
f 95/95/95 96/96/96 94/94/94
f 94/94/94 96/96/96 97/97/97
f 96/96/96 98/98/98 97/97/97
f 97/97/97 98/98/98 99/99/99
f 98/98/98 100/100/100 99/99/99
f 101/101/101 90/90/90 94/94/94
f 104/104/104 103/103/103 102/102/102
f 105/105/105 104/104/104 102/102/102
f 108/108/108 107/107/107 106/106/106
f 109/109/109 108/108/108 106/106/106
f 109/109/109 106/106/106 110/110/110
f 106/106/106 111/111/111 110/110/110
f 109/109/109 110/110/110 112/112/112
f 110/110/110 113/113/113 112/112/112
f 113/113/113 110/110/110 114/114/114
f 115/115/115 107/107/107 108/108/108
f 116/116/116 115/115/115 108/108/108
f 108/108/108 117/117/117 116/116/116
f 109/109/109 112/112/112 117/117/117
f 108/108/108 109/109/109 117/117/117
f 117/117/117 118/118/118 116/116/116
f 119/119/119 116/116/116 118/118/118
f 119/119/119 118/118/118 120/120/120
f 121/121/121 119/119/119 120/120/120
f 121/121/121 122/122/122 119/119/119
f 122/122/122 123/123/123 119/119/119
f 126/126/126 125/125/125 124/124/124
f 127/127/127 126/126/126 124/124/124
f 124/124/124 125/125/125 128/128/128
f 129/129/129 124/124/124 128/128/128
f 129/129/129 128/128/128 130/130/130
f 128/128/128 131/131/131 130/130/130
f 134/134/134 133/133/133 132/132/132
f 135/135/135 134/134/134 132/132/132
f 138/138/138 137/137/137 136/136/136
f 139/139/139 138/138/138 136/136/136
f 142/142/142 141/141/141 140/140/140
f 143/143/143 142/142/142 140/140/140
f 146/146/146 145/145/145 144/144/144
f 147/147/147 146/146/146 144/144/144
f 144/144/144 145/145/145 148/148/148
f 145/145/145 149/149/149 148/148/148
f 150/150/150 144/144/144 148/148/148
f 150/150/150 148/148/148 151/151/151
f 152/152/152 150/150/150 151/151/151
f 155/155/155 154/154/154 153/153/153
f 156/156/156 155/155/155 153/153/153
f 155/155/155 157/157/157 154/154/154
f 158/158/158 157/157/157 155/155/155
f 159/159/159 158/158/158 155/155/155
f 157/157/157 160/160/160 154/154/154
f 163/163/163 162/162/162 161/161/161
f 164/164/164 163/163/163 161/161/161
f 167/167/167 166/166/166 165/165/165
f 168/168/168 167/167/167 165/165/165
f 165/165/165 166/166/166 169/169/169
f 166/166/166 170/170/170 169/169/169
f 173/173/173 172/172/172 171/171/171
f 174/174/174 173/173/173 171/171/171
f 171/171/171 172/172/172 175/175/175
f 172/172/172 176/176/176 175/175/175
f 175/175/175 176/176/176 177/177/177
f 176/176/176 178/178/178 177/177/177
f 177/177/177 178/178/178 179/179/179
f 178/178/178 180/180/180 179/179/179
f 179/179/179 180/180/180 181/181/181
f 180/180/180 182/182/182 181/181/181
f 181/181/181 182/182/182 183/183/183
f 182/182/182 184/184/184 183/183/183
f 183/183/183 184/184/184 185/185/185
f 186/186/186 183/183/183 185/185/185
f 187/187/187 182/182/182 180/180/180
f 182/182/182 187/187/187 184/184/184
f 188/188/188 187/187/187 180/180/180
f 188/188/188 180/180/180 178/178/178
f 189/189/189 188/188/188 178/178/178
f 178/178/178 176/176/176 190/190/190
f 189/189/189 178/178/178 190/190/190
f 187/187/187 191/191/191 184/184/184
f 190/190/190 176/176/176 172/172/172
f 192/192/192 190/190/190 172/172/172
f 193/193/193 185/185/185 184/184/184
f 191/191/191 193/193/193 184/184/184
f 192/192/192 172/172/172 173/173/173
f 194/194/194 192/192/192 173/173/173
f 195/195/195 192/192/192 194/194/194
f 196/196/196 195/195/195 194/194/194
f 192/192/192 195/195/195 197/197/197
f 190/190/190 192/192/192 197/197/197
f 189/189/189 190/190/190 197/197/197
f 193/193/193 191/191/191 198/198/198
f 199/199/199 193/193/193 198/198/198
f 191/191/191 187/187/187 200/200/200
f 198/198/198 191/191/191 200/200/200
f 200/200/200 187/187/187 201/201/201
f 187/187/187 188/188/188 201/201/201
f 201/201/201 188/188/188 202/202/202
f 188/188/188 189/189/189 202/202/202
f 202/202/202 189/189/189 197/197/197
