g ArenaV4_Liquidv1
v -0.6399521 -3.585329E-16 0.5100225
v -0.6235853 -3.366276E-16 0.4195796
v -0.295144 -4.690381E-16 0.5089409
v -0.5349178 -2.822825E-16 0.1783767
v -0.2267979 -4.081932E-16 0.3230187
v -0.4059979 -2.339902E-16 -0.04393053
v -0.127425 -3.520138E-16 0.1516615
v -0.2406857 -1.907201E-16 -0.2406857
v -1.126708E-16 -2.997056E-16 1.192093E-07
v -0.04393047 -1.512917E-16 -0.405998
v 0.1516615 -2.503585E-16 -0.1274247
v 0.1783767 -1.14409E-16 -0.534918
v 0.3230187 -2.029738E-16 -0.2267981
v 0.4195795 -7.870025E-17 -0.6235856
v 0.5089411 -1.56494E-16 -0.2951443
v -0.9847598 -2.369969E-16 0.511104
v -0.9520268 -2.04217E-16 0.3302181
v -0.8430376 -1.563718E-16 0.03373468
v -0.684571 -1.159666E-16 -0.2395225
v -0.4813712 -8.173466E-17 -0.4813712
v -0.2395223 -5.222478E-17 -0.6845709
v 0.03373468 -2.58442E-17 -0.8430378
v 0.3302181 -9.065363E-19 -0.9520268
v -1.329567 -1.096307E-16 0.5121856
v -1.280468 -7.18064E-17 0.2408567
v -1.151158 -3.046114E-17 -0.1109075
v -0.9631441 2.057053E-18 -0.4351143
v -0.7220569 2.725081E-17 -0.722057
v -0.4351144 4.68421E-17 -0.9631442
v -0.1109073 6.272062E-17 -1.151158
v 0.2408566 7.688719E-17 -1.280468
v -1.674375 2.119028E-17 0.5132669
v -1.608909 6.060418E-17 0.1514953
v -1.459277 9.544954E-17 -0.2555493
v -1.241717 1.200806E-16 -0.6307062
v -0.9627425 1.362363E-16 -0.9627425
v -0.6307062 1.45909E-16 -1.241717
v -0.2555492 1.512854E-16 -1.459277
v 0.1514952 1.546809E-16 -1.608909
v -2.019183 1.542267E-16 0.5143482
v -1.937351 1.930148E-16 0.06213379
v -1.767397 2.213602E-16 -0.4001914
v -1.52029 2.381042E-16 -0.8262981
v -1.203428 2.452217E-16 -1.203428
v -0.826298 2.449758E-16 -1.52029
v -0.4001913 2.398502E-16 -1.767397
v 0.06213379 2.324746E-16 -1.937351
v -2.363991 2.88769E-16 0.5154299
v -2.265792 3.254254E-16 -0.02722752
v -2.075517 3.472709E-16 -0.5448335
v -1.798863 3.561279E-16 -1.02189
v -1.444114 3.542072E-16 -1.444114
v -1.02189 3.440427E-16 -1.798863
v -0.5448337 3.284151E-16 -2.075517
v -0.0272274 3.102684E-16 -2.265792
v 0.407887 2.961193E-16 -2.34453
v 0.4247293 2.272916E-16 -2.002965
v 0.4415717 1.572566E-16 -1.661401
v 0.4584138 8.544507E-17 -1.319837
v 0.4752562 1.086344E-17 -0.9782728
v 0.4920986 -6.839295E-17 -0.6367084
vt 0.07723655 0.5893649
vt 0.1129388 0.5893649
vt 0.1129388 0.5084316
vt 0.2127618 0.5893649
vt 0.2127618 0.5084316
vt 0.3125848 0.5893649
vt 0.3125848 0.5084316
vt 0.4124078 0.5893649
vt 0.4124078 0.5084316
vt 0.5122308 0.5893649
vt 0.5122308 0.5084316
vt 0.6120538 0.5893649
vt 0.6120538 0.5084316
vt 0.7118767 0.5893649
vt 0.7118767 0.5084316
vt 0.05484797 0.6702983
vt 0.1129388 0.6702983
vt 0.2127618 0.6702983
vt 0.3125848 0.6702983
vt 0.4124078 0.6702983
vt 0.5122308 0.6702983
vt 0.6120538 0.6702983
vt 0.7118767 0.6702983
vt 0.03949619 0.7512318
vt 0.1129388 0.7512318
vt 0.2127618 0.7512318
vt 0.3125848 0.7512318
vt 0.4124078 0.7512318
vt 0.5122308 0.7512318
vt 0.6120538 0.7512318
vt 0.7118767 0.7512318
vt 0.0283143 0.8321651
vt 0.1129388 0.8321651
vt 0.2127618 0.8321651
vt 0.3125848 0.8321651
vt 0.4124078 0.8321651
vt 0.5122308 0.8321651
vt 0.6120538 0.8321651
vt 0.7118767 0.8321651
vt 0.01980643 0.9130987
vt 0.1129388 0.9130987
vt 0.2127618 0.9130987
vt 0.3125848 0.9130987
vt 0.4124078 0.9130987
vt 0.5122308 0.9130987
vt 0.6120538 0.9130987
vt 0.7118767 0.9130987
vt 0.01311587 0.994032
vt 0.1129388 0.994032
vt 0.2127618 0.994032
vt 0.3125848 0.994032
vt 0.4124078 0.994032
vt 0.5122308 0.994032
vt 0.6120538 0.994032
vt 0.7118767 0.994032
vt 0.7919169 0.994032
vt 0.7865523 0.9130987
vt 0.7797305 0.8321651
vt 0.7707646 0.7512318
vt 0.7584552 0.6702983
vt 0.7405036 0.5893649
vn 0 1 0
vn 0 1 0
vn 0 1 0
vn 0 1 0
vn 0 1 0
vn 0 1 0
vn 0 1 0
vn 0 1 0
vn 0 1 0
vn 0 1 0
vn 0 1 0
vn 0 1 0
vn 0 1 0
vn 0 1 0
vn 0 1 0
vn 0 1 0
vn 0 1 0
vn 0 1 0
vn 0 1 0
vn 0 1 0
vn 0 1 0
vn 0 1 0
vn 0 1 0
vn 0 1 0
vn 0 1 0
vn 0 1 0
vn 0 1 0
vn 0 1 0
vn 0 1 0
vn 0 1 0
vn 0 1 0
vn 0 1 0
vn 0 1 0
vn 0 1 0
vn 0 1 0
vn 0 1 0
vn 0 1 0
vn 0 1 0
vn 0 1 0
vn 0 1 0
vn 0 1 0
vn 0 1 0
vn 0 1 0
vn 0 1 0
vn 0 1 0
vn 0 1 0
vn 0 1 0
vn 0 1 0
vn 0 1 0
vn 0 1 0
vn 0 1 0
vn 0 1 0
vn 0 1 0
vn 0 1 0
vn 0 1 0
vn 0 1 0
vn 0 1 0
vn 0 1 0
vn 0 1 0
vn 0 1 0
vn 0 1 0
g ArenaV4_Liquidv1_0
f 3/3/3 2/2/2 1/1/1
f 4/4/4 2/2/2 3/3/3
f 5/5/5 4/4/4 3/3/3
f 6/6/6 4/4/4 5/5/5
f 7/7/7 6/6/6 5/5/5
f 8/8/8 6/6/6 7/7/7
f 9/9/9 8/8/8 7/7/7
f 10/10/10 8/8/8 9/9/9
f 11/11/11 10/10/10 9/9/9
f 12/12/12 10/10/10 11/11/11
f 13/13/13 12/12/12 11/11/11
f 14/14/14 12/12/12 13/13/13
f 15/15/15 14/14/14 13/13/13
f 1/1/1 2/2/2 16/16/16
f 2/2/2 17/17/17 16/16/16
f 18/18/18 17/17/17 2/2/2
f 4/4/4 18/18/18 2/2/2
f 19/19/19 18/18/18 4/4/4
f 6/6/6 19/19/19 4/4/4
f 20/20/20 19/19/19 6/6/6
f 8/8/8 20/20/20 6/6/6
f 21/21/21 20/20/20 8/8/8
f 10/10/10 21/21/21 8/8/8
f 22/22/22 21/21/21 10/10/10
f 12/12/12 22/22/22 10/10/10
f 23/23/23 22/22/22 12/12/12
f 14/14/14 23/23/23 12/12/12
f 16/16/16 17/17/17 24/24/24
f 17/17/17 25/25/25 24/24/24
f 26/26/26 25/25/25 17/17/17
f 18/18/18 26/26/26 17/17/17
f 27/27/27 26/26/26 18/18/18
f 19/19/19 27/27/27 18/18/18
f 28/28/28 27/27/27 19/19/19
f 20/20/20 28/28/28 19/19/19
f 29/29/29 28/28/28 20/20/20
f 21/21/21 29/29/29 20/20/20
f 30/30/30 29/29/29 21/21/21
f 22/22/22 30/30/30 21/21/21
f 31/31/31 30/30/30 22/22/22
f 23/23/23 31/31/31 22/22/22
f 24/24/24 25/25/25 32/32/32
f 25/25/25 33/33/33 32/32/32
f 34/34/34 33/33/33 25/25/25
f 26/26/26 34/34/34 25/25/25
f 35/35/35 34/34/34 26/26/26
f 27/27/27 35/35/35 26/26/26
f 36/36/36 35/35/35 27/27/27
f 28/28/28 36/36/36 27/27/27
f 37/37/37 36/36/36 28/28/28
f 29/29/29 37/37/37 28/28/28
f 38/38/38 37/37/37 29/29/29
f 30/30/30 38/38/38 29/29/29
f 39/39/39 38/38/38 30/30/30
f 31/31/31 39/39/39 30/30/30
f 32/32/32 33/33/33 40/40/40
f 33/33/33 41/41/41 40/40/40
f 42/42/42 41/41/41 33/33/33
f 34/34/34 42/42/42 33/33/33
f 43/43/43 42/42/42 34/34/34
f 35/35/35 43/43/43 34/34/34
f 44/44/44 43/43/43 35/35/35
f 36/36/36 44/44/44 35/35/35
f 45/45/45 44/44/44 36/36/36
f 37/37/37 45/45/45 36/36/36
f 46/46/46 45/45/45 37/37/37
f 38/38/38 46/46/46 37/37/37
f 47/47/47 46/46/46 38/38/38
f 39/39/39 47/47/47 38/38/38
f 40/40/40 41/41/41 48/48/48
f 41/41/41 49/49/49 48/48/48
f 50/50/50 49/49/49 41/41/41
f 42/42/42 50/50/50 41/41/41
f 51/51/51 50/50/50 42/42/42
f 43/43/43 51/51/51 42/42/42
f 52/52/52 51/51/51 43/43/43
f 44/44/44 52/52/52 43/43/43
f 53/53/53 52/52/52 44/44/44
f 45/45/45 53/53/53 44/44/44
f 54/54/54 53/53/53 45/45/45
f 46/46/46 54/54/54 45/45/45
f 55/55/55 54/54/54 46/46/46
f 47/47/47 55/55/55 46/46/46
f 56/56/56 55/55/55 47/47/47
f 57/57/57 56/56/56 47/47/47
f 57/57/57 47/47/47 39/39/39
f 58/58/58 57/57/57 39/39/39
f 58/58/58 39/39/39 31/31/31
f 59/59/59 58/58/58 31/31/31
f 59/59/59 31/31/31 23/23/23
f 60/60/60 59/59/59 23/23/23
f 60/60/60 23/23/23 14/14/14
f 61/61/61 60/60/60 14/14/14
f 61/61/61 14/14/14 15/15/15
