g ArenaV8_LogSpikes02
v 0.9171361 -0.01428138 -0.2241693
v 0.8470718 0.1521152 -0.4681624
v 0.7770078 -0.01428138 -0.2241693
v 0.7770078 -0.01428138 -0.2241693
v 0.8470718 0.1521152 -0.4681624
v 0.7770078 0.1433172 -0.1729625
v 0.7770078 0.1433172 -0.1729625
v 0.8470718 0.1521152 -0.4681624
v 0.9171374 0.1433172 -0.1729625
v 0.9171374 0.1433172 -0.1729625
v 0.8470718 0.1521152 -0.4681624
v 0.9171361 -0.01428138 -0.2241693
v 0.9171361 0.2087844 -0.08285463
v 0.8470718 0.492255 -1.192093E-07
v 0.7770078 0.2087844 -0.08285463
v 0.7770078 0.2087844 -0.08285463
v 0.8470718 0.492255 -1.192093E-07
v 0.7770078 0.2087844 0.08285436
v 0.7770078 0.2087844 0.08285436
v 0.8470718 0.492255 -1.192093E-07
v 0.9171374 0.2087844 0.08285436
v 0.9171374 0.2087844 0.08285436
v 0.8470718 0.492255 -1.192093E-07
v 0.9171361 0.2087844 -0.08285463
v 0.9171361 0.1433172 0.1729622
v 0.8470718 0.1521152 0.4681622
v 0.7770078 0.1433172 0.1729622
v 0.7770078 0.1433172 0.1729622
v 0.8470718 0.1521152 0.4681622
v 0.7770078 -0.01428138 0.2241691
v 0.7770078 -0.01428138 0.2241691
v 0.8470718 0.1521152 0.4681622
v 0.9171374 -0.01428138 0.2241691
v 0.9171374 -0.01428138 0.2241691
v 0.8470718 0.1521152 0.4681622
v 0.9171361 0.1433172 0.1729622
v 0.9171361 -0.1202095 0.189751
v 0.8470718 -0.3982427 0.2893401
v 0.7770078 -0.1202095 0.189751
v 0.7770078 -0.1202095 0.189751
v 0.8470718 -0.3982427 0.2893401
v 0.7770078 -0.2176108 0.05568956
v 0.7770078 -0.2176108 0.05568956
v 0.8470718 -0.3982427 0.2893401
v 0.9171374 -0.2176108 0.05568956
v 0.9171374 -0.2176108 0.05568956
v 0.8470718 -0.3982427 0.2893401
v 0.9171361 -0.1202095 0.189751
v 0.9171361 -0.2176108 -0.05568983
v 0.8470718 -0.3982426 -0.2893404
v 0.7770078 -0.2176108 -0.05568983
v 0.7770078 -0.2176108 -0.05568983
v 0.8470718 -0.3982426 -0.2893404
v 0.7770078 -0.1202095 -0.1897512
v 0.7770078 -0.1202095 -0.1897512
v 0.8470718 -0.3982426 -0.2893404
v 0.9171374 -0.1202095 -0.1897512
v 0.9171374 -0.1202095 -0.1897512
v 0.8470718 -0.3982426 -0.2893404
v 0.9171361 -0.2176108 -0.05568983
v 2.455071 -0.01428138 -0.2241693
v 2.385007 0.1521152 -0.4681624
v 2.314943 -0.01428138 -0.2241693
v 2.314943 -0.01428138 -0.2241693
v 2.385007 0.1521152 -0.4681624
v 2.314943 0.1433172 -0.1729625
v 2.314943 0.1433172 -0.1729625
v 2.385007 0.1521152 -0.4681624
v 2.455072 0.1433172 -0.1729625
v 2.455072 0.1433172 -0.1729625
v 2.385007 0.1521152 -0.4681624
v 2.455071 -0.01428138 -0.2241693
v 2.455071 0.2087844 -0.08285463
v 2.385007 0.492255 -1.192093E-07
v 2.314943 0.2087844 -0.08285463
v 2.314943 0.2087844 -0.08285463
v 2.385007 0.492255 -1.192093E-07
v 2.314943 0.2087844 0.08285436
v 2.314943 0.2087844 0.08285436
v 2.385007 0.492255 -1.192093E-07
v 2.455072 0.2087844 0.08285436
v 2.455072 0.2087844 0.08285436
v 2.385007 0.492255 -1.192093E-07
v 2.455071 0.2087844 -0.08285463
v 2.455071 0.1433172 0.1729622
v 2.385007 0.1521152 0.4681622
v 2.314943 0.1433172 0.1729622
v 2.314943 0.1433172 0.1729622
v 2.385007 0.1521152 0.4681622
v 2.314943 -0.01428138 0.2241691
v 2.314943 -0.01428138 0.2241691
v 2.385007 0.1521152 0.4681622
v 2.455072 -0.01428138 0.2241691
v 2.455072 -0.01428138 0.2241691
v 2.385007 0.1521152 0.4681622
v 2.455071 0.1433172 0.1729622
v 2.455071 -0.1202095 0.189751
v 2.385007 -0.3982427 0.2893401
v 2.314943 -0.1202095 0.189751
v 2.314943 -0.1202095 0.189751
v 2.385007 -0.3982427 0.2893401
v 2.314943 -0.2176108 0.05568956
v 2.314943 -0.2176108 0.05568956
v 2.385007 -0.3982427 0.2893401
v 2.455072 -0.2176108 0.05568956
v 2.455072 -0.2176108 0.05568956
v 2.385007 -0.3982427 0.2893401
v 2.455071 -0.1202095 0.189751
v 2.455071 -0.2176108 -0.05568983
v 2.385007 -0.3982426 -0.2893404
v 2.314943 -0.2176108 -0.05568983
v 2.314943 -0.2176108 -0.05568983
v 2.385007 -0.3982426 -0.2893404
v 2.314943 -0.1202095 -0.1897512
v 2.314943 -0.1202095 -0.1897512
v 2.385007 -0.3982426 -0.2893404
v 2.455072 -0.1202095 -0.1897512
v 2.455072 -0.1202095 -0.1897512
v 2.385007 -0.3982426 -0.2893404
v 2.455071 -0.2176108 -0.05568983
v -0.772328 -0.01428138 -0.2241693
v -0.8423923 0.1521152 -0.4681624
v -0.9124563 -0.01428138 -0.2241693
v -0.9124563 -0.01428138 -0.2241693
v -0.8423923 0.1521152 -0.4681624
v -0.9124563 0.1433172 -0.1729625
v -0.9124563 0.1433172 -0.1729625
v -0.8423923 0.1521152 -0.4681624
v -0.7723267 0.1433172 -0.1729625
v -0.7723267 0.1433172 -0.1729625
v -0.8423923 0.1521152 -0.4681624
v -0.772328 -0.01428138 -0.2241693
v -0.772328 0.2087844 -0.08285463
v -0.8423923 0.492255 -1.192093E-07
v -0.9124563 0.2087844 -0.08285463
v -0.9124563 0.2087844 -0.08285463
v -0.8423923 0.492255 -1.192093E-07
v -0.9124563 0.2087844 0.08285436
v -0.9124563 0.2087844 0.08285436
v -0.8423923 0.492255 -1.192093E-07
v -0.7723267 0.2087844 0.08285436
v -0.7723267 0.2087844 0.08285436
v -0.8423923 0.492255 -1.192093E-07
v -0.772328 0.2087844 -0.08285463
v -0.772328 0.1433172 0.1729622
v -0.8423923 0.1521152 0.4681622
v -0.9124563 0.1433172 0.1729622
v -0.9124563 0.1433172 0.1729622
v -0.8423923 0.1521152 0.4681622
v -0.9124563 -0.01428138 0.2241691
v -0.9124563 -0.01428138 0.2241691
v -0.8423923 0.1521152 0.4681622
v -0.7723267 -0.01428138 0.2241691
v -0.7723267 -0.01428138 0.2241691
v -0.8423923 0.1521152 0.4681622
v -0.772328 0.1433172 0.1729622
v -0.772328 -0.1202095 0.189751
v -0.8423923 -0.3982427 0.2893401
v -0.9124563 -0.1202095 0.189751
v -0.9124563 -0.1202095 0.189751
v -0.8423923 -0.3982427 0.2893401
v -0.9124563 -0.2176108 0.05568956
v -0.9124563 -0.2176108 0.05568956
v -0.8423923 -0.3982427 0.2893401
v -0.7723267 -0.2176108 0.05568956
v -0.7723267 -0.2176108 0.05568956
v -0.8423923 -0.3982427 0.2893401
v -0.772328 -0.1202095 0.189751
v -0.772328 -0.2176108 -0.05568983
v -0.8423923 -0.3982426 -0.2893404
v -0.9124563 -0.2176108 -0.05568983
v -0.9124563 -0.2176108 -0.05568983
v -0.8423923 -0.3982426 -0.2893404
v -0.9124563 -0.1202095 -0.1897512
v -0.9124563 -0.1202095 -0.1897512
v -0.8423923 -0.3982426 -0.2893404
v -0.7723267 -0.1202095 -0.1897512
v -0.7723267 -0.1202095 -0.1897512
v -0.8423923 -0.3982426 -0.2893404
v -0.772328 -0.2176108 -0.05568983
v -2.313115 -0.01428138 -0.2241693
v -2.383179 0.1521152 -0.4681624
v -2.453243 -0.01428138 -0.2241693
v -2.453243 -0.01428138 -0.2241693
v -2.383179 0.1521152 -0.4681624
v -2.453243 0.1433172 -0.1729625
v -2.453243 0.1433172 -0.1729625
v -2.383179 0.1521152 -0.4681624
v -2.313113 0.1433172 -0.1729625
v -2.313113 0.1433172 -0.1729625
v -2.383179 0.1521152 -0.4681624
v -2.313115 -0.01428138 -0.2241693
v -2.313115 0.2087844 -0.08285463
v -2.383179 0.492255 -1.192093E-07
v -2.453243 0.2087844 -0.08285463
v -2.453243 0.2087844 -0.08285463
v -2.383179 0.492255 -1.192093E-07
v -2.453243 0.2087844 0.08285436
v -2.453243 0.2087844 0.08285436
v -2.383179 0.492255 -1.192093E-07
v -2.313113 0.2087844 0.08285436
v -2.313113 0.2087844 0.08285436
v -2.383179 0.492255 -1.192093E-07
v -2.313115 0.2087844 -0.08285463
v -2.313115 0.1433172 0.1729622
v -2.383179 0.1521152 0.4681622
v -2.453243 0.1433172 0.1729622
v -2.453243 0.1433172 0.1729622
v -2.383179 0.1521152 0.4681622
v -2.453243 -0.01428138 0.2241691
v -2.453243 -0.01428138 0.2241691
v -2.383179 0.1521152 0.4681622
v -2.313113 -0.01428138 0.2241691
v -2.313113 -0.01428138 0.2241691
v -2.383179 0.1521152 0.4681622
v -2.313115 0.1433172 0.1729622
v -2.313115 -0.1202095 0.189751
v -2.383179 -0.3982427 0.2893401
v -2.453243 -0.1202095 0.189751
v -2.453243 -0.1202095 0.189751
v -2.383179 -0.3982427 0.2893401
v -2.453243 -0.2176108 0.05568956
v -2.453243 -0.2176108 0.05568956
v -2.383179 -0.3982427 0.2893401
v -2.313113 -0.2176108 0.05568956
v -2.313113 -0.2176108 0.05568956
v -2.383179 -0.3982427 0.2893401
v -2.313115 -0.1202095 0.189751
v -2.313115 -0.2176108 -0.05568983
v -2.383179 -0.3982426 -0.2893404
v -2.453243 -0.2176108 -0.05568983
v -2.453243 -0.2176108 -0.05568983
v -2.383179 -0.3982426 -0.2893404
v -2.453243 -0.1202095 -0.1897512
v -2.453243 -0.1202095 -0.1897512
v -2.383179 -0.3982426 -0.2893404
v -2.313113 -0.1202095 -0.1897512
v -2.313113 -0.1202095 -0.1897512
v -2.383179 -0.3982426 -0.2893404
v -2.313115 -0.2176108 -0.05568983
vt 0.8766507 0.934677
vt 0.8876639 0.9763739
vt 0.8986772 0.9346771
vt 0.8986772 0.9346771
vt 0.8876639 0.9763739
vt 0.8766507 0.9346771
vt 0.8766507 0.9346771
vt 0.8876639 0.9763739
vt 0.8986774 0.934677
vt 0.8986772 0.9346771
vt 0.8876639 0.9763739
vt 0.8766507 0.934677
vt 0.8766507 0.934677
vt 0.8876639 0.9763739
vt 0.8986772 0.9346771
vt 0.8986772 0.9346771
vt 0.8876639 0.9763739
vt 0.8766507 0.9346771
vt 0.8766507 0.9346771
vt 0.8876639 0.9763739
vt 0.8986774 0.934677
vt 0.8986772 0.9346771
vt 0.8876639 0.9763739
vt 0.8766507 0.934677
vt 0.8766507 0.934677
vt 0.8876639 0.9763739
vt 0.8986772 0.9346771
vt 0.8986772 0.9346771
vt 0.8876639 0.9763739
vt 0.8766507 0.9346771
vt 0.8766507 0.9346771
vt 0.8876639 0.9763739
vt 0.8986774 0.934677
vt 0.8986772 0.9346771
vt 0.8876639 0.9763739
vt 0.8766507 0.934677
vt 0.8766507 0.934677
vt 0.8876639 0.9763739
vt 0.8986772 0.9346771
vt 0.8986772 0.9346771
vt 0.8876639 0.9763739
vt 0.8766507 0.9346771
vt 0.8766507 0.9346771
vt 0.8876639 0.9763739
vt 0.8986774 0.934677
vt 0.8986772 0.9346771
vt 0.8876639 0.9763739
vt 0.8766507 0.934677
vt 0.8766507 0.934677
vt 0.8876639 0.9763739
vt 0.8986772 0.9346771
vt 0.8986772 0.9346771
vt 0.8876639 0.9763739
vt 0.8766507 0.9346771
vt 0.8766507 0.9346771
vt 0.8876639 0.9763739
vt 0.8986774 0.934677
vt 0.8986772 0.9346771
vt 0.8876639 0.9763739
vt 0.8766507 0.934677
vt 0.8766507 0.934677
vt 0.8876639 0.9763739
vt 0.8986772 0.9346771
vt 0.8986772 0.9346771
vt 0.8876639 0.9763739
vt 0.8766507 0.9346771
vt 0.8766507 0.9346771
vt 0.8876639 0.9763739
vt 0.8986774 0.934677
vt 0.8986772 0.9346771
vt 0.8876639 0.9763739
vt 0.8766507 0.934677
vt 0.8766507 0.934677
vt 0.8876639 0.9763739
vt 0.8986772 0.9346771
vt 0.8986772 0.9346771
vt 0.8876639 0.9763739
vt 0.8766507 0.9346771
vt 0.8766507 0.9346771
vt 0.8876639 0.9763739
vt 0.8986774 0.934677
vt 0.8986772 0.9346771
vt 0.8876639 0.9763739
vt 0.8766507 0.934677
vt 0.8766507 0.934677
vt 0.8876639 0.9763739
vt 0.8986772 0.9346771
vt 0.8986772 0.9346771
vt 0.8876639 0.9763739
vt 0.8766507 0.9346771
vt 0.8766507 0.9346771
vt 0.8876639 0.9763739
vt 0.8986774 0.934677
vt 0.8986772 0.9346771
vt 0.8876639 0.9763739
vt 0.8766507 0.934677
vt 0.8766507 0.934677
vt 0.8876639 0.9763739
vt 0.8986772 0.9346771
vt 0.8986772 0.9346771
vt 0.8876639 0.9763739
vt 0.8766507 0.9346771
vt 0.8766507 0.9346771
vt 0.8876639 0.9763739
vt 0.8986774 0.934677
vt 0.8986772 0.9346771
vt 0.8876639 0.9763739
vt 0.8766507 0.934677
vt 0.8766507 0.934677
vt 0.8876639 0.9763739
vt 0.8986772 0.9346771
vt 0.8986772 0.9346771
vt 0.8876639 0.9763739
vt 0.8766507 0.9346771
vt 0.8766507 0.9346771
vt 0.8876639 0.9763739
vt 0.8986774 0.934677
vt 0.8986772 0.9346771
vt 0.8876639 0.9763739
vt 0.8766507 0.934677
vt 0.8766507 0.934677
vt 0.8876639 0.9763739
vt 0.8986772 0.9346771
vt 0.8986772 0.9346771
vt 0.8876639 0.9763739
vt 0.8766507 0.9346771
vt 0.8766507 0.9346771
vt 0.8876639 0.9763739
vt 0.8986774 0.934677
vt 0.8986772 0.9346771
vt 0.8876639 0.9763739
vt 0.8766507 0.934677
vt 0.8766507 0.934677
vt 0.8876639 0.9763739
vt 0.8986772 0.9346771
vt 0.8986772 0.9346771
vt 0.8876639 0.9763739
vt 0.8766507 0.9346771
vt 0.8766507 0.9346771
vt 0.8876639 0.9763739
vt 0.8986774 0.934677
vt 0.8986772 0.9346771
vt 0.8876639 0.9763739
vt 0.8766507 0.934677
vt 0.8766507 0.934677
vt 0.8876639 0.9763739
vt 0.8986772 0.9346771
vt 0.8986772 0.9346771
vt 0.8876639 0.9763739
vt 0.8766507 0.9346771
vt 0.8766507 0.9346771
vt 0.8876639 0.9763739
vt 0.8986774 0.934677
vt 0.8986772 0.9346771
vt 0.8876639 0.9763739
vt 0.8766507 0.934677
vt 0.8766507 0.934677
vt 0.8876639 0.9763739
vt 0.8986772 0.9346771
vt 0.8986772 0.9346771
vt 0.8876639 0.9763739
vt 0.8766507 0.9346771
vt 0.8766507 0.9346771
vt 0.8876639 0.9763739
vt 0.8986774 0.934677
vt 0.8986772 0.9346771
vt 0.8876639 0.9763739
vt 0.8766507 0.934677
vt 0.8766507 0.934677
vt 0.8876639 0.9763739
vt 0.8986772 0.9346771
vt 0.8986772 0.9346771
vt 0.8876639 0.9763739
vt 0.8766507 0.9346771
vt 0.8766507 0.9346771
vt 0.8876639 0.9763739
vt 0.8986774 0.934677
vt 0.8986772 0.9346771
vt 0.8876639 0.9763739
vt 0.8766507 0.934677
vt 0.8766507 0.934677
vt 0.8876639 0.9763739
vt 0.8986772 0.9346771
vt 0.8986772 0.9346771
vt 0.8876639 0.9763739
vt 0.8766507 0.9346771
vt 0.8766507 0.9346771
vt 0.8876639 0.9763739
vt 0.8986774 0.934677
vt 0.8986772 0.9346771
vt 0.8876639 0.9763739
vt 0.8766507 0.934677
vt 0.8766507 0.934677
vt 0.8876639 0.9763739
vt 0.8986772 0.9346771
vt 0.8986772 0.9346771
vt 0.8876639 0.9763739
vt 0.8766507 0.9346771
vt 0.8766507 0.9346771
vt 0.8876639 0.9763739
vt 0.8986774 0.934677
vt 0.8986772 0.9346771
vt 0.8876639 0.9763739
vt 0.8766507 0.934677
vt 0.8766507 0.934677
vt 0.8876639 0.9763739
vt 0.8986772 0.9346771
vt 0.8986772 0.9346771
vt 0.8876639 0.9763739
vt 0.8766507 0.9346771
vt 0.8766507 0.9346771
vt 0.8876639 0.9763739
vt 0.8986774 0.934677
vt 0.8986772 0.9346771
vt 0.8876639 0.9763739
vt 0.8766507 0.934677
vt 0.8766507 0.934677
vt 0.8876639 0.9763739
vt 0.8986772 0.9346771
vt 0.8986772 0.9346771
vt 0.8876639 0.9763739
vt 0.8766507 0.9346771
vt 0.8766507 0.9346771
vt 0.8876639 0.9763739
vt 0.8986774 0.934677
vt 0.8986772 0.9346771
vt 0.8876639 0.9763739
vt 0.8766507 0.934677
vt 0.8766507 0.934677
vt 0.8876639 0.9763739
vt 0.8986772 0.9346771
vt 0.8986772 0.9346771
vt 0.8876639 0.9763739
vt 0.8766507 0.9346771
vt 0.8766507 0.9346771
vt 0.8876639 0.9763739
vt 0.8986774 0.934677
vt 0.8986772 0.9346771
vt 0.8876639 0.9763739
vt 0.8766507 0.934677
vn 0 -0.8261678 -0.5634242
vn 0 -0.8261678 -0.5634241
vn 0 -0.8261678 -0.5634242
vn -0.9707866 0.07414677 -0.2282008
vn -0.9707866 0.07414677 -0.2282008
vn -0.9707866 0.07414676 -0.2282008
vn 0 0.9995561 0.02979009
vn 0 0.9995561 0.02979009
vn 0 0.9995561 0.02979008
vn 0.970786 0.07413994 -0.2282059
vn 0.970786 0.07413993 -0.2282059
vn 0.970786 0.07413994 -0.2282059
vn 0 0.2805475 -0.9598402
vn 0 0.2805475 -0.9598402
vn 0 0.2805475 -0.9598402
vn -0.9707865 0.2399448 0
vn -0.9707865 0.2399448 0
vn -0.9707865 0.2399448 0
vn 0 0.2805477 0.9598401
vn 0 0.2805476 0.9598401
vn 0 0.2805476 0.9598401
vn 0.9707859 0.2399478 0
vn 0.9707859 0.2399478 0
vn 0.9707857 0.2399478 0
vn 0 0.9995561 -0.02979001
vn 0 0.9995561 -0.02979
vn 0 0.9995561 -0.02979001
vn -0.9707866 0.07414676 0.2282007
vn -0.9707866 0.07414675 0.2282007
vn -0.9707866 0.07414675 0.2282007
vn 0 -0.8261681 0.5634236
vn 0 -0.8261681 0.5634236
vn 0 -0.8261681 0.5634236
vn 0.9707859 0.07415532 0.2282011
vn 0.9707859 0.07415531 0.2282011
vn 0.9707859 0.07415531 0.2282011
vn 0 0.3372114 0.9414289
vn 0 0.3372115 0.9414289
vn 0 0.3372115 0.9414289
vn -0.9707866 -0.1941194 0.1410358
vn -0.9707866 -0.1941194 0.1410358
vn -0.9707866 -0.1941194 0.1410358
vn 0 -0.7911478 -0.6116251
vn 0 -0.7911478 -0.6116251
vn 0 -0.7911477 -0.6116251
vn 0.970786 -0.1941168 0.1410438
vn 0.970786 -0.1941168 0.1410438
vn 0.970786 -0.1941168 0.1410438
vn 0 -0.7911476 0.6116254
vn 0 -0.7911476 0.6116254
vn 0 -0.7911476 0.6116254
vn -0.9707865 -0.1941199 -0.1410358
vn -0.9707865 -0.1941199 -0.1410358
vn -0.9707865 -0.1941199 -0.1410358
vn 0 0.3372119 -0.9414288
vn 0 0.3372119 -0.9414288
vn 0 0.3372119 -0.9414288
vn 0.9707859 -0.1941263 -0.1410314
vn 0.9707859 -0.1941263 -0.1410313
vn 0.9707859 -0.1941263 -0.1410313
vn 0 -0.8261676 -0.5634245
vn 0 -0.8261676 -0.5634245
vn 0 -0.8261676 -0.5634245
vn -0.9707866 0.07414615 -0.228201
vn -0.9707866 0.07414614 -0.228201
vn -0.9707866 0.07414615 -0.228201
vn 0 0.9995561 0.02979015
vn 0 0.9995561 0.02979015
vn 0 0.9995561 0.02979015
vn 0.9707859 0.07414116 -0.2282057
vn 0.9707859 0.07414115 -0.2282057
vn 0.9707859 0.07414117 -0.2282057
vn 0 0.2805472 -0.9598402
vn 0 0.2805472 -0.9598402
vn 0 0.2805472 -0.9598402
vn -0.9707866 0.2399446 0
vn -0.9707866 0.2399446 0
vn -0.9707866 0.2399446 0
vn 0 0.2805483 0.9598399
vn 0 0.2805483 0.9598399
vn 0 0.2805483 0.9598399
vn 0.9707859 0.2399475 0
vn 0.9707859 0.2399474 0
vn 0.9707859 0.2399475 0
vn 0 0.9995561 -0.02979005
vn 0 0.9995561 -0.02979005
vn 0 0.9995561 -0.02979005
vn -0.9707866 0.07414614 0.2282009
vn -0.9707866 0.07414614 0.228201
vn -0.9707866 0.07414613 0.2282009
vn 0 -0.8261681 0.5634236
vn 0 -0.8261681 0.5634236
vn 0 -0.8261681 0.5634236
vn 0.9707859 0.07415593 0.2282013
vn 0.9707857 0.07415593 0.2282013
vn 0.9707857 0.07415593 0.2282013
vn 0 0.3372113 0.941429
vn 0 0.3372113 0.941429
vn 0 0.3372112 0.941429
vn -0.9707864 -0.19412 0.1410359
vn -0.9707864 -0.1941199 0.1410359
vn -0.9707864 -0.19412 0.1410359
vn 0 -0.7911474 -0.6116255
vn 0 -0.7911475 -0.6116254
vn 0 -0.7911475 -0.6116254
vn 0.9707862 -0.1941162 0.1410432
vn 0.9707862 -0.1941162 0.1410432
vn 0.9707862 -0.1941162 0.1410432
vn 0 -0.7911479 0.611625
vn 0 -0.7911478 0.611625
vn 0 -0.7911478 0.611625
vn -0.9707868 -0.1941187 -0.141036
vn -0.9707868 -0.1941187 -0.141036
vn -0.9707868 -0.1941187 -0.141036
vn 0 0.337212 -0.9414288
vn 0 0.3372119 -0.9414288
vn 0 0.3372119 -0.9414288
vn 0.970786 -0.1941248 -0.141032
vn 0.970786 -0.1941248 -0.141032
vn 0.970786 -0.1941248 -0.141032
vn 0 -0.8261678 -0.5634242
vn 0 -0.8261678 -0.5634241
vn 0 -0.8261678 -0.5634242
vn -0.9707866 0.07414738 -0.2282008
vn -0.9707866 0.07414739 -0.2282008
vn -0.9707866 0.07414738 -0.2282008
vn 0 0.9995561 0.02979011
vn 0 0.9995561 0.02979011
vn 0 0.9995561 0.02979011
vn 0.970786 0.07413994 -0.2282059
vn 0.970786 0.07413993 -0.2282059
vn 0.970786 0.07413994 -0.2282059
vn 0 0.2805478 -0.9598401
vn 0 0.2805478 -0.9598401
vn 0 0.2805478 -0.9598401
vn -0.9707866 0.2399446 0
vn -0.9707866 0.2399446 0
vn -0.9707866 0.2399446 0
vn 0 0.2805477 0.9598401
vn 0 0.2805476 0.9598401
vn 0 0.2805476 0.9598401
vn 0.970786 0.2399472 0
vn 0.970786 0.2399472 0
vn 0.970786 0.2399472 0
vn 0 0.9995561 -0.02979003
vn 0 0.9995561 -0.02979003
vn 0 0.9995561 -0.02979003
vn -0.9707866 0.07414737 0.2282007
vn -0.9707866 0.07414737 0.2282007
vn -0.9707866 0.07414737 0.2282007
vn 0 -0.8261681 0.5634236
vn 0 -0.8261681 0.5634236
vn 0 -0.8261681 0.5634236
vn 0.9707859 0.07415593 0.2282011
vn 0.9707859 0.07415593 0.2282011
vn 0.9707859 0.07415593 0.2282011
vn 0 0.3372118 0.9414288
vn 0 0.3372118 0.9414288
vn 0 0.3372118 0.9414288
vn -0.9707866 -0.1941191 0.1410358
vn -0.9707866 -0.1941191 0.1410358
vn -0.9707866 -0.1941191 0.1410358
vn 0 -0.7911479 -0.6116248
vn 0 -0.791148 -0.6116248
vn 0 -0.791148 -0.6116248
vn 0.970786 -0.1941168 0.1410438
vn 0.970786 -0.1941168 0.1410438
vn 0.970786 -0.1941168 0.1410438
vn 0 -0.7911476 0.6116254
vn 0 -0.7911476 0.6116254
vn 0 -0.7911476 0.6116254
vn -0.9707866 -0.1941193 -0.1410358
vn -0.9707866 -0.1941193 -0.1410358
vn -0.9707866 -0.1941193 -0.1410358
vn 0 0.3372119 -0.9414288
vn 0 0.3372119 -0.9414288
vn 0 0.3372119 -0.9414288
vn 0.9707859 -0.1941263 -0.1410314
vn 0.9707859 -0.1941263 -0.1410313
vn 0.9707859 -0.1941263 -0.1410313
vn 0 -0.8261676 -0.5634245
vn 0 -0.8261676 -0.5634245
vn 0 -0.8261676 -0.5634245
vn -0.9707866 0.07414615 -0.228201
vn -0.9707866 0.07414614 -0.228201
vn -0.9707866 0.07414615 -0.228201
vn 0 0.9995561 0.02979015
vn 0 0.9995561 0.02979015
vn 0 0.9995561 0.02979015
vn 0.9707859 0.07414116 -0.2282057
vn 0.9707859 0.07414115 -0.2282057
vn 0.9707859 0.07414117 -0.2282057
vn 0 0.2805472 -0.9598402
vn 0 0.2805472 -0.9598402
vn 0 0.2805472 -0.9598402
vn -0.9707866 0.2399446 0
vn -0.9707866 0.2399446 0
vn -0.9707866 0.2399446 0
vn 0 0.2805477 0.9598401
vn 0 0.2805476 0.9598401
vn 0 0.2805476 0.9598401
vn 0.970786 0.2399469 0
vn 0.970786 0.2399469 0
vn 0.970786 0.2399469 0
vn 0 0.9995561 -0.02979005
vn 0 0.9995561 -0.02979005
vn 0 0.9995561 -0.02979005
vn -0.9707866 0.07414614 0.2282009
vn -0.9707866 0.07414614 0.228201
vn -0.9707866 0.07414613 0.2282009
vn 0 -0.8261681 0.5634236
vn 0 -0.8261681 0.5634236
vn 0 -0.8261681 0.5634236
vn 0.9707859 0.07415593 0.2282013
vn 0.9707857 0.07415593 0.2282013
vn 0.9707857 0.07415593 0.2282013
vn 0 0.3372113 0.941429
vn 0 0.3372113 0.941429
vn 0 0.3372112 0.941429
vn -0.9707865 -0.1941194 0.1410359
vn -0.9707865 -0.1941194 0.1410359
vn -0.9707865 -0.1941194 0.1410359
vn 0 -0.7911485 -0.6116241
vn 0 -0.7911486 -0.611624
vn 0 -0.7911485 -0.6116241
vn 0.9707862 -0.1941162 0.1410432
vn 0.9707862 -0.1941162 0.1410432
vn 0.9707862 -0.1941162 0.1410432
vn 0 -0.7911479 0.611625
vn 0 -0.7911478 0.611625
vn 0 -0.7911478 0.611625
vn -0.9707868 -0.1941187 -0.141036
vn -0.9707868 -0.1941187 -0.141036
vn -0.9707868 -0.1941188 -0.141036
vn 0 0.337212 -0.9414288
vn 0 0.3372119 -0.9414288
vn 0 0.3372119 -0.9414288
vn 0.970786 -0.1941254 -0.141032
vn 0.970786 -0.1941254 -0.1410319
vn 0.970786 -0.1941254 -0.141032
g ArenaV8_LogSpikes02_0
f 3/3/3 2/2/2 1/1/1
f 6/6/6 5/5/5 4/4/4
f 9/9/9 8/8/8 7/7/7
f 12/12/12 11/11/11 10/10/10
f 15/15/15 14/14/14 13/13/13
f 18/18/18 17/17/17 16/16/16
f 21/21/21 20/20/20 19/19/19
f 24/24/24 23/23/23 22/22/22
f 27/27/27 26/26/26 25/25/25
f 30/30/30 29/29/29 28/28/28
f 33/33/33 32/32/32 31/31/31
f 36/36/36 35/35/35 34/34/34
f 39/39/39 38/38/38 37/37/37
f 42/42/42 41/41/41 40/40/40
f 45/45/45 44/44/44 43/43/43
f 48/48/48 47/47/47 46/46/46
f 51/51/51 50/50/50 49/49/49
f 54/54/54 53/53/53 52/52/52
f 57/57/57 56/56/56 55/55/55
f 60/60/60 59/59/59 58/58/58
f 63/63/63 62/62/62 61/61/61
f 66/66/66 65/65/65 64/64/64
f 69/69/69 68/68/68 67/67/67
f 72/72/72 71/71/71 70/70/70
f 75/75/75 74/74/74 73/73/73
f 78/78/78 77/77/77 76/76/76
f 81/81/81 80/80/80 79/79/79
f 84/84/84 83/83/83 82/82/82
f 87/87/87 86/86/86 85/85/85
f 90/90/90 89/89/89 88/88/88
f 93/93/93 92/92/92 91/91/91
f 96/96/96 95/95/95 94/94/94
f 99/99/99 98/98/98 97/97/97
f 102/102/102 101/101/101 100/100/100
f 105/105/105 104/104/104 103/103/103
f 108/108/108 107/107/107 106/106/106
f 111/111/111 110/110/110 109/109/109
f 114/114/114 113/113/113 112/112/112
f 117/117/117 116/116/116 115/115/115
f 120/120/120 119/119/119 118/118/118
f 123/123/123 122/122/122 121/121/121
f 126/126/126 125/125/125 124/124/124
f 129/129/129 128/128/128 127/127/127
f 132/132/132 131/131/131 130/130/130
f 135/135/135 134/134/134 133/133/133
f 138/138/138 137/137/137 136/136/136
f 141/141/141 140/140/140 139/139/139
f 144/144/144 143/143/143 142/142/142
f 147/147/147 146/146/146 145/145/145
f 150/150/150 149/149/149 148/148/148
f 153/153/153 152/152/152 151/151/151
f 156/156/156 155/155/155 154/154/154
f 159/159/159 158/158/158 157/157/157
f 162/162/162 161/161/161 160/160/160
f 165/165/165 164/164/164 163/163/163
f 168/168/168 167/167/167 166/166/166
f 171/171/171 170/170/170 169/169/169
f 174/174/174 173/173/173 172/172/172
f 177/177/177 176/176/176 175/175/175
f 180/180/180 179/179/179 178/178/178
f 183/183/183 182/182/182 181/181/181
f 186/186/186 185/185/185 184/184/184
f 189/189/189 188/188/188 187/187/187
f 192/192/192 191/191/191 190/190/190
f 195/195/195 194/194/194 193/193/193
f 198/198/198 197/197/197 196/196/196
f 201/201/201 200/200/200 199/199/199
f 204/204/204 203/203/203 202/202/202
f 207/207/207 206/206/206 205/205/205
f 210/210/210 209/209/209 208/208/208
f 213/213/213 212/212/212 211/211/211
f 216/216/216 215/215/215 214/214/214
f 219/219/219 218/218/218 217/217/217
f 222/222/222 221/221/221 220/220/220
f 225/225/225 224/224/224 223/223/223
f 228/228/228 227/227/227 226/226/226
f 231/231/231 230/230/230 229/229/229
f 234/234/234 233/233/233 232/232/232
f 237/237/237 236/236/236 235/235/235
f 240/240/240 239/239/239 238/238/238
