g ArenaV3_FlagB1
v -2.384186E-07 0 0
v 0.4252357 0 2.384186E-07
v 0.4158456 -0.3901665 2.384186E-07
v 0 -0.3901665 0
v 0.4064548 -0.780333 2.384186E-07
v -2.384186E-07 -0.780333 0
v 0.3970642 -1.1705 2.384186E-07
v -2.384186E-07 -1.1705 0
v 0.3876739 -1.560666 2.384186E-07
v -2.384186E-07 -1.560666 0
v -0.4252362 0 0
v -0.4158456 -0.3901665 -4.768372E-07
v -0.4064553 -0.780333 -4.768372E-07
v -0.3970647 -1.1705 0
v -0.3876741 -1.560666 0
vt 0.5526124 0.4917305
vt 0.5976177 0.4917305
vt 0.5976177 0.446436
vt 0.5526124 0.446436
vt 0.5976177 0.4011416
vt 0.5526124 0.4011416
vt 0.5976177 0.3558471
vt 0.5526124 0.3558471
vt 0.5976177 0.3105527
vt 0.5526124 0.3105527
vt 0.5076072 0.4917305
vt 0.5076072 0.446436
vt 0.5076072 0.4011416
vt 0.5076072 0.3558471
vt 0.5076072 0.3105527
vn 0 0 1
vn 0 0 1
vn 0 0 1
vn 0 0 1
vn 0 0 1
vn 0 0 1
vn 0 0 1
vn 0 0 1
vn 0 0 1
vn 0 0 1
vn 0 0 1
vn 0 0 1
vn 0 0 1
vn 0 0 1
vn 0 0 1
g ArenaV3_FlagB1_0
f 3/3/3 2/2/2 1/1/1
f 4/4/4 3/3/3 1/1/1
f 5/5/5 3/3/3 4/4/4
f 6/6/6 5/5/5 4/4/4
f 7/7/7 5/5/5 6/6/6
f 8/8/8 7/7/7 6/6/6
f 9/9/9 7/7/7 8/8/8
f 10/10/10 9/9/9 8/8/8
f 4/4/4 1/1/1 11/11/11
f 12/12/12 4/4/4 11/11/11
f 6/6/6 4/4/4 12/12/12
f 13/13/13 6/6/6 12/12/12
f 8/8/8 6/6/6 13/13/13
f 14/14/14 8/8/8 13/13/13
f 10/10/10 8/8/8 14/14/14
f 15/15/15 10/10/10 14/14/14
