g ArenaV4_JarTop1
v -0.07635701 -0.0009154379 -0.284966
v 0.01543987 -0.0009464324 -0.2946148
v 0.1057252 -0.0008848011 -0.275424
v -0.1606802 -0.0007948577 -0.2474241
v 0.1856629 -0.0007365644 -0.2292724
v -0.2292739 -0.0005964339 -0.1856618
v 0.247425 -0.000516206 -0.1606793
v -0.275426 -0.0003396571 -0.1057248
v 0.284969 -0.0002453029 -0.07635689
v -0.2946166 -4.962087E-05 -0.01543951
v 0.2946166 4.956126E-05 0.01544023
v -0.2849683 0.0002453029 0.07635736
v 0.2754253 0.0003396571 0.1057253
v -0.2474262 0.0005161464 0.1606789
v 0.2292746 0.0005964339 0.1856618
v -0.1856629 0.0007365048 0.2292728
v 0.1606799 0.0007948577 0.2474236
v -0.1057259 0.0008848011 0.2754245
v 0.07635677 0.0009154379 0.2849665
v -0.01544034 0.0009464324 0.2946148
vt 0.828365 0.39754
vt 0.8275136 0.3921658
vt 0.8250436 0.3873178
vt 0.8275136 0.402914
vt 0.8211962 0.3834707
vt 0.8250436 0.4077618
vt 0.8163484 0.3810005
vt 0.8211962 0.4116091
vt 0.8109742 0.3801495
vt 0.8163484 0.4140796
vt 0.8056003 0.3810005
vt 0.8109742 0.4149305
vt 0.8007525 0.3834707
vt 0.8056003 0.4140796
vt 0.7969049 0.3873178
vt 0.8007525 0.4116091
vt 0.7944349 0.3921658
vt 0.7969049 0.4077618
vt 0.7935835 0.39754
vt 0.7944349 0.402914
vn 0 0.9999949 -0.003212412
vn 0 0.9999949 -0.003212412
vn 0 0.9999949 -0.003212412
vn 0 0.9999949 -0.003212412
vn 0 0.9999949 -0.003212412
vn 0 0.9999949 -0.003212412
vn 0 0.9999949 -0.003212412
vn 0 0.9999949 -0.003212413
vn 0 0.9999949 -0.003212412
vn 0 0.9999949 -0.003212413
vn 0 0.9999949 -0.003212413
vn 0 0.9999949 -0.003212412
vn 0 0.9999949 -0.003212412
vn 0 0.9999949 -0.003212412
vn 0 0.9999949 -0.003212412
vn 0 0.9999949 -0.003212412
vn 0 0.9999949 -0.003212412
vn 0 0.9999949 -0.003212412
vn 0 0.9999949 -0.003212413
vn 0 0.9999949 -0.003212413
g ArenaV4_JarTop1_0
f 3/3/3 2/2/2 1/1/1
f 1/1/1 4/4/4 3/3/3
f 4/4/4 5/5/5 3/3/3
f 4/4/4 6/6/6 5/5/5
f 6/6/6 7/7/7 5/5/5
f 6/6/6 8/8/8 7/7/7
f 8/8/8 9/9/9 7/7/7
f 8/8/8 10/10/10 9/9/9
f 10/10/10 11/11/11 9/9/9
f 10/10/10 12/12/12 11/11/11
f 12/12/12 13/13/13 11/11/11
f 12/12/12 14/14/14 13/13/13
f 14/14/14 15/15/15 13/13/13
f 14/14/14 16/16/16 15/15/15
f 16/16/16 17/17/17 15/15/15
f 16/16/16 18/18/18 17/17/17
f 18/18/18 19/19/19 17/17/17
f 18/18/18 20/20/20 19/19/19
