g ArenaV5_WheelShadows
v 0.3478853 0.1705921 -4.0925
v 0.3478853 0.1705921 -4.494873
v 1.796633 0.1705921 -4.494873
v 1.796633 0.1705921 -4.0925
v 3.129929 0.164459 0.7528782
v 3.532301 0.164459 0.7528782
v 3.532301 0.164459 2.201625
v 3.129929 0.164459 2.201625
v -3.10763 0.164459 -0.4930886
v -3.510003 0.164459 -0.4930886
v -3.510003 0.164459 -1.941836
v -3.10763 0.164459 -1.941836
v -0.3360277 0.164459 4.483917
v -0.3360277 0.164459 4.88629
v -1.784775 0.164459 4.88629
v -1.784775 0.164459 4.483917
vt 0.9170616 0.08396667
vt 0.9936805 0.08396667
vt 0.9936805 0.006760963
vt 0.9170616 0.006760963
vt 0.9170616 0.08396667
vt 0.9936805 0.08396667
vt 0.9936805 0.006760963
vt 0.9170616 0.006760963
vt 0.9170616 0.08396667
vt 0.9936805 0.08396667
vt 0.9936805 0.006760963
vt 0.9170616 0.006760963
vt 0.9170616 0.08396667
vt 0.9936805 0.08396667
vt 0.9936805 0.006760963
vt 0.9170616 0.006760963
vn 0 1 0
vn 0 1 0
vn 0 1 0
vn 0 1 0
vn 0 1 0
vn 0 1 0
vn 0 1 0
vn 0 1 0
vn 0 1 0
vn 0 1 0
vn 0 1 0
vn 0 1 0
vn 0 1 0
vn 0 1 0
vn 0 1 0
vn 0 1 0
g ArenaV5_WheelShadows_0
f 3/3/3 2/2/2 1/1/1
f 4/4/4 3/3/3 1/1/1
f 7/7/7 6/6/6 5/5/5
f 8/8/8 7/7/7 5/5/5
f 11/11/11 10/10/10 9/9/9
f 12/12/12 11/11/11 9/9/9
f 15/15/15 14/14/14 13/13/13
f 16/16/16 15/15/15 13/13/13
