g BambooLeaves
v -4.763359 -1.485703 1.1252
v -4.459644 -1.491907 1.056414
v -4.119921 -1.544066 1.409043
v -5.263078 -1.445917 1.358676
v -5.019389 -1.333904 0.2182503
v -6.224346 -1.360816 1.316927
v -5.458114 -1.771896 2.1272
v -5.122627 -1.699197 1.984554
v -4.666918 -1.452186 0.6019202
v -4.416511 -1.638286 1.832901
v -4.889176 -1.79004 2.220346
v 3.337915 -0.4072421 -3.138535
v 3.102469 -0.3906642 -2.729188
v 2.362816 -0.2870834 -2.713257
v 3.607565 -0.3487578 -3.930812
v 4.622938 -0.5462592 -2.485531
v 4.654564 -0.3966396 -4.954947
v 2.861699 -0.5880554 -4.969016
v 2.70239 -0.4765759 -4.439653
v 3.812724 -0.5266092 -2.494717
v 2.174036 -0.3246501 -3.487411
v 2.180737 -0.4883505 -4.428598
v 2.533534 1.048822 4.95377
v 2.086648 1.019322 4.833396
v 1.876056 1.100566 4.135826
v 3.342796 1.189732 5.010342
v 2.252959 0.8813745 6.336946
v 4.576127 1.268633 5.745928
v 4.159834 1.038695 4.041369
v 3.60922 1.092049 4.02351
v 2.056837 0.8813745 5.566034
v 2.563109 1.134577 3.761963
v 3.469389 1.06655 3.531404
v -3.459308 1.452519 -4.986922
v -2.793694 1.464975 -4.821885
v -2.472309 1.655969 -3.804012
v -4.669556 1.570191 -5.053313
v -3.066267 1.138629 -7.027843
v -6.517574 1.503829 -6.104422
v -5.831082 1.328754 -3.584846
v -5.024289 1.46713 -3.580279
v -2.755416 1.213515 -5.895646
v -3.478747 1.659289 -3.23141
v -4.801526 1.478916 -2.856304
v -3.782133 0.5483777 -2.414876
v -3.357492 0.5061461 -2.204962
v -3.29505 0.4815657 -1.4561
v -4.588775 0.6880357 -2.621695
v -3.205339 0.6010596 -3.752307
v -5.67676 0.8656632 -3.601444
v -5.602616 0.3700306 -1.857262
v -5.056521 0.4294559 -1.714431
v -3.16883 0.482382 -2.946075
v -4.063532 0.4468428 -1.226234
v -5.017332 0.3280818 -1.200525
v -2.299128 0.7828886 -3.409634
v -1.823463 0.7084319 -3.270995
v -1.602652 0.7759344 -2.513298
v -3.155269 1.01192 -3.486216
v -1.986408 0.575421 -4.898519
v -4.46043 1.214575 -4.304558
v -4.067612 0.9278485 -2.455584
v -3.470428 0.9325978 -2.425554
v -1.79036 0.5569026 -4.061995
v -2.345886 0.8783752 -2.122716
v -3.331971 0.8919365 -1.891317
v 3.80784 1.071547 -4.30369
v 3.430867 1.091798 -3.867039
v 2.53994 1.21833 -4.018759
v 4.314281 1.14299 -5.191785
v 5.198466 0.9017264 -3.223593
v 5.806741 1.084499 -6.178468
v 3.659364 0.8506691 -6.609426
v 3.346004 0.98685 -6.011224
v 4.228698 0.9257304 -3.421739
v 2.492288 1.17244 -4.990994
v 2.717703 0.9724666 -6.118445
v 3.817868 0.6426989 -2.197701
v 3.291826 0.6412446 -2.414308
v 3.153513 0.7206137 -3.299463
v 4.804371 0.7431156 -2.005486
v 3.244868 0.5422265 -0.554155
v 6.192873 0.7668459 -0.9173117
v 5.931621 0.4281389 -3.04562
v 5.271986 0.5433251 -3.1579
v 3.127508 0.5168383 -1.522553
v 4.048483 0.6774108 -3.645273
v 5.17679 0.4973175 -3.777291
v 4.152108 -0.4906476 2.619282
v 3.726738 -0.527454 2.59551
v 3.404415 -0.4782093 2.003283
v 4.890495 -0.348692 2.514104
v 4.161166 -0.6029955 3.924934
v 6.140059 -0.2361613 2.943732
v 5.449358 -0.5093744 1.490812
v 4.947979 -0.4677809 1.576568
v 3.839716 -0.6308392 3.266222
v 3.953897 -0.4504591 1.535871
v 4.730058 -0.5092352 1.15959
v 3.814538 0.8589603 4.294318
v 3.432492 0.8279426 4.087122
v 3.39628 0.8632204 3.400121
v 4.544081 0.98725 4.517431
v 3.248859 0.7893373 5.501904
v 5.509265 1.095235 5.456927
v 5.500568 0.7788684 3.824647
v 5.0031 0.8327481 3.683064
v 3.240177 0.7438204 4.755961
v 4.106894 0.8659922 3.210065
v 4.983602 0.7799193 3.205113
v 3.307416 -1.195511 4.005085
v 2.867813 -1.069814 3.899945
v 2.674262 -0.8976732 3.204925
v 4.128256 -1.334098 4.034374
v 3.023164 -1.309064 5.409921
v 5.352195 -1.697337 4.732157
v 4.829069 -1.718363 3.020155
v 4.321298 -1.482425 3.024525
v 2.814022 -1.216739 4.638346
v 3.3303 -1.082433 2.801429
v 4.165266 -1.442913 2.531971
v -4.505112 0.671673 0.6123713
v -4.037983 0.613455 0.4529656
v -3.429094 0.6893422 0.9437682
v -5.250024 0.8710925 1.041312
v -5.093464 0.4723198 -0.7783258
v -6.781132 1.028119 1.122984
v -5.401314 0.7610266 2.396394
v -4.89959 0.7849671 2.080895
v -4.457401 0.4623224 -0.2108119
v -3.812794 0.7680327 1.685788
v -4.48182 0.7504188 2.435314
v -4.036419 0.2171108 2.407367
v -3.710839 0.1742222 2.569266
v -3.65214 0.2301275 3.142408
v -4.647081 0.3640205 2.239772
v -3.613407 0.07025021 1.378515
v -5.483485 0.4796993 1.480621
v -5.434844 0.2829363 2.862984
v -5.009622 0.3005731 2.962081
v -3.580779 0.06288498 2.005645
v -4.239454 0.2880976 3.32618
v -4.978597 0.2751219 3.364484
v -5.270127 0.7604272 3.4105
v -5.14276 0.6920044 2.832848
v -4.252353 0.6967489 2.527183
v -5.283333 0.9747579 4.445708
v -7.071531 0.7196528 3.121381
v -6.150037 1.213567 6.058791
v -4.025253 0.6813714 5.454357
v -4.023127 0.7287981 4.74526
v -6.097389 0.6114766 2.833972
v -3.736241 0.7137677 3.389713
v -3.405353 0.6267001 4.543996
v -3.56395 -0.7320781 2.433265
v -3.320648 -0.7076631 2.010691
v -2.56217 -0.5654123 1.994839
v -3.847173 -0.6769269 3.250659
v -4.881832 -0.94361 1.757132
v -4.928224 -0.7666028 4.306941
v -3.068637 -0.8779617 4.327322
v -2.908152 -0.760428 3.779644
v -4.046566 -0.8843494 1.768216
v -2.367585 -0.5875645 2.795469
v -2.369152 -0.7476483 3.769489
v -3.225085 0.2656023 4.088368
v -2.962348 0.2151229 3.636782
v -2.1327 0.221687 3.620377
v -3.515656 0.4361531 4.95726
v -4.658894 0.2409613 3.359534
v -4.678332 0.6209361 6.081431
v -2.731041 0.1553866 6.13739
v -2.538236 0.2097656 5.543838
v -3.763646 0.1473987 3.378989
v -1.932071 0.2196061 4.483501
v -1.965302 0.1212494 5.539634
v 4.226421 -0.1688593 -0.4123717
v 3.878238 -0.1699408 -0.1721827
v 3.270358 -0.1109269 -0.4446026
v 4.745969 -0.09419567 -0.9495122
v 5.0189 -0.2435642 0.6107937
v 5.986974 -0.07655174 -1.374247
v 4.554252 -0.3283923 -2.073725
v 4.21698 -0.2427471 -1.707978
v 4.367612 -0.2624412 0.2915827
v 3.417392 -0.1430495 -1.142676
v 3.792258 -0.2769557 -1.899596
vt 0.742246 0.474457
vt 0.909458 0.380685
vt 0.9202452 0.0797548
vt 0.4203984 0.5796016
vt 1 1
vt 0 1
vt 0 0.274677
vt 0.21658 0.211403
vt 1 0.671162
vt 0.606697 0
vt 0.2231978 0
vt 0.742246 0.474457
vt 0.909458 0.380685
vt 0.9202452 0.0797548
vt 0.4203984 0.5796016
vt 1 1
vt 0 1
vt 0 0.274677
vt 0.21658 0.211403
vt 1 0.671162
vt 0.606697 0
vt 0.2231978 0
vt 0.742246 0.474457
vt 0.909458 0.380685
vt 0.9202452 0.0797548
vt 0.4203984 0.5796016
vt 1 1
vt 0 1
vt 0 0.274677
vt 0.21658 0.211403
vt 1 0.671162
vt 0.606697 0
vt 0.2231978 0
vt 0.742246 0.474457
vt 0.909458 0.380685
vt 0.9202452 0.0797548
vt 0.4203984 0.5796016
vt 1 1
vt 0 1
vt 0 0.274677
vt 0.21658 0.211403
vt 1 0.671162
vt 0.606697 0
vt 0.2231978 0
vt 0.742246 0.474457
vt 0.909458 0.380685
vt 0.9202452 0.0797548
vt 0.4203984 0.5796016
vt 1 1
vt 0 1
vt 0 0.274677
vt 0.21658 0.211403
vt 1 0.671162
vt 0.606697 0
vt 0.2231978 0
vt 0.742246 0.474457
vt 0.909458 0.380685
vt 0.9202452 0.0797548
vt 0.4203984 0.5796016
vt 1 1
vt 0 1
vt 0 0.274677
vt 0.21658 0.211403
vt 1 0.671162
vt 0.606697 0
vt 0.2231978 0
vt 0.742246 0.474457
vt 0.909458 0.380685
vt 0.9202452 0.0797548
vt 0.4203984 0.5796016
vt 1 1
vt 0 1
vt 0 0.274677
vt 0.21658 0.211403
vt 1 0.671162
vt 0.606697 0
vt 0.2231978 0
vt 0.742246 0.474457
vt 0.909458 0.380685
vt 0.9202452 0.0797548
vt 0.4203984 0.5796016
vt 1 1
vt 0 1
vt 0 0.274677
vt 0.21658 0.211403
vt 1 0.671162
vt 0.606697 0
vt 0.2231978 0
vt 0.742246 0.474457
vt 0.909458 0.380685
vt 0.9202452 0.0797548
vt 0.4203984 0.5796016
vt 1 1
vt 0 1
vt 0 0.274677
vt 0.21658 0.211403
vt 1 0.671162
vt 0.606697 0
vt 0.2231978 0
vt 0.742246 0.474457
vt 0.909458 0.380685
vt 0.9202452 0.0797548
vt 0.4203984 0.5796016
vt 1 1
vt 0 1
vt 0 0.274677
vt 0.21658 0.211403
vt 1 0.671162
vt 0.606697 0
vt 0.2231978 0
vt 0.742246 0.474457
vt 0.909458 0.380685
vt 0.9202452 0.0797548
vt 0.4203984 0.5796016
vt 1 1
vt 0 1
vt 0 0.274677
vt 0.21658 0.211403
vt 1 0.671162
vt 0.606697 0
vt 0.2231978 0
vt 0.742246 0.474457
vt 0.909458 0.380685
vt 0.9202452 0.0797548
vt 0.4203984 0.5796016
vt 1 1
vt 0 1
vt 0 0.274677
vt 0.21658 0.211403
vt 1 0.671162
vt 0.606697 0
vt 0.2231978 0
vt 0.742246 0.474457
vt 0.909458 0.380685
vt 0.9202452 0.0797548
vt 0.4203984 0.5796016
vt 1 1
vt 0 1
vt 0 0.274677
vt 0.21658 0.211403
vt 1 0.671162
vt 0.606697 0
vt 0.2231978 0
vt 0.742246 0.474457
vt 0.909458 0.380685
vt 0.9202452 0.0797548
vt 0.4203984 0.5796016
vt 1 1
vt 0 1
vt 0 0.274677
vt 0.21658 0.211403
vt 1 0.671162
vt 0.606697 0
vt 0.2231978 0
vt 0.742246 0.474457
vt 0.909458 0.380685
vt 0.9202452 0.0797548
vt 0.4203984 0.5796016
vt 1 1
vt 0 1
vt 0 0.274677
vt 0.21658 0.211403
vt 1 0.671162
vt 0.606697 0
vt 0.2231978 0
vt 0.742246 0.474457
vt 0.909458 0.380685
vt 0.9202452 0.0797548
vt 0.4203984 0.5796016
vt 1 1
vt 0 1
vt 0 0.274677
vt 0.21658 0.211403
vt 1 0.671162
vt 0.606697 0
vt 0.2231978 0
vt 0.742246 0.474457
vt 0.909458 0.380685
vt 0.9202452 0.0797548
vt 0.4203984 0.5796016
vt 1 1
vt 0 1
vt 0 0.274677
vt 0.21658 0.211403
vt 1 0.671162
vt 0.606697 0
vt 0.2231978 0
vn 0.1229318 0.9887503 0.08520893
vn 0.07239258 0.9965414 0.0407977
vn 0.07194208 0.980787 0.1813317
vn 0.07651703 0.9710544 0.2262707
vn 0.1221867 0.9856047 0.1168497
vn 0.07527249 0.9678971 0.239811
vn 0.0404683 0.9161208 0.3988544
vn -0.007665176 0.9277031 0.3732402
vn 0.1608422 0.9798293 0.1185922
vn 0.03416017 0.9468682 0.3198025
vn -0.0004160746 0.9286171 0.3710393
vn 0.09935953 0.9888388 0.1110201
vn 0.1662224 0.9805814 0.1040687
vn 0.06357924 0.9979418 0.008357064
vn 0.02646867 0.9994666 -0.01913214
vn 0.07677653 0.9930657 0.08902758
vn 0.01697843 0.9994245 -0.02936892
vn -0.08463873 0.9825438 -0.1656623
vn -0.03170696 0.9825767 -0.1831332
vn 0.04840486 0.9920752 0.1159471
vn -0.01719105 0.9932219 -0.1149553
vn -0.0347582 0.9837341 -0.1762353
vn -0.1826107 0.9751419 0.1255051
vn -0.1580278 0.9693059 0.1883434
vn -0.09395885 0.9934769 0.06461663
vn -0.07714918 0.9967834 0.02170194
vn -0.1676577 0.9809577 0.0980446
vn -0.0697228 0.9975172 0.009904911
vn 0.03713179 0.9916786 -0.1232672
vn 0.06742771 0.9947807 -0.07658156
vn -0.2006758 0.9765859 0.07751948
vn 0.004487519 0.998974 -0.04506532
vn 0.05989897 0.9951709 -0.0777619
vn 0.108713 0.9786934 -0.1741861
vn 0.08343331 0.9681339 -0.2361264
vn 0.0201316 0.9934773 -0.1122385
vn 0.003942295 0.9975981 -0.0691555
vn 0.09389944 0.9847152 -0.1466933
vn -0.003292857 0.9983549 -0.05724156
vn -0.1068952 0.9911737 0.07841095
vn -0.1382161 0.9898746 0.03232071
vn 0.1275314 0.9837046 -0.126732
vn -0.07635684 0.9970803 -0.0007526379
vn -0.1307147 0.9908601 0.03331343
vn 0.1592985 0.9853858 0.06032329
vn 0.1482556 0.9889283 -0.006405675
vn 0.05940001 0.9928504 0.1035363
vn 0.03410811 0.9892728 0.1420422
vn 0.1388395 0.9866914 0.08463929
vn 0.02441936 0.9880757 0.1520198
vn -0.1068247 0.9602751 0.2577987
vn -0.1271399 0.9700816 0.2068261
vn 0.1671775 0.9796936 0.110689
vn -0.05937877 0.9799843 0.1900129
vn -0.1200326 0.9703948 0.2095854
vn 0.2704541 0.955106 -0.1209425
vn 0.2465841 0.9514512 -0.1842199
vn 0.1826938 0.9812363 -0.06162993
vn 0.1654743 0.9860307 -0.01901874
vn 0.2555837 0.962231 -0.0937467
vn 0.1579313 0.9874227 -0.007355947
vn 0.0486034 0.9911073 0.1238716
vn 0.01954457 0.996866 0.07665464
vn 0.287711 0.9549587 -0.07263804
vn 0.0831653 0.9954607 0.04627702
vn 0.02705572 0.9965885 0.07797027
vn 0.07657725 0.9888388 0.1278037
vn 0.1435485 0.9805814 0.1336188
vn 0.06085257 0.9979418 0.02022794
vn 0.02960853 0.9994666 -0.01378298
vn 0.05855955 0.9930657 0.1019378
vn 0.02222479 0.9994245 -0.02562941
vn -0.05179099 0.9825439 -0.1786762
vn 0.003489635 0.9825764 -0.1858266
vn 0.02561001 0.9920752 0.1230083
vn 0.004853553 0.9932219 -0.1161326
vn -0.0008106122 0.9837338 -0.1796307
vn -0.1176915 0.990889 0.06548055
vn -0.1018668 0.9861136 0.1311604
vn -0.02081561 0.9996542 0.01607377
vn 0.001535723 0.9997018 -0.02436853
vn -0.09894131 0.9942883 0.04001692
vn 0.01043925 0.9993289 -0.03511329
vn 0.1325638 0.9793115 -0.1528914
vn 0.1568162 0.9822641 -0.1027901
vn -0.1293201 0.9914814 0.01552549
vn 0.09092066 0.9926448 -0.07993601
vn 0.1495556 0.983167 -0.1049567
vn -0.1734695 0.9763956 0.1286857
vn -0.1365167 0.9731432 0.1853523
vn -0.09943631 0.993764 0.0504545
vn -0.09176826 0.9957682 0.00493082
vn -0.1645312 0.9814332 0.09858146
vn -0.08691037 0.9961827 -0.00814926
vn -0.009242952 0.987067 -0.1600418
vn 0.0298354 0.9922487 -0.1206331
vn -0.200933 0.9758784 0.08536563
vn -0.0254622 0.9966979 -0.07710497
vn 0.0222176 0.992493 -0.1202666
vn -0.1828489 0.9829593 0.01890434
vn -0.1738872 0.9810024 0.08600742
vn -0.08193813 0.9964303 -0.02031571
vn -0.05542959 0.9967672 -0.05816275
vn -0.1617176 0.9868265 -0.004548202
vn -0.04542105 0.9966582 -0.06789304
vn 0.08958038 0.9811152 -0.1714299
vn 0.108113 0.986968 -0.1191877
vn -0.1890795 0.9814407 -0.03198673
vn 0.03964901 0.9938124 -0.1037537
vn 0.1010852 0.9873524 -0.1221351
vn 0.1551855 0.9757152 0.1545876
vn 0.1782042 0.9599265 0.2162968
vn 0.243134 0.965733 0.09080567
vn 0.258866 0.9647511 0.04736907
vn 0.1704376 0.9771867 0.1267176
vn 0.2657776 0.9633872 0.03531793
vn 0.360815 0.9270516 -0.1019209
vn 0.3917307 0.9183519 -0.05636222
vn 0.1372741 0.9846969 0.1073684
vn 0.334673 0.9420683 -0.02238749
vn 0.3847286 0.9212528 -0.05724601
vn 0.1252165 0.9630476 -0.2384537
vn 0.06945728 0.9584645 -0.2766251
vn 0.08672642 0.9864743 -0.1390933
vn 0.09696575 0.9908156 -0.0942439
vn 0.128463 0.9697561 -0.2075346
vn 0.0974504 0.9919922 -0.08034289
vn 0.08322539 0.992467 0.0899045
vn 0.03217804 0.9971651 0.06801614
vn 0.1670741 0.9635793 -0.2088093
vn 0.06683738 0.9977419 0.006610544
vn 0.03908747 0.9971339 0.06477832
vn 0.2575445 0.9630475 -0.0788061
vn 0.2454342 0.9584645 -0.1452854
vn 0.1598592 0.9864742 -0.03624478
vn 0.1351948 0.9908156 0.002588375
vn 0.2378585 0.9697558 -0.05474446
vn 0.125658 0.9919922 0.01271358
vn -0.005324316 0.992467 0.1223966
vn -0.0256889 0.9971651 0.0707227
vn 0.2659322 0.9635791 -0.02820466
vn 0.04233173 0.9977419 0.05214334
vn -0.01852628 0.9971339 0.0733538
vn -0.03279212 0.9778073 -0.206924
vn -0.09489039 0.9790942 -0.1799175
vn 0.03306223 0.9920868 -0.1211219
vn 0.07671525 0.9914042 -0.1059835
vn -0.004318891 0.9811587 -0.1931552
vn 0.08880685 0.9911152 -0.09901452
vn 0.2247702 0.974407 0.003072014
vn 0.1798614 0.9830715 0.03493368
vn 0.01434992 0.9738471 -0.2267507
vn 0.1464989 0.9888445 -0.02692087
vn 0.1807801 0.9831429 0.02735874
vn -0.1448821 0.9820622 -0.1206777
vn -0.2113072 0.9707735 -0.1137899
vn -0.1098277 0.9937871 -0.0180305
vn -0.07289883 0.9972939 0.009522128
vn -0.1225764 0.9875411 -0.09867869
vn -0.06344327 0.9977894 0.01977901
vn 0.03849677 0.9869363 0.156444
vn -0.01442427 0.9846751 0.1738012
vn -0.09412007 0.9876155 -0.1255269
vn -0.02924327 0.9939899 0.1054934
vn -0.01141232 0.9859079 0.1668993
vn 0.02963928 0.9818968 -0.1870838
vn -0.03774573 0.9828804 -0.1803369
vn 0.06606782 0.9941896 -0.08498257
vn 0.1030028 0.9930327 -0.05723982
vn 0.05253056 0.9848595 -0.1652035
vn 0.1123853 0.9925566 -0.04691475
vn 0.2106614 0.9732683 0.09149173
vn 0.1581395 0.9814634 0.1082661
vn 0.08059566 0.9781537 -0.1916236
vn 0.1452744 0.9886103 0.03930461
vn 0.1613301 0.9816838 0.1013384
vn -0.009230937 0.990889 0.1343649
vn 0.05446421 0.9861135 0.1568884
vn 0.002134403 0.9996542 0.02621305
vn -0.01959533 0.9997018 -0.01456714
vn -0.02036377 0.9942883 0.1047665
vn -0.02375242 0.9993289 -0.02788779
vn -0.05595617 0.9793115 -0.1944681
vn -0.0007316993 0.9822641 -0.1875013
vn -0.05745442 0.9914813 0.1168922
vn -0.01747831 0.9926448 -0.1197952
vn -0.006505159 0.9831669 -0.1825941
g BambooLeaves_0
f 3/3/3 2/2/2 1/1/1
f 4/4/4 3/3/3 1/1/1
f 4/4/4 1/1/1 5/5/5
f 4/4/4 5/5/5 6/6/6
f 4/4/4 6/6/6 7/7/7
f 8/8/8 4/4/4 7/7/7
f 1/1/1 9/9/9 5/5/5
f 10/10/10 3/3/3 4/4/4
f 11/11/11 10/10/10 4/4/4
f 8/8/8 11/11/11 4/4/4
f 14/14/14 13/13/13 12/12/12
f 15/15/15 14/14/14 12/12/12
f 15/15/15 12/12/12 16/16/16
f 15/15/15 16/16/16 17/17/17
f 15/15/15 17/17/17 18/18/18
f 19/19/19 15/15/15 18/18/18
f 12/12/12 20/20/20 16/16/16
f 21/21/21 14/14/14 15/15/15
f 22/22/22 21/21/21 15/15/15
f 19/19/19 22/22/22 15/15/15
f 25/25/25 24/24/24 23/23/23
f 26/26/26 25/25/25 23/23/23
f 26/26/26 23/23/23 27/27/27
f 26/26/26 27/27/27 28/28/28
f 26/26/26 28/28/28 29/29/29
f 30/30/30 26/26/26 29/29/29
f 23/23/23 31/31/31 27/27/27
f 32/32/32 25/25/25 26/26/26
f 33/33/33 32/32/32 26/26/26
f 30/30/30 33/33/33 26/26/26
f 36/36/36 35/35/35 34/34/34
f 37/37/37 36/36/36 34/34/34
f 37/37/37 34/34/34 38/38/38
f 37/37/37 38/38/38 39/39/39
f 37/37/37 39/39/39 40/40/40
f 41/41/41 37/37/37 40/40/40
f 34/34/34 42/42/42 38/38/38
f 43/43/43 36/36/36 37/37/37
f 44/44/44 43/43/43 37/37/37
f 41/41/41 44/44/44 37/37/37
f 47/47/47 46/46/46 45/45/45
f 48/48/48 47/47/47 45/45/45
f 48/48/48 45/45/45 49/49/49
f 48/48/48 49/49/49 50/50/50
f 48/48/48 50/50/50 51/51/51
f 52/52/52 48/48/48 51/51/51
f 45/45/45 53/53/53 49/49/49
f 54/54/54 47/47/47 48/48/48
f 55/55/55 54/54/54 48/48/48
f 52/52/52 55/55/55 48/48/48
f 58/58/58 57/57/57 56/56/56
f 59/59/59 58/58/58 56/56/56
f 59/59/59 56/56/56 60/60/60
f 59/59/59 60/60/60 61/61/61
f 59/59/59 61/61/61 62/62/62
f 63/63/63 59/59/59 62/62/62
f 56/56/56 64/64/64 60/60/60
f 65/65/65 58/58/58 59/59/59
f 66/66/66 65/65/65 59/59/59
f 63/63/63 66/66/66 59/59/59
f 69/69/69 68/68/68 67/67/67
f 70/70/70 69/69/69 67/67/67
f 70/70/70 67/67/67 71/71/71
f 70/70/70 71/71/71 72/72/72
f 70/70/70 72/72/72 73/73/73
f 74/74/74 70/70/70 73/73/73
f 67/67/67 75/75/75 71/71/71
f 76/76/76 69/69/69 70/70/70
f 77/77/77 76/76/76 70/70/70
f 74/74/74 77/77/77 70/70/70
f 80/80/80 79/79/79 78/78/78
f 81/81/81 80/80/80 78/78/78
f 81/81/81 78/78/78 82/82/82
f 81/81/81 82/82/82 83/83/83
f 81/81/81 83/83/83 84/84/84
f 85/85/85 81/81/81 84/84/84
f 78/78/78 86/86/86 82/82/82
f 87/87/87 80/80/80 81/81/81
f 88/88/88 87/87/87 81/81/81
f 85/85/85 88/88/88 81/81/81
f 91/91/91 90/90/90 89/89/89
f 92/92/92 91/91/91 89/89/89
f 92/92/92 89/89/89 93/93/93
f 92/92/92 93/93/93 94/94/94
f 92/92/92 94/94/94 95/95/95
f 96/96/96 92/92/92 95/95/95
f 89/89/89 97/97/97 93/93/93
f 98/98/98 91/91/91 92/92/92
f 99/99/99 98/98/98 92/92/92
f 96/96/96 99/99/99 92/92/92
f 102/102/102 101/101/101 100/100/100
f 103/103/103 102/102/102 100/100/100
f 103/103/103 100/100/100 104/104/104
f 103/103/103 104/104/104 105/105/105
f 103/103/103 105/105/105 106/106/106
f 107/107/107 103/103/103 106/106/106
f 100/100/100 108/108/108 104/104/104
f 109/109/109 102/102/102 103/103/103
f 110/110/110 109/109/109 103/103/103
f 107/107/107 110/110/110 103/103/103
f 113/113/113 112/112/112 111/111/111
f 114/114/114 113/113/113 111/111/111
f 114/114/114 111/111/111 115/115/115
f 114/114/114 115/115/115 116/116/116
f 114/114/114 116/116/116 117/117/117
f 118/118/118 114/114/114 117/117/117
f 111/111/111 119/119/119 115/115/115
f 120/120/120 113/113/113 114/114/114
f 121/121/121 120/120/120 114/114/114
f 118/118/118 121/121/121 114/114/114
f 124/124/124 123/123/123 122/122/122
f 125/125/125 124/124/124 122/122/122
f 125/125/125 122/122/122 126/126/126
f 125/125/125 126/126/126 127/127/127
f 125/125/125 127/127/127 128/128/128
f 129/129/129 125/125/125 128/128/128
f 122/122/122 130/130/130 126/126/126
f 131/131/131 124/124/124 125/125/125
f 132/132/132 131/131/131 125/125/125
f 129/129/129 132/132/132 125/125/125
f 135/135/135 134/134/134 133/133/133
f 136/136/136 135/135/135 133/133/133
f 136/136/136 133/133/133 137/137/137
f 136/136/136 137/137/137 138/138/138
f 136/136/136 138/138/138 139/139/139
f 140/140/140 136/136/136 139/139/139
f 133/133/133 141/141/141 137/137/137
f 142/142/142 135/135/135 136/136/136
f 143/143/143 142/142/142 136/136/136
f 140/140/140 143/143/143 136/136/136
f 146/146/146 145/145/145 144/144/144
f 147/147/147 146/146/146 144/144/144
f 147/147/147 144/144/144 148/148/148
f 147/147/147 148/148/148 149/149/149
f 147/147/147 149/149/149 150/150/150
f 151/151/151 147/147/147 150/150/150
f 144/144/144 152/152/152 148/148/148
f 153/153/153 146/146/146 147/147/147
f 154/154/154 153/153/153 147/147/147
f 151/151/151 154/154/154 147/147/147
f 157/157/157 156/156/156 155/155/155
f 158/158/158 157/157/157 155/155/155
f 158/158/158 155/155/155 159/159/159
f 158/158/158 159/159/159 160/160/160
f 158/158/158 160/160/160 161/161/161
f 162/162/162 158/158/158 161/161/161
f 155/155/155 163/163/163 159/159/159
f 164/164/164 157/157/157 158/158/158
f 165/165/165 164/164/164 158/158/158
f 162/162/162 165/165/165 158/158/158
f 168/168/168 167/167/167 166/166/166
f 169/169/169 168/168/168 166/166/166
f 169/169/169 166/166/166 170/170/170
f 169/169/169 170/170/170 171/171/171
f 169/169/169 171/171/171 172/172/172
f 173/173/173 169/169/169 172/172/172
f 166/166/166 174/174/174 170/170/170
f 175/175/175 168/168/168 169/169/169
f 176/176/176 175/175/175 169/169/169
f 173/173/173 176/176/176 169/169/169
f 179/179/179 178/178/178 177/177/177
f 180/180/180 179/179/179 177/177/177
f 180/180/180 177/177/177 181/181/181
f 180/180/180 181/181/181 182/182/182
f 180/180/180 182/182/182 183/183/183
f 184/184/184 180/180/180 183/183/183
f 177/177/177 185/185/185 181/181/181
f 186/186/186 179/179/179 180/180/180
f 187/187/187 186/186/186 180/180/180
f 184/184/184 187/187/187 180/180/180
