g BambooArenaObject1
v 0.05481607 0.7451949 -0.09494422
v 0.09494422 0.7451949 -0.05481608
v 0.09494422 0.7995611 -0.05481608
v 0.05481607 0.7995612 -0.09494422
v 0 0.7451949 -0.1096321
v 0 0.7995612 -0.1096321
v -0.05481607 0.7451949 -0.09494422
v -0.05481607 0.7995612 -0.09494422
v -0.09494422 0.7451949 -0.05481608
v -0.09494422 0.7995611 -0.05481608
v -0.1096321 0.7451949 0
v -0.1096321 0.7995611 0
v -0.09494422 0.7451949 0.05481607
v -0.09494422 0.7995611 0.05481607
v -0.05481607 0.7451949 0.09494422
v -0.05481607 0.7995611 0.09494422
v 0 0.7451949 0.1096321
v 0 0.7995611 0.1096321
v 0.05481607 0.7451949 0.09494422
v 0.05481607 0.7995611 0.09494422
v 0.09494422 0.7451949 0.05481607
v 0.09494422 0.7995611 0.05481607
v 0.1096321 0.7451949 0
v 0.1096321 0.7995611 0
v -0.0802563 0.8466434 0
v -0.06950398 0.8466434 -0.04012816
v -0.06950398 0.8466434 0.04012816
v -0.04012815 0.8466434 0.06950401
v 0 0.8466434 0.0802563
v 0.04012815 0.8466434 0.06950401
v 0.06950398 0.8466434 0.04012816
v 0.0802563 0.8466434 0
v 0.06950398 0.8466434 -0.04012816
v 0.04012815 0.8466434 -0.06950399
v 0 0.8466434 -0.0802563
v -0.04012815 0.8466434 -0.06950399
v 0 0.8774052 1.490116E-08
v -0.2393613 0.5564806 -0.05171479
v -0.3379196 0.5883033 -0.05616608
v -0.2961548 0.5418675 -0.05616602
v -0.3379196 0.5305219 -0.05616604
v -0.3212118 0.4859696 -0.06091817
v -0.2868395 0.530254 -0.09319988
v -0.3111085 0.4859695 -0.1010854
v -0.2440003 0.5213771 -0.1772766
v -0.2646447 0.4859695 -0.1922757
v -0.1963007 0.5544751 -0.1426208
v -0.1356969 0.6639467 -0.0985896
v -0.1585017 0.6636329 -0.04808536
v -0.04867715 0.7023562 -0.0365489
v -0.2393613 0.5564806 0.0517147
v -0.3379196 0.5883033 0.05616598
v -0.1585017 0.663633 0.04808529
v -0.04867719 0.7023562 0.03654885
v -0.2961548 0.5418675 0.05616595
v -0.3379196 0.5305219 0.05616598
v -0.3212118 0.4859696 0.06091808
v -0.2868395 0.530254 0.0931998
v -0.3111085 0.4859695 0.1010853
v -0.2440003 0.5213771 0.1772765
v -0.2646447 0.4859695 0.1922756
v -0.1963007 0.5544751 0.1426208
v -0.1356969 0.6639467 0.09858955
v -0.1922757 0.4859694 0.2646447
v -0.1772766 0.530254 0.2440002
v -0.1571966 0.4859695 0.2866659
v -0.1449339 0.5418675 0.2643037
v -0.15784 0.5305219 0.3040245
v -0.15784 0.5883033 0.3040244
v -0.1231504 0.5564806 0.2116653
v -0.0947116 0.6636329 0.1358848
v -0.02478309 0.5564806 0.2436268
v -0.05100588 0.5883033 0.338737
v -0.003247874 0.6636329 0.1656032
v 0.02084291 0.7023562 0.05913733
v -0.03809987 0.5418675 0.2990162
v -0.05100588 0.5305219 0.338737
v -0.04132337 0.4859695 0.3243154
v 0 0.530254 0.3016009
v 0 0.4859694 0.3271188
v 0.09319979 0.5213771 0.2868395
v 0.1010853 0.4859694 0.3111085
v 0.07498016 0.5544751 0.2307653
v 0.05183158 0.6639467 0.1595213
v 0.1922756 0.4859694 0.2646447
v 0.1772765 0.530254 0.2440003
v 0.224059 0.4859696 0.2380874
v 0.2065807 0.5418675 0.2195147
v 0.2403691 0.5305219 0.2440635
v 0.2403691 0.5883033 0.2440635
v 0.1632501 0.5564806 0.1825312
v 0.09996668 0.6636329 0.1320668
v 0.2240444 0.5564806 0.09885494
v 0.3063962 0.5883033 0.1531849
v 0.1564944 0.6636329 0.0542631
v 0.06380872 0.7023562 2.980232E-08
v 0.2726077 0.5418675 0.1286362
v 0.3063962 0.5305219 0.1531849
v 0.2956726 0.4859696 0.1395198
v 0.2868395 0.530254 0.0931998
v 0.3111085 0.4859695 0.1010853
v 0.3016009 0.5213771 2.980232E-08
v 0.3271188 0.4859695 1.490116E-08
v 0.242641 0.5544751 2.980232E-08
v 0.1677306 0.6639467 2.980232E-08
v 0.3111085 0.4859695 -0.1010852
v 0.2868395 0.530254 -0.09319976
v 0.2956727 0.4859696 -0.1395198
v 0.2726078 0.5418675 -0.1286361
v 0.3063963 0.5305219 -0.1531849
v 0.3063963 0.5883033 -0.1531849
v 0.2240445 0.5564806 -0.09885488
v 0.1564944 0.6636329 -0.05426306
v 0.1632502 0.5564806 -0.1825311
v 0.2403691 0.5883033 -0.2440634
v 0.09996672 0.6636329 -0.1320668
v 0.02084296 0.7023562 -0.05913733
v 0.2065807 0.5418675 -0.2195146
v 0.2403691 0.5305219 -0.2440634
v 0.2240591 0.4859696 -0.2380874
v 0.1772766 0.530254 -0.2440002
v 0.1922756 0.4859695 -0.2646447
v 0.09319983 0.5213771 -0.2868396
v 0.1010853 0.4859695 -0.3111085
v 6.798655E-08 0.4859695 -0.3271189
v 6.332994E-08 0.530254 -0.3016009
v -0.04132332 0.4859696 -0.3243154
v -0.0380998 0.5418675 -0.2990162
v -0.05100584 0.5305219 -0.3387369
v -0.05100581 0.5883033 -0.338737
v -0.02478301 0.5564806 -0.2436268
v 0.07498022 0.5544751 -0.2307653
v 0.05183164 0.6639467 -0.1595213
v -0.003247807 0.6636329 -0.1656032
v -0.1231503 0.5833197 -0.2116654
v -0.15784 0.5883033 -0.3040244
v -0.09471154 0.6636329 -0.1358849
v -0.1449338 0.5418675 -0.2643037
v -0.1231503 0.5564806 -0.2116654
v -0.15784 0.5305219 -0.3040244
v -0.1571965 0.4859696 -0.2866659
v -0.1772766 0.530254 -0.2440003
v -0.1922756 0.4859695 -0.2646447
vt 0.9921069 0.4916402
vt 0.9973232 0.4863134
vt 0.9937401 0.4842084
vt 0.990057 0.4880252
vt 0.9849257 0.4936442
vt 0.984959 0.4894888
vt 0.9777056 0.4917891
vt 0.9798121 0.488207
vt 0.9723804 0.4865727
vt 0.975996 0.4845237
vt 0.970377 0.479393
vt 0.9745326 0.4794259
vt 0.9722315 0.4721735
vt 0.975814 0.4742797
vt 0.9774468 0.4668485
vt 0.9794968 0.4704635
vt 0.9846259 0.4648442
vt 0.984594 0.469
vt 0.9918456 0.4666978
vt 0.9897405 0.470281
vt 0.9971716 0.471913
vt 0.993557 0.4739636
vt 0.9991766 0.4790926
vt 0.9950211 0.4790614
vt 0.9785702 0.4794662
vt 0.9795127 0.4825399
vt 0.9792907 0.4763332
vt 0.9814812 0.4739802
vt 0.9845546 0.4730376
vt 0.9876877 0.473758
vt 0.9900409 0.4759484
vt 0.9909837 0.4790221
vt 0.9902633 0.4821554
vt 0.9880728 0.4845086
vt 0.9849989 0.4854511
vt 0.9818659 0.4847305
vt 0.984777 0.4792443
vt 0.8498052 0.5089783
vt 0.8448295 0.5070846
vt 0.8453643 0.5097575
vt 0.842358 0.5083108
vt 0.8403248 0.5099325
vt 0.8454862 0.5124267
vt 0.8418777 0.5134923
vt 0.8487125 0.5191612
vt 0.8465295 0.5211546
vt 0.8523182 0.5160025
vt 0.8594989 0.5105803
vt 0.8578186 0.5074723
vt 0.8650345 0.5062508
vt 0.8493547 0.5002112
vt 0.8454135 0.5018928
vt 0.857735 0.5011198
vt 0.8649768 0.5016984
vt 0.845549 0.4994124
vt 0.8431114 0.5009101
vt 0.8405577 0.4991345
vt 0.8454653 0.4967898
vt 0.8418727 0.4958669
vt 0.8482492 0.4900837
vt 0.8458046 0.4883981
vt 0.8520793 0.4928949
vt 0.8592286 0.4978666
vt 0.8516163 0.481881
vt 0.8536155 0.4850745
vt 0.8544696 0.4793629
vt 0.8560678 0.4841581
vt 0.8565691 0.4808355
vt 0.8584421 0.4828401
vt 0.8580415 0.4881951
vt 0.8617055 0.4953088
vt 0.8662202 0.4850415
vt 0.8635018 0.481821
vt 0.8677323 0.4932422
vt 0.8693104 0.5001575
vt 0.8658842 0.4811823
vt 0.8637705 0.4793212
vt 0.864704 0.4763456
vt 0.8683337 0.4802817
vt 0.8681497 0.4765798
vt 0.8754889 0.4808057
vt 0.8763578 0.4779645
vt 0.8739451 0.4853075
vt 0.8712679 0.4936154
vt 0.8842784 0.4814194
vt 0.8818359 0.4842941
vt 0.8875315 0.4833331
vt 0.8834372 0.4863159
vt 0.8867548 0.4857643
vt 0.8854052 0.4881487
vt 0.8801755 0.4894268
vt 0.8744318 0.4951321
vt 0.8856256 0.4961402
vt 0.8878908 0.4925976
vt 0.8782012 0.5001173
vt 0.8720483 0.5037069
vt 0.8892149 0.4946442
vt 0.8903573 0.4920928
vt 0.8934776 0.4920716
vt 0.8908168 0.496659
vt 0.8942938 0.4953682
vt 0.892516 0.5034884
vt 0.8954912 0.503451
vt 0.8877359 0.5034128
vt 0.8789232 0.5035232
vt 0.8946996 0.5118601
vt 0.8911991 0.5104381
vt 0.8939407 0.5154533
vt 0.8897992 0.5125354
vt 0.8913986 0.5154604
vt 0.888708 0.5149378
vt 0.8857933 0.5104432
vt 0.8784447 0.5069335
vt 0.881239 0.5176039
vt 0.8853364 0.5186123
vt 0.8748565 0.5120111
vt 0.869478 0.5074254
vt 0.8838576 0.5204898
vt 0.8866267 0.5207762
vt 0.8876782 0.5236947
vt 0.8825327 0.5225947
vt 0.8849027 0.525453
vt 0.8768255 0.5262842
vt 0.877889 0.5290617
vt 0.8700819 0.5308864
vt 0.8700302 0.5272232
vt 0.8666789 0.5312117
vt 0.8675901 0.5264534
vt 0.8655502 0.5287281
vt 0.8651166 0.5256463
vt 0.8680176 0.5225657
vt 0.8751893 0.5218338
vt 0.8718251 0.5137895
vt 0.8683252 0.514474
vt 0.8598236 0.5196685
vt 0.8597406 0.5251161
vt 0.8621976 0.5129237
vt 0.8570227 0.5243279
vt 0.8579695 0.5203297
vt 0.8583887 0.527091
vt 0.8562937 0.5293195
vt 0.8544283 0.5237812
vt 0.8530266 0.5272267
vn 0.4999997 0 -0.8660256
vn 0.8660253 0 -0.5000003
vn 0.8394709 0.2457328 -0.4846689
vn 0.4846687 0.2457328 -0.8394711
vn 0 0 -1
vn 0 0.2457327 -0.9693376
vn -0.4999997 0 -0.8660256
vn -0.4846686 0.2457329 -0.8394711
vn -0.8660253 0 -0.5000001
vn -0.839471 0.2457327 -0.4846687
vn -1 0 0
vn -0.9693375 0.2457329 0
vn -0.8660255 0 0.4999999
vn -0.839471 0.2457328 0.4846687
vn -0.4999999 0 0.8660255
vn -0.4846688 0.2457327 0.8394711
vn 0 0 1
vn 0 0.2457326 0.9693376
vn 0.4999999 0 0.8660255
vn 0.4846687 0.2457327 0.8394711
vn 0.8660253 0 0.5000002
vn 0.8394709 0.2457328 0.4846689
vn 1 0 0
vn 0.9693376 0.2457329 0
vn -0.7161892 0.6979061 0
vn -0.6202381 0.6979063 -0.3580943
vn -0.620238 0.6979061 0.3580946
vn -0.3580947 0.6979059 0.6202381
vn 0 0.6979058 0.7161896
vn 0.3580947 0.697906 0.6202382
vn 0.620238 0.6979061 0.3580946
vn 0.7161893 0.6979061 0
vn 0.620238 0.6979063 -0.3580943
vn 0.3580945 0.6979065 -0.6202377
vn 0 0.6979064 -0.716189
vn -0.3580945 0.6979065 -0.6202377
vn 0 1 0
vn -0.4666948 0.8709636 -0.1536832
vn -0.2846412 0.9477166 -0.1442662
vn -0.268407 0.328027 -0.905735
vn -0.9403511 -0.148244 -0.3062083
vn -0.9629632 -0.1117987 -0.2453631
vn -0.5809564 0.7507028 -0.3145393
vn -0.7794789 0.5089808 -0.3651727
vn -0.5293255 0.7562502 -0.3845778
vn -0.6821758 0.5375751 -0.4956302
vn -0.547263 0.7364846 -0.3976099
vn -0.6040964 0.6652336 -0.4387846
vn -0.6664416 0.7345508 -0.1276355
vn -0.226857 0.959712 -0.1657978
vn -0.4666949 0.8709635 0.1536829
vn -0.2846414 0.9477165 0.1442662
vn -0.6664414 0.734551 0.1276349
vn -0.2268571 0.9597121 0.1657971
vn -0.2684067 0.3280272 0.9057351
vn -0.940351 -0.1482439 0.3062086
vn -0.9629632 -0.1117988 0.2453631
vn -0.5809566 0.7507026 0.3145392
vn -0.7794791 0.5089806 0.3651724
vn -0.5293257 0.7562502 0.3845775
vn -0.6821761 0.5375752 0.4956297
vn -0.5472632 0.7364845 0.3976099
vn -0.6040965 0.6652334 0.4387849
vn -0.588172 0.508981 0.6284838
vn -0.4786701 0.7507028 0.4553244
vn -0.5309266 -0.1117994 0.8400105
vn -0.9443479 0.3280262 -0.02461834
vn -0.5818064 -0.1482442 0.799703
vn -0.2251647 0.9477165 0.2261289
vn -0.2903779 0.8709636 0.3963624
vn -0.328437 0.7327997 0.595931
vn 0.001944605 0.8709636 0.4913437
vn 0.04924635 0.9477165 0.3152908
vn -0.08490103 0.7333186 0.6745633
vn 0.08922225 0.9586169 0.2703573
vn 0.7784632 0.3280268 0.5351573
vn 0.0006376821 -0.1482441 0.9889506
vn -0.06421653 -0.1117995 0.9916537
vn 0.1196188 0.7507026 0.6497207
vn 0.106427 0.5089806 0.8541733
vn 0.2021843 0.7562501 0.6222598
vn 0.2605678 0.5375752 0.801946
vn 0.2090357 0.7364845 0.6433465
vn 0.2310756 0.6634096 0.7116824
vn 0.4159693 0.508981 0.7535966
vn 0.2851226 0.7507027 0.595945
vn 0.6348323 -0.1117989 0.7645187
vn -0.3152322 0.3280264 0.8905208
vn 0.5807746 -0.1482442 0.8004526
vn 0.1454819 0.9477166 0.2840216
vn 0.2872313 0.8709638 0.3986483
vn 0.4670207 0.7304591 0.4983184
vn 0.4678965 0.8709636 0.1499841
vn 0.3150772 0.9477165 0.05059376
vn 0.6178286 0.7307784 0.29026
vn 0.2870212 0.9579242 0
vn 0.749523 0.3280273 -0.5749898
vn 0.9407449 -0.1482441 0.3049964
vn 0.9232746 -0.1117989 0.3675118
vn 0.6548849 0.750703 0.08701076
vn 0.8452547 0.508981 0.1627359
vn 0.6542823 0.7562503 0
vn 0.8432158 0.5375751 0
vn 0.6764542 0.7364846 0
vn 0.7492639 0.6622714 0
vn 0.8452548 0.5089809 -0.1627355
vn 0.6548851 0.7507029 -0.08701014
vn 0.9232744 -0.1117985 -0.3675124
vn 0.7495238 0.328027 0.574989
vn 0.9407449 -0.1482437 -0.3049967
vn 0.3150776 0.9477164 -0.05059424
vn 0.4678964 0.8709636 -0.149984
vn 0.6178285 0.7307784 -0.2902598
vn 0.2872315 0.8709636 -0.3986483
vn 0.1454824 0.9477164 -0.284022
vn 0.4670208 0.730459 -0.4983183
vn 0.08922254 0.9586169 -0.2703573
vn -0.3152333 0.3280272 -0.8905202
vn 0.5807745 -0.1482437 -0.8004528
vn 0.6348321 -0.1117987 -0.764519
vn 0.2851226 0.7507029 -0.5959449
vn 0.4159693 0.5089809 -0.7535967
vn 0.2021846 0.7562503 -0.6222595
vn 0.2605682 0.5375752 -0.8019458
vn 0.1064272 0.5089809 -0.8541731
vn 0.1196189 0.750703 -0.6497202
vn -0.06421711 -0.1117983 -0.9916539
vn 0.7784631 0.3280266 -0.5351577
vn 0.0006373583 -0.1482439 -0.9889507
vn 0.1134432 0.8888774 -0.443878
vn 0.07680768 0.8590961 -0.5060184
vn 0.2090361 0.7364846 -0.6433462
vn 0.2310762 0.6634094 -0.7116823
vn -0.04404806 0.7489035 -0.6612135
vn -0.2067589 0.9247082 -0.3196334
vn -0.2245814 0.9128817 -0.3408962
vn -0.2976509 0.7545334 -0.5848789
vn -0.9599225 0.2635474 0.09535041
vn -0.6725915 0.6550876 -0.3442106
vn -0.5818064 -0.1482439 -0.7997031
vn -0.5309262 -0.1117985 -0.8400109
vn -0.4786698 0.7507029 -0.4553246
vn -0.5881717 0.5089809 -0.6284842
g BambooArenaObject1_0
f 3/3/3 2/2/2 1/1/1
f 4/4/4 3/3/3 1/1/1
f 4/4/4 1/1/1 5/5/5
f 6/6/6 4/4/4 5/5/5
f 6/6/6 5/5/5 7/7/7
f 8/8/8 6/6/6 7/7/7
f 8/8/8 7/7/7 9/9/9
f 10/10/10 8/8/8 9/9/9
f 10/10/10 9/9/9 11/11/11
f 12/12/12 10/10/10 11/11/11
f 12/12/12 11/11/11 13/13/13
f 14/14/14 12/12/12 13/13/13
f 14/14/14 13/13/13 15/15/15
f 16/16/16 14/14/14 15/15/15
f 16/16/16 15/15/15 17/17/17
f 18/18/18 16/16/16 17/17/17
f 18/18/18 17/17/17 19/19/19
f 20/20/20 18/18/18 19/19/19
f 20/20/20 19/19/19 21/21/21
f 22/22/22 20/20/20 21/21/21
f 22/22/22 21/21/21 23/23/23
f 24/24/24 22/22/22 23/23/23
f 24/24/24 23/23/23 2/2/2
f 3/3/3 24/24/24 2/2/2
f 25/25/25 12/12/12 14/14/14
f 25/25/25 26/26/26 12/12/12
f 27/27/27 25/25/25 14/14/14
f 27/27/27 14/14/14 16/16/16
f 28/28/28 27/27/27 16/16/16
f 28/28/28 16/16/16 18/18/18
f 29/29/29 28/28/28 18/18/18
f 29/29/29 18/18/18 20/20/20
f 30/30/30 29/29/29 20/20/20
f 30/30/30 20/20/20 22/22/22
f 31/31/31 30/30/30 22/22/22
f 31/31/31 22/22/22 24/24/24
f 32/32/32 31/31/31 24/24/24
f 32/32/32 24/24/24 3/3/3
f 33/33/33 32/32/32 3/3/3
f 33/33/33 3/3/3 4/4/4
f 34/34/34 33/33/33 4/4/4
f 34/34/34 4/4/4 6/6/6
f 35/35/35 34/34/34 6/6/6
f 35/35/35 6/6/6 8/8/8
f 36/36/36 35/35/35 8/8/8
f 36/36/36 8/8/8 10/10/10
f 26/26/26 36/36/36 10/10/10
f 26/26/26 10/10/10 12/12/12
f 34/34/34 37/37/37 33/33/33
f 35/35/35 37/37/37 34/34/34
f 36/36/36 37/37/37 35/35/35
f 28/28/28 37/37/37 27/27/27
f 29/29/29 37/37/37 28/28/28
f 30/30/30 37/37/37 29/29/29
f 31/31/31 37/37/37 30/30/30
f 32/32/32 37/37/37 31/31/31
f 33/33/33 37/37/37 32/32/32
f 26/26/26 37/37/37 36/36/36
f 25/25/25 37/37/37 26/26/26
f 27/27/27 37/37/37 25/25/25
f 40/40/40 39/39/39 38/38/38
f 41/41/41 39/39/39 40/40/40
f 42/42/42 41/41/41 40/40/40
f 40/40/40 43/43/43 42/42/42
f 38/38/38 43/43/43 40/40/40
f 43/43/43 44/44/44 42/42/42
f 43/43/43 45/45/45 44/44/44
f 45/45/45 46/46/46 44/44/44
f 47/47/47 45/45/45 43/43/43
f 38/38/38 47/47/47 43/43/43
f 48/48/48 47/47/47 38/38/38
f 49/49/49 48/48/48 38/38/38
f 50/50/50 48/48/48 49/49/49
f 51/51/51 38/38/38 39/39/39
f 52/52/52 51/51/51 39/39/39
f 53/53/53 49/49/49 38/38/38
f 51/51/51 53/53/53 38/38/38
f 54/54/54 50/50/50 49/49/49
f 53/53/53 54/54/54 49/49/49
f 52/52/52 55/55/55 51/51/51
f 52/52/52 56/56/56 55/55/55
f 56/56/56 41/41/41 42/42/42
f 39/39/39 41/41/41 56/56/56
f 52/52/52 39/39/39 56/56/56
f 56/56/56 57/57/57 55/55/55
f 58/58/58 55/55/55 57/57/57
f 58/58/58 51/51/51 55/55/55
f 59/59/59 58/58/58 57/57/57
f 60/60/60 58/58/58 59/59/59
f 61/61/61 60/60/60 59/59/59
f 62/62/62 51/51/51 58/58/58
f 60/60/60 62/62/62 58/58/58
f 63/63/63 53/53/53 51/51/51
f 62/62/62 63/63/63 51/51/51
f 63/63/63 54/54/54 53/53/53
f 57/57/57 56/56/56 42/42/42
f 60/60/60 61/61/61 64/64/64
f 65/65/65 60/60/60 64/64/64
f 62/62/62 60/60/60 65/65/65
f 65/65/65 64/64/64 66/66/66
f 67/67/67 65/65/65 66/66/66
f 66/66/66 68/68/68 67/67/67
f 68/68/68 69/69/69 67/67/67
f 67/67/67 69/69/69 70/70/70
f 70/70/70 65/65/65 67/67/67
f 70/70/70 62/62/62 65/65/65
f 63/63/63 62/62/62 70/70/70
f 71/71/71 63/63/63 70/70/70
f 54/54/54 63/63/63 71/71/71
f 72/72/72 70/70/70 69/69/69
f 73/73/73 72/72/72 69/69/69
f 74/74/74 71/71/71 70/70/70
f 72/72/72 74/74/74 70/70/70
f 75/75/75 54/54/54 71/71/71
f 74/74/74 75/75/75 71/71/71
f 73/73/73 76/76/76 72/72/72
f 69/69/69 68/68/68 77/77/77
f 73/73/73 69/69/69 77/77/77
f 73/73/73 77/77/77 76/76/76
f 77/77/77 68/68/68 66/66/66
f 77/77/77 78/78/78 76/76/76
f 78/78/78 77/77/77 66/66/66
f 79/79/79 76/76/76 78/78/78
f 79/79/79 72/72/72 76/76/76
f 80/80/80 79/79/79 78/78/78
f 81/81/81 79/79/79 80/80/80
f 82/82/82 81/81/81 80/80/80
f 83/83/83 72/72/72 79/79/79
f 81/81/81 83/83/83 79/79/79
f 84/84/84 74/74/74 72/72/72
f 83/83/83 84/84/84 72/72/72
f 84/84/84 75/75/75 74/74/74
f 81/81/81 82/82/82 85/85/85
f 86/86/86 81/81/81 85/85/85
f 83/83/83 81/81/81 86/86/86
f 86/86/86 85/85/85 87/87/87
f 88/88/88 86/86/86 87/87/87
f 87/87/87 89/89/89 88/88/88
f 89/89/89 90/90/90 88/88/88
f 88/88/88 90/90/90 91/91/91
f 91/91/91 86/86/86 88/88/88
f 91/91/91 83/83/83 86/86/86
f 84/84/84 83/83/83 91/91/91
f 92/92/92 84/84/84 91/91/91
f 75/75/75 84/84/84 92/92/92
f 93/93/93 91/91/91 90/90/90
f 94/94/94 93/93/93 90/90/90
f 95/95/95 92/92/92 91/91/91
f 93/93/93 95/95/95 91/91/91
f 96/96/96 75/75/75 92/92/92
f 95/95/95 96/96/96 92/92/92
f 94/94/94 97/97/97 93/93/93
f 90/90/90 89/89/89 98/98/98
f 94/94/94 90/90/90 98/98/98
f 94/94/94 98/98/98 97/97/97
f 98/98/98 89/89/89 87/87/87
f 98/98/98 99/99/99 97/97/97
f 99/99/99 98/98/98 87/87/87
f 100/100/100 97/97/97 99/99/99
f 100/100/100 93/93/93 97/97/97
f 101/101/101 100/100/100 99/99/99
f 102/102/102 100/100/100 101/101/101
f 103/103/103 102/102/102 101/101/101
f 104/104/104 93/93/93 100/100/100
f 102/102/102 104/104/104 100/100/100
f 105/105/105 95/95/95 93/93/93
f 104/104/104 105/105/105 93/93/93
f 105/105/105 96/96/96 95/95/95
f 102/102/102 103/103/103 106/106/106
f 107/107/107 102/102/102 106/106/106
f 104/104/104 102/102/102 107/107/107
f 107/107/107 106/106/106 108/108/108
f 109/109/109 107/107/107 108/108/108
f 108/108/108 110/110/110 109/109/109
f 110/110/110 111/111/111 109/109/109
f 109/109/109 111/111/111 112/112/112
f 112/112/112 107/107/107 109/109/109
f 112/112/112 104/104/104 107/107/107
f 105/105/105 104/104/104 112/112/112
f 113/113/113 105/105/105 112/112/112
f 96/96/96 105/105/105 113/113/113
f 114/114/114 112/112/112 111/111/111
f 115/115/115 114/114/114 111/111/111
f 116/116/116 113/113/113 112/112/112
f 114/114/114 116/116/116 112/112/112
f 117/117/117 96/96/96 113/113/113
f 116/116/116 117/117/117 113/113/113
f 115/115/115 118/118/118 114/114/114
f 111/111/111 110/110/110 119/119/119
f 115/115/115 111/111/111 119/119/119
f 115/115/115 119/119/119 118/118/118
f 119/119/119 110/110/110 108/108/108
f 119/119/119 120/120/120 118/118/118
f 120/120/120 119/119/119 108/108/108
f 121/121/121 118/118/118 120/120/120
f 121/121/121 114/114/114 118/118/118
f 122/122/122 121/121/121 120/120/120
f 123/123/123 121/121/121 122/122/122
f 124/124/124 123/123/123 122/122/122
f 123/123/123 124/124/124 125/125/125
f 126/126/126 123/123/123 125/125/125
f 126/126/126 125/125/125 127/127/127
f 128/128/128 126/126/126 127/127/127
f 127/127/127 129/129/129 128/128/128
f 129/129/129 130/130/130 128/128/128
f 128/128/128 130/130/130 131/131/131
f 131/131/131 126/126/126 128/128/128
f 132/132/132 123/123/123 126/126/126
f 131/131/131 132/132/132 126/126/126
f 123/123/123 132/132/132 121/121/121
f 133/133/133 132/132/132 131/131/131
f 134/134/134 133/133/133 131/131/131
f 117/117/117 133/133/133 134/134/134
f 135/135/135 131/131/131 130/130/130
f 136/136/136 135/135/135 130/130/130
f 137/137/137 134/134/134 131/131/131
f 135/135/135 137/137/137 131/131/131
f 50/50/50 117/117/117 134/134/134
f 137/137/137 50/50/50 134/134/134
f 136/136/136 138/138/138 135/135/135
f 138/138/138 139/139/139 135/135/135
f 135/135/135 139/139/139 137/137/137
f 130/130/130 129/129/129 140/140/140
f 136/136/136 130/130/130 140/140/140
f 136/136/136 140/140/140 138/138/138
f 140/140/140 129/129/129 127/127/127
f 140/140/140 141/141/141 138/138/138
f 142/142/142 138/138/138 141/141/141
f 142/142/142 139/139/139 138/138/138
f 143/143/143 142/142/142 141/141/141
f 45/45/45 142/142/142 143/143/143
f 46/46/46 45/45/45 143/143/143
f 47/47/47 139/139/139 142/142/142
f 45/45/45 47/47/47 142/142/142
f 48/48/48 137/137/137 139/139/139
f 47/47/47 48/48/48 139/139/139
f 48/48/48 50/50/50 137/137/137
f 141/141/141 140/140/140 127/127/127
f 133/133/133 117/117/117 116/116/116
f 133/133/133 116/116/116 114/114/114
f 132/132/132 133/133/133 114/114/114
f 132/132/132 114/114/114 121/121/121
