g Body
v -0.00187743 0.001956314 0.0007157319
v -0.002422362 0.001062717 0.0007400826
v -0.002519493 0.001124323 -0.0005736251
v -0.001873371 0.002037858 -0.0004678409
v -0.001666267 0.001695772 0.001566111
v -0.001943021 0.0009902907 0.001849273
v -0.002655504 0 0.0007646367
v -0.002044798 0 0.001993856
v -0.00173189 0.001828297 -0.001260754
v -0.00215582 0.001066317 -0.001583408
v -0.002855599 0 -0.0006358397
v -0.002381042 0 -0.001750233
v -0.001010878 0.002571421 -0.0003782543
v -0.0009918875 0.0024798 0.0007502101
v 0.0001251861 0.002677963 0.0008413494
v 4.470876E-05 0.002785867 -0.0002216733
v 0.001332717 0.002449464 0.0009124596
v 0.001270342 0.002578923 -0.0001281749
v -0.001013066 0.002150964 -0.001246587
v 5.047031E-06 0.002316731 -0.001102742
v -0.0009450716 0.001995069 0.00173794
v 0.0001508125 0.002060798 0.001882198
v 0.00225675 0.001865719 0.0008312183
v 0.002239266 0.001948134 -0.0001517832
v 0.001259298 0.001894016 0.001816101
v 0.002007931 0.001573676 0.001541499
v 0.001185585 0.002148918 -0.001028389
v 0.001979293 0.001736647 -0.0009245548
v 0.002754537 0.001049398 -0.0002142338
v 0.002718563 0.001003567 0.000805551
v 0.002861822 0 0.0008003351
v 0.002935881 0 -0.0002622357
v 0.00233999 0.0009788669 -0.001217067
v 0.002518063 0 -0.001398228
v 0.002276556 0.0008818026 0.001655597
v 0.002371601 0 0.001663197
v 0.001294162 0.001028077 -0.001880864
v 6.603204E-05 0.001125418 -0.001955556
v 0.000179607 0 -0.002408481
v -0.001110985 0.001080781 -0.002017176
v -0.00114383 0 -0.002376655
v -0.00215582 0.001066317 -0.001583408
v -0.002381042 0 -0.001750233
v 0.001425704 0 -0.002279956
v 0.00233999 0.0009788669 -0.001217067
v 0.002518063 0 -0.001398228
v 0.001202965 0 0.002502261
v 0.001194975 0.0008846251 0.002449949
v -1.202196E-05 0 0.002710335
v 9.936063E-05 0.0009993648 0.002649732
v -0.001000184 0.0009909651 0.00250271
v -0.001217994 0 0.002607953
v 0.001194975 -0.0008846251 0.002449949
v 9.936063E-05 -0.0009993648 0.002649732
v 0.001259298 -0.001894016 0.001816101
v 0.0001508125 -0.002060798 0.001882198
v 0.0001251861 -0.002677963 0.0008413494
v -0.0009450716 -0.001995069 0.00173794
v -0.0009918875 -0.0024798 0.0007502101
v -0.001010878 -0.002571421 -0.0003782543
v 4.470876E-05 -0.002785867 -0.0002216733
v -0.00187743 -0.001956314 0.0007157319
v -0.001873371 -0.002037858 -0.0004678409
v -0.002519493 -0.001124323 -0.0005736251
v -0.002422362 -0.001062717 0.0007400826
v -0.001666267 -0.001695772 0.001566111
v -0.001943021 -0.0009902907 0.001849273
v -0.00173189 -0.001828297 -0.001260754
v -0.00215582 -0.001066317 -0.001583408
v -0.001013066 -0.002150964 -0.001246587
v 5.047031E-06 -0.002316731 -0.001102742
v 0.001185585 -0.002148918 -0.001028389
v 0.001270342 -0.002578923 -0.0001281749
v 0.001979293 -0.001736647 -0.0009245548
v 0.002239266 -0.001948134 -0.0001517832
v 0.00225675 -0.001865719 0.0008312183
v 0.001332717 -0.002449464 0.0009124596
v 0.002007931 -0.001573676 0.001541499
v 0.002754537 -0.001049398 -0.0002142338
v 0.002718563 -0.001003567 0.000805551
v 0.00233999 -0.0009788669 -0.001217067
v 0.002276556 -0.0008818026 0.001655597
v 0.000179607 0 -0.002408481
v -0.00114383 0 -0.002376655
v -0.001110985 -0.001080781 -0.002017176
v 6.603204E-05 -0.001125418 -0.001955556
v -0.00215582 -0.001066317 -0.001583408
v -0.002381042 0 -0.001750233
v 0.001294162 -0.001028077 -0.001880864
v 0.001425704 0 -0.002279956
v 0.00233999 -0.0009788669 -0.001217067
v 0.002518063 0 -0.001398228
v -0.001000184 -0.0009909651 0.00250271
vt 0.2531681 0.9703522
vt 0.2555807 0.9687445
vt 0.2537481 0.9644316
vt 0.2500928 0.9674866
vt 0.2547956 0.9718693
vt 0.2565155 0.9715527
vt 0.2585697 0.9680805
vt 0.2585697 0.9714952
vt 0.246053 0.9640117
vt 0.2508895 0.9585043
vt 0.2585697 0.96325
vt 0.2585697 0.9565501
vt 0.2483544 0.97127
vt 0.2517316 0.9727436
vt 0.2512657 0.9757078
vt 0.24805 0.9751611
vt 0.251874 0.9789057
vt 0.2486216 0.9795324
vt 0.2443263 0.9691138
vt 0.2439798 0.9744964
vt 0.254245 0.9735436
vt 0.2541282 0.9759024
vt 0.253233 0.9815885
vt 0.2503297 0.9837071
vt 0.2544121 0.9782788
vt 0.2548107 0.9802117
vt 0.2439497 0.9806309
vt 0.2450587 0.987347
vt 0.2537625 0.9868436
vt 0.2555574 0.9831875
vt 0.2585697 0.9839184
vt 0.2585697 0.9881135
vt 0.2503737 0.9935845
vt 0.2585697 0.9959359
vt 0.2564913 0.9808163
vt 0.2585697 0.9810908
vt 0.2398001 0.9811063
vt 0.2399985 0.9740892
vt 0.2359023 0.9739513
vt 0.2412109 0.9675357
vt 0.2374896 0.9663311
vt 0.2445918 0.9625532
vt 0.241246 0.9593843
vt 0.2362569 0.9812704
vt 0.2428325 0.9883845
vt 0.2394594 0.9889663
vt 0.2585697 0.9780237
vt 0.2568126 0.9779528
vt 0.2585697 0.9756463
vt 0.2567372 0.9758427
vt 0.2567347 0.9738021
vt 0.2585697 0.9734368
vt 0.2603269 0.9779528
vt 0.2604023 0.9758427
vt 0.2627274 0.9782788
vt 0.2630112 0.9759024
vt 0.2658738 0.9757078
vt 0.2628945 0.9735436
vt 0.2654078 0.9727436
vt 0.2687851 0.97127
vt 0.2690895 0.9751611
vt 0.2639714 0.9703522
vt 0.2670467 0.9674866
vt 0.2633914 0.9644316
vt 0.2615588 0.9687445
vt 0.2623439 0.9718693
vt 0.2606241 0.9715527
vt 0.2710864 0.9640117
vt 0.2662499 0.9585043
vt 0.2728131 0.9691138
vt 0.2731597 0.9744964
vt 0.2731898 0.9806309
vt 0.2685179 0.9795324
vt 0.2720807 0.987347
vt 0.2668097 0.9837071
vt 0.2639065 0.9815885
vt 0.2652655 0.9789057
vt 0.2623288 0.9802117
vt 0.263377 0.9868436
vt 0.261582 0.9831875
vt 0.2667658 0.9935845
vt 0.2606482 0.9808163
vt 0.2812371 0.9739513
vt 0.2796499 0.9663311
vt 0.2759286 0.9675357
vt 0.2771409 0.9740892
vt 0.2725477 0.9625532
vt 0.2758935 0.9593843
vt 0.2773394 0.9811063
vt 0.2808825 0.9812704
vt 0.274307 0.9883845
vt 0.27768 0.9889663
vt 0.2604048 0.9738021
vn -0.6814386 0.6976749 0.2211135
vn -0.8971437 0.3691607 0.2425974
vn -0.8995942 0.4181788 -0.1259236
vn -0.6628805 0.7366458 -0.1339495
vn -0.5940583 0.6175886 0.5154405
vn -0.7146636 0.3496563 0.6058023
vn -0.9624479 0 0.2714667
vn -0.7632855 0 0.6460613
vn -0.5165671 0.6675759 -0.536191
vn -0.6504569 0.4250722 -0.6294596
vn -0.9907807 0 -0.1354755
vn -0.7306584 0 -0.6827433
vn -0.3168825 0.9327937 -0.1717019
vn -0.3386448 0.9046297 0.2587752
vn -0.005371409 0.9535472 0.3011957
vn 0.00524928 0.9847282 -0.1740197
vn 0.3507524 0.8858994 0.3035704
vn 0.3481598 0.9224953 -0.1666943
vn -0.2033812 0.7543171 -0.624213
vn 0.04614517 0.7721992 -0.6337026
vn -0.2980471 0.7321168 0.6125135
vn 0.01126159 0.7383515 0.6743222
vn 0.7157961 0.6472807 0.2620374
vn 0.7062503 0.6879386 -0.1671855
vn 0.33513 0.6583574 0.6739833
vn 0.6149275 0.5202575 0.5926181
vn 0.2968889 0.7357829 -0.6086711
vn 0.5789291 0.6195204 -0.530128
vn 0.9245164 0.3441949 -0.1637047
vn 0.9186304 0.2968306 0.2607873
vn 0.962466 0 0.2714022
vn 0.9868219 0 -0.1618101
vn 0.7142714 0.3907983 -0.5805972
vn 0.7888113 0 -0.6146355
vn 0.7225823 0.2390601 0.6486332
vn 0.7548032 0 0.6559512
vn 0.305009 0.4615116 -0.8330525
vn 0.05762072 0.4826345 -0.8739244
vn 0.053592 0 -0.998563
vn -0.1757303 0.4387154 -0.8812762
vn -0.2099417 0 -0.9777139
vn -0.6504569 0.4250722 -0.6294596
vn -0.7306584 0 -0.6827433
vn 0.3555143 0 -0.9346708
vn 0.7142714 0.3907983 -0.5805972
vn 0.7888113 0 -0.6146355
vn 0.3897605 0 0.9209163
vn 0.3654017 0.2663071 0.8919428
vn 0.02444548 0 0.9997011
vn 0.03173991 0.33803 0.9405999
vn -0.309527 0.3589378 0.8805434
vn -0.3804182 0 0.9248145
vn 0.3654017 -0.2663071 0.8919428
vn 0.03173991 -0.33803 0.9405999
vn 0.33513 -0.6583574 0.6739833
vn 0.01126159 -0.7383515 0.6743222
vn -0.005371409 -0.9535472 0.3011957
vn -0.2980471 -0.7321168 0.6125135
vn -0.3386448 -0.9046297 0.2587752
vn -0.3168825 -0.9327937 -0.1717019
vn 0.00524928 -0.9847282 -0.1740197
vn -0.6814386 -0.6976749 0.2211135
vn -0.6628805 -0.7366458 -0.1339495
vn -0.8995942 -0.4181788 -0.1259236
vn -0.8971437 -0.3691607 0.2425974
vn -0.5940583 -0.6175886 0.5154405
vn -0.7146636 -0.3496563 0.6058023
vn -0.5165671 -0.6675759 -0.536191
vn -0.6504569 -0.4250722 -0.6294596
vn -0.2033812 -0.7543171 -0.624213
vn 0.04614517 -0.7721992 -0.6337026
vn 0.2968889 -0.7357829 -0.6086711
vn 0.3481598 -0.9224953 -0.1666943
vn 0.5789291 -0.6195204 -0.530128
vn 0.7062503 -0.6879386 -0.1671855
vn 0.7157961 -0.6472807 0.2620374
vn 0.3507524 -0.8858994 0.3035704
vn 0.6149275 -0.5202575 0.5926181
vn 0.9245164 -0.3441949 -0.1637047
vn 0.9186304 -0.2968306 0.2607873
vn 0.7142714 -0.3907983 -0.5805972
vn 0.7225823 -0.2390601 0.6486332
vn 0.053592 0 -0.998563
vn -0.2099417 0 -0.9777139
vn -0.1757303 -0.4387154 -0.8812762
vn 0.05762072 -0.4826345 -0.8739244
vn -0.6504569 -0.4250722 -0.6294596
vn -0.7306584 0 -0.6827433
vn 0.305009 -0.4615116 -0.8330525
vn 0.3555143 0 -0.9346708
vn 0.7142714 -0.3907983 -0.5805972
vn 0.7888113 0 -0.6146355
vn -0.309527 -0.3589378 0.8805434
g Body_0
f 3/3/3 2/2/2 1/1/1
f 4/4/4 3/3/3 1/1/1
f 5/5/5 1/1/1 2/2/2
f 6/6/6 5/5/5 2/2/2
f 6/6/6 2/2/2 7/7/7
f 8/8/8 6/6/6 7/7/7
f 4/4/4 9/9/9 3/3/3
f 9/9/9 10/10/10 3/3/3
f 3/3/3 10/10/10 11/11/11
f 11/11/11 7/7/7 2/2/2
f 3/3/3 11/11/11 2/2/2
f 10/10/10 12/12/12 11/11/11
f 13/13/13 4/4/4 1/1/1
f 9/9/9 4/4/4 13/13/13
f 14/14/14 13/13/13 1/1/1
f 1/1/1 5/5/5 14/14/14
f 14/14/14 15/15/15 13/13/13
f 15/15/15 16/16/16 13/13/13
f 16/16/16 15/15/15 17/17/17
f 18/18/18 16/16/16 17/17/17
f 19/19/19 13/13/13 16/16/16
f 19/19/19 9/9/9 13/13/13
f 20/20/20 19/19/19 16/16/16
f 14/14/14 21/21/21 15/15/15
f 21/21/21 22/22/22 15/15/15
f 5/5/5 21/21/21 14/14/14
f 18/18/18 17/17/17 23/23/23
f 24/24/24 18/18/18 23/23/23
f 25/25/25 17/17/17 15/15/15
f 22/22/22 25/25/25 15/15/15
f 26/26/26 23/23/23 17/17/17
f 25/25/25 26/26/26 17/17/17
f 27/27/27 20/20/20 16/16/16
f 18/18/18 27/27/27 16/16/16
f 28/28/28 27/27/27 18/18/18
f 24/24/24 28/28/28 18/18/18
f 29/29/29 24/24/24 23/23/23
f 28/28/28 24/24/24 29/29/29
f 30/30/30 29/29/29 23/23/23
f 23/23/23 26/26/26 30/30/30
f 30/30/30 31/31/31 29/29/29
f 31/31/31 32/32/32 29/29/29
f 33/33/33 29/29/29 32/32/32
f 33/33/33 28/28/28 29/29/29
f 34/34/34 33/33/33 32/32/32
f 30/30/30 35/35/35 31/31/31
f 26/26/26 35/35/35 30/30/30
f 35/35/35 36/36/36 31/31/31
f 27/27/27 28/28/28 37/37/37
f 27/27/27 37/37/37 38/38/38
f 38/38/38 37/37/37 39/39/39
f 40/40/40 38/38/38 39/39/39
f 41/41/41 40/40/40 39/39/39
f 40/40/40 19/19/19 38/38/38
f 19/19/19 20/20/20 38/38/38
f 42/42/42 40/40/40 41/41/41
f 43/43/43 42/42/42 41/41/41
f 9/9/9 19/19/19 40/40/40
f 42/42/42 9/9/9 40/40/40
f 37/37/37 44/44/44 39/39/39
f 37/37/37 45/45/45 44/44/44
f 45/45/45 46/46/46 44/44/44
f 20/20/20 27/27/27 38/38/38
f 28/28/28 45/45/45 37/37/37
f 36/36/36 35/35/35 47/47/47
f 35/35/35 48/48/48 47/47/47
f 47/47/47 48/48/48 49/49/49
f 48/48/48 50/50/50 49/49/49
f 48/48/48 25/25/25 50/50/50
f 25/25/25 22/22/22 50/50/50
f 26/26/26 25/25/25 48/48/48
f 35/35/35 26/26/26 48/48/48
f 50/50/50 51/51/51 49/49/49
f 51/51/51 52/52/52 49/49/49
f 51/51/51 6/6/6 52/52/52
f 6/6/6 8/8/8 52/52/52
f 21/21/21 51/51/51 50/50/50
f 22/22/22 21/21/21 50/50/50
f 5/5/5 6/6/6 51/51/51
f 21/21/21 5/5/5 51/51/51
f 53/53/53 47/47/47 49/49/49
f 54/54/54 53/53/53 49/49/49
f 55/55/55 53/53/53 54/54/54
f 56/56/56 55/55/55 54/54/54
f 55/55/55 56/56/56 57/57/57
f 56/56/56 58/58/58 57/57/57
f 58/58/58 56/56/56 54/54/54
f 58/58/58 59/59/59 57/57/57
f 57/57/57 59/59/59 60/60/60
f 61/61/61 57/57/57 60/60/60
f 60/60/60 59/59/59 62/62/62
f 63/63/63 60/60/60 62/62/62
f 64/64/64 63/63/63 62/62/62
f 65/65/65 64/64/64 62/62/62
f 62/62/62 66/66/66 65/65/65
f 66/66/66 62/62/62 59/59/59
f 58/58/58 66/66/66 59/59/59
f 66/66/66 67/67/67 65/65/65
f 65/65/65 67/67/67 7/7/7
f 67/67/67 8/8/8 7/7/7
f 68/68/68 63/63/63 64/64/64
f 63/63/63 68/68/68 60/60/60
f 69/69/69 68/68/68 64/64/64
f 69/69/69 64/64/64 11/11/11
f 11/11/11 64/64/64 65/65/65
f 7/7/7 11/11/11 65/65/65
f 12/12/12 69/69/69 11/11/11
f 60/60/60 70/70/70 61/61/61
f 68/68/68 70/70/70 60/60/60
f 70/70/70 71/71/71 61/61/61
f 71/71/71 72/72/72 61/61/61
f 72/72/72 73/73/73 61/61/61
f 72/72/72 74/74/74 73/73/73
f 74/74/74 75/75/75 73/73/73
f 73/73/73 75/75/75 76/76/76
f 77/77/77 73/73/73 76/76/76
f 61/61/61 73/73/73 77/77/77
f 57/57/57 61/61/61 77/77/77
f 77/77/77 55/55/55 57/57/57
f 78/78/78 55/55/55 77/77/77
f 76/76/76 78/78/78 77/77/77
f 75/75/75 79/79/79 76/76/76
f 75/75/75 74/74/74 79/79/79
f 79/79/79 80/80/80 76/76/76
f 78/78/78 76/76/76 80/80/80
f 31/31/31 80/80/80 79/79/79
f 32/32/32 31/31/31 79/79/79
f 79/79/79 81/81/81 32/32/32
f 74/74/74 81/81/81 79/79/79
f 81/81/81 34/34/34 32/32/32
f 82/82/82 80/80/80 31/31/31
f 82/82/82 78/78/78 80/80/80
f 36/36/36 82/82/82 31/31/31
f 82/82/82 36/36/36 47/47/47
f 53/53/53 82/82/82 47/47/47
f 78/78/78 82/82/82 53/53/53
f 55/55/55 78/78/78 53/53/53
f 85/85/85 84/84/84 83/83/83
f 86/86/86 85/85/85 83/83/83
f 70/70/70 85/85/85 86/86/86
f 71/71/71 70/70/70 86/86/86
f 85/85/85 87/87/87 84/84/84
f 87/87/87 88/88/88 84/84/84
f 68/68/68 87/87/87 85/85/85
f 70/70/70 68/68/68 85/85/85
f 89/89/89 86/86/86 83/83/83
f 90/90/90 89/89/89 83/83/83
f 91/91/91 89/89/89 90/90/90
f 92/92/92 91/91/91 90/90/90
f 72/72/72 71/71/71 86/86/86
f 89/89/89 72/72/72 86/86/86
f 74/74/74 72/72/72 89/89/89
f 91/91/91 74/74/74 89/89/89
f 93/93/93 54/54/54 49/49/49
f 52/52/52 93/93/93 49/49/49
f 67/67/67 93/93/93 52/52/52
f 8/8/8 67/67/67 52/52/52
f 93/93/93 58/58/58 54/54/54
f 66/66/66 58/58/58 93/93/93
f 67/67/67 66/66/66 93/93/93
