g Body
v -0.5114808 -0.04745877 0.345642
v -0.5468274 0.01048684 0.3651106
v -0.5084926 0.007155985 0.4145005
v -0.4955261 -0.04745877 0.4095457
v -0.5539013 0.07207283 0.3763606
v -0.5241236 0.08823881 0.4134918
v -0.5503058 0.1084712 0.3387489
v -0.5036525 0.1515781 0.3552115
v -0.5600901 0.01547357 0.3054842
v -0.5113167 -0.04745877 0.2641795
v -0.4587988 0.1129709 0.2100557
v -0.4306485 0.1444296 0.233186
v -0.4807647 0.01739937 0.1780413
v -0.4622082 -0.04745877 0.1581549
v -0.4028738 -0.04745877 0.05524846
v -0.394632 0.01003277 0.05702504
v -0.366244 0.08372259 0.07623579
v -0.3321298 0.1242359 0.1025336
v -0.4356122 -0.04745877 0.4447487
v -0.4341882 0.1592426 0.3698246
v -0.4697278 0.09703195 0.4353287
v -0.3045848 0.107961 0.4004777
v -0.3242796 0.06749469 0.4285927
v -0.4340921 -0.004995316 0.439417
v -0.3270841 -0.006249934 0.434014
v -0.3267398 -0.0474588 0.4363097
v -0.1297698 -0.02761352 0.4155447
v -0.1282122 -0.0474588 0.4106739
v -0.1357566 0.003414094 0.4156257
v -0.1291057 0.02736863 0.4262259
v -0.2595127 0.1448516 0.3283427
v -0.3796223 0.1715487 0.2705724
v -0.1106193 0.1115875 0.3731585
v 0.005279797 0.09823596 0.3805357
v 0.0147254 0.00544101 0.4278265
v 0.161261 0.1210984 0.3507946
v 0.1916905 0.06118429 0.4140816
v 0.276688 0.1552448 0.3133967
v 0.3035577 0.1187512 0.3828174
v 0.3855811 0.17242 0.2816808
v 0.4230781 0.1488799 0.3801914
v -0.2853679 0.1563916 0.1337281
v -0.2062919 0.1578054 0.1681543
v -0.09433839 0.1452694 0.1877435
v 0.004125854 0.1445868 0.1861333
v 0.1126372 0.155876 0.1661523
v 0.2113046 0.1653573 0.1388921
v 0.2932633 0.1454286 0.1054445
v 0.1964263 0.03160983 0.4171167
v 0.3377742 0.06287196 0.4361067
v 0.4494467 0.09368429 0.4389043
v 0.3508422 0.00227654 0.4382057
v 0.4379795 0.01306388 0.4398912
v 0.3653649 -0.0474588 0.4445074
v 0.4408416 -0.04745877 0.442552
v 0.4371144 0.1544151 0.2571655
v 0.3312246 0.1122901 0.07892657
v 0.4663181 0.1130649 0.2236631
v 0.5429381 0.1163141 0.3440893
v 0.4888607 0.1537763 0.3710578
v 0.5499361 0.02343324 0.2898723
v 0.4810422 0.03689995 0.1891707
v 0.5161561 -0.04745877 0.2403257
v 0.4541772 -0.04745877 0.1632202
v 0.3550202 0.09106997 0.06535576
v 0.368398 0.0315167 0.03992816
v 0.3749282 -0.04745877 0.02597316
v 0.5313248 0.09734395 0.3859599
v 0.5013257 0.09846157 0.4184596
v 0.5419033 0.0248819 0.3698193
v 0.5049081 -0.04745877 0.3404017
v 0.5056551 0.01658779 0.412607
v 0.4900384 -0.04745877 0.4019988
v 0.01743738 -0.02921271 0.4119231
v 0.0183066 -0.04745877 0.4034038
v 0.2050974 -0.01185575 0.4226685
v 0.2088543 -0.04745877 0.4201811
vt 0.921843 0.6060972
vt 0.9200594 0.6116846
vt 0.9253985 0.6150371
vt 0.9287732 0.6122438
vt 0.9184499 0.6155409
vt 0.9202685 0.6186329
vt 0.9149677 0.6169221
vt 0.9146851 0.6215294
vt 0.9146075 0.609768
vt 0.9110449 0.603922
vt 0.9029036 0.6196483
vt 0.9042544 0.6237757
vt 0.9012228 0.6107262
vt 0.8981568 0.605445
vt 0.8871906 0.6085414
vt 0.8879771 0.6139281
vt 0.8893005 0.622005
vt 0.8911485 0.6281924
vt 0.9333312 0.6201953
vt 0.9152121 0.6264095
vt 0.9220087 0.6225564
vt 0.9199275 0.6362132
vt 0.9245488 0.6339797
vt 0.9300113 0.6217228
vt 0.9310755 0.6326934
vt 0.9348266 0.6324179
vt 0.9317833 0.6514181
vt 0.9336227 0.6516448
vt 0.9289783 0.6508023
vt 0.9265196 0.6515428
vt 0.9121067 0.6399045
vt 0.9068686 0.6293617
vt 0.9170489 0.6530575
vt 0.918179 0.6634811
vt 0.9279396 0.6643877
vt 0.9149267 0.6774207
vt 0.9233766 0.6803026
vt 0.910305 0.6874827
vt 0.9176957 0.6896775
vt 0.9075361 0.6967129
vt 0.9157509 0.6988639
vt 0.8936375 0.6349701
vt 0.8971302 0.6432864
vt 0.8992973 0.6542159
vt 0.8992874 0.663404
vt 0.8971431 0.6735836
vt 0.8942366 0.6832954
vt 0.8910404 0.6921393
vt 0.9262193 0.6808895
vt 0.9246823 0.693745
vt 0.9218031 0.7022487
vt 0.9297724 0.6961498
vt 0.9276353 0.7045438
vt 0.9341354 0.698496
vt 0.9317726 0.7073342
vt 0.905885 0.7015806
vt 0.8887624 0.6977931
vt 0.9036303 0.7063102
vt 0.914066 0.7082893
vt 0.9149589 0.7034087
vt 0.9119893 0.7155293
vt 0.9010937 0.7130545
vt 0.9075039 0.7216878
vt 0.8964563 0.7194629
vt 0.8878905 0.7013662
vt 0.8851178 0.7072151
vt 0.8822502 0.7140776
vt 0.9173859 0.7079688
vt 0.9194952 0.7056588
vt 0.918961 0.7131054
vt 0.9203727 0.7198134
vt 0.9234963 0.7103482
vt 0.9271958 0.7144612
vt 0.9314296 0.6647187
vt 0.9332591 0.6647979
vt 0.9303654 0.6818407
vt 0.9336577 0.6822224
vn -0.8230153 -0.5408683 0.1735146
vn -0.9018003 -0.3269347 0.2826127
vn -0.582907 -0.18112 0.7920953
vn -0.669382 -0.2621023 0.6951476
vn -0.9128467 0.1167195 0.3912641
vn -0.5409123 0.3114306 0.781297
vn -0.8266495 0.4790203 -0.2952796
vn -0.4632134 0.8850831 0.04540151
vn -0.9273058 0.02440168 -0.3735085
vn -0.8747461 -0.3184724 -0.3652323
vn -0.6860315 0.5170046 -0.5119249
vn -0.3956409 0.8554954 -0.33406
vn -0.8177289 0.1829536 -0.5457541
vn -0.8509346 -0.07395521 -0.5200396
vn -0.8379148 0.02588895 -0.5451868
vn -0.7814055 0.2587886 -0.5678325
vn -0.6566247 0.5170091 -0.5491318
vn -0.3849286 0.8288257 -0.4060519
vn -0.1498634 0.0314086 0.9882078
vn -0.01543908 0.9108996 0.4123389
vn -0.1028818 0.3896839 0.915184
vn 0.1204354 0.7216749 0.6816748
vn 0.08804038 0.2813146 0.9555684
vn -0.08016012 0.03104839 0.9962984
vn 0.07867637 0.04621921 0.9958282
vn 0.08985514 0.01629725 0.9958215
vn 0.06197415 -0.09074564 0.9939439
vn 0.08264593 -0.1436426 0.9861726
vn 0.05527959 0.02433376 0.9981744
vn 0.05730974 0.485513 0.872349
vn 0.1257674 0.938741 0.3208551
vn -0.02713256 0.9992723 0.02680768
vn 0.08834206 0.8755823 0.4749224
vn -0.01121447 0.8491614 0.5280142
vn -0.00154752 0.3198058 0.9474818
vn -0.1005223 0.8977184 0.4289485
vn -0.07768266 0.5941566 0.8005894
vn -0.09796834 0.9709273 0.218409
vn -0.1435202 0.7656931 0.6269896
vn 0.0672995 0.9977285 -0.002927424
vn -0.05127276 0.8695769 0.4911285
vn -0.04134123 0.9947173 -0.09395933
vn 0.1212441 0.9864345 0.1106656
vn 0.09831662 0.9784224 0.1817237
vn -0.02569241 0.9762527 0.2151056
vn -0.1126439 0.9739524 0.1967945
vn -0.08096918 0.9942867 0.0695556
vn 0.1243681 0.9776527 -0.1694927
vn -0.07029572 0.1335206 0.9885499
vn -0.1281381 0.3540863 0.9263928
vn 0.0477998 0.4017674 0.9144933
vn -0.0805485 0.03612289 0.996096
vn 0.1745115 -0.006390113 0.9846343
vn -0.06760383 0.04849002 0.9965332
vn 0.2542368 -0.01155713 0.9670729
vn 0.3833739 0.8787427 -0.2843162
vn 0.3964994 0.8255973 -0.401469
vn 0.672066 0.5592084 -0.4854001
vn 0.8334295 0.5108351 -0.2108148
vn 0.3883672 0.9123597 0.1295023
vn 0.9518355 0.01502569 -0.3062407
vn 0.7942165 0.2236764 -0.5649682
vn 0.88649 -0.1650129 -0.4323263
vn 0.8235202 0.01691119 -0.5670348
vn 0.6511446 0.5378895 -0.5354304
vn 0.7976608 0.1980798 -0.5696505
vn 0.8301167 0.03264764 -0.5566329
vn 0.8661211 0.2163993 0.4505615
vn 0.4637142 0.3324767 0.821236
vn 0.9265757 -0.2359725 0.2928731
vn 0.8637788 -0.4703928 0.1806011
vn 0.6471242 -0.1696148 0.7432773
vn 0.7084762 -0.2874801 0.6445282
vn -0.01249512 -0.2056866 0.9785381
vn -0.0284476 -0.2494464 0.9679707
vn -0.07964143 -0.0548715 0.9953122
vn -0.1033005 -0.07576589 0.9917604
g Body_0
f 3/3/3 2/2/2 1/1/1
f 4/4/4 3/3/3 1/1/1
f 5/5/5 2/2/2 3/3/3
f 6/6/6 5/5/5 3/3/3
f 7/7/7 5/5/5 6/6/6
f 2/2/2 5/5/5 7/7/7
f 8/8/8 7/7/7 6/6/6
f 9/9/9 2/2/2 7/7/7
f 10/10/10 1/1/1 2/2/2
f 9/9/9 10/10/10 2/2/2
f 7/7/7 8/8/8 11/11/11
f 8/8/8 12/12/12 11/11/11
f 7/7/7 11/11/11 13/13/13
f 9/9/9 7/7/7 13/13/13
f 9/9/9 13/13/13 14/14/14
f 10/10/10 9/9/9 14/14/14
f 14/14/14 13/13/13 15/15/15
f 13/13/13 16/16/16 15/15/15
f 13/13/13 11/11/11 16/16/16
f 11/11/11 17/17/17 16/16/16
f 17/17/17 11/11/11 12/12/12
f 18/18/18 17/17/17 12/12/12
f 4/4/4 19/19/19 3/3/3
f 8/8/8 6/6/6 20/20/20
f 8/8/8 20/20/20 12/12/12
f 6/6/6 21/21/21 20/20/20
f 20/20/20 21/21/21 22/22/22
f 21/21/21 23/23/23 22/22/22
f 23/23/23 21/21/21 24/24/24
f 25/25/25 24/24/24 19/19/19
f 25/25/25 23/23/23 24/24/24
f 26/26/26 25/25/25 19/19/19
f 27/27/27 25/25/25 26/26/26
f 28/28/28 27/27/27 26/26/26
f 25/25/25 27/27/27 29/29/29
f 23/23/23 25/25/25 29/29/29
f 23/23/23 29/29/29 30/30/30
f 22/22/22 23/23/23 30/30/30
f 22/22/22 31/31/31 20/20/20
f 31/31/31 32/32/32 20/20/20
f 22/22/22 30/30/30 33/33/33
f 31/31/31 22/22/22 33/33/33
f 33/33/33 30/30/30 34/34/34
f 30/30/30 35/35/35 34/34/34
f 29/29/29 27/27/27 35/35/35
f 30/30/30 29/29/29 35/35/35
f 34/34/34 35/35/35 36/36/36
f 35/35/35 37/37/37 36/36/36
f 38/38/38 36/36/36 37/37/37
f 39/39/39 38/38/38 37/37/37
f 40/40/40 38/38/38 39/39/39
f 41/41/41 40/40/40 39/39/39
f 42/42/42 32/32/32 31/31/31
f 43/43/43 42/42/42 31/31/31
f 43/43/43 31/31/31 33/33/33
f 44/44/44 43/43/43 33/33/33
f 44/44/44 33/33/33 34/34/34
f 45/45/45 44/44/44 34/34/34
f 45/45/45 34/34/34 36/36/36
f 46/46/46 45/45/45 36/36/36
f 46/46/46 36/36/36 38/38/38
f 47/47/47 46/46/46 38/38/38
f 38/38/38 40/40/40 47/47/47
f 40/40/40 48/48/48 47/47/47
f 39/39/39 37/37/37 49/49/49
f 35/35/35 49/49/49 37/37/37
f 50/50/50 39/39/39 49/49/49
f 41/41/41 39/39/39 50/50/50
f 51/51/51 41/41/41 50/50/50
f 51/51/51 50/50/50 52/52/52
f 53/53/53 51/51/51 52/52/52
f 53/53/53 52/52/52 54/54/54
f 55/55/55 53/53/53 54/54/54
f 48/48/48 40/40/40 56/56/56
f 57/57/57 48/48/48 56/56/56
f 57/57/57 56/56/56 58/58/58
f 59/59/59 58/58/58 56/56/56
f 60/60/60 59/59/59 56/56/56
f 59/59/59 61/61/61 58/58/58
f 61/61/61 62/62/62 58/58/58
f 62/62/62 61/61/61 63/63/63
f 64/64/64 62/62/62 63/63/63
f 65/65/65 57/57/57 58/58/58
f 65/65/65 58/58/58 62/62/62
f 66/66/66 65/65/65 62/62/62
f 66/66/66 62/62/62 64/64/64
f 67/67/67 66/66/66 64/64/64
f 68/68/68 59/59/59 60/60/60
f 61/61/61 59/59/59 68/68/68
f 69/69/69 68/68/68 60/60/60
f 70/70/70 61/61/61 68/68/68
f 61/61/61 70/70/70 71/71/71
f 63/63/63 61/61/61 71/71/71
f 72/72/72 70/70/70 68/68/68
f 69/69/69 72/72/72 68/68/68
f 71/71/71 70/70/70 72/72/72
f 73/73/73 71/71/71 72/72/72
f 69/69/69 60/60/60 51/51/51
f 69/69/69 51/51/51 72/72/72
f 60/60/60 41/41/41 51/51/51
f 60/60/60 56/56/56 41/41/41
f 56/56/56 40/40/40 41/41/41
f 51/51/51 53/53/53 72/72/72
f 72/72/72 53/53/53 55/55/55
f 73/73/73 72/72/72 55/55/55
f 19/19/19 24/24/24 3/3/3
f 3/3/3 24/24/24 21/21/21
f 6/6/6 3/3/3 21/21/21
f 20/20/20 32/32/32 12/12/12
f 18/18/18 12/12/12 32/32/32
f 42/42/42 18/18/18 32/32/32
f 27/27/27 74/74/74 35/35/35
f 27/27/27 28/28/28 74/74/74
f 28/28/28 75/75/75 74/74/74
f 76/76/76 74/74/74 75/75/75
f 77/77/77 76/76/76 75/75/75
f 52/52/52 76/76/76 77/77/77
f 54/54/54 52/52/52 77/77/77
f 52/52/52 50/50/50 76/76/76
f 50/50/50 49/49/49 76/76/76
f 49/49/49 35/35/35 74/74/74
f 76/76/76 49/49/49 74/74/74
