g Chick
v -6.895399E-06 -1.037282E-10 1.088961E-05
v 0.0002853401 -1.673869E-10 0.0001166339
v 0.0001961181 0.0002166198 0.0002093878
v -1.120803E-05 0.0002968176 0.0001163562
v -0.0002376049 0.0002171602 0.0002087739
v -0.000308192 -7.665376E-11 0.0001161431
v 0.0003150618 -2.47666E-10 0.000411283
v 0.0002273475 0.0002654748 0.0004209933
v -0.0003824356 -1.02623E-10 0.0004320681
v -0.0002984757 0.0002579841 0.0004350054
v -4.085351E-05 0.0003485086 0.0004196519
v -0.0002994428 0.0001747739 0.0006358093
v -0.0001172799 0.000248057 0.0006333718
v -0.0002651312 0.0001654332 0.0007861652
v -0.0001583538 0.0002166332 0.0008635711
v -0.0001568534 -2.622816E-10 0.0009438546
v 2.668254E-05 0.0001755161 0.000780186
v 6.687362E-05 -3.137588E-10 0.0008598135
v -0.0003002373 -1.870326E-10 0.0008608314
v 0.0001114393 -2.723013E-10 0.0006597075
v 5.965909E-05 0.0001824926 0.0006252504
v -0.0003673013 -1.359468E-10 0.0005784178
v -0.0003288771 -1.695646E-10 0.0007567085
v -6.895399E-06 -1.037282E-10 1.088961E-05
v -1.120816E-05 -0.0002968178 0.0001163562
v 0.000196118 -0.0002166201 0.0002093878
v 0.0002853401 -1.673869E-10 0.0001166339
v -0.000237605 -0.0002171604 0.0002087739
v -0.000308192 -7.665376E-11 0.0001161431
v 0.0003150618 -2.47666E-10 0.000411283
v 0.0002273473 -0.0002654753 0.0004209933
v -4.085374E-05 -0.0003485089 0.000419652
v -0.0002984758 -0.0002579843 0.0004350055
v -0.0003824356 -1.02623E-10 0.0004320681
v -0.0002994429 -0.0001747742 0.0006358094
v -0.0003673013 -1.359468E-10 0.0005784178
v -0.0001172801 -0.0002480574 0.0006333718
v -0.0002651313 -0.0001654336 0.0007861653
v -0.000158354 -0.0002166338 0.0008635711
v -0.0001568534 -2.622816E-10 0.0009438546
v -0.0003002373 -1.870326E-10 0.0008608314
v 2.668236E-05 -0.0001755166 0.0007801861
v 6.687362E-05 -3.137588E-10 0.0008598135
v 0.0001114393 -2.723013E-10 0.0006597075
v 5.96589E-05 -0.0001824931 0.0006252504
v -0.0003288771 -1.695646E-10 0.0007567085
v -0.0004344679 -1.500299E-10 0.0006402671
v -0.0003288771 -1.695646E-10 0.0007567085
v -0.0002994429 -0.0001747742 0.0006358094
v -0.0002994428 0.0001747739 0.0006358093
v -0.0003673013 -1.359468E-10 0.0005784178
vt 0.08286444 0.8024734
vt 0.08303494 0.8025351
vt 0.08298288 0.8025892
vt 0.08286192 0.8025349
vt 0.08272984 0.8025889
vt 0.08268865 0.8025348
vt 0.08305228 0.802707
vt 0.0830011 0.8027127
vt 0.08264534 0.8027192
vt 0.08269432 0.8027208
vt 0.08284463 0.8027119
vt 0.08269376 0.802838
vt 0.08280004 0.8028366
vt 0.08271378 0.8029257
vt 0.08277608 0.8029709
vt 0.08277695 0.8030177
vt 0.08288403 0.8029222
vt 0.08290748 0.8029687
vt 0.0826933 0.8029693
vt 0.08293348 0.802852
vt 0.08290327 0.8028318
vt 0.08265417 0.8028045
vt 0.08267659 0.8029085
vt 0.08286444 0.8024734
vt 0.08286192 0.8025349
vt 0.08298288 0.8025892
vt 0.08303494 0.8025351
vt 0.08272984 0.8025889
vt 0.08268865 0.8025348
vt 0.08305228 0.802707
vt 0.0830011 0.8027127
vt 0.08284463 0.8027119
vt 0.08269432 0.8027208
vt 0.08264534 0.8027192
vt 0.08269376 0.802838
vt 0.08265417 0.8028045
vt 0.08280004 0.8028366
vt 0.08271378 0.8029257
vt 0.08277608 0.8029709
vt 0.08277695 0.8030177
vt 0.0826933 0.8029693
vt 0.08288403 0.8029222
vt 0.08290748 0.8029687
vt 0.08293348 0.802852
vt 0.08290327 0.8028318
vt 0.08267659 0.8029085
vt 0.04383397 0.7529123
vt 0.04330373 0.7529123
vt 0.04341102 0.7507766
vt 0.04341102 0.755048
vt 0.04470572 0.7529123
vn 0.01507627 0 -0.9998864
vn 0.7861965 0 -0.6179765
vn 0.6367564 0.6341317 -0.4386551
vn 0.01089555 0.7631465 -0.6461338
vn -0.6167029 0.6173438 -0.4884304
vn -0.7398365 0 -0.6727867
vn 0.9676089 0 0.2524542
vn 0.6921692 0.6847836 0.2279764
vn -0.9973274 0 -0.07306226
vn -0.6939847 0.7198958 0.01162796
vn 0.006958245 0.9925265 0.1218303
vn -0.7171075 0.6679717 0.1989235
vn -0.04498466 0.9543828 0.2951775
vn -0.693889 0.6146607 0.3751139
vn -0.09460907 0.764838 0.6372378
vn -0.09427475 0 0.9955462
vn 0.6240943 0.6482657 0.4361854
vn 0.7445872 0 0.6675251
vn -0.8021119 0 0.5971739
vn 0.8923053 0 0.4514324
vn 0.6085484 0.6459647 0.460867
vn -0.9560623 0 -0.2931635
vn -0.9127209 0 0.4085835
vn 0.01507627 0 -0.9998864
vn 0.01089555 -0.7631465 -0.6461338
vn 0.6367564 -0.6341317 -0.4386551
vn 0.7861965 0 -0.6179765
vn -0.6167029 -0.6173438 -0.4884304
vn -0.7398365 0 -0.6727867
vn 0.9676089 0 0.2524542
vn 0.6921692 -0.6847836 0.2279764
vn 0.006958245 -0.9925265 0.1218303
vn -0.6939847 -0.7198958 0.01162796
vn -0.9973274 0 -0.07306226
vn -0.7171075 -0.6679717 0.1989235
vn -0.9560623 0 -0.2931635
vn -0.04498507 -0.9543915 0.2951497
vn -0.693889 -0.6146607 0.3751139
vn -0.09460907 -0.764838 0.6372378
vn -0.09427475 0 0.9955462
vn -0.8021119 0 0.5971739
vn 0.6240943 -0.6482657 0.4361854
vn 0.7445872 0 0.6675251
vn 0.8923053 0 0.4514324
vn 0.6085484 -0.6459647 0.460867
vn -0.9127209 0 0.4085835
vn -0.999559 0 -0.02969501
vn -0.9127209 0 0.4085835
vn -0.7171075 -0.6679717 0.1989235
vn -0.7171075 0.6679717 0.1989235
vn -0.9560623 0 -0.2931635
g Chick_0
f 3/3/3 2/2/2 1/1/1
f 4/4/4 3/3/3 1/1/1
f 5/5/5 4/4/4 1/1/1
f 6/6/6 5/5/5 1/1/1
f 2/2/2 3/3/3 7/7/7
f 3/3/3 8/8/8 7/7/7
f 5/5/5 6/6/6 9/9/9
f 10/10/10 5/5/5 9/9/9
f 3/3/3 4/4/4 11/11/11
f 8/8/8 3/3/3 11/11/11
f 5/5/5 10/10/10 11/11/11
f 4/4/4 5/5/5 11/11/11
f 10/10/10 12/12/12 11/11/11
f 12/12/12 10/10/10 9/9/9
f 12/12/12 13/13/13 11/11/11
f 12/12/12 14/14/14 13/13/13
f 14/14/14 15/15/15 13/13/13
f 15/15/15 14/14/14 16/16/16
f 17/17/17 15/15/15 16/16/16
f 15/15/15 17/17/17 13/13/13
f 18/18/18 17/17/17 16/16/16
f 14/14/14 19/19/19 16/16/16
f 19/19/19 14/14/14 12/12/12
f 17/17/17 18/18/18 20/20/20
f 21/21/21 17/17/17 20/20/20
f 17/17/17 21/21/21 13/13/13
f 21/21/21 8/8/8 11/11/11
f 13/13/13 21/21/21 11/11/11
f 21/21/21 20/20/20 7/7/7
f 8/8/8 21/21/21 7/7/7
f 22/22/22 12/12/12 9/9/9
f 23/23/23 19/19/19 12/12/12
f 26/26/26 25/25/25 24/24/24
f 27/27/27 26/26/26 24/24/24
f 25/25/25 28/28/28 24/24/24
f 28/28/28 29/29/29 24/24/24
f 26/26/26 27/27/27 30/30/30
f 31/31/31 26/26/26 30/30/30
f 26/26/26 31/31/31 32/32/32
f 25/25/25 26/26/26 32/32/32
f 28/28/28 25/25/25 32/32/32
f 33/33/33 28/28/28 32/32/32
f 28/28/28 33/33/33 34/34/34
f 29/29/29 28/28/28 34/34/34
f 33/33/33 35/35/35 34/34/34
f 35/35/35 33/33/33 32/32/32
f 35/35/35 36/36/36 34/34/34
f 37/37/37 35/35/35 32/32/32
f 38/38/38 35/35/35 37/37/37
f 39/39/39 38/38/38 37/37/37
f 38/38/38 39/39/39 40/40/40
f 41/41/41 38/38/38 40/40/40
f 39/39/39 42/42/42 40/40/40
f 42/42/42 39/39/39 37/37/37
f 42/42/42 43/43/43 40/40/40
f 43/43/43 42/42/42 44/44/44
f 42/42/42 45/45/45 44/44/44
f 45/45/45 42/42/42 37/37/37
f 45/45/45 37/37/37 32/32/32
f 31/31/31 45/45/45 32/32/32
f 45/45/45 31/31/31 30/30/30
f 44/44/44 45/45/45 30/30/30
f 38/38/38 41/41/41 46/46/46
f 35/35/35 38/38/38 46/46/46
f 49/49/49 48/48/48 47/47/47
f 48/48/48 50/50/50 47/47/47
f 51/51/51 47/47/47 50/50/50
f 49/49/49 47/47/47 51/51/51
