g ChickenTail
v -0.01251584 0.0041833 0.03493214
v 0.07645548 0.06180651 0.0464344
v 0.0557514 0.01778472 0.08559227
v -0.01307838 -0.03046563 0.05210876
v 0.07747368 0.1040777 0
v -0.004004711 0.01934666 0
v -0.01251584 0.0041833 -0.03493214
v 0.07645548 0.06180651 -0.04643345
v 0.0557514 0.01778472 -0.08559132
v -0.01307838 -0.03046563 -0.05210781
vt 0.01452713 0.8106504
vt 0.01344799 0.801168
vt 0.009336527 0.8049548
vt 0.01173079 0.8126916
vt 0.01852564 0.7987566
vt 0.01772562 0.8092479
vt 0.02067457 0.8111191
vt 0.02317923 0.8019099
vt 0.0266689 0.8062766
vt 0.02312907 0.8135608
vn -0.5790161 0.6271722 0.5209563
vn -0.5903283 0.6565055 0.4695883
vn -0.5575336 0.5776531 0.5962158
vn -0.5575337 0.5776531 0.5962158
vn -0.6588789 0.752249 0
vn -0.6588789 0.752249 0
vn -0.5790127 0.6271696 -0.5209632
vn -0.5903255 0.6565043 -0.4695934
vn -0.5575296 0.5776495 -0.5962228
vn -0.5575296 0.5776496 -0.5962228
g ChickenTail_0
f 3/3/3 2/2/2 1/1/1
f 4/4/4 3/3/3 1/1/1
f 2/2/2 5/5/5 1/1/1
f 5/5/5 6/6/6 1/1/1
f 6/6/6 5/5/5 7/7/7
f 5/5/5 8/8/8 7/7/7
f 8/8/8 9/9/9 7/7/7
f 9/9/9 10/10/10 7/7/7
