g ChickenWingRight
v -0.09021757 -0.002116823 -0.06416181
v 0.09224036 0.01075498 -0.1355663
v 0.04331209 0.01928112 -0.1005864
v 0.09675791 -0.002116823 -0.1531997
v -0.02895926 -0.006206954 -0.1184154
v 0.05182459 0.02474127 -0.08270314
v 0.01048281 0.02233205 -0.06056454
v 0.02895929 0.002116835 0.005867457
v -0.02895926 -0.002116823 -0.005867498
vt 0.02400097 0.8237265
vt 0.02912431 0.8110852
vt 0.02638433 0.8142941
vt 0.03066699 0.8109478
vt 0.02790181 0.8195821
vt 0.02510697 0.8136619
vt 0.02356668 0.816538
vt 0.01864272 0.8157295
vt 0.01971896 0.8197024
vn -0.2092983 0.9777147 0.01637955
vn -0.1877916 0.8998663 -0.3936685
vn -0.2515036 0.8695999 -0.4249024
vn -0.1806847 0.9074064 -0.3794296
vn -0.1806847 0.9074064 -0.3794296
vn -0.2109249 0.9462617 -0.2451518
vn -0.2102996 0.976383 0.04950036
vn -0.1968927 0.9401149 0.2782395
vn -0.1968927 0.9401149 0.2782396
g ChickenWingRight_0
f 3/3/3 2/2/2 1/1/1
f 1/1/1 2/2/2 4/4/4
f 5/5/5 1/1/1 4/4/4
f 3/3/3 1/1/1 6/6/6
f 1/1/1 7/7/7 6/6/6
f 8/8/8 7/7/7 1/1/1
f 9/9/9 8/8/8 1/1/1
