g EnergyMeshD
v 0.02430205 -0.01496275 -0.0007818335
v 0.0673715 -0.001750798 -0.01017897
v 0.06609135 -0.001750798 0.004337477
v 0.02295661 -0.01496275 0.004321638
v 0.02407951 -0.01496275 -0.006206993
v 0.06410278 -0.001750798 -0.02425675
v 0.0485113 -0.001750798 -0.04842906
v 0.01879047 -0.01496275 -0.01580934
v 0.02482519 -0.001750798 -0.06039711
v 0.01059006 -0.01496275 -0.02241677
v -0.002319258 -0.001750798 -0.0670649
v 0.0006772944 -0.01496275 -0.02565124
v -0.0292934 -0.001750798 -0.06072843
v -0.009532077 -0.01496275 -0.02444842
v -0.0490641 -0.001750798 -0.04286692
v -0.01743838 -0.01496275 -0.01823694
v -0.05746753 -0.001750798 -0.0202504
v -0.02164818 -0.01496275 -0.009675287
v -0.06356227 -0.001750798 0.006714583
v -0.02446698 -0.01496275 -0.0005302295
v -0.05768172 -0.001750798 0.0348578
v -0.0242674 -0.01496275 0.009789535
v -0.03885417 -0.001750798 0.058095
v -0.01943015 -0.01496275 0.01984742
v -0.01206799 -0.001750798 0.06849752
v -0.009531146 -0.01496275 0.02457172
v 0.01836792 -0.001750798 0.06182041
v 0.001259556 -0.01496275 0.02370395
v 0.04102527 -0.001750798 0.05005493
v 0.01040834 -0.01496275 0.01909318
v 0.05278663 -0.001750798 0.02962302
v 0.0176154 -0.01496275 0.01272099
v 0.06609135 -0.001750798 0.004337477
v 0.02295661 -0.01496275 0.004321638
v -0.1070846 -0.008535374 0.02197344
v -0.09679958 -0.008535374 -0.02191552
v -0.09123228 -0.008535374 -0.06380083
v -0.05693321 -0.008535374 -0.09270153
v 0.02992209 -0.008535374 0.1023786
v -0.01559501 -0.008535374 0.1060513
v -0.05542028 -0.008535374 0.09311122
v -0.09010898 -0.008535374 0.06337816
v -0.01412774 -0.008535374 -0.1028239
v 0.02681984 -0.008535374 -0.09419506
v 0.07016361 -0.008535374 -0.0812476
v 0.09482363 -0.008535374 -0.04339273
v 0.1041061 -0.008535374 -0.02245747
v 0.1026916 -0.008535374 -0.0001169309
v 0.06769564 -0.008535374 0.07876302
v 0.08224407 -0.008535374 0.03596344
v 0.1026916 -0.008535374 -0.0001169309
v 0.005022029 -0.03294816 0.001508105
v 0.005635536 -0.03294816 0.0002814889
v 0.00586731 -0.03294816 -0.001110301
v 0.005032395 -0.03294816 -0.003833927
v 0.003297734 -0.03294816 -0.005950514
v 0.0009482224 -0.03294816 -0.007300166
v -0.001712602 -0.03294816 -0.007536902
v -0.004053851 -0.03294816 -0.006377193
v -0.005579769 -0.03294816 -0.004423201
v -0.006782881 -0.03294816 -0.002246871
v -0.007280674 -0.03294816 0.0003887056
v -0.00658489 -0.03294816 0.003204187
v -0.004318072 -0.03294816 0.004932064
v -0.001527189 -0.03294816 0.005284929
v 0.001045013 -0.03294816 0.004598428
v 0.003216941 -0.03294816 0.003360673
v 0.005022029 -0.03294816 0.001508105
vt 0.9649862 -0.167985
vt 0.9666671 0.5
vt 1 0.5
vt 0.9982038 -0.1679848
vt 0.9317695 -0.1679852
vt 0.9333336 0.5
vt 0.8666669 0.5000001
vt 0.8653351 -0.1679852
vt 0.8000003 0.5000001
vt 0.7988998 -0.1679862
vt 0.7333336 0.5
vt 0.7324644 -0.1679854
vt 0.6666671 0.5
vt 0.66603 -0.1679864
vt 0.6000003 0.5000001
vt 0.5995946 -0.1679864
vt 0.5333337 0.5
vt 0.5331593 -0.1679865
vt 0.466667 0.5
vt 0.4667248 -0.1679866
vt 0.4000003 0.5
vt 0.4002904 -0.1679867
vt 0.3333336 0.5
vt 0.333855 -0.1679863
vt 0.2666669 0.5
vt 0.2674206 -0.1679868
vt 0.2000001 0.5000001
vt 0.2009851 -0.1679868
vt 0.1333334 0.5
vt 0.13455 -0.1679865
vt 0.06666669 0.5
vt 0.06811507 -0.1679863
vt 2.980232E-08 0.4999999
vt 0.001680061 -0.1679864
vt 0.466667 1
vt 0.5333337 1
vt 0.6000003 1
vt 0.666667 1
vt 0.2000001 1
vt 0.2666668 1
vt 0.3333336 1
vt 0.4000003 1
vt 0.7333336 1
vt 0.8000003 1
vt 0.8666669 1
vt 0.9333336 1
vt 0.9666671 1
vt 1 0.9999999
vt 0.1333334 1
vt 0.06666678 1
vt 1.192093E-07 1
vt 0.9964082 -0.9245906
vt 0.9633064 -0.9245905
vt 0.9302063 -0.9245921
vt 0.8640041 -0.9245921
vt 0.7978001 -0.9245924
vt 0.731596 -0.9245924
vt 0.6653938 -0.9245946
vt 0.5991898 -0.9245946
vt 0.5329857 -0.9245948
vt 0.4667835 -0.924595
vt 0.4005813 -0.924595
vt 0.3343773 -0.9245943
vt 0.2681751 -0.9245944
vt 0.201971 -0.9245945
vt 0.1357674 -0.9245942
vt 0.06956384 -0.9245939
vt 0.003360729 -0.9245937
vn 0 1 0
vn 0 1 0
vn 0 1 0
vn 0 1 0
vn 0 1 0
vn 0 1 0
vn 0 1 0
vn 0 1 0
vn 0 1 0
vn 0 1 0
vn 0 1 0
vn 0 1 0
vn 0 1 0
vn 0 1 0
vn 0 1 0
vn 0 1 0
vn 0 1 0
vn 0 1 0
vn 0 1 0
vn 0 1 0
vn 0 1 0
vn 0 1 0
vn 0 1 0
vn 0 1 0
vn 0 1 0
vn 0 1 0
vn 0 1 0
vn 0 1 0
vn 0 1 0
vn 0 1 0
vn 0 1 0
vn 0 1 0
vn 0 1 0
vn 0 1 0
vn 0 1 0
vn 0 1 0
vn 0 1 0
vn 0 1 0
vn 0 1 0
vn 0 1 0
vn 0 1 0
vn 0 1 0
vn 0 1 0
vn 0 1 0
vn 0 1 0
vn 0 1 0
vn 0 1 0
vn 0 1 0
vn 0 1 0
vn 0 1 0
vn 0 1 0
vn -0.6250536 0.6904336 -0.3641558
vn -0.6917746 0.7120097 -0.1203751
vn -0.664119 0.7206717 0.1989428
vn -0.5658657 0.7120384 0.4156889
vn -0.3776906 0.7049853 0.6002881
vn -0.1202972 0.7093532 0.6945118
vn 0.2178605 0.7181987 0.6608536
vn 0.5210524 0.7060079 0.4796428
vn 0.6637701 0.6835039 0.3036969
vn 0.7113119 0.6870886 0.1481372
vn 0.6923352 0.7132412 -0.1093573
vn 0.5054482 0.753233 -0.4209065
vn 0.1581308 0.7492707 -0.6431082
vn -0.1509549 0.7193525 -0.6780447
vn -0.369974 0.6933388 -0.6183854
vn -0.525087 0.6849758 -0.5050662
vn -0.6250536 0.6904336 -0.3641558
g EnergyMeshD_0
f 3/3/3 2/2/2 1/1/1
f 4/4/4 3/3/3 1/1/1
f 1/1/1 2/2/2 5/5/5
f 2/2/2 6/6/6 5/5/5
f 6/6/6 7/7/7 5/5/5
f 7/7/7 8/8/8 5/5/5
f 7/7/7 9/9/9 8/8/8
f 9/9/9 10/10/10 8/8/8
f 9/9/9 11/11/11 10/10/10
f 11/11/11 12/12/12 10/10/10
f 11/11/11 13/13/13 12/12/12
f 13/13/13 14/14/14 12/12/12
f 13/13/13 15/15/15 14/14/14
f 15/15/15 16/16/16 14/14/14
f 15/15/15 17/17/17 16/16/16
f 17/17/17 18/18/18 16/16/16
f 17/17/17 19/19/19 18/18/18
f 19/19/19 20/20/20 18/18/18
f 19/19/19 21/21/21 20/20/20
f 21/21/21 22/22/22 20/20/20
f 21/21/21 23/23/23 22/22/22
f 23/23/23 24/24/24 22/22/22
f 23/23/23 25/25/25 24/24/24
f 25/25/25 26/26/26 24/24/24
f 25/25/25 27/27/27 26/26/26
f 27/27/27 28/28/28 26/26/26
f 27/27/27 29/29/29 28/28/28
f 29/29/29 30/30/30 28/28/28
f 29/29/29 31/31/31 30/30/30
f 31/31/31 32/32/32 30/30/30
f 31/31/31 33/33/33 32/32/32
f 33/33/33 34/34/34 32/32/32
f 19/19/19 35/35/35 21/21/21
f 36/36/36 35/35/35 19/19/19
f 17/17/17 36/36/36 19/19/19
f 37/37/37 36/36/36 17/17/17
f 15/15/15 37/37/37 17/17/17
f 37/37/37 15/15/15 38/38/38
f 15/15/15 13/13/13 38/38/38
f 27/27/27 39/39/39 29/29/29
f 40/40/40 39/39/39 27/27/27
f 25/25/25 40/40/40 27/27/27
f 41/41/41 40/40/40 25/25/25
f 23/23/23 41/41/41 25/25/25
f 42/42/42 41/41/41 23/23/23
f 35/35/35 42/42/42 21/21/21
f 21/21/21 42/42/42 23/23/23
f 43/43/43 38/38/38 13/13/13
f 11/11/11 43/43/43 13/13/13
f 44/44/44 43/43/43 11/11/11
f 9/9/9 44/44/44 11/11/11
f 45/45/45 44/44/44 9/9/9
f 7/7/7 45/45/45 9/9/9
f 46/46/46 45/45/45 7/7/7
f 6/6/6 46/46/46 7/7/7
f 47/47/47 46/46/46 6/6/6
f 2/2/2 47/47/47 6/6/6
f 48/48/48 47/47/47 2/2/2
f 3/3/3 48/48/48 2/2/2
f 39/39/39 49/49/49 29/29/29
f 29/29/29 49/49/49 31/31/31
f 49/49/49 50/50/50 31/31/31
f 31/31/31 50/50/50 33/33/33
f 50/50/50 51/51/51 33/33/33
f 53/53/53 52/52/52 4/4/4
f 1/1/1 53/53/53 4/4/4
f 54/54/54 53/53/53 1/1/1
f 5/5/5 54/54/54 1/1/1
f 54/54/54 5/5/5 55/55/55
f 5/5/5 8/8/8 55/55/55
f 55/55/55 8/8/8 56/56/56
f 8/8/8 10/10/10 56/56/56
f 56/56/56 10/10/10 57/57/57
f 10/10/10 12/12/12 57/57/57
f 57/57/57 12/12/12 58/58/58
f 12/12/12 14/14/14 58/58/58
f 58/58/58 14/14/14 59/59/59
f 14/14/14 16/16/16 59/59/59
f 59/59/59 16/16/16 60/60/60
f 16/16/16 18/18/18 60/60/60
f 60/60/60 18/18/18 61/61/61
f 18/18/18 20/20/20 61/61/61
f 61/61/61 20/20/20 62/62/62
f 20/20/20 22/22/22 62/62/62
f 62/62/62 22/22/22 63/63/63
f 22/22/22 24/24/24 63/63/63
f 63/63/63 24/24/24 64/64/64
f 24/24/24 26/26/26 64/64/64
f 64/64/64 26/26/26 65/65/65
f 26/26/26 28/28/28 65/65/65
f 65/65/65 28/28/28 66/66/66
f 28/28/28 30/30/30 66/66/66
f 66/66/66 30/30/30 67/67/67
f 30/30/30 32/32/32 67/67/67
f 67/67/67 32/32/32 68/68/68
f 32/32/32 34/34/34 68/68/68
