g Fireplace
v -0.1236525 0.1319758 -0.05454885
v -0.08044542 -0.6385389 0.2854159
v 0.1493086 -0.6385389 0.2428316
v 0.005296249 0.1545429 -0.05611779
v 0.02305983 -0.6385389 0.435158
v -0.08044542 -0.6385389 0.2854159
v -0.1236525 0.1319758 -0.05454885
v -0.07486345 0.1840352 0.0547201
v 0.005296249 0.1545429 -0.05611779
v 0.1493086 -0.6385389 0.2428316
v 0.02305983 -0.6385389 0.435158
v -0.07486345 0.1840352 0.0547201
v 0.005296249 0.1545429 -0.05611779
v -0.07486345 0.1840352 0.0547201
v -0.1236525 0.1319758 -0.05454885
v 0.03223156 -0.226303 -0.008380696
v -0.03883151 -0.005881907 -0.004757434
v 0.02874964 -0.01207936 0.1431565
v 0.09886118 -0.2026049 0.1219687
v 0.2341627 -0.6385389 -0.03720146
v 0.300072 -0.6385389 0.1358107
v 0.128759 0.009279249 0.02418061
v 0.193118 -0.2178863 0.02055736
v 0.09886118 -0.2026049 0.1219687
v 0.02874964 -0.01207936 0.1431565
v 0.300072 -0.6385389 0.1358107
v 0.4187257 -0.6385389 -0.008263409
v 0.193118 -0.2178863 0.02055736
v 0.128759 0.009279249 0.02418061
v -0.03883151 -0.005881907 -0.004757434
v 0.03223156 -0.226303 -0.008380696
v 0.4187257 -0.6385389 -0.008263409
v 0.2341627 -0.6385389 -0.03720146
v -0.03883151 -0.005881907 -0.004757434
v 0.128759 0.009279249 0.02418061
v 0.02874964 -0.01207936 0.1431565
v -0.05520183 -0.1592758 -0.08198456
v -0.3019425 -0.6385389 -0.04704459
v -0.2325237 -0.6385389 0.1081198
v 0.0003215671 -0.1557319 0.0314045
v -0.4175918 -0.6385389 0.08342329
v -0.3019425 -0.6385389 -0.04704459
v -0.05520183 -0.1592758 -0.08198456
v -0.1295543 -0.1314588 0.01097517
v 0.0003215671 -0.1557319 0.0314045
v -0.2325237 -0.6385389 0.1081198
v -0.4175918 -0.6385389 0.08342329
v -0.1295543 -0.1314588 0.01097517
v 0.0003215671 -0.1557319 0.0314045
v -0.1295543 -0.1314588 0.01097517
v -0.05520183 -0.1592758 -0.08198456
v 0.1135349 -0.1976908 0.01126996
v 0.3102365 -0.6385389 -0.1972245
v 0.1090331 -0.6385389 -0.2187312
v -0.01164584 -0.1894671 -0.005153835
v 0.2319305 -0.6385389 -0.3417878
v 0.3102365 -0.6385389 -0.1972245
v 0.1135349 -0.1976908 0.01126996
v 0.07718214 -0.1605141 -0.1020803
v -0.01164584 -0.1894671 -0.005153835
v 0.1090331 -0.6385389 -0.2187312
v 0.2319305 -0.6385389 -0.3417878
v 0.07718214 -0.1605141 -0.1020803
v -0.01164584 -0.1894671 -0.005153835
v 0.07718214 -0.1605141 -0.1020803
v 0.1135349 -0.1976908 0.01126996
v -0.07249092 -0.2215192 -0.0396393
v 0.01699747 0.1467271 0.04559658
v 0.1081324 0.1298963 0.01485848
v 0.04640683 -0.2091429 -0.1016836
v -0.2222267 -0.6385389 -0.2133441
v -0.07173674 -0.6385389 -0.262911
v 0.04841027 0.168723 -0.0514646
v -0.0440624 -0.1839987 -0.1836753
v 0.04640683 -0.2091429 -0.1016836
v 0.1081324 0.1298963 0.01485848
v -0.07173674 -0.6385389 -0.262911
v -0.1728026 -0.6385389 -0.3935055
v -0.0440624 -0.1839987 -0.1836753
v 0.04841027 0.168723 -0.0514646
v 0.01699747 0.1467271 0.04559658
v -0.07249092 -0.2215192 -0.0396393
v -0.1728026 -0.6385389 -0.3935055
v -0.2222267 -0.6385389 -0.2133441
v 0.01699747 0.1467271 0.04559658
v 0.04841027 0.168723 -0.0514646
v 0.1081324 0.1298963 0.01485848
v 0.2414425 -0.5627456 -0.2414425
v -3.469447E-18 -0.2698549 0
v 1.862645E-09 -0.5627456 -0.3414513
v -0.2414425 -0.5627456 -0.2414425
v -0.3414513 -0.5627456 0
v -0.2414425 -0.5627456 0.2414425
v 1.862645E-09 -0.5627456 0.3414513
v 0.2414425 -0.5627456 0.2414425
v 0.3414513 -0.5627456 0
v 0.3602109 -0.6398319 -0.3602109
v -7.450581E-09 -0.6398319 -0.5094151
v -7.450581E-09 -0.6398319 -0.5094151
v -0.3602109 -0.6398319 -0.3602109
v -0.3602109 -0.6398319 -0.3602109
v -0.5094151 -0.6398319 0
v -0.5094151 -0.6398319 0
v -0.3602109 -0.6398319 0.3602108
v -0.3602109 -0.6398319 0.3602108
v -7.450581E-09 -0.6398319 0.5094151
v -7.450581E-09 -0.6398319 0.5094151
v 0.3602109 -0.6398319 0.360211
v 0.3602109 -0.6398319 0.360211
v 0.5094151 -0.6398319 0
v 0.5094151 -0.6398319 0
v 0.3602109 -0.6398319 -0.3602109
vt 0.5711548 0.1668598
vt 0.5703432 0.04596935
vt 0.548234 0.04645539
vt 0.5588993 0.1686765
vt 0.5870374 0.04171518
vt 0.5703432 0.04596935
vt 0.5711548 0.1668598
vt 0.5833809 0.1686117
vt 0.5966226 0.1687389
vt 0.6081779 0.04659278
vt 0.5870374 0.04171518
vt 0.5833809 0.1686117
vt 0.5747997 0.1787146
vt 0.5833809 0.1686117
vt 0.5711548 0.1668598
vt 0.5550319 0.1343322
vt 0.5529936 0.1661368
vt 0.5683118 0.1652569
vt 0.5695403 0.1325143
vt 0.5519553 0.06631109
vt 0.5700455 0.06426241
vt 0.5831172 0.1663481
vt 0.5835658 0.1316586
vt 0.5695403 0.1325143
vt 0.5683118 0.1652569
vt 0.5700455 0.06426241
vt 0.5881108 0.06123379
vt 0.5835658 0.1316586
vt 0.5831172 0.1663481
vt 0.5992742 0.1672943
vt 0.599268 0.1355593
vt 0.5881108 0.06123379
vt 0.6051224 0.06802028
vt 0.5992742 0.1672943
vt 0.5831172 0.1663481
vt 0.5900537 0.179664
vt 0.5695777 0.1655891
vt 0.5679379 0.06842948
vt 0.5491503 0.07023197
vt 0.5556761 0.1674375
vt 0.5867619 0.06391244
vt 0.5679379 0.06842948
vt 0.5695777 0.1655891
vt 0.5831509 0.1655813
vt 0.5978121 0.1679074
vt 0.6062967 0.07085313
vt 0.5867619 0.06391244
vt 0.5831509 0.1655813
vt 0.5978121 0.1679074
vt 0.5831509 0.1655813
vt 0.5882459 0.1781619
vt 0.5723166 0.1646044
vt 0.5688964 0.08243442
vt 0.5498741 0.08722432
vt 0.56065 0.1682535
vt 0.5846567 0.08002827
vt 0.5688964 0.08243442
vt 0.5723166 0.1646044
vt 0.5843375 0.1656108
vt 0.5973172 0.1670309
vt 0.6002198 0.08534008
vt 0.5846567 0.08002827
vt 0.5843375 0.1656108
vt 0.5973172 0.1670309
vt 0.5843375 0.1656108
vt 0.5896179 0.1767437
vt 0.5862216 0.09598014
vt 0.5832887 0.1691422
vt 0.5945246 0.1687821
vt 0.6021023 0.09709879
vt 0.5867271 0.01536492
vt 0.6055824 0.01798794
vt 0.5713531 0.1701722
vt 0.5685062 0.09526018
vt 0.5537862 0.0973732
vt 0.5602226 0.1688395
vt 0.5464895 0.0187229
vt 0.5647283 0.0108977
vt 0.5685062 0.09526018
vt 0.5713531 0.1701722
vt 0.5832887 0.1691422
vt 0.5862216 0.09598014
vt 0.5647283 0.0108977
vt 0.5867271 0.01536492
vt 0.5832887 0.1691422
vt 0.5713531 0.1701722
vt 0.5781913 0.178858
vt 0.5740435 0.2837168
vt 0.5497972 0.2594707
vt 0.5497972 0.2937598
vt 0.5255509 0.2837168
vt 0.5155076 0.2594707
vt 0.5255509 0.2352243
vt 0.5497972 0.2251811
vt 0.5740435 0.2352243
vt 0.5840862 0.2594707
vt 0.5833355 0.293009
vt 0.5497972 0.3069008
vt 0.5497972 0.3069008
vt 0.5162587 0.293009
vt 0.5162587 0.293009
vt 0.5023665 0.2594707
vt 0.5023665 0.2594707
vt 0.5162587 0.2259321
vt 0.5162587 0.2259321
vt 0.5497972 0.2120399
vt 0.5497972 0.2120399
vt 0.5833355 0.2259321
vt 0.5833355 0.2259321
vt 0.5972275 0.2594707
vt 0.5972275 0.2594707
vt 0.5833355 0.293009
vn -0.08875697 -0.3858536 -0.9182805
vn -0.08875698 -0.3858536 -0.9182805
vn -0.08875697 -0.3858536 -0.9182805
vn -0.08875697 -0.3858536 -0.9182805
vn -0.8655521 0.1406763 0.4806556
vn -0.8655521 0.1406763 0.4806555
vn -0.8655522 0.1406763 0.4806555
vn -0.8655521 0.1406763 0.4806555
vn 0.7942502 0.3327164 0.508396
vn 0.7942502 0.3327165 0.508396
vn 0.7942502 0.3327164 0.5083959
vn 0.7942501 0.3327164 0.5083959
vn -0.1648995 0.916982 -0.3632523
vn -0.1648995 0.916982 -0.3632523
vn -0.1648995 0.916982 -0.3632523
vn -0.8341175 -0.3757317 0.4038238
vn -0.8464223 -0.3166258 0.428156
vn -0.8464223 -0.3166258 0.428156
vn -0.8342414 -0.3752177 0.4040458
vn -0.8278089 -0.4004039 0.3929493
vn -0.827809 -0.4004039 0.3929493
vn 0.7327288 0.1972042 0.651321
vn 0.7233409 0.3167467 0.6135548
vn 0.7269168 0.2858169 0.6244203
vn 0.7327288 0.1972042 0.651321
vn 0.718921 0.3476979 0.6018793
vn 0.718921 0.347698 0.6018794
vn 0.1621695 0.1283243 -0.9783832
vn 0.1684746 0.06689575 -0.9834334
vn 0.1684746 0.06689575 -0.9834334
vn 0.1637751 0.1132896 -0.9799711
vn 0.1598309 0.1495728 -0.9757469
vn 0.1598309 0.1495728 -0.975747
vn -0.1050533 0.9904314 0.08949587
vn -0.1050533 0.9904314 0.08949589
vn -0.1050533 0.9904314 0.08949589
vn 0.8127021 -0.4483218 -0.3721867
vn 0.8127021 -0.4483218 -0.3721867
vn 0.8127021 -0.4483218 -0.3721867
vn 0.8127021 -0.4483218 -0.3721867
vn -0.7041351 0.3123424 -0.6376803
vn -0.7041351 0.3123424 -0.6376802
vn -0.704135 0.3123424 -0.6376802
vn -0.7041351 0.3123424 -0.6376802
vn -0.1227171 0.2107129 0.9698147
vn -0.1227171 0.2107129 0.9698147
vn -0.1227171 0.2107129 0.9698147
vn -0.1227171 0.2107129 0.9698147
vn 0.2017672 0.9708821 -0.1291434
vn 0.2017672 0.9708821 -0.1291434
vn 0.2017672 0.9708821 -0.1291434
vn -0.1139742 -0.4586265 0.8812898
vn -0.1139742 -0.4586265 0.8812898
vn -0.1139742 -0.4586265 0.8812898
vn -0.1139742 -0.4586265 0.8812898
vn 0.8316212 0.4656707 -0.3025841
vn 0.8316212 0.4656707 -0.3025841
vn 0.8316212 0.4656706 -0.3025841
vn 0.8316212 0.4656707 -0.3025841
vn -0.7231832 0.1178797 -0.6805221
vn -0.7231832 0.1178797 -0.6805221
vn -0.7231832 0.1178797 -0.6805221
vn -0.7231832 0.1178797 -0.6805221
vn 0.02252514 0.9520739 0.3050377
vn 0.02252514 0.9520739 0.3050376
vn 0.02252514 0.9520739 0.3050376
vn 0.3665036 -0.403316 0.8384578
vn 0.3759517 -0.327655 0.8667771
vn 0.3759516 -0.327655 0.8667771
vn 0.3679623 -0.3929571 0.8427269
vn 0.3609467 -0.4396781 0.8224358
vn 0.3609467 -0.4396781 0.8224358
vn 0.7186278 0.08786824 -0.6898212
vn 0.7370035 0.07577833 -0.6716275
vn 0.7336019 0.07805118 -0.6750825
vn 0.7186278 0.08786824 -0.6898211
vn 0.7452157 0.07022278 -0.6631156
vn 0.7452157 0.07022278 -0.6631156
vn -0.9243375 0.3406487 -0.1719267
vn -0.9437754 0.2874435 -0.1632915
vn -0.9437754 0.2874435 -0.1632915
vn -0.925167 0.3385578 -0.1715946
vn -0.9124683 0.3691702 -0.1763945
vn -0.9124683 0.3691702 -0.1763945
vn 0.2687763 0.9169824 0.2947926
vn 0.2687764 0.9169823 0.2947926
vn 0.2687764 0.9169823 0.2947926
vn 0.3633046 0.8579158 -0.3633046
vn 0 1 0
vn 0 0.8579158 -0.5137902
vn -0.3633046 0.8579158 -0.3633045
vn -0.5137904 0.8579158 0
vn -0.3633046 0.8579159 0.3633046
vn 0 0.8579158 0.5137902
vn 0.3633046 0.8579158 0.3633046
vn 0.5137904 0.8579158 0
vn 0.1702521 0.8955852 -0.4110248
vn 0.1702521 0.8955852 -0.4110248
vn -0.1702521 0.8955852 -0.4110249
vn -0.1702521 0.8955852 -0.4110249
vn -0.4110248 0.8955852 -0.1702521
vn -0.4110248 0.8955852 -0.1702521
vn -0.4110248 0.8955852 0.1702521
vn -0.4110249 0.8955852 0.1702521
vn -0.1702521 0.8955852 0.4110249
vn -0.1702522 0.8955852 0.4110248
vn 0.1702521 0.8955852 0.4110248
vn 0.1702521 0.8955852 0.4110249
vn 0.4110249 0.8955852 0.1702521
vn 0.4110249 0.8955852 0.1702521
vn 0.411025 0.8955851 -0.1702521
vn 0.411025 0.8955851 -0.1702521
g Fireplace_0
f 3/3/3 2/2/2 1/1/1
f 4/4/4 3/3/3 1/1/1
f 7/7/7 6/6/6 5/5/5
f 8/8/8 7/7/7 5/5/5
f 11/11/11 10/10/10 9/9/9
f 12/12/12 11/11/11 9/9/9
f 15/15/15 14/14/14 13/13/13
f 18/18/18 17/17/17 16/16/16
f 19/19/19 18/18/18 16/16/16
f 19/19/19 16/16/16 20/20/20
f 21/21/21 19/19/19 20/20/20
f 24/24/24 23/23/23 22/22/22
f 25/25/25 24/24/24 22/22/22
f 24/24/24 26/26/26 23/23/23
f 26/26/26 27/27/27 23/23/23
f 30/30/30 29/29/29 28/28/28
f 31/31/31 30/30/30 28/28/28
f 31/31/31 28/28/28 32/32/32
f 33/33/33 31/31/31 32/32/32
f 36/36/36 35/35/35 34/34/34
f 39/39/39 38/38/38 37/37/37
f 40/40/40 39/39/39 37/37/37
f 43/43/43 42/42/42 41/41/41
f 44/44/44 43/43/43 41/41/41
f 47/47/47 46/46/46 45/45/45
f 48/48/48 47/47/47 45/45/45
f 51/51/51 50/50/50 49/49/49
f 54/54/54 53/53/53 52/52/52
f 55/55/55 54/54/54 52/52/52
f 58/58/58 57/57/57 56/56/56
f 59/59/59 58/58/58 56/56/56
f 62/62/62 61/61/61 60/60/60
f 63/63/63 62/62/62 60/60/60
f 66/66/66 65/65/65 64/64/64
f 69/69/69 68/68/68 67/67/67
f 70/70/70 69/69/69 67/67/67
f 70/70/70 67/67/67 71/71/71
f 72/72/72 70/70/70 71/71/71
f 75/75/75 74/74/74 73/73/73
f 76/76/76 75/75/75 73/73/73
f 75/75/75 77/77/77 74/74/74
f 77/77/77 78/78/78 74/74/74
f 81/81/81 80/80/80 79/79/79
f 82/82/82 81/81/81 79/79/79
f 82/82/82 79/79/79 83/83/83
f 84/84/84 82/82/82 83/83/83
f 87/87/87 86/86/86 85/85/85
g Fireplace_1
f 90/90/90 89/89/89 88/88/88
f 91/91/91 89/89/89 90/90/90
f 92/92/92 89/89/89 91/91/91
f 93/93/93 89/89/89 92/92/92
f 94/94/94 89/89/89 93/93/93
f 95/95/95 89/89/89 94/94/94
f 96/96/96 89/89/89 95/95/95
f 88/88/88 89/89/89 96/96/96
f 88/88/88 97/97/97 90/90/90
f 97/97/97 98/98/98 90/90/90
f 90/90/90 99/99/99 91/91/91
f 99/99/99 100/100/100 91/91/91
f 91/91/91 101/101/101 92/92/92
f 101/101/101 102/102/102 92/92/92
f 92/92/92 103/103/103 93/93/93
f 103/103/103 104/104/104 93/93/93
f 93/93/93 105/105/105 94/94/94
f 105/105/105 106/106/106 94/94/94
f 94/94/94 107/107/107 95/95/95
f 107/107/107 108/108/108 95/95/95
f 95/95/95 109/109/109 96/96/96
f 109/109/109 110/110/110 96/96/96
f 96/96/96 111/111/111 88/88/88
f 111/111/111 112/112/112 88/88/88
