g Foliage
v -3.842076 0.01247478 -5.625252
v -3.924025 -0.04985017 -6.759513
v -3.129816 -0.3521698 -6.57291
v -2.544576 -0.3632702 -5.728441
v -3.825264 -0.2692032 -4.617135
v -3.048533 -0.5094916 -4.868798
v -4.910831 0.002531707 -5.575683
v -4.745528 -0.09260368 -6.469818
v -4.670001 -0.2603537 -4.831437
v -3.805666 0.4919774 -5.730844
v -3.52685 0.06531513 -6.465831
v -3.074364 -0.1685628 -6.061982
v -3.165639 -0.1005239 -5.35883
v -4.189082 0.03098089 -4.916461
v -3.580806 -0.19482 -4.877103
v -4.578975 0.1953332 -5.956363
v -4.173993 0.06162524 -6.526885
v -4.680435 0.03536826 -5.342007
v -2.964718 0.03318924 5.714489
v -2.972733 -0.274801 4.618029
v -2.166085 -0.4460844 4.895454
v -1.633738 -0.2177111 5.744106
v -2.981485 -0.02656108 6.759513
v -2.171954 -0.2316642 6.595262
v -4.028821 -0.0780859 5.72436
v -3.802332 -0.341485 4.878678
v -3.809025 -0.151644 6.516376
v -2.96746 0.4808238 5.509517
v -2.606384 -0.05939126 4.894881
v -2.158717 -0.1542375 5.356545
v -2.297712 0.05037433 6.024527
v -3.353514 0.1640344 6.388922
v -2.730084 0.01662719 6.499112
v -3.694544 0.06394476 5.323978
v -3.245506 -0.1436793 4.811493
v -3.816874 0.02718526 5.954059
v -2.579293 -0.2442587 4.510165
v -1.889222 -0.3580043 4.678294
v -2.161084 -0.4524338 5.117564
v -2.72872 -0.3580043 5.123478
v -3.212076 -0.3580043 4.355995
v -3.172734 -0.4524338 4.871087
v -2.429867 -0.3580043 3.896852
v -1.928564 -0.4524338 4.163201
v -2.940215 -0.4524338 3.916724
v -2.556233 0.1080743 4.515784
v -2.123954 -0.2241859 4.876916
v -2.471148 -0.2990742 5.094404
v -2.877196 -0.2241859 4.89998
v -2.952626 -0.2241859 4.184632
v -3.104873 -0.2990742 4.564981
v -2.235271 -0.2241859 4.131588
v -1.971706 -0.2990742 4.496566
v -2.605432 -0.2990742 3.967144
v -3.960545 0.2721239 -0.07948205
v -4.437197 0.1086387 -0.9822106
v -3.705487 -0.02708435 -1.10826
v -3.158229 0.1086387 -0.5031151
v -3.523463 0.1086387 0.7483033
v -3.00671 -0.02708435 0.2151477
v -4.762861 0.1086387 0.344151
v -4.953952 -0.02708435 -0.4490557
v -4.255174 -0.02708435 0.8743535
v -3.976473 0.7072844 -0.1096482
v -3.999806 0.3009731 -0.918902
v -3.434949 0.1933376 -0.7525605
v -3.257234 0.3009731 -0.1303856
v -3.955077 0.3009731 0.6324217
v -3.400744 0.1933376 0.4338119
v -4.695711 0.3009731 -0.08891121
v -4.554139 0.1933376 -0.7202923
v -4.519933 0.1933376 0.4660805
v 0.2624815 -0.007538259 -5.71299
v 0.2655275 0.07602173 -6.520986
v 0.841687 -0.1022061 -6.374879
v 1.214648 -0.1681818 -5.747502
v 0.2466471 -0.3216834 -5.035828
v 0.8272483 -0.4063506 -5.191462
v -0.4949648 -0.09470329 -5.744993
v -0.326371 -0.04503703 -6.372926
v -0.3408096 -0.3491815 -5.237154
v 0.2557671 0.3430603 -5.731467
v 0.5228159 0.1498848 -6.277648
v 0.8412006 -0.02966914 -5.992461
v 0.736531 -0.07077554 -5.497025
v -0.01941657 -0.1017841 -5.234829
v 0.4265287 -0.2221326 -5.194966
v -0.2566149 0.1079772 -5.97029
v 0.06849504 0.1094074 -6.360679
v -0.3461769 -0.08305615 -5.563184
v 4.779246 -0.2524619 -1.289256
v 4.779246 -0.343279 -1.856342
v 5.171384 -0.4186737 -1.728472
v 5.283254 -0.343279 -1.289256
v 4.779246 -0.343279 -0.7692492
v 5.171384 -0.4186737 -0.8971192
v 4.275239 -0.343279 -1.289256
v 4.38711 -0.4186737 -1.728472
v 4.38711 -0.4186737 -0.8971192
v 4.779246 -0.01072574 -1.308207
v 4.977688 -0.2364353 -1.711792
v 5.21202 -0.2962279 -1.483568
v 5.13794 -0.2364353 -1.131838
v 4.59728 -0.2364353 -0.9381258
v 4.921103 -0.2962279 -0.8919078
v 4.420552 -0.2364353 -1.484575
v 4.653865 -0.2962279 -1.758011
v 4.362947 -0.2962279 -1.16635
v 4.497429 -0.2293293 -0.5181184
v 4.497429 -0.3559493 -1.308766
v 5.044158 -0.4610668 -1.130486
v 5.20013 -0.3559493 -0.5181184
v 4.497429 -0.3559493 0.2068911
v 5.044158 -0.4610668 0.02861089
v 3.794726 -0.3559493 -0.5181184
v 3.950699 -0.4610668 -1.130486
v 3.950699 -0.4610668 0.02861089
v 4.497429 0.173423 -0.5445394
v 4.774101 -0.2069846 -1.107231
v 5.100814 -0.2903492 -0.7890339
v 4.997531 -0.2069846 -0.2986417
v 4.243725 -0.2069846 -0.02856174
v 4.695209 -0.2903492 0.03587687
v 3.997326 -0.2069846 -0.7904371
v 4.322617 -0.2903492 -1.171669
v 3.917012 -0.2903492 -0.3467587
v 3.659473 0.02342737 5.567179
v 3.671865 -0.2031128 4.622706
v 4.379319 -0.2494592 4.841722
v 4.814297 -0.01311833 5.56481
v 3.673492 -0.06136012 6.455857
v 4.379235 -0.122167 6.297356
v 2.777809 -0.2109893 5.587209
v 2.986778 -0.3767807 4.854532
v 2.988023 -0.2683757 6.256432
v 3.594401 0.4063115 5.407562
v 3.957593 0.01806158 4.860538
v 4.356158 -0.01698154 5.244277
v 4.225167 0.1163416 5.822308
v 3.327845 0.0614751 6.151838
v 3.874559 0.01621896 6.231797
v 3.032997 -0.03492498 5.245991
v 3.428604 -0.1346728 4.79588
v 2.947005 -0.1014725 5.7834
v -4.214778 0.0485459 4.082623
v -4.298799 -0.1529081 2.964812
v -3.515326 -0.4560159 3.191265
v -2.930802 -0.3807245 4.032943
v -4.207552 -0.1047254 5.118182
v -3.439437 -0.4007691 4.901979
v -5.283254 0.08095497 4.128488
v -5.121281 -0.1312186 3.254072
v -5.051499 -0.09437099 4.900861
v -4.162088 0.5094921 3.91785
v -3.897938 -0.01523939 3.243413
v -3.453664 -0.2116835 3.675346
v -3.542574 -0.05285355 4.364004
v -4.560956 0.167596 4.782002
v -3.960706 -0.07186022 4.851981
v -4.945035 0.2131286 3.728042
v -4.544833 -0.004739404 3.180542
v -5.051875 0.1350839 4.357177
vt 0.7848651 0.05483754
vt 0.8404342 0.05485376
vt 0.8289144 0.01531432
vt 0.7848922 0.005305894
vt 0.7337924 0.05482487
vt 0.7453014 0.01520893
vt 0.7848651 0.1044436
vt 0.828921 0.0944126
vt 0.7452518 0.09447537
vt 0.7848651 0.05483754
vt 0.8404342 0.05485376
vt 0.8289144 0.01531432
vt 0.7848922 0.005305894
vt 0.7337924 0.05482487
vt 0.7453014 0.01520893
vt 0.7848651 0.1044436
vt 0.828921 0.0944126
vt 0.7452518 0.09447537
vt 0.7848651 0.05483754
vt 0.8404342 0.05485376
vt 0.8289144 0.01531432
vt 0.7848922 0.005305894
vt 0.7337924 0.05482487
vt 0.7453014 0.01520893
vt 0.7848651 0.1044436
vt 0.828921 0.0944126
vt 0.7452518 0.09447537
vt 0.7848651 0.05483754
vt 0.8404342 0.05485376
vt 0.8289144 0.01531432
vt 0.7848922 0.005305894
vt 0.7337924 0.05482487
vt 0.7453014 0.01520893
vt 0.7848651 0.1044436
vt 0.828921 0.0944126
vt 0.7452518 0.09447537
vt 0.7848651 0.05483754
vt 0.8404342 0.05485376
vt 0.8289144 0.01531432
vt 0.7848922 0.005305894
vt 0.7337924 0.05482487
vt 0.7453014 0.01520893
vt 0.7848651 0.1044436
vt 0.828921 0.0944126
vt 0.7452518 0.09447537
vt 0.7848651 0.05483754
vt 0.8404342 0.05485376
vt 0.8289144 0.01531432
vt 0.7848922 0.005305894
vt 0.7337924 0.05482487
vt 0.7453014 0.01520893
vt 0.7848651 0.1044436
vt 0.828921 0.0944126
vt 0.7452518 0.09447537
vt 0.7848651 0.05483754
vt 0.8404342 0.05485376
vt 0.8289144 0.01531432
vt 0.7848922 0.005305894
vt 0.7337924 0.05482487
vt 0.7453014 0.01520893
vt 0.7848651 0.1044436
vt 0.828921 0.0944126
vt 0.7452518 0.09447537
vt 0.7848651 0.05483754
vt 0.8404342 0.05485376
vt 0.8289144 0.01531432
vt 0.7848922 0.005305894
vt 0.7337924 0.05482487
vt 0.7453014 0.01520893
vt 0.7848651 0.1044436
vt 0.828921 0.0944126
vt 0.7452518 0.09447537
vt 0.7848651 0.05483754
vt 0.8404342 0.05485376
vt 0.8289144 0.01531432
vt 0.7848922 0.005305894
vt 0.7337924 0.05482487
vt 0.7453014 0.01520893
vt 0.7848651 0.1044436
vt 0.828921 0.0944126
vt 0.7452518 0.09447537
vt 0.7848651 0.05483754
vt 0.8404342 0.05485376
vt 0.8289144 0.01531432
vt 0.7848922 0.005305894
vt 0.7337924 0.05482487
vt 0.7453014 0.01520893
vt 0.7848651 0.1044436
vt 0.828921 0.0944126
vt 0.7452518 0.09447537
vt 0.7848651 0.05483754
vt 0.8404342 0.05485376
vt 0.8289144 0.01531432
vt 0.7848922 0.005305894
vt 0.7337924 0.05482487
vt 0.7453014 0.01520893
vt 0.7848651 0.1044436
vt 0.828921 0.0944126
vt 0.7452518 0.09447537
vt 0.7848651 0.05483754
vt 0.8404342 0.05485376
vt 0.8289144 0.01531432
vt 0.7848922 0.005305894
vt 0.7337924 0.05482487
vt 0.7453014 0.01520893
vt 0.7848651 0.1044436
vt 0.828921 0.0944126
vt 0.7452518 0.09447537
vt 0.7848651 0.05483754
vt 0.8404342 0.05485376
vt 0.8289144 0.01531432
vt 0.7848922 0.005305894
vt 0.7337924 0.05482487
vt 0.7453014 0.01520893
vt 0.7848651 0.1044436
vt 0.828921 0.0944126
vt 0.7452518 0.09447537
vt 0.7848651 0.05483754
vt 0.8404342 0.05485376
vt 0.8289144 0.01531432
vt 0.7848922 0.005305894
vt 0.7337924 0.05482487
vt 0.7453014 0.01520893
vt 0.7848651 0.1044436
vt 0.828921 0.0944126
vt 0.7452518 0.09447537
vt 0.7848651 0.05483754
vt 0.8404342 0.05485376
vt 0.8289144 0.01531432
vt 0.7848922 0.005305894
vt 0.7337924 0.05482487
vt 0.7453014 0.01520893
vt 0.7848651 0.1044436
vt 0.828921 0.0944126
vt 0.7452518 0.09447537
vt 0.7848651 0.05483754
vt 0.8404342 0.05485376
vt 0.8289144 0.01531432
vt 0.7848922 0.005305894
vt 0.7337924 0.05482487
vt 0.7453014 0.01520893
vt 0.7848651 0.1044436
vt 0.828921 0.0944126
vt 0.7452518 0.09447537
vt 0.7848651 0.05483754
vt 0.8404342 0.05485376
vt 0.8289144 0.01531432
vt 0.7848922 0.005305894
vt 0.7337924 0.05482487
vt 0.7453014 0.01520893
vt 0.7848651 0.1044436
vt 0.828921 0.0944126
vt 0.7452518 0.09447537
vt 0.7848651 0.05483754
vt 0.8404342 0.05485376
vt 0.8289144 0.01531432
vt 0.7848922 0.005305894
vt 0.7337924 0.05482487
vt 0.7453014 0.01520893
vt 0.7848651 0.1044436
vt 0.828921 0.0944126
vt 0.7452518 0.09447537
vn 0.1586614 0.9831935 0.09031724
vn 0.1477682 0.9831762 -0.1073736
vn 0.3104444 0.9417902 -0.1290565
vn 0.3211074 0.9441432 0.07405069
vn 0.1663926 0.9396663 0.2988993
vn 0.3177021 0.9028496 0.2897031
vn -0.03525516 0.9941828 0.1017729
vn -0.04195238 0.9959883 -0.07904057
vn -0.02638872 0.9535133 0.300193
vn 0.1657776 0.9842429 0.06151253
vn 0.326859 0.9029363 -0.2790504
vn 0.6429238 0.7598971 -0.09594451
vn 0.507125 0.8208759 0.2626537
vn 0.01527894 0.8957336 0.4443286
vn 0.3316879 0.7758127 0.5367475
vn -0.2537133 0.9657636 -0.05413289
vn -0.1009367 0.8939779 -0.4365951
vn -0.3474508 0.8973534 0.2720936
vn 0.05958533 0.99126 -0.1176998
vn 0.06053432 0.9484767 -0.3110104
vn 0.2273895 0.9207413 -0.317064
vn 0.2256687 0.9669111 -0.1189803
vn 0.05895117 0.9936823 0.09550101
vn 0.2133359 0.9718255 0.1002147
vn -0.13484 0.9840229 -0.1162635
vn -0.1308982 0.9470047 -0.2933391
vn -0.1340099 0.987202 0.086449
vn 0.06827328 0.9869611 -0.1457619
vn 0.2562973 0.8531169 -0.4544264
vn 0.5729746 0.7857799 -0.2329164
vn 0.4109177 0.9063153 0.09868799
vn -0.09573779 0.9657601 0.2411263
vn 0.2245013 0.9018351 0.3691783
vn -0.3399715 0.9006712 -0.2705748
vn -0.1586035 0.7663884 -0.62249
vn -0.4461007 0.8930411 0.05892292
vn 0.0001542032 1 3.752749E-05
vn 0.1802356 0.9826428 0.04391254
vn 0.1280674 0.9619127 0.2415009
vn -0.04784979 0.9779094 0.2034786
vn -0.1984182 0.9789245 -0.04834256
vn -0.2429604 0.9578918 0.1530149
vn 0.05110734 0.9779094 -0.2026848
vn 0.2247991 0.9619128 -0.1555285
vn -0.1453498 0.9578917 -0.2476225
vn 0.002795866 0.9999934 0.002335686
vn 0.3239103 0.906564 0.2705988
vn 0.01756514 0.8189132 0.5736485
vn -0.2975745 0.8846168 0.35903
vn -0.3510923 0.8892161 -0.2933072
vn -0.5911657 0.8041376 0.06233538
vn 0.3003591 0.8846169 -0.3567032
vn 0.5676211 0.8189135 -0.08477589
vn -0.04383585 0.8041384 -0.5928237
vn -7.405528E-05 1 -0.0001402837
vn -0.0866181 0.9826425 -0.1640455
vn 0.09589169 0.9619122 -0.2559876
vn 0.1840566 0.9779091 -0.09907994
vn 0.09535633 0.9789242 0.180595
vn 0.2756319 0.9578912 0.08044501
vn -0.1856219 0.9779092 0.09611499
vn -0.2654729 0.9619124 -0.06518211
vn -0.08901682 0.9578911 0.2729844
vn -7.351733E-05 0.9999968 -0.00255011
vn -0.01090787 0.9256119 -0.3783166
vn 0.3815973 0.8516115 -0.3593626
vn 0.4198906 0.9074659 -0.01405448
vn 0.01186735 0.9112893 0.4115959
vn 0.4017743 0.8387366 0.3675574
vn -0.4200034 0.9074656 0.01016149
vn -0.4016693 0.8516111 -0.3367794
vn -0.3799298 0.8387364 0.3900956
vn 0.04270951 0.9657254 0.2560279
vn 0.04561974 0.9971213 0.06056408
vn 0.2129755 0.9759368 0.04678541
vn 0.2092038 0.9459215 0.2479237
vn 0.04070683 0.8894898 0.4551384
vn 0.1954229 0.86963 0.4533802
vn -0.1515619 0.9557043 0.2523061
vn -0.1458627 0.9865262 0.07409512
vn -0.1520487 0.8840538 0.4419616
vn 0.05164678 0.9721819 0.2284619
vn 0.2439327 0.9640414 -0.1054557
vn 0.5603721 0.8244051 0.0796205
vn 0.3941428 0.8120974 0.4302898
vn -0.1143645 0.8077275 0.5783572
vn 0.2061577 0.7057151 0.6778387
vn -0.3542185 0.9320988 0.0756379
vn -0.16831 0.9393767 -0.2987363
vn -0.4622423 0.8022091 0.3778792
vn 0 1 -0.0001586182
vn 0 0.9826428 -0.185508
vn 0.2043217 0.9619127 -0.1815945
vn 0.2090224 0.9779094 -0.001676373
vn 0 0.9789245 0.2042227
vn 0.2061787 0.9578916 0.1998349
vn -0.2090223 0.9779094 -0.001676405
vn -0.2043217 0.9619127 -0.1815945
vn -0.2061785 0.9578917 0.1998348
vn 0.001125673 0.9999968 -0.002289473
vn 0.1669986 0.9256119 -0.3396385
vn 0.5052412 0.8516108 -0.1396081
vn 0.3778718 0.9074655 0.1836283
vn -0.1816886 0.911289 0.3695154
vn 0.1836688 0.8387362 0.512628
vn -0.3761533 0.9074656 -0.1871227
vn -0.1979461 0.851611 -0.4853619
vn -0.5181158 0.8387362 0.1675642
vn 0 1 -0.0001586268
vn 0 0.9826428 -0.1855079
vn 0.2043217 0.9619127 -0.1815944
vn 0.2090224 0.9779094 -0.001676423
vn 0 0.9789245 0.2042226
vn 0.2061786 0.9578917 0.1998347
vn -0.2090222 0.9779094 -0.001676376
vn -0.2043215 0.9619127 -0.1815944
vn -0.2061784 0.9578917 0.1998349
vn 0.001707068 0.9999925 -0.003471754
vn 0.1897714 0.9027882 -0.3859537
vn 0.5617162 0.8126399 -0.1552137
vn 0.426811 0.8801256 0.2078732
vn -0.2055476 0.8848695 0.4180385
vn 0.2034793 0.7975354 0.5679203
vn -0.4252371 0.8801256 -0.2110743
vn -0.2200722 0.8126404 -0.5396146
vn -0.5740006 0.7975349 0.1856379
vn -0.09644546 0.9921454 -0.0796599
vn -0.09332367 0.9570505 -0.2744904
vn 0.07563073 0.955703 -0.2844501
vn 0.07133383 0.9938495 -0.08470483
vn -0.09258889 0.9867208 0.1334517
vn 0.06338708 0.988858 0.1346914
vn -0.2873544 0.9548661 -0.07522127
vn -0.2817941 0.9253383 -0.2536553
vn -0.282407 0.9507951 0.1274168
vn -0.0878405 0.9902613 -0.1080123
vn 0.1114694 0.8983831 -0.4248322
vn 0.4397002 0.8728805 -0.2115262
vn 0.2686127 0.954806 0.1272509
vn -0.2377766 0.9299478 0.280463
vn 0.09131932 0.9117478 0.4004707
vn -0.480667 0.8464209 -0.2291961
vn -0.2888488 0.7546457 -0.5891317
vn -0.5768235 0.8105389 0.101495
vn 0.1919924 0.980838 -0.03310231
vn 0.1811047 0.9563655 -0.2292728
vn 0.3422801 0.9071219 -0.2448961
vn 0.353017 0.9345983 -0.04364616
vn 0.1982394 0.9636098 0.1793242
vn 0.34821 0.9208481 0.1754667
vn -0.001438627 0.9997123 -0.02394392
vn -0.008070776 0.9790247 -0.2035818
vn 0.006040364 0.9840034 0.1780473
vn 0.1991399 0.9780217 -0.06178024
vn 0.3573638 0.8492106 -0.3887574
vn 0.6683842 0.7197174 -0.1878016
vn 0.5347367 0.8297855 0.1597271
vn 0.04571979 0.9434071 0.3284703
vn 0.3578694 0.8254375 0.4365573
vn -0.2207364 0.9593256 -0.1759821
vn -0.0704885 0.8349739 -0.5457563
vn -0.3167453 0.9356197 0.1558468
g Foliage_0
f 3/3/3 2/2/2 1/1/1
f 4/4/4 3/3/3 1/1/1
f 4/4/4 1/1/1 5/5/5
f 6/6/6 4/4/4 5/5/5
f 1/1/1 2/2/2 7/7/7
f 2/2/2 8/8/8 7/7/7
f 1/1/1 7/7/7 9/9/9
f 5/5/5 1/1/1 9/9/9
f 12/12/12 11/11/11 10/10/10
f 13/13/13 12/12/12 10/10/10
f 13/13/13 10/10/10 14/14/14
f 15/15/15 13/13/13 14/14/14
f 10/10/10 11/11/11 16/16/16
f 11/11/11 17/17/17 16/16/16
f 10/10/10 16/16/16 18/18/18
f 14/14/14 10/10/10 18/18/18
f 21/21/21 20/20/20 19/19/19
f 22/22/22 21/21/21 19/19/19
f 22/22/22 19/19/19 23/23/23
f 24/24/24 22/22/22 23/23/23
f 19/19/19 20/20/20 25/25/25
f 20/20/20 26/26/26 25/25/25
f 19/19/19 25/25/25 27/27/27
f 23/23/23 19/19/19 27/27/27
f 30/30/30 29/29/29 28/28/28
f 31/31/31 30/30/30 28/28/28
f 31/31/31 28/28/28 32/32/32
f 33/33/33 31/31/31 32/32/32
f 28/28/28 29/29/29 34/34/34
f 29/29/29 35/35/35 34/34/34
f 28/28/28 34/34/34 36/36/36
f 32/32/32 28/28/28 36/36/36
f 39/39/39 38/38/38 37/37/37
f 40/40/40 39/39/39 37/37/37
f 40/40/40 37/37/37 41/41/41
f 42/42/42 40/40/40 41/41/41
f 37/37/37 38/38/38 43/43/43
f 38/38/38 44/44/44 43/43/43
f 37/37/37 43/43/43 45/45/45
f 41/41/41 37/37/37 45/45/45
f 48/48/48 47/47/47 46/46/46
f 49/49/49 48/48/48 46/46/46
f 49/49/49 46/46/46 50/50/50
f 51/51/51 49/49/49 50/50/50
f 46/46/46 47/47/47 52/52/52
f 47/47/47 53/53/53 52/52/52
f 46/46/46 52/52/52 54/54/54
f 50/50/50 46/46/46 54/54/54
f 57/57/57 56/56/56 55/55/55
f 58/58/58 57/57/57 55/55/55
f 58/58/58 55/55/55 59/59/59
f 60/60/60 58/58/58 59/59/59
f 55/55/55 56/56/56 61/61/61
f 56/56/56 62/62/62 61/61/61
f 55/55/55 61/61/61 63/63/63
f 59/59/59 55/55/55 63/63/63
f 66/66/66 65/65/65 64/64/64
f 67/67/67 66/66/66 64/64/64
f 67/67/67 64/64/64 68/68/68
f 69/69/69 67/67/67 68/68/68
f 64/64/64 65/65/65 70/70/70
f 65/65/65 71/71/71 70/70/70
f 64/64/64 70/70/70 72/72/72
f 68/68/68 64/64/64 72/72/72
f 75/75/75 74/74/74 73/73/73
f 76/76/76 75/75/75 73/73/73
f 76/76/76 73/73/73 77/77/77
f 78/78/78 76/76/76 77/77/77
f 73/73/73 74/74/74 79/79/79
f 74/74/74 80/80/80 79/79/79
f 73/73/73 79/79/79 81/81/81
f 77/77/77 73/73/73 81/81/81
f 84/84/84 83/83/83 82/82/82
f 85/85/85 84/84/84 82/82/82
f 85/85/85 82/82/82 86/86/86
f 87/87/87 85/85/85 86/86/86
f 82/82/82 83/83/83 88/88/88
f 83/83/83 89/89/89 88/88/88
f 82/82/82 88/88/88 90/90/90
f 86/86/86 82/82/82 90/90/90
f 93/93/93 92/92/92 91/91/91
f 94/94/94 93/93/93 91/91/91
f 94/94/94 91/91/91 95/95/95
f 96/96/96 94/94/94 95/95/95
f 91/91/91 92/92/92 97/97/97
f 92/92/92 98/98/98 97/97/97
f 91/91/91 97/97/97 99/99/99
f 95/95/95 91/91/91 99/99/99
f 102/102/102 101/101/101 100/100/100
f 103/103/103 102/102/102 100/100/100
f 103/103/103 100/100/100 104/104/104
f 105/105/105 103/103/103 104/104/104
f 100/100/100 101/101/101 106/106/106
f 101/101/101 107/107/107 106/106/106
f 100/100/100 106/106/106 108/108/108
f 104/104/104 100/100/100 108/108/108
f 111/111/111 110/110/110 109/109/109
f 112/112/112 111/111/111 109/109/109
f 112/112/112 109/109/109 113/113/113
f 114/114/114 112/112/112 113/113/113
f 109/109/109 110/110/110 115/115/115
f 110/110/110 116/116/116 115/115/115
f 109/109/109 115/115/115 117/117/117
f 113/113/113 109/109/109 117/117/117
f 120/120/120 119/119/119 118/118/118
f 121/121/121 120/120/120 118/118/118
f 121/121/121 118/118/118 122/122/122
f 123/123/123 121/121/121 122/122/122
f 118/118/118 119/119/119 124/124/124
f 119/119/119 125/125/125 124/124/124
f 118/118/118 124/124/124 126/126/126
f 122/122/122 118/118/118 126/126/126
f 129/129/129 128/128/128 127/127/127
f 130/130/130 129/129/129 127/127/127
f 130/130/130 127/127/127 131/131/131
f 132/132/132 130/130/130 131/131/131
f 127/127/127 128/128/128 133/133/133
f 128/128/128 134/134/134 133/133/133
f 127/127/127 133/133/133 135/135/135
f 131/131/131 127/127/127 135/135/135
f 138/138/138 137/137/137 136/136/136
f 139/139/139 138/138/138 136/136/136
f 139/139/139 136/136/136 140/140/140
f 141/141/141 139/139/139 140/140/140
f 136/136/136 137/137/137 142/142/142
f 137/137/137 143/143/143 142/142/142
f 136/136/136 142/142/142 144/144/144
f 140/140/140 136/136/136 144/144/144
f 147/147/147 146/146/146 145/145/145
f 148/148/148 147/147/147 145/145/145
f 148/148/148 145/145/145 149/149/149
f 150/150/150 148/148/148 149/149/149
f 145/145/145 146/146/146 151/151/151
f 146/146/146 152/152/152 151/151/151
f 145/145/145 151/151/151 153/153/153
f 149/149/149 145/145/145 153/153/153
f 156/156/156 155/155/155 154/154/154
f 157/157/157 156/156/156 154/154/154
f 157/157/157 154/154/154 158/158/158
f 159/159/159 157/157/157 158/158/158
f 154/154/154 155/155/155 160/160/160
f 155/155/155 161/161/161 160/160/160
f 154/154/154 160/160/160 162/162/162
f 158/158/158 154/154/154 162/162/162
