g Gem
v -0.04828343 0.05480757 0.0009775322
v -0.04872201 -0.005008548 0.06065102
v -0.07971581 -0.03012761 0.04173873
v -0.0802651 0.03992072 -0.02980709
v 0.04947389 0.06140557 -0.005522831
v 0.01777443 0.07537022 -0.01948702
v 0.03154118 0.07558003 -0.06732902
v 0.05810598 0.05885497 -0.04227746
v -0.03231423 0.07734647 -0.06573896
v -0.02207986 0.07666531 -0.0208085
v 0.07884406 0.04690567 -0.0280849
v 0.04947389 0.06140557 -0.005522831
v 0.07884406 0.04690567 -0.0280849
v 0.08009592 -0.02759203 0.04556991
v 0.05322453 -0.005722135 0.06143816
v 0.04947389 0.06140557 -0.005522831
v 0.05322453 -0.005722135 0.06143816
v -0.04872201 -0.005008548 0.06065102
v -0.04828343 0.05480757 0.0009775322
v 0.01777443 0.07537022 -0.01948702
v -0.02207986 0.07666531 -0.0208085
v -0.02674211 -0.02175745 0.07737626
v 0.02937791 -0.02173409 0.07739462
v -0.02207986 0.07666531 -0.0208085
v -0.04828343 0.05480757 0.0009775322
v -0.0802651 0.03992072 -0.02980709
v -0.03231423 0.07734647 -0.06573896
v 0.02937791 -0.02173409 0.07739462
v 0.05322453 -0.005722135 0.06143816
v 0.08009592 -0.02759203 0.04556991
v 0.03266501 -0.06499609 0.07743581
v -0.02674211 -0.02175745 0.07737626
v 0.02937791 -0.02173409 0.07739462
v 0.03266501 -0.06499609 0.07743581
v -0.03185375 -0.07632646 0.07084586
v 0.0802651 -0.04245862 0.03087779
v 0.03236158 -0.07734641 0.06564717
v 0.03266501 -0.06499609 0.07743581
v 0.08009592 -0.02759203 0.04556991
v 0.08009592 -0.02759203 0.04556991
v 0.07884406 0.04690567 -0.0280849
v 0.08014797 0.03116813 -0.04257317
v 0.0802651 -0.04245862 0.03087779
v 0.03221073 0.06601277 -0.07736972
v 0.08014797 0.03116813 -0.04257317
v 0.05810598 0.05885497 -0.04227746
v 0.03154118 0.07558003 -0.06732902
v 0.07884406 0.04690567 -0.0280849
v -0.07971581 -0.03012761 0.04173873
v -0.04872201 -0.005008548 0.06065102
v -0.02674211 -0.02175745 0.07737626
v -0.03185375 -0.07632646 0.07084586
v -0.03185375 -0.07632646 0.07084586
v -0.07978307 -0.042523 0.03082432
v -0.07971581 -0.03012761 0.04173873
v -0.07976673 0.03114095 -0.04266432
v -0.0802651 0.03992072 -0.02980709
v -0.07971581 -0.03012761 0.04173873
v -0.07978307 -0.042523 0.03082432
v -0.07976673 0.03114095 -0.04266432
v -0.03188084 0.06603113 -0.07743581
v -0.03231423 0.07734647 -0.06573896
v -0.0802651 0.03992072 -0.02980709
v 0.03236158 -0.07734641 0.06564717
v -0.03185375 -0.07632646 0.07084586
v 0.03266501 -0.06499609 0.07743581
v 0.03221073 0.06601277 -0.07736972
v 0.03154118 0.07558003 -0.06732902
v -0.03231423 0.07734647 -0.06573896
v -0.03188084 0.06603113 -0.07743581
vt 0.9893034 0.1440907
vt 0.989356 0.1513195
vt 0.9932208 0.1523204
vt 0.9931088 0.142368
vt 0.9805632 0.1434046
vt 0.9833454 0.1417988
vt 0.9820031 0.1376726
vt 0.9792347 0.1404315
vt 0.9879739 0.1378389
vt 0.9868776 0.1416065
vt 0.9772023 0.142342
vt 0.9805632 0.1434046
vt 0.9772023 0.142342
vt 0.9771286 0.1525206
vt 0.9802999 0.1515163
vt 0.9805632 0.1434046
vt 0.9802999 0.1515163
vt 0.989356 0.1513195
vt 0.9893034 0.1440907
vt 0.9833454 0.1417988
vt 0.9868776 0.1416065
vt 0.9874063 0.1533341
vt 0.9825014 0.1533497
vt 0.9868776 0.1416065
vt 0.9893034 0.1440907
vt 0.9931088 0.142368
vt 0.9879739 0.1378389
vt 0.9825014 0.1533497
vt 0.9802999 0.1515163
vt 0.9771286 0.1525206
vt 0.9820668 0.1570465
vt 0.9874063 0.1533341
vt 0.9825014 0.1533497
vt 0.9820668 0.1570465
vt 0.9884294 0.1581183
vt 0.9755245 0.1532982
vt 0.9816234 0.1584309
vt 0.9820668 0.1570465
vt 0.9771286 0.1525206
vt 0.9771286 0.1525206
vt 0.9772023 0.142342
vt 0.9753765 0.1417412
vt 0.9755245 0.1532982
vt 0.9816101 0.1364278
vt 0.9753765 0.1417412
vt 0.9792347 0.1404315
vt 0.9820031 0.1376726
vt 0.9772023 0.142342
vt 0.9932208 0.1523204
vt 0.989356 0.1513195
vt 0.9874063 0.1533341
vt 0.9884294 0.1581183
vt 0.9884294 0.1581183
vt 0.994542 0.152934
vt 0.9932208 0.1523204
vt 0.9942515 0.1415751
vt 0.9931088 0.142368
vt 0.9932208 0.1523204
vt 0.994542 0.152934
vt 0.9942515 0.1415751
vt 0.9883878 0.1364861
vt 0.9879739 0.1378389
vt 0.9931088 0.142368
vt 0.9816234 0.1584309
vt 0.9884294 0.1581183
vt 0.9820668 0.1570465
vt 0.9816101 0.1364278
vt 0.9820031 0.1376726
vt 0.9879739 0.1378389
vt 0.9883878 0.1364861
vn -0.7094636 0.5006077 0.4960376
vn -0.7094636 0.5006077 0.4960376
vn -0.7094637 0.5006077 0.4960376
vn -0.7094636 0.5006077 0.4960376
vn 0.4263145 0.90095 0.08090067
vn 0.1825066 0.9823762 0.04035541
vn 0.1790137 0.9830461 0.03968025
vn 0.4277707 0.9003445 0.07994982
vn 0.02953342 0.9995062 0.01072551
vn 0.02953342 0.9995062 0.01072551
vn 0.4727345 0.8797869 0.04996958
vn 0.684806 0.5254781 0.5048895
vn 0.684806 0.5254781 0.5048895
vn 0.684806 0.5254781 0.5048895
vn 0.684806 0.5254781 0.5048895
vn -0.0005574066 0.7062448 0.7079675
vn -0.0005525554 0.7062387 0.7079737
vn -0.0005525046 0.7062387 0.7079737
vn -0.0005575362 0.7062454 0.7079669
vn -0.0005796537 0.7063521 0.7078604
vn -0.0005796537 0.7063521 0.7078604
vn -0.0005236751 0.7062666 0.7079457
vn -0.0005236752 0.7062666 0.7079457
vn -0.5443512 0.8255878 0.1486156
vn -0.5443511 0.8255878 0.1486156
vn -0.544351 0.8255878 0.1486156
vn -0.5443511 0.8255878 0.1486156
vn 0.5345419 0.04240198 0.8440775
vn 0.534542 0.04240198 0.8440776
vn 0.5345419 0.04240198 0.8440775
vn 0.534542 0.04240198 0.8440775
vn -0.04845944 -0.06520776 0.9966943
vn -0.04845944 -0.06520776 0.9966943
vn -0.04845944 -0.06520776 0.9966943
vn -0.04845944 -0.06520776 0.9966943
vn 0.7174669 -0.4875828 0.4974979
vn 0.7174669 -0.4875828 0.4974979
vn 0.7174669 -0.4875828 0.497498
vn 0.7174669 -0.4875828 0.4974979
vn 0.9993781 0.02906617 0.01996669
vn 0.9993781 0.02906617 0.01996669
vn 0.9993781 0.02906617 0.01996669
vn 0.9993781 0.02906617 0.01996669
vn 0.7248862 0.542766 -0.4241994
vn 0.6945474 0.5577955 -0.4543876
vn 0.7084711 0.5644922 -0.4235767
vn 0.737401 0.5128853 -0.4395321
vn 0.6649495 0.5349454 -0.5212252
vn -0.5567271 -0.01294574 0.8305945
vn -0.5567271 -0.01294574 0.8305945
vn -0.5567271 -0.01294574 0.8305945
vn -0.5567271 -0.01294574 0.8305945
vn -0.7377566 -0.4438585 0.5086303
vn -0.7377566 -0.4438584 0.5086303
vn -0.7377566 -0.4438585 0.5086303
vn -0.9999024 -0.01158976 -0.00780987
vn -0.9999024 -0.01158976 -0.007809871
vn -0.9999024 -0.01158976 -0.007809871
vn -0.9999024 -0.01158976 -0.007809871
vn -0.7253036 0.5190114 -0.4522851
vn -0.7253036 0.5190114 -0.4522851
vn -0.7253036 0.5190114 -0.4522851
vn -0.7253036 0.5190114 -0.4522851
vn 0.04748465 -0.6903009 0.7219626
vn 0.04748465 -0.6903009 0.7219626
vn 0.04748465 -0.6903009 0.7219626
vn 0.001809176 0.7211919 -0.692733
vn 0.001809176 0.7211919 -0.692733
vn 0.001809176 0.7211919 -0.692733
vn 0.001809176 0.7211919 -0.692733
g Gem_0
f 3/3/3 2/2/2 1/1/1
f 4/4/4 3/3/3 1/1/1
f 7/7/7 6/6/6 5/5/5
f 8/8/8 7/7/7 5/5/5
f 6/6/6 7/7/7 9/9/9
f 10/10/10 6/6/6 9/9/9
f 11/11/11 8/8/8 5/5/5
f 14/14/14 13/13/13 12/12/12
f 15/15/15 14/14/14 12/12/12
f 18/18/18 17/17/17 16/16/16
f 19/19/19 18/18/18 16/16/16
f 16/16/16 20/20/20 19/19/19
f 20/20/20 21/21/21 19/19/19
f 18/18/18 22/22/22 17/17/17
f 22/22/22 23/23/23 17/17/17
f 26/26/26 25/25/25 24/24/24
f 27/27/27 26/26/26 24/24/24
f 30/30/30 29/29/29 28/28/28
f 31/31/31 30/30/30 28/28/28
f 34/34/34 33/33/33 32/32/32
f 35/35/35 34/34/34 32/32/32
f 38/38/38 37/37/37 36/36/36
f 39/39/39 38/38/38 36/36/36
f 42/42/42 41/41/41 40/40/40
f 43/43/43 42/42/42 40/40/40
f 46/46/46 45/45/45 44/44/44
f 47/47/47 46/46/46 44/44/44
f 46/46/46 48/48/48 45/45/45
f 51/51/51 50/50/50 49/49/49
f 52/52/52 51/51/51 49/49/49
f 55/55/55 54/54/54 53/53/53
f 58/58/58 57/57/57 56/56/56
f 59/59/59 58/58/58 56/56/56
f 62/62/62 61/61/61 60/60/60
f 63/63/63 62/62/62 60/60/60
f 66/66/66 65/65/65 64/64/64
f 69/69/69 68/68/68 67/67/67
f 70/70/70 69/69/69 67/67/67
