g Ground
v -4.957556 2.120419 -9.478252
v -3.692445 1.120708 -7.711349
v -6.934973 0.9223859 -5.037956
v -9.432232 1.284381 -6.321096
v -4.77939 0.1014068 -3.030249
v -2.578076 0.1014068 -5.39567
v -4.43364 0.1014067 -0.5355644
v -6.509815 0.5494059 -0.4024451
v -9.706417 1.117001 -0.4592297
v -9.108061 2.045753 5.727697
v -6.781729 1.120138 4.372124
v -4.811082 1.151856 6.862934
v -6.316912 2.351369 8.580692
v -3.363317 0.1014068 5.476299
v -4.793488 0.1014068 3.124145
v -6.509815 0.5494059 -0.4024451
v -9.706417 1.117001 -0.4592297
v -4.43364 0.1014067 -0.5355644
v 8.824066 1.315634 -6.626921
v 7.096746 1.120708 -5.260592
v 4.083107 0.8057854 -7.091505
v 5.630903 1.087802 -9.59441
v 2.619998 0.1014067 -5.243502
v 4.720581 0.1014067 -3.218348
v 6.95236 1.120708 -0.3418499
v 9.668047 2.027476 -0.2589668
v 4.865804 0.1014067 0.2358577
v -0.4376533 0.6730137 -7.451887
v -3.692445 1.120708 -7.711349
v -4.957556 2.120419 -9.478252
v 0.4490919 2.227976 -9.891273
v -2.578076 0.1014068 -5.39567
v 4.083107 0.8057854 -7.091505
v 2.619998 0.1014067 -5.243502
v 5.630903 1.087802 -9.59441
v 5.673906 1.368872 8.643295
v 4.459565 0.6504276 6.778313
v 6.402256 0.8384461 4.614298
v 9.025753 1.36074 6.468307
v 4.814919 0.1014067 3.412471
v 3.362988 0.1014067 5.296377
v 9.668047 2.027476 -0.2589668
v 6.95236 1.120708 -0.3418499
v 4.865804 0.1014067 0.2358577
v -4.811082 1.151856 6.862934
v -0.2636421 1.170571 7.343739
v -0.4907241 2.047895 9.62907
v -6.316912 2.351369 8.580692
v 3.362988 0.1014067 5.296377
v -3.363317 0.1014068 5.476299
v 5.673906 1.368872 8.643295
v 4.459565 0.6504276 6.778313
v 2.072942 -0.01088211 4.411221
v 2.072942 0.1014068 4.411221
v 1.437235 0.1014068 4.373198
v 1.423186 -0.01088211 4.373198
v 1.05431 -0.01088211 4.411221
v 1.05431 0.1014068 4.411221
v -1.144016 -0.01088211 4.411221
v -1.128266 0.1014068 4.411221
v -1.481776 -0.01088211 4.370776
v -1.475457 0.1014068 4.370776
v -2.059393 -0.01088211 4.411221
v -2.059393 0.1014068 4.411221
v 3.117934 -0.01088211 3.426755
v 3.117934 0.1014068 3.426755
v 2.783966 0.1014068 3.671898
v 2.792012 -0.01088211 3.664317
v 2.53894 -0.01088211 3.972214
v 2.535388 0.1014068 3.97556
v 2.072942 -0.01088211 4.411221
v 2.072942 0.1014068 4.411221
v 3.066343 0.1014068 2.702281
v 3.117934 0.1014068 3.426755
v 3.117934 -0.01088211 3.426755
v 3.066343 -0.01088211 2.702313
v 3.117934 0.1014068 1.941025
v 3.117934 -0.01088211 1.950789
v 3.117934 0.1014068 0.6907574
v 3.117934 -0.01088211 0.6907245
v 3.085368 0.1014068 -0.3213394
v 3.085368 -0.01088211 -0.3325175
v 3.117934 0.1014068 -0.6383415
v 3.117934 -0.01088211 -0.6454992
v 3.117934 0.1014068 -1.315635
v 3.117934 -0.01088211 -1.308843
v 3.103925 0.1014068 -2.079469
v 3.097481 -0.01088211 -2.073455
v 3.065832 0.1014068 -2.217723
v 3.041281 -0.01088211 -2.216118
v 3.117934 -0.01088211 -3.069433
v 3.117934 0.1014068 -3.069433
v 2.856069 0.1014068 -3.316131
v 3.117934 0.1014068 -3.069433
v 3.117934 -0.01088211 -3.069433
v 2.855891 -0.01088211 -3.3163
v 2.723495 0.1014068 -3.380358
v 2.724162 -0.01088211 -3.379729
v 2.072942 -0.01088211 -4.0539
v 2.072942 0.1014068 -4.0539
v -3.104385 0.1014068 -2.183494
v -3.104385 0.1014068 -3.069433
v -3.104385 -0.01088211 -3.069433
v -3.104385 -0.01088211 -2.206641
v -3.067255 0.1014068 -1.891296
v -3.064526 -0.01088211 -1.91068
v -3.104385 0.1014068 -1.431821
v -3.104385 -0.01088211 -1.442053
v -3.104385 -0.01088211 -0.02345279
v -3.104385 0.1014068 -0.009862347
v -3.064468 0.1014068 0.3244412
v -3.064468 -0.01088211 0.3062375
v -3.110339 0.1014068 2.290126
v -3.110339 -0.01088211 2.288969
v -3.034356 0.1014068 2.958434
v -3.034356 -0.01088211 2.960398
v -3.104385 -0.01088211 3.426755
v -3.104385 0.1014068 3.426755
v -2.780972 0.1014068 3.731436
v -2.90206 0.1014068 3.559875
v -2.899457 -0.01088211 3.54646
v -2.789922 -0.01088211 3.723004
v -2.059393 -0.01088211 4.411221
v -2.059393 0.1014068 4.411221
v -3.104385 -0.01088211 3.426755
v -3.104385 0.1014068 3.426755
v 1.576137 0.1014068 -4.004421
v 2.072942 0.1014068 -4.0539
v 2.072942 -0.01088211 -4.0539
v 1.583029 -0.01088211 -4.004421
v 1.029053 0.1014068 -4.0539
v 1.030939 -0.01088211 -4.0539
v -0.07406295 0.1014068 -4.0539
v -0.06277014 -0.01088211 -4.0539
v -1.421098 0.1014068 -4.035381
v -1.426992 -0.01088211 -4.035381
v -1.670511 0.1014068 -3.995443
v -1.671517 -0.01088211 -3.995443
v -2.059393 -0.01088211 -4.0539
v -2.059393 0.1014068 -4.0539
v -3.104385 -0.01088211 -3.069433
v -3.104385 0.1014068 -3.069433
v -2.93638 0.1014068 -3.181589
v -2.932366 -0.01088211 -3.177512
v -2.852507 -0.01088211 -3.300508
v -2.832999 0.1014068 -3.318887
v -2.709635 -0.01088211 -3.441321
v -2.710864 0.1014068 -3.440162
v -2.415291 -0.01088211 -3.736584
v -2.407691 0.1014068 -3.743744
v -2.280249 -0.01088211 -3.774771
v -2.276353 0.1014068 -3.788925
v -2.059393 -0.01088211 -4.0539
v -2.059393 0.1014068 -4.0539
v 2.072942 0.1014068 4.411221
v 2.245584 0.1014068 4.757694
v 1.437235 0.1014068 4.373198
v 2.535388 0.1014068 3.97556
v 3.526196 0.1014068 3.56706
v 3.362988 0.1014067 5.296377
v -3.363317 0.1014068 5.476299
v -2.232034 0.1014068 4.757694
v 4.814919 0.1014067 3.412471
v -4.793488 0.1014068 3.124145
v -3.512645 0.1014068 3.56706
v -4.43364 0.1014067 -0.5355644
v -3.512645 0.1014068 -3.209738
v -4.77939 0.1014068 -3.030249
v -2.232034 0.1014068 -4.400372
v -2.578076 0.1014068 -5.39567
v 2.245584 0.1014068 -4.400372
v 2.619998 0.1014067 -5.243502
v 3.526196 0.1014068 -3.23236
v 2.723495 0.1014068 -3.380358
v 2.856069 0.1014068 -3.316131
v 3.117934 0.1014068 -3.069433
v 4.720581 0.1014067 -3.218348
v 4.865804 0.1014067 0.2358577
v -2.710864 0.1014068 -3.440162
v -2.832999 0.1014068 -3.318887
v -2.93638 0.1014068 -3.181589
v -2.407691 0.1014068 -3.743744
v -2.276353 0.1014068 -3.788925
v 2.072942 0.1014068 -4.0539
v 1.576137 0.1014068 -4.004421
v 3.065832 0.1014068 -2.217723
v 3.103925 0.1014068 -2.079469
v 3.117934 0.1014068 3.426755
v 2.783966 0.1014068 3.671898
v 3.066343 0.1014068 2.702281
v 3.117934 0.1014068 1.941025
v 3.117934 0.1014068 -1.315635
v 3.117934 0.1014068 -0.6383415
v 3.117934 0.1014068 0.6907574
v 3.085368 0.1014068 -0.3213394
v 1.029053 0.1014068 -4.0539
v -0.07406295 0.1014068 -4.0539
v -1.421098 0.1014068 -4.035381
v -1.670511 0.1014068 -3.995443
v -2.059393 0.1014068 -4.0539
v -3.104385 0.1014068 -3.069433
v -3.104385 0.1014068 -2.183494
v -3.067255 0.1014068 -1.891296
v -3.104385 0.1014068 -1.431821
v -3.104385 0.1014068 -0.009862347
v -3.064468 0.1014068 0.3244412
v -3.110339 0.1014068 2.290126
v -3.034356 0.1014068 2.958434
v -3.104385 0.1014068 3.426755
v -2.90206 0.1014068 3.559875
v -2.780972 0.1014068 3.731436
v -2.059393 0.1014068 4.411221
v -1.475457 0.1014068 4.370776
v -1.128266 0.1014068 4.411221
v 1.05431 0.1014068 4.411221
vt 0.2690651 0.5975739
vt 0.2326006 0.6591963
vt 0.1447225 0.6219435
vt 0.1525361 0.5348639
vt 0.1168067 0.7390262
vt 0.1956352 0.7390262
vt 0.07183403 0.7390262
vt 0.04097387 0.6628379
vt 0.002964973 0.5703041
vt 0.1779198 0.528605
vt 0.1643808 0.6222314
vt 0.2326006 0.6591963
vt 0.2690651 0.5975739
vt 0.1956352 0.7390262
vt 0.1512989 0.7390262
vt 0.04097375 0.6628377
vt 0.002965033 0.5703042
vt 0.07183382 0.7390262
vt 0.1023145 0.5378007
vt 0.1157457 0.6110514
vt 0.04097375 0.6628377
vt 0.002964973 0.5703042
vt 0.07183391 0.7390262
vt 0.136895 0.7390262
vt 0.2326006 0.6591963
vt 0.2690651 0.5975739
vt 0.1956352 0.7390262
vt 0.1551761 0.6586346
vt 0.2326006 0.6591963
vt 0.2690651 0.5975739
vt 0.1394866 0.5548324
vt 0.1956352 0.7390262
vt 0.04097375 0.6628377
vt 0.07183391 0.7390262
vt 0.002964973 0.5703042
vt 0.002965033 0.5703042
vt 0.04097375 0.6628377
vt 0.1164216 0.6302938
vt 0.08791623 0.5315687
vt 0.1347089 0.7390262
vt 0.07183391 0.7390262
vt 0.2690651 0.5975739
vt 0.2326006 0.6591963
vt 0.1956352 0.7390262
vt 0.2326006 0.6591963
vt 0.1480157 0.6290231
vt 0.1501321 0.5401052
vt 0.2690651 0.5975739
vt 0.07183391 0.7390262
vt 0.1956352 0.7390262
vt 0.002965033 0.5703042
vt 0.04097375 0.6628377
vt 0.8733163 0.9743443
vt 0.8733163 0.9983895
vt 0.8736651 0.9983895
vt 0.8736728 0.9743443
vt 0.8738637 0.9743443
vt 0.8738751 0.9983896
vt 0.8752092 0.9743443
vt 0.8752037 0.9983897
vt 0.8753957 0.9743443
vt 0.8753942 0.9983897
vt 0.8757145 0.9743443
vt 0.8757145 0.9983897
vt 0.8724197 0.9743443
vt 0.8724195 0.9983896
vt 0.8726472 0.9983895
vt 0.8726404 0.9743443
vt 0.8729165 0.9743443
vt 0.8729195 0.9983895
vt 0.8733163 0.9743443
vt 0.8733163 0.9983895
vt 0.8718965 0.9983896
vt 0.8724195 0.9983896
vt 0.8724197 0.9743443
vt 0.8719033 0.9743443
vt 0.8713537 0.9983896
vt 0.8713608 0.9743443
vt 0.8704569 0.9983897
vt 0.8704569 0.9743443
vt 0.8697014 0.9983897
vt 0.8696935 0.9743443
vt 0.8694863 0.9983897
vt 0.8694813 0.9743443
vt 0.8689881 0.9983897
vt 0.8689931 0.9743443
vt 0.8684407 0.9983897
vt 0.868425 0.9743444
vt 0.868345 0.9983897
vt 0.8683346 0.9743444
vt 0.8677301 0.9743444
vt 0.86773 0.9983897
vt 0.8674812 0.9983891
vt 0.86773 0.9983897
vt 0.8677301 0.9743444
vt 0.8674812 0.9743444
vt 0.867376 0.9983889
vt 0.8673766 0.9743443
vt 0.8667376 0.9743443
vt 0.8667377 0.9983875
vt 0.8800771 0.9983896
vt 0.8806304 0.9983896
vt 0.8806304 0.9743466
vt 0.8800917 0.9743463
vt 0.8798947 0.9983896
vt 0.8799068 0.9743462
vt 0.8796077 0.9983896
vt 0.8796142 0.974346
vt 0.8787142 0.9743454
vt 0.8787057 0.9983897
vt 0.8784856 0.9983897
vt 0.8784969 0.9743453
vt 0.877258 0.9983896
vt 0.8772587 0.9743446
vt 0.8768407 0.9983896
vt 0.8768394 0.9743443
vt 0.8765482 0.9743441
vt 0.8765482 0.9983896
vt 0.8762902 0.9983897
vt 0.8763946 0.9983896
vt 0.8764083 0.9743441
vt 0.8762974 0.9743441
vt 0.8757145 0.9743443
vt 0.8757145 0.9983897
vt 0.8765482 0.9743441
vt 0.8765482 0.9983896
vt 0.8836529 0.9983894
vt 0.8839313 0.9983897
vt 0.8839313 0.9743443
vt 0.8836567 0.9743445
vt 0.8833463 0.9983891
vt 0.8833473 0.9743448
vt 0.8826129 0.9983884
vt 0.8826193 0.9743456
vt 0.8818393 0.9983877
vt 0.8818361 0.9743463
vt 0.8816996 0.9983876
vt 0.881699 0.9743465
vt 0.8814816 0.9743466
vt 0.8814816 0.9983873
vt 0.8806304 0.9743466
vt 0.8806304 0.9983896
vt 0.8807903 0.9983891
vt 0.8807853 0.9743466
vt 0.880842 0.9743466
vt 0.8808578 0.998389
vt 0.8809519 0.9743466
vt 0.8809509 0.9983887
vt 0.8811917 0.9743467
vt 0.8811979 0.9983881
vt 0.881302 0.9743466
vt 0.8812931 0.9983878
vt 0.8814816 0.9743466
vt 0.8814816 0.9983873
vt 0.3435603 0.5819885
vt 0.3205192 0.5720521
vt 0.3433068 0.6182516
vt 0.3716393 0.5555384
vt 0.3979857 0.4983519
vt 0.2850457 0.5158398
vt 0.2709396 0.8997105
vt 0.3189063 0.8413012
vt 0.4077927 0.4318734
vt 0.42361 0.9887134
vt 0.3957786 0.9193991
vt 0.6684105 0.9713743
vt 0.8501332 0.9247426
vt 0.8357598 0.9929674
vt 0.9289419 0.8479254
vt 0.993097 0.8616325
vt 0.9269459 0.5714865
vt 0.9806595 0.5573398
vt 0.8471436 0.4959453
vt 0.8610686 0.5418086
vt 0.8540263 0.5352232
vt 0.8374042 0.5196797
vt 0.8455744 0.4339754
vt 0.6170384 0.427614
vt 0.8652732 0.877058
vt 0.8582045 0.8839259
vt 0.853076 0.8889086
vt 0.8840269 0.8588372
vt 0.8912548 0.8518147
vt 0.903736 0.5817074
vt 0.9039447 0.6108261
vt 0.7809517 0.5200127
vt 0.7721626 0.5200646
vt 0.4070104 0.5222191
vt 0.3909019 0.5373932
vt 0.4550163 0.5219358
vt 0.5048286 0.5216419
vt 0.7219369 0.5203609
vt 0.6762105 0.5206307
vt 0.587142 0.5211563
vt 0.656474 0.5207472
vt 0.9041744 0.6428916
vt 0.9047241 0.7195915
vt 0.9053038 0.8004929
vt 0.9054085 0.8151115
vt 0.9055718 0.8379046
vt 0.8409309 0.9007087
vt 0.7819262 0.9000453
vt 0.7624655 0.8998265
vt 0.7318639 0.8994825
vt 0.635653 0.8984008
vt 0.6121686 0.8981368
vt 0.4812514 0.8966649
vt 0.4367413 0.8961645
vt 0.4055505 0.8958138
vt 0.3938151 0.8839406
vt 0.3858256 0.8758572
vt 0.3418167 0.8313314
vt 0.3420496 0.7980215
vt 0.3421881 0.7782165
vt 0.343154 0.6400951
vn 0.0780746 0.9186923 0.3871805
vn 0.1009849 0.9191461 0.3807527
vn 0.1550045 0.9738469 0.1661204
vn 0.1289576 0.9786134 0.1602678
vn 0.2181631 0.9686334 0.1189721
vn 0.104891 0.9681441 0.2273654
vn 0.2189277 0.9757075 -0.008099681
vn 0.2348767 0.9713631 -0.03587095
vn 0.1899952 0.9807287 -0.04553175
vn 0.2463843 0.9468009 -0.2070331
vn 0.2695801 0.9456525 -0.1818457
vn 0.166391 0.9077821 -0.3850271
vn 0.1827286 0.9136251 -0.3631797
vn 0.1100335 0.91247 -0.3940699
vn 0.2891499 0.9519587 -0.1008312
vn 0.2348767 0.9713631 -0.03587095
vn 0.1899952 0.9807287 -0.04553175
vn 0.2189277 0.9757075 -0.008099681
vn -0.1811607 0.9834247 -0.007524493
vn -0.2301117 0.9728935 0.02294942
vn -0.05074219 0.9665308 0.2514825
vn -0.01660785 0.9765481 0.2146574
vn -0.08698665 0.9727845 0.2147639
vn -0.258565 0.9638382 0.06449877
vn -0.3247771 0.9457724 0.005867871
vn -0.2659444 0.96394 0.009657788
vn -0.2646753 0.9643376 -0.0001680615
vn 0.02717379 0.922415 0.3852431
vn 0.1009849 0.9191461 0.3807527
vn 0.0780746 0.9186923 0.3871805
vn 0.06056245 0.9015069 0.4285061
vn 0.104891 0.9681441 0.2273654
vn -0.05074219 0.9665308 0.2514825
vn -0.08698665 0.9727845 0.2147639
vn -0.01660785 0.9765481 0.2146574
vn -0.05480801 0.9617727 -0.2683083
vn -0.06120076 0.9574887 -0.2819042
vn -0.2715433 0.9618697 -0.03272305
vn -0.2336988 0.9718701 -0.02921409
vn -0.3235076 0.9449376 -0.04935346
vn -0.07932916 0.9575761 -0.2770467
vn -0.2659444 0.96394 0.009657788
vn -0.3247771 0.9457724 0.005867871
vn -0.2646753 0.9643376 -0.0001680615
vn 0.166391 0.9077821 -0.3850271
vn 0.04519812 0.8952734 -0.4432186
vn 0.0701151 0.9134243 -0.4009241
vn 0.1827286 0.9136251 -0.3631797
vn -0.07932916 0.9575761 -0.2770467
vn 0.1100335 0.91247 -0.3940699
vn -0.05480801 0.9617727 -0.2683083
vn -0.06120076 0.9574887 -0.2819042
vn 0.05905487 -0.003694253 -0.9982479
vn 0.05905487 -0.003694253 -0.9982479
vn 0.005775278 -0.0003613094 -0.9999833
vn -0.006019915 0.0003765478 -0.9999819
vn -0.01481437 0.0009267192 -0.9998899
vn -0.01481437 0.0009267192 -0.9998899
vn 0.01857485 -0.001825299 -0.9998259
vn 0.01367327 -0.001343634 -0.9999056
vn -0.003091962 -0.002848616 -0.9999912
vn 0.003150536 -0.003299657 -0.9999896
vn -0.06947101 0.001954938 -0.9975821
vn -0.06947101 0.001954938 -0.9975821
vn -0.5903865 0.006089765 -0.8070977
vn -0.5903865 0.006089765 -0.8070977
vn -0.6914154 -0.001851072 -0.7224551
vn -0.6799797 -0.0009040706 -0.7332302
vn -0.7217433 -0.003599636 -0.6921514
vn -0.7194281 -0.003362987 -0.6945587
vn -0.6857131 0 -0.727872
vn -0.6857131 0 -0.727872
vn -0.9999989 -0.00151294 -1.249738E-05
vn -0.9974739 1.169369E-05 0.07103358
vn -0.9974739 1.169369E-05 0.07103358
vn -0.9999989 -0.001512405 1.249747E-05
vn -0.9997138 -0.001041608 -0.02389903
vn -0.9996231 -0.001195371 -0.02742703
vn -0.9998971 -0.0007144347 0.01432417
vn -0.9998971 -0.0007147292 0.01433008
vn -0.9999955 0.0005551035 0.002978913
vn -0.9999944 0.001011938 -0.003184331
vn -0.9993876 0.002846794 -0.03487549
vn -0.9995085 0.00255048 -0.0312454
vn -0.9997858 0.01654074 0.01243994
vn -0.9998146 0.01539347 0.0115771
vn -0.9960976 0.04923424 0.07324985
vn -0.9964913 0.04756966 0.06886318
vn -0.9933611 0.113814 -0.01673335
vn -0.9933515 0.1136598 -0.01828342
vn -0.9913459 0.1078376 -0.07486194
vn -0.9913459 0.1078376 -0.07486194
vn -0.6191322 0.0002631524 0.7852867
vn -0.6857132 0 0.7278718
vn -0.6857132 0 0.7278718
vn -0.6188623 0.0002641778 0.7854994
vn -0.6860158 -4.439293E-05 0.7275867
vn -0.6854089 -4.178136E-05 0.7281583
vn -0.7192597 -0.0001907016 0.6947412
vn -0.7192597 -0.0001907016 0.6947411
vn 0.9991486 0.01120537 -0.03970565
vn 1 0 0
vn 1 0 0
vn 0.9996074 0.00761053 -0.02696753
vn 0.9998548 0.01328527 0.01067051
vn 0.9997934 0.01694374 -0.01123125
vn 0.9998252 0.0002733443 0.01869784
vn 0.9997522 0.000325217 0.02225557
vn 0.9997943 0.002843255 -0.02008334
vn 0.9996622 0.003643098 -0.02573447
vn 0.9999824 0.0002902155 0.005940937
vn 0.9999985 0.001251049 -0.001306247
vn 0.99993 -0.001594757 -0.0117267
vn 0.9999377 -0.001602652 -0.01105077
vn 0.9999779 0.0002886236 -0.006638981
vn 0.9999926 0.0003070036 -0.003825748
vn 0.9889578 0.001296269 0.1481918
vn 0.9889578 0.001296269 0.1481918
vn 0.7109749 0.004668364 -0.7032018
vn 0.6914608 0.04487673 -0.7210188
vn 0.6784031 0.04598136 -0.7332495
vn 0.7172919 0.005861828 -0.6967481
vn 0.6857132 0 -0.7278718
vn 0.6857132 0 -0.7278718
vn 0.5265829 0.05676818 -0.8482262
vn 0.5265829 0.05676818 -0.8482262
vn -0.003678456 -0.0005237873 0.9999931
vn 0.09978808 0.003064566 0.995004
vn 0.09978809 0.003064566 0.995004
vn 0.003693915 -0.0002682452 0.9999932
vn -0.02958497 -0.001152857 0.9995616
vn -0.03043786 -0.001186215 0.9995359
vn 0.007974056 0.0001947183 0.9999682
vn 0.007112035 0.0001741277 0.9999747
vn 0.0352032 -0.0004409505 0.9993801
vn 0.03775993 -0.0005325298 0.9992867
vn -0.0282988 -0.00153248 0.9995983
vn -0.02996815 -0.001502204 0.9995497
vn -0.1488389 0.0006684621 0.9888613
vn -0.1488389 0.0006684622 0.9888613
vn 0.5434611 0.02494255 0.8390636
vn 0.5434611 0.02494255 0.8390636
vn 0.6762232 0.01474415 0.7365492
vn 0.6763132 0.01473654 0.7364666
vn 0.7674217 -0.00065732 0.6411423
vn 0.750421 -0.001224797 0.6609591
vn 0.7064717 -0.001662555 0.7077392
vn 0.7064335 -0.001674817 0.7077774
vn 0.6272957 0.01656455 0.7786049
vn 0.6113148 0.01988059 0.7911379
vn 0.6532655 0.04286549 0.7559144
vn 0.6753193 0.04019558 0.7364293
vn 0.7788332 0.02599165 0.6266924
vn 0.7788332 0.02599165 0.6266924
vn 0 1 0
vn 0 1 0
vn 0 1 0
vn 0 1 0
vn 0 1 0
vn -0.07932916 0.9575761 -0.2770467
vn 0.1100335 0.91247 -0.3940699
vn 0 1 0
vn -0.3235076 0.9449376 -0.04935346
vn 0.2891499 0.9519587 -0.1008312
vn 0 1 0
vn 0.2189277 0.9757075 -0.008099681
vn 0 1 0
vn 0.2181631 0.9686334 0.1189721
vn 0 1 0
vn 0.104891 0.9681441 0.2273654
vn 0 1 0
vn -0.08698665 0.9727845 0.2147639
vn 0 1 0
vn 0 1 0
vn 0 1 0
vn 0 1 0
vn -0.258565 0.9638382 0.06449877
vn -0.2646753 0.9643376 -0.0001680615
vn 0 1 0
vn 0 1 0
vn 0 1 0
vn 0 1 0
vn 0 1 0
vn 0 1 0
vn 0 1 0
vn 0 1 0
vn 0 1 0
vn 0 1 0
vn 0 1 0
vn 0 1 0
vn 0 1 0
vn 0 1 0
vn 0 1 0
vn 0 1 0
vn 0 1 0
vn 0 1 0
vn 0 1 0
vn 0 1 0
vn 0 1 0
vn 0 1 0
vn 0 1 0
vn 0 1 0
vn 0 1 0
vn 0 1 0
vn 0 1 0
vn 0 1 0
vn 0 1 0
vn 0 1 0
vn 0 1 0
vn 0 1 0
vn 0 1 0
vn 0 1 0
vn 0 1 0
vn 0 1 0
vn 0 1 0
g Ground_0
f 3/3/3 2/2/2 1/1/1
f 4/4/4 3/3/3 1/1/1
f 3/3/3 5/5/5 2/2/2
f 5/5/5 6/6/6 2/2/2
f 7/7/7 5/5/5 3/3/3
f 8/8/8 7/7/7 3/3/3
f 9/9/9 8/8/8 3/3/3
f 4/4/4 9/9/9 3/3/3
f 12/12/12 11/11/11 10/10/10
f 13/13/13 12/12/12 10/10/10
f 12/12/12 14/14/14 11/11/11
f 14/14/14 15/15/15 11/11/11
f 10/10/10 11/11/11 16/16/16
f 11/11/11 15/15/15 16/16/16
f 17/17/17 10/10/10 16/16/16
f 15/15/15 18/18/18 16/16/16
f 21/21/21 20/20/20 19/19/19
f 22/22/22 21/21/21 19/19/19
f 21/21/21 23/23/23 20/20/20
f 23/23/23 24/24/24 20/20/20
f 19/19/19 20/20/20 25/25/25
f 26/26/26 19/19/19 25/25/25
f 20/20/20 24/24/24 27/27/27
f 25/25/25 20/20/20 27/27/27
f 30/30/30 29/29/29 28/28/28
f 31/31/31 30/30/30 28/28/28
f 28/28/28 29/29/29 32/32/32
f 28/28/28 32/32/32 33/33/33
f 31/31/31 28/28/28 33/33/33
f 32/32/32 34/34/34 33/33/33
f 35/35/35 31/31/31 33/33/33
f 38/38/38 37/37/37 36/36/36
f 39/39/39 38/38/38 36/36/36
f 38/38/38 40/40/40 37/37/37
f 40/40/40 41/41/41 37/37/37
f 39/39/39 42/42/42 38/38/38
f 42/42/42 43/43/43 38/38/38
f 44/44/44 40/40/40 38/38/38
f 43/43/43 44/44/44 38/38/38
f 47/47/47 46/46/46 45/45/45
f 48/48/48 47/47/47 45/45/45
f 46/46/46 49/49/49 45/45/45
f 49/49/49 50/50/50 45/45/45
f 47/47/47 51/51/51 46/46/46
f 51/51/51 52/52/52 46/46/46
f 46/46/46 52/52/52 49/49/49
f 55/55/55 54/54/54 53/53/53
f 56/56/56 55/55/55 53/53/53
f 56/56/56 57/57/57 55/55/55
f 57/57/57 58/58/58 55/55/55
f 57/57/57 59/59/59 58/58/58
f 59/59/59 60/60/60 58/58/58
f 59/59/59 61/61/61 60/60/60
f 61/61/61 62/62/62 60/60/60
f 61/61/61 63/63/63 62/62/62
f 63/63/63 64/64/64 62/62/62
f 67/67/67 66/66/66 65/65/65
f 68/68/68 67/67/67 65/65/65
f 68/68/68 69/69/69 67/67/67
f 69/69/69 70/70/70 67/67/67
f 69/69/69 71/71/71 70/70/70
f 71/71/71 72/72/72 70/70/70
f 75/75/75 74/74/74 73/73/73
f 76/76/76 75/75/75 73/73/73
f 76/76/76 73/73/73 77/77/77
f 78/78/78 76/76/76 77/77/77
f 78/78/78 77/77/77 79/79/79
f 80/80/80 78/78/78 79/79/79
f 80/80/80 79/79/79 81/81/81
f 82/82/82 80/80/80 81/81/81
f 82/82/82 81/81/81 83/83/83
f 84/84/84 82/82/82 83/83/83
f 84/84/84 83/83/83 85/85/85
f 86/86/86 84/84/84 85/85/85
f 86/86/86 85/85/85 87/87/87
f 88/88/88 86/86/86 87/87/87
f 88/88/88 87/87/87 89/89/89
f 90/90/90 88/88/88 89/89/89
f 90/90/90 89/89/89 91/91/91
f 89/89/89 92/92/92 91/91/91
f 95/95/95 94/94/94 93/93/93
f 96/96/96 95/95/95 93/93/93
f 96/96/96 93/93/93 97/97/97
f 98/98/98 96/96/96 97/97/97
f 98/98/98 97/97/97 99/99/99
f 97/97/97 100/100/100 99/99/99
f 103/103/103 102/102/102 101/101/101
f 104/104/104 103/103/103 101/101/101
f 104/104/104 101/101/101 105/105/105
f 106/106/106 104/104/104 105/105/105
f 106/106/106 105/105/105 107/107/107
f 108/108/108 106/106/106 107/107/107
f 108/108/108 107/107/107 109/109/109
f 107/107/107 110/110/110 109/109/109
f 109/109/109 110/110/110 111/111/111
f 112/112/112 109/109/109 111/111/111
f 112/112/112 111/111/111 113/113/113
f 114/114/114 112/112/112 113/113/113
f 114/114/114 113/113/113 115/115/115
f 116/116/116 114/114/114 115/115/115
f 116/116/116 115/115/115 117/117/117
f 115/115/115 118/118/118 117/117/117
f 121/121/121 120/120/120 119/119/119
f 122/122/122 121/121/121 119/119/119
f 122/122/122 119/119/119 123/123/123
f 119/119/119 124/124/124 123/123/123
f 121/121/121 125/125/125 120/120/120
f 125/125/125 126/126/126 120/120/120
f 129/129/129 128/128/128 127/127/127
f 130/130/130 129/129/129 127/127/127
f 130/130/130 127/127/127 131/131/131
f 132/132/132 130/130/130 131/131/131
f 132/132/132 131/131/131 133/133/133
f 134/134/134 132/132/132 133/133/133
f 134/134/134 133/133/133 135/135/135
f 136/136/136 134/134/134 135/135/135
f 136/136/136 135/135/135 137/137/137
f 138/138/138 136/136/136 137/137/137
f 138/138/138 137/137/137 139/139/139
f 137/137/137 140/140/140 139/139/139
f 143/143/143 142/142/142 141/141/141
f 144/144/144 143/143/143 141/141/141
f 144/144/144 145/145/145 143/143/143
f 145/145/145 146/146/146 143/143/143
f 145/145/145 147/147/147 146/146/146
f 147/147/147 148/148/148 146/146/146
f 147/147/147 149/149/149 148/148/148
f 149/149/149 150/150/150 148/148/148
f 149/149/149 151/151/151 150/150/150
f 151/151/151 152/152/152 150/150/150
f 151/151/151 153/153/153 152/152/152
f 153/153/153 154/154/154 152/152/152
f 157/157/157 156/156/156 155/155/155
f 158/158/158 155/155/155 156/156/156
f 158/158/158 156/156/156 159/159/159
f 159/159/159 156/156/156 160/160/160
f 161/161/161 160/160/160 156/156/156
f 162/162/162 161/161/161 156/156/156
f 163/163/163 159/159/159 160/160/160
f 162/162/162 164/164/164 161/161/161
f 165/165/165 164/164/164 162/162/162
f 166/166/166 164/164/164 165/165/165
f 167/167/167 166/166/166 165/165/165
f 167/167/167 168/168/168 166/166/166
f 167/167/167 169/169/169 168/168/168
f 169/169/169 170/170/170 168/168/168
f 169/169/169 171/171/171 170/170/170
f 171/171/171 172/172/172 170/170/170
f 171/171/171 173/173/173 172/172/172
f 173/173/173 171/171/171 174/174/174
f 174/174/174 175/175/175 173/173/173
f 175/175/175 176/176/176 173/173/173
f 173/173/173 177/177/177 172/172/172
f 173/173/173 159/159/159 177/177/177
f 159/159/159 163/163/163 178/178/178
f 159/159/159 178/178/178 177/177/177
f 179/179/179 169/169/169 167/167/167
f 180/180/180 179/179/179 167/167/167
f 181/181/181 180/180/180 167/167/167
f 179/179/179 182/182/182 169/169/169
f 182/182/182 183/183/183 169/169/169
f 174/174/174 171/171/171 184/184/184
f 185/185/185 184/184/184 171/171/171
f 186/186/186 173/173/173 176/176/176
f 186/186/186 187/187/187 173/173/173
f 189/189/189 159/159/159 188/188/188
f 190/190/190 188/188/188 159/159/159
f 191/191/191 190/190/190 159/159/159
f 191/191/191 159/159/159 173/173/173
f 187/187/187 192/192/192 173/173/173
f 192/192/192 193/193/193 173/173/173
f 194/194/194 191/191/191 173/173/173
f 189/189/189 158/158/158 159/159/159
f 193/193/193 195/195/195 173/173/173
f 195/195/195 194/194/194 173/173/173
f 196/196/196 185/185/185 171/171/171
f 196/196/196 171/171/171 169/169/169
f 197/197/197 196/196/196 169/169/169
f 198/198/198 197/197/197 169/169/169
f 199/199/199 198/198/198 169/169/169
f 199/199/199 169/169/169 200/200/200
f 183/183/183 200/200/200 169/169/169
f 202/202/202 201/201/201 167/167/167
f 181/181/181 167/167/167 201/201/201
f 203/203/203 202/202/202 167/167/167
f 204/204/204 203/203/203 167/167/167
f 167/167/167 165/165/165 204/204/204
f 165/165/165 205/205/205 204/204/204
f 206/206/206 205/205/205 165/165/165
f 207/207/207 206/206/206 165/165/165
f 208/208/208 207/207/207 165/165/165
f 208/208/208 165/165/165 209/209/209
f 210/210/210 209/209/209 165/165/165
f 211/211/211 210/210/210 165/165/165
f 211/211/211 165/165/165 212/212/212
f 165/165/165 162/162/162 212/212/212
f 213/213/213 212/212/212 162/162/162
f 214/214/214 213/213/213 162/162/162
f 214/214/214 162/162/162 156/156/156
f 215/215/215 214/214/214 156/156/156
f 157/157/157 215/215/215 156/156/156
