g Head
v -0.0008362496 -0.001849276 0.001320596
v -0.002314397 -0.001595071 0.0007690762
v -0.002047139 -0.001271048 0.001034846
v -0.00347087 -0.001155885 0.0008973168
v -0.002895061 -0.0007595134 0.0006863736
v -0.003515254 -0.0001426798 0.0004380272
v -0.003077918 -0.0002268398 0.0002392147
v -0.003517734 -0.0001254651 -6.814153E-06
v -0.003070317 -0.0001996478 -6.165655E-06
v -0.003465081 -0.001258907 -6.73786E-06
v -0.001697828 -0.00060429 0.001357016
v -0.002347299 -0.0002196708 0.000791478
v -0.001614867 0.000284816 0.001429105
v -0.001007749 0.0004204357 0.001593842
v -0.0006812966 -0.000975084 0.001883702
v -0.001364824 0.001283211 0.00139687
v -0.002015945 0.001077334 0.0008179424
v -0.001361953 0.001565749 0.0006154584
v -0.0002600205 0.001549325 0.001759772
v -0.000303632 0.002064691 0.0009859513
v -0.0003153431 0.0005278918 0.002006955
v -0.002103349 0.001135217 -4.773291E-06
v -0.001385366 0.001665198 -3.161581E-06
v -0.0003528225 0.002263941 -1.673849E-06
v -0.002593223 -4.668891E-05 0.0003342484
v -0.002594615 -4.599124E-05 -5.479009E-06
v 0.0008302534 0.0005533954 0.001965977
v 0.000702275 0.001630835 0.00155227
v 0.0004333198 -0.001031989 0.001963585
v 0.0005820215 0.002079624 -3.369102E-07
v -0.00136017 0.001565749 -0.0006217147
v -0.002013579 0.001077334 -0.0008272316
v -0.00136079 0.001283211 -0.001403127
v -0.0002600205 0.001549325 -0.001762662
v -0.0003007996 0.002064691 -0.0009891464
v -0.001610738 0.000284816 -0.00143724
v -0.001003152 0.0004204357 -0.001599078
v -0.001693898 -0.00060429 -0.00136539
v -0.0006758606 -0.000975084 -0.001887984
v -0.00234501 -0.0002196708 -0.0008017208
v -0.0003095543 0.0005278918 -0.002010188
v -0.00259224 -4.668891E-05 -0.0003452064
v -0.002892924 -0.0007595134 -0.0006981899
v -0.002044145 -0.001271048 -0.001044231
v -0.003468858 -0.001155885 -0.000910802
v -0.002312165 -0.001595071 -0.0007792236
v -0.0008324349 -0.001849276 -0.001325326
v -0.003514272 -0.0001426798 -0.0004516841
v -0.003077212 -0.0002268398 -0.0002515746
v 0.0008362496 0.0005533954 -0.001965977
v 0.0007070219 0.001630835 -0.001552612
v -0.003465081 -0.001258907 -6.73786E-06
v -0.002389673 -0.001805837 -4.895323E-06
v -0.0007940457 -0.00215568 -2.678916E-06
v -1.178861E-05 -0.001954115 -0.001447081
v 0.000439316 -0.001031989 -0.001964658
v 5.757391E-05 -0.002263941 -1.583179E-06
v 0.001375487 0.001484925 -4.173953E-07
v 0.001467475 0.001154662 -0.0012115
v 0.001463981 0.001154662 0.001210924
v 0.00155816 0.0003617752 0.001533697
v 0.001266057 -0.0008049079 0.001531832
v 0.001043321 -0.001535908 -0.001129165
v 0.001094365 -0.001801344 -1.38973E-06
v 0.00104007 -0.001535908 0.001127064
v -1.62065E-05 -0.001954115 0.001444785
v 5.757391E-05 -0.002263941 -1.583179E-06
v -0.0007940457 -0.00215568 -2.678916E-06
v -0.002389673 -0.001805837 -4.895323E-06
v -0.003465081 -0.001258907 -6.73786E-06
v 0.001094365 -0.001801344 -1.38973E-06
v 0.00127047 -0.0008049079 -0.001532977
v 0.001562573 0.0003617752 -0.001534007
v 0.001840053 0.0003918853 -2.768097E-07
v 0.001463981 0.001154662 0.001210924
v 0.00155816 0.0003617752 0.001533697
v 0.001266057 -0.0008049079 0.001531832
v 0.001624736 -0.001000268 -8.063736E-07
v 0.001562573 0.0003617752 -0.001534007
v 0.001467475 0.001154662 -0.0012115
v 0.00127047 -0.0008049079 -0.001532977
v 0.001043321 -0.001535908 -0.001129165
v 0.001094365 -0.001801344 -1.38973E-06
v 0.00104007 -0.001535908 0.001127064
vt 0.2827421 0.9229171
vt 0.2760255 0.9126395
vt 0.2750299 0.9166815
vt 0.2673502 0.9062036
vt 0.2674407 0.9127281
vt 0.262123 0.9107718
vt 0.2619703 0.9138347
vt 0.2601373 0.9109856
vt 0.2601374 0.9139811
vt 0.2601391 0.9036331
vt 0.272833 0.922379
vt 0.2667743 0.9191216
vt 0.2690898 0.9264044
vt 0.2705549 0.929661
vt 0.2781132 0.9278142
vt 0.2661993 0.9306219
vt 0.2638843 0.9273033
vt 0.262754 0.9309918
vt 0.2678145 0.9356031
vt 0.2640494 0.9360954
vt 0.2721166 0.9336409
vt 0.2601389 0.9269309
vt 0.2601419 0.9310868
vt 0.2601435 0.9360734
vt 0.2627 0.9180751
vt 0.2601377 0.9180418
vt 0.2738702 0.9398136
vt 0.2679061 0.9402031
vt 0.2812991 0.9338608
vt 0.2601455 0.9404748
vt 0.2575296 0.930993
vt 0.2563934 0.9273046
vt 0.2540823 0.9306242
vt 0.2524749 0.9355884
vt 0.2562369 0.936099
vt 0.2511869 0.9264076
vt 0.2497235 0.9296644
vt 0.2474414 0.9223823
vt 0.2421591 0.9278172
vt 0.2535009 0.9191233
vt 0.2481621 0.9336482
vt 0.2575754 0.9180756
vt 0.252833 0.9127302
vt 0.2452438 0.9166836
vt 0.2529272 0.9062002
vt 0.2442484 0.9126408
vt 0.2375269 0.9229165
vt 0.2581517 0.9107705
vt 0.2583044 0.9138349
vt 0.2464094 0.939828
vt 0.2523813 0.9402132
vt 0.2492693 0.9057532
vt 0.2423468 0.9116523
vt 0.2357163 0.9213961
vt 0.2350201 0.9280059
vt 0.2389696 0.9338696
vt 0.2325182 0.9267729
vt 0.2601404 0.9460819
vt 0.2513975 0.9473565
vt 0.2688859 0.9473516
vt 0.2759683 0.9461662
vt 0.2843663 0.9409612
vt 0.2301545 0.93582
vt 0.2292449 0.9328314
vt 0.2901249 0.9358143
vt 0.2852466 0.9280036
vt 0.287755 0.9267714
vt 0.2845559 0.9213963
vt 0.2779246 0.9116545
vt 0.2710046 0.9057532
vt 0.2910428 0.9328254
vt 0.2359123 0.940968
vt 0.244311 0.9461752
vt 0.2600999 0.9468866
vt 0.2619534 0.9464828
vt 0.2625398 0.9468517
vt 0.2626572 0.9477801
vt 0.2601001 0.9478727
vt 0.2576617 0.9468522
vt 0.2582474 0.9464833
vt 0.2575452 0.9477807
vt 0.2581895 0.9483942
vt 0.2601007 0.9485852
vt 0.262013 0.9483937
vn -0.2510112 -0.7406577 0.6232331
vn -0.3170531 -0.65423 0.6866298
vn -0.403403 -0.1691686 0.8992486
vn -0.5500082 -0.3531958 0.7567984
vn -0.206975 0.2698474 0.9403955
vn -0.5835846 0.5428631 0.6039277
vn -0.1006939 0.7544355 0.6486045
vn -0.6463964 0.7630014 -0.0007098337
vn -0.0740989 0.9972509 -0.0001324572
vn -0.8059986 -0.5765395 0.1340464
vn -0.465039 -0.1084643 0.8786206
vn -0.6533467 0.1760095 0.7363144
vn -0.5555007 0.1112393 0.8240417
vn -0.4464009 0.1037033 0.8888037
vn -0.2493057 -0.1928003 0.9490389
vn -0.5002137 0.4909073 0.7132995
vn -0.7670791 0.4491257 0.458122
vn -0.4950159 0.8308268 0.2543347
vn -0.1850407 0.6318117 0.752711
vn -0.1763818 0.9263715 0.3327542
vn -0.2008325 0.1437839 0.9690163
vn -0.7926698 0.6096501 -0.001167607
vn -0.5257815 0.8506193 -0.0007335109
vn -0.1396444 0.9902018 -0.0001940627
vn -0.8016143 0.4211699 0.4242998
vn -0.8549428 0.5187208 -0.001245535
vn 0.3156667 0.1256251 0.9405174
vn 0.3402994 0.6945978 0.633822
vn 0.2334258 -0.3068499 0.9226893
vn 0.4056773 0.9140161 0.000655703
vn -0.4944118 0.8308986 -0.2552733
vn -0.7655645 0.4492781 -0.4604999
vn -0.4984684 0.4909787 -0.7144713
vn -0.2550635 0.5651007 -0.7846043
vn -0.1480042 0.9149686 -0.375403
vn -0.5524887 0.1115134 -0.8260273
vn -0.4435917 0.1034439 -0.8902392
vn -0.4619166 -0.1085579 -0.8802547
vn -0.2796359 -0.1883415 -0.9414517
vn -0.6512448 0.1759994 -0.7381764
vn -0.225355 0.1137432 -0.9676144
vn -0.8004025 0.4211448 -0.4266063
vn -0.138482 0.3182659 -0.9378324
vn -0.4004512 -0.1693579 -0.9005315
vn -0.4743339 -0.1649541 -0.8647529
vn -0.3186015 -0.7372514 -0.5957797
vn -0.2660628 -0.7420661 -0.615263
vn -0.417299 0.7665504 -0.488121
vn -0.09871485 0.754328 -0.6490337
vn 0.3005485 0.1475206 -0.9422889
vn 0.3687658 0.6754735 -0.638551
vn -0.8059986 -0.5765395 0.1340464
vn -0.2375178 -0.9713831 -0.0003967942
vn -0.1812231 -0.9834419 -0.0002795618
vn 0.1100959 -0.8072112 -0.5799043
vn 0.1959149 -0.3362276 -0.9211777
vn 0.1460721 -0.989274 0.000213465
vn 0.7586277 0.6515236 0.001016297
vn 0.7664906 0.50844 -0.392404
vn 0.7835755 0.5036097 0.3638497
vn 0.8268472 0.03993222 0.5610073
vn 0.7488708 -0.2899955 0.5958986
vn 0.6347435 -0.6629019 -0.3970667
vn 0.6355364 -0.7720705 0.0007725736
vn 0.6343038 -0.6636 0.3966026
vn 0.1069909 -0.8070228 0.5807471
vn 0.1460721 -0.989274 0.000213465
vn -0.1812231 -0.9834419 -0.0002795618
vn -0.2375178 -0.9713831 -0.0003967942
vn -0.8059986 -0.5765395 0.1340464
vn 0.6355364 -0.7720705 0.0007725736
vn 0.7498838 -0.289823 -0.5947074
vn 0.8056239 0.05514992 -0.5898547
vn 0.9977883 0.06645698 0.001377383
vn 0.7835755 0.5036097 0.3638497
vn 0.8268472 0.03993222 0.5610073
vn 0.7488708 -0.2899955 0.5958986
vn 0.9330606 -0.359717 0.001231853
vn 0.8056239 0.05514992 -0.5898547
vn 0.7664906 0.50844 -0.392404
vn 0.7498838 -0.289823 -0.5947074
vn 0.6347435 -0.6629019 -0.3970667
vn 0.6355364 -0.7720705 0.0007725736
vn 0.6343038 -0.6636 0.3966026
g Head_0
f 3/3/3 2/2/2 1/1/1
f 4/4/4 2/2/2 3/3/3
f 5/5/5 4/4/4 3/3/3
f 6/6/6 4/4/4 5/5/5
f 7/7/7 6/6/6 5/5/5
f 8/8/8 6/6/6 7/7/7
f 4/4/4 6/6/6 8/8/8
f 9/9/9 8/8/8 7/7/7
f 10/10/10 4/4/4 8/8/8
f 5/5/5 3/3/3 11/11/11
f 12/12/12 5/5/5 11/11/11
f 7/7/7 5/5/5 12/12/12
f 13/13/13 12/12/12 11/11/11
f 13/13/13 11/11/11 14/14/14
f 11/11/11 15/15/15 14/14/14
f 15/15/15 11/11/11 3/3/3
f 1/1/1 15/15/15 3/3/3
f 13/13/13 14/14/14 16/16/16
f 17/17/17 13/13/13 16/16/16
f 13/13/13 17/17/17 12/12/12
f 17/17/17 16/16/16 18/18/18
f 16/16/16 19/19/19 18/18/18
f 19/19/19 16/16/16 14/14/14
f 19/19/19 20/20/20 18/18/18
f 21/21/21 19/19/19 14/14/14
f 21/21/21 14/14/14 15/15/15
f 22/22/22 17/17/17 18/18/18
f 23/23/23 22/22/22 18/18/18
f 23/23/23 18/18/18 20/20/20
f 24/24/24 23/23/23 20/20/20
f 17/17/17 25/25/25 12/12/12
f 17/17/17 22/22/22 26/26/26
f 25/25/25 17/17/17 26/26/26
f 25/25/25 7/7/7 12/12/12
f 9/9/9 7/7/7 25/25/25
f 26/26/26 9/9/9 25/25/25
f 19/19/19 21/21/21 27/27/27
f 27/27/27 21/21/21 15/15/15
f 28/28/28 19/19/19 27/27/27
f 20/20/20 28/28/28 24/24/24
f 28/28/28 20/20/20 19/19/19
f 29/29/29 27/27/27 15/15/15
f 28/28/28 30/30/30 24/24/24
f 22/22/22 23/23/23 31/31/31
f 32/32/32 22/22/22 31/31/31
f 22/22/22 32/32/32 26/26/26
f 33/33/33 32/32/32 31/31/31
f 34/34/34 33/33/33 31/31/31
f 35/35/35 34/34/34 31/31/31
f 23/23/23 24/24/24 35/35/35
f 31/31/31 23/23/23 35/35/35
f 36/36/36 32/32/32 33/33/33
f 37/37/37 36/36/36 33/33/33
f 33/33/33 34/34/34 37/37/37
f 38/38/38 36/36/36 37/37/37
f 39/39/39 38/38/38 37/37/37
f 40/40/40 36/36/36 38/38/38
f 32/32/32 36/36/36 40/40/40
f 34/34/34 41/41/41 37/37/37
f 37/37/37 41/41/41 39/39/39
f 42/42/42 32/32/32 40/40/40
f 32/32/32 42/42/42 26/26/26
f 43/43/43 40/40/40 38/38/38
f 44/44/44 43/43/43 38/38/38
f 38/38/38 39/39/39 44/44/44
f 45/45/45 43/43/43 44/44/44
f 46/46/46 45/45/45 44/44/44
f 46/46/46 44/44/44 47/47/47
f 39/39/39 47/47/47 44/44/44
f 45/45/45 48/48/48 43/43/43
f 48/48/48 49/49/49 43/43/43
f 49/49/49 42/42/42 40/40/40
f 43/43/43 49/49/49 40/40/40
f 48/48/48 8/8/8 49/49/49
f 48/48/48 45/45/45 8/8/8
f 8/8/8 9/9/9 49/49/49
f 9/9/9 26/26/26 42/42/42
f 49/49/49 9/9/9 42/42/42
f 45/45/45 10/10/10 8/8/8
f 41/41/41 50/50/50 39/39/39
f 41/41/41 34/34/34 50/50/50
f 34/34/34 51/51/51 50/50/50
f 35/35/35 51/51/51 34/34/34
f 51/51/51 35/35/35 24/24/24
f 30/30/30 51/51/51 24/24/24
f 45/45/45 46/46/46 52/52/52
f 46/46/46 53/53/53 52/52/52
f 46/46/46 47/47/47 53/53/53
f 47/47/47 54/54/54 53/53/53
f 47/47/47 55/55/55 54/54/54
f 56/56/56 55/55/55 47/47/47
f 50/50/50 56/56/56 39/39/39
f 39/39/39 56/56/56 47/47/47
f 55/55/55 57/57/57 54/54/54
f 30/30/30 58/58/58 51/51/51
f 58/58/58 59/59/59 51/51/51
f 51/51/51 59/59/59 50/50/50
f 60/60/60 58/58/58 30/30/30
f 28/28/28 60/60/60 30/30/30
f 61/61/61 60/60/60 28/28/28
f 27/27/27 61/61/61 28/28/28
f 62/62/62 61/61/61 27/27/27
f 29/29/29 62/62/62 27/27/27
f 55/55/55 63/63/63 57/57/57
f 63/63/63 64/64/64 57/57/57
f 65/65/65 62/62/62 29/29/29
f 66/66/66 65/65/65 29/29/29
f 66/66/66 29/29/29 1/1/1
f 29/29/29 15/15/15 1/1/1
f 67/67/67 66/66/66 1/1/1
f 68/68/68 67/67/67 1/1/1
f 68/68/68 1/1/1 2/2/2
f 69/69/69 68/68/68 2/2/2
f 69/69/69 2/2/2 4/4/4
f 70/70/70 69/69/69 4/4/4
f 71/71/71 65/65/65 66/66/66
f 67/67/67 71/71/71 66/66/66
f 72/72/72 63/63/63 55/55/55
f 56/56/56 72/72/72 55/55/55
f 73/73/73 72/72/72 56/56/56
f 50/50/50 73/73/73 56/56/56
f 59/59/59 73/73/73 50/50/50
f 58/58/58 75/75/75 74/74/74
f 74/74/74 75/75/75 76/76/76
f 74/74/74 76/76/76 77/77/77
f 78/78/78 74/74/74 77/77/77
f 79/79/79 74/74/74 78/78/78
f 79/79/79 80/80/80 74/74/74
f 74/74/74 80/80/80 58/58/58
f 81/81/81 79/79/79 78/78/78
f 81/81/81 78/78/78 82/82/82
f 82/82/82 78/78/78 83/83/83
f 83/83/83 78/78/78 84/84/84
f 84/84/84 78/78/78 77/77/77
