g Lava_Emitter_Up
v -3.100012 0.4610312 -4.206617
v -3.043058 0.45322 -4.293141
v -2.842617 0.45322 -4.186714
v -2.852881 0.4610312 -4.15831
v -2.852881 0.4610312 -4.15831
v -2.842617 0.45322 -4.186714
v -2.558573 0.45322 -4.300956
v -2.548899 0.4610312 -4.267893
v -2.548899 0.4610312 -4.267893
v -2.558573 0.45322 -4.300956
v -2.404711 0.45322 -4.507762
v -2.391669 0.4610313 -4.466803
v -2.391669 0.4610313 -4.466803
v -2.404711 0.45322 -4.507762
v -2.221565 0.45322 -4.452861
v -2.256506 0.4610312 -4.42499
v -2.256506 0.4610312 -4.42499
v -2.221565 0.45322 -4.452861
v -1.926678 0.45322 -4.661997
v -1.839417 0.4610312 -4.573321
v -1.839417 0.4610312 -4.573321
v -1.926678 0.45322 -4.661997
v -1.866062 0.4523295 -4.943775
v -1.809018 0.4523295 -5.034606
v -1.859855 0.4532196 -5.049355
v -1.866062 0.4523295 -4.943775
v -2.36587 0.4523295 -4.81693
v -2.402037 0.4532196 -4.845234
v -2.83093 0.4523295 -4.889021
v -2.850333 0.4532196 -4.917021
v -2.963262 0.4541105 -4.766783
v -3.012366 0.4532196 -4.810338
v -3.043058 0.45322 -4.293141
v -3.119745 0.4532197 -4.360502
v -1.815464 0.4532196 -5.125656
v -1.809018 0.4523295 -5.034606
v -3.119745 0.4532197 -4.360502
v -3.043058 0.45322 -4.293141
v -3.100012 0.4610312 -4.206617
v -3.354653 0.4532197 -3.973992
v -1.292494 0.8172069 -5.215927
v -1.240041 0.4523294 -5.151086
v -1.809018 0.4523295 -5.034606
v -1.815464 0.4532196 -5.125656
v -1.025076 0.8172069 -5.488056
v -0.9649162 0.9318765 -5.478303
v -1.240041 0.4523294 -5.151086
v -1.292494 0.8172069 -5.215927
v -0.4437324 0.94828 -5.78226
v -0.415725 0.9318765 -5.740729
v -0.9080591 0.9318765 -5.67824
v -1.143811 0.94828 -5.703217
v -1.190823 0.8172069 -5.640737
v -0.9080591 0.9318765 -5.67824
v -0.9649162 0.9318765 -5.478303
v -1.025076 0.8172069 -5.488056
v -1.143811 0.94828 -5.703217
v -1.190823 0.8172069 -5.640737
v -1.772197 0.8172071 -5.958059
v -1.669306 0.94828 -6.042899
v -0.9080591 0.9318765 -5.67824
v -1.190823 0.8172069 -5.640737
v -1.143811 0.94828 -5.703217
v -1.669306 0.94828 -6.042899
v -1.772197 0.8172071 -5.958059
v -2.454934 0.8172071 -5.936189
v -2.449831 0.94828 -6.030286
v -2.449831 0.94828 -6.030286
v -2.454934 0.8172071 -5.936189
v -3.576205 0.8172071 -6.313862
v -3.598323 0.8710723 -6.408499
v -3.598323 0.8710723 -6.408499
v -3.576205 0.8172071 -6.313862
v -4.556176 0.817207 -5.922428
v -4.717252 0.4612012 -6.028368
v -4.717252 0.4612012 -6.028368
v -4.556176 0.817207 -5.922428
v -4.735056 0.817207 -4.485954
v -4.910066 0.4612013 -4.448362
v -4.910066 0.4612013 -4.448362
v -4.735056 0.817207 -4.485954
v -4.344459 0.817207 -4.089224
v -4.490214 0.4618339 -3.789215
v -4.276218 0.3668845 -2.923753
v -4.490214 0.4618339 -3.789215
v -4.344459 0.817207 -4.089224
v -4.166968 0.4612013 -3.0903
v 0.1027583 0.94828 -6.155037
v 0.01862301 0.9318765 -6.00021
v -0.415725 0.9318765 -5.740729
v -0.4437324 0.94828 -5.78226
v 0.1909908 0.94828 -6.060657
v 0.1027583 0.94828 -6.155037
v 0.2416551 0.9632343 -6.818797
v 0.2834415 0.94828 -6.527684
v 1.157895 0.9557571 -5.433196
v 1.10267 0.4610312 -5.280792
v 0.6373459 0.9318765 -5.740243
v 0.6987573 0.94828 -5.825522
v 0.6987573 0.94828 -5.825522
v 0.6373459 0.9318765 -5.740243
v 0.1289835 0.9318765 -5.931561
v 0.1909908 0.94828 -6.060657
v 0.01862301 0.9318765 -6.00021
v 0.1027583 0.94828 -6.155037
v 1.406893 0.9557571 -5.721662
v 1.447148 0.9557571 -5.561104
v 1.117917 0.4532196 -5.172622
v 1.157895 0.9557571 -5.433196
v 2.144745 0.9557571 -5.670135
v 1.447148 0.9557571 -5.561104
v 1.406893 0.9557571 -5.721662
v 1.657373 0.4532198 -4.947521
v 1.691976 0.4414835 -4.807226
v 1.095459 0.4703315 -5.074267
v 1.117917 0.4532196 -5.172622
v 1.040905 0.4414835 -4.911142
v 0.9969605 0.4610312 -4.975976
v 1.10267 0.4610312 -5.280792
v 1.095459 0.4703315 -5.074267
v 0.8719513 0.4414835 -4.906581
v 1.040905 0.4414835 -4.911142
v 1.274822 0.4414835 -4.599711
v 1.225821 0.4414835 -4.533959
v 0.4712261 0.4532196 -4.879027
v 0.520515 0.4610312 -4.969448
v 0.9969605 0.4610312 -4.975976
v 0.8719513 0.4414835 -4.906581
v -1.368182 0.4973107 -4.443374
v -1.399234 0.4610312 -4.49309
v -0.9000786 0.4610312 -4.966055
v -0.8798074 0.4532196 -4.922927
v -0.8798074 0.4532196 -4.922927
v -0.9000786 0.4610312 -4.966055
v -0.6591672 0.4610312 -4.905711
v -0.6002044 0.4532196 -4.808567
v -0.6002044 0.4532196 -4.808567
v -0.6591672 0.4610312 -4.905711
v -0.07508563 0.4610312 -5.178612
v -0.0713066 0.4532196 -5.09773
v 0.2027201 0.4610312 -5.196569
v 0.2019739 0.4532196 -5.111181
v 0.2019739 0.4532196 -5.111181
v 0.2027201 0.4610312 -5.196569
v 0.520515 0.4610312 -4.969448
v 0.4712261 0.4532196 -4.879027
v 1.334371 0.4612013 -4.496177
v 1.274822 0.4414835 -4.599711
v 1.673616 0.4414835 -4.607753
v 1.710426 0.4612013 -4.559896
v 1.225821 0.4414835 -4.533959
v 1.334371 0.4612013 -4.496177
v 0.8989191 0.4612011 -4.338519
v 0.8498018 0.4414835 -4.370306
v 0.8498018 0.4414835 -4.370306
v 0.8989191 0.4612011 -4.338519
v 0.6500932 0.4612013 -4.385651
v 0.7098368 0.4414835 -4.46253
v 1.274822 0.4414835 -4.599711
v 1.334371 0.4612013 -4.496177
v 1.225821 0.4414835 -4.533959
v 1.710426 0.4612013 -4.559896
v 1.673616 0.4414835 -4.607753
v 1.691976 0.4414835 -4.807226
v 1.787102 0.4612013 -4.767455
v 1.799841 0.4532198 -4.80121
v 1.787102 0.4612013 -4.767455
v 1.691976 0.4414835 -4.807226
v 1.657373 0.4532198 -4.947521
v 2.716499 0.4532198 -4.742
v 2.584266 0.4612012 -4.634204
v 2.2454 0.4612012 -4.594418
v 2.268203 0.4532198 -4.635025
v 2.268203 0.4532198 -4.635025
v 2.2454 0.4612012 -4.594418
v 1.787102 0.4612013 -4.767455
v 1.799841 0.4532198 -4.80121
v 2.623516 0.4414835 -4.623339
v 2.584266 0.4612012 -4.634204
v 2.716499 0.4532198 -4.742
v 2.707577 0.4414835 -4.710905
v 2.558057 0.4612012 -4.356166
v 2.559957 0.4414835 -4.409681
v 2.818176 0.4414835 -4.235919
v 2.760812 0.4612012 -4.144366
v 2.584266 0.4612012 -4.634204
v 2.623516 0.4414835 -4.623339
v 2.559957 0.4414835 -4.409681
v 2.470227 0.4612012 -4.26188
v 2.470227 0.4612012 -4.26188
v 2.559957 0.4414835 -4.409681
v 2.558057 0.4612012 -4.356166
v 2.903423 0.4532198 -4.141312
v 2.877189 0.4414835 -4.234668
v 2.899161 0.4414835 -4.576999
v 2.930942 0.4532198 -4.437722
v 3.058591 0.4532198 -4.701353
v 2.930942 0.4532198 -4.437722
v 2.899161 0.4414835 -4.576999
v 2.911537 0.4532198 -4.631105
v 2.716499 0.4532198 -4.742
v 2.911537 0.4532198 -4.631105
v 2.899161 0.4414835 -4.576999
v 2.707577 0.4414835 -4.710905
v 2.760812 0.4612012 -4.144366
v 2.818176 0.4414835 -4.235919
v 2.877189 0.4414835 -4.234668
v 2.824509 0.4612011 -4.081581
v 3.210664 0.4532198 -3.736034
v 3.204548 0.4612012 -3.607491
v 2.824509 0.4612011 -4.081581
v 2.903423 0.4532198 -4.141312
v 2.903423 0.4532198 -4.141312
v 2.824509 0.4612011 -4.081581
v 2.877189 0.4414835 -4.234668
v 3.35567 0.4532198 -3.416828
v 3.204548 0.4612012 -3.607491
v 3.210664 0.4532198 -3.736034
v 3.427091 0.4532198 -3.703206
v 3.264745 0.4612012 -3.336939
v 3.543349 0.4532198 -3.142454
v 3.497638 0.4612012 -3.056148
v 3.894619 0.4532198 -3.013988
v 3.531667 0.4612012 -3.004901
v 3.822442 0.4612012 -2.92872
v 3.966233 0.4612013 -2.924143
v 3.497638 0.4612012 -3.056148
v 3.543349 0.4532198 -3.142454
v 3.531667 0.4612012 -3.004901
v 3.346988 0.4612012 -2.648394
v 4.161651 0.4612012 -2.528154
v 3.959911 0.4612012 -2.636085
v 3.822442 0.4612012 -2.92872
v 3.966233 0.4612013 -2.924143
v 3.894691 0.4746655 -1.998924
v 3.86332 0.4612012 -2.096111
v 3.640941 0.494617 -1.927296
v 3.619972 0.4846413 -2.007233
v 3.86332 0.4612012 -2.096111
v 3.894691 0.4746655 -1.998924
v 3.414064 0.4846413 -1.706432
v 3.619972 0.4846413 -2.007233
v 3.640941 0.494617 -1.927296
v 3.966233 0.4612013 -2.924143
v 3.894619 0.4532198 -3.013988
v 4.130363 0.8710721 -3.525505
v 4.262144 0.4612013 -3.531489
v 4.988636 0.8710721 -4.77908
v 5.238105 0.9128754 -4.728131
v 4.476657 0.9128754 -4.329407
v 4.41748 0.8710721 -4.50894
v 5.411015 0.8710721 -5.092953
v 4.41748 0.8710721 -4.50894
v 4.476657 0.9128754 -4.329407
v 4.351175 0.9128754 -4.097806
v 4.187778 0.8710721 -4.139972
v 4.187778 0.8710721 -4.139972
v 4.351175 0.9128754 -4.097806
v 4.262144 0.4612013 -3.531489
v 4.130363 0.8710721 -3.525505
v 1.157895 0.9557571 -5.433196
v 1.117917 0.4532196 -5.172622
v 1.095459 0.4703315 -5.074267
v 1.10267 0.4610312 -5.280792
v 1.040905 0.4414835 -4.911142
v 0.8719513 0.4414835 -4.906581
v 0.9969605 0.4610312 -4.975976
vt 0 0
vt 0 0
vt 0 0
vt 0 0
vt 0 0
vt 0 0
vt 0 0
vt 0 0
vt 0 0
vt 0 0
vt 0 0
vt 0 0
vt 0 0
vt 0 0
vt 0 0
vt 0 0
vt 0 0
vt 0 0
vt 0 0
vt 0 0
vt 0 0
vt 0 0
vt 0 0
vt 0 0
vt 0 0
vt 0 0
vt 0 0
vt 0 0
vt 0 0
vt 0 0
vt 0 0
vt 0 0
vt 0 0
vt 0 0
vt 0 0
vt 0 0
vt 0 0
vt 0 0
vt 0 0
vt 0 0
vt 0 0
vt 0 0
vt 0 0
vt 0 0
vt 0 0
vt 0 0
vt 0 0
vt 0 0
vt 0 0
vt 0 0
vt 0 0
vt 0 0
vt 0 0
vt 0 0
vt 0 0
vt 0 0
vt 0 0
vt 0 0
vt 0 0
vt 0 0
vt 0 0
vt 0 0
vt 0 0
vt 0 0
vt 0 0
vt 0 0
vt 0 0
vt 0 0
vt 0 0
vt 0 0
vt 0 0
vt 0 0
vt 0 0
vt 0 0
vt 0 0
vt 0 0
vt 0 0
vt 0 0
vt 0 0
vt 0 0
vt 0 0
vt 0 0
vt 0 0
vt 0 0
vt 0 0
vt 0 0
vt 0 0
vt 0 0
vt 0 0
vt 0 0
vt 0 0
vt 0 0
vt 0 0
vt 0 0
vt 0 0
vt 0 0
vt 0 0
vt 0 0
vt 0 0
vt 0 0
vt 0 0
vt 0 0
vt 0 0
vt 0 0
vt 0 0
vt 0 0
vt 0 0
vt 0 0
vt 0 0
vt 0 0
vt 0 0
vt 0 0
vt 0 0
vt 0 0
vt 0 0
vt 0 0
vt 0 0
vt 0 0
vt 0 0
vt 0 0
vt 0 0
vt 0 0
vt 0 0
vt 0 0
vt 0 0
vt 0 0
vt 0 0
vt 0 0
vt 0 0
vt 0 0
vt 0 0
vt 0 0
vt 0 0
vt 0 0
vt 0 0
vt 0 0
vt 0 0
vt 0 0
vt 0 0
vt 0 0
vt 0 0
vt 0 0
vt 0 0
vt 0 0
vt 0 0
vt 0 0
vt 0 0
vt 0 0
vt 0 0
vt 0 0
vt 0 0
vt 0 0
vt 0 0
vt 0 0
vt 0 0
vt 0 0
vt 0 0
vt 0 0
vt 0 0
vt 0 0
vt 0 0
vt 0 0
vt 0 0
vt 0 0
vt 0 0
vt 0 0
vt 0 0
vt 0 0
vt 0 0
vt 0 0
vt 0 0
vt 0 0
vt 0 0
vt 0 0
vt 0 0
vt 0 0
vt 0 0
vt 0 0
vt 0 0
vt 0 0
vt 0 0
vt 0 0
vt 0 0
vt 0 0
vt 0 0
vt 0 0
vt 0 0
vt 0 0
vt 0 0
vt 0 0
vt 0 0
vt 0 0
vt 0 0
vt 0 0
vt 0 0
vt 0 0
vt 0 0
vt 0 0
vt 0 0
vt 0 0
vt 0 0
vt 0 0
vt 0 0
vt 0 0
vt 0 0
vt 0 0
vt 0 0
vt 0 0
vt 0 0
vt 0 0
vt 0 0
vt 0 0
vt 0 0
vt 0 0
vt 0 0
vt 0 0
vt 0 0
vt 0 0
vt 0 0
vt 0 0
vt 0 0
vt 0 0
vt 0 0
vt 0 0
vt 0 0
vt 0 0
vt 0 0
vt 0 0
vt 0 0
vt 0 0
vt 0 0
vt 0 0
vt 0 0
vt 0 0
vt 0 0
vt 0 0
vt 0 0
vt 0 0
vt 0 0
vt 0 0
vt 0 0
vt 0 0
vt 0 0
vt 0 0
vt 0 0
vt 0 0
vt 0 0
vt 0 0
vt 0 0
vt 0 0
vt 0 0
vt 0 0
vt 0 0
vt 0 0
vt 0 0
vt 0 0
vt 0 0
vt 0 0
vt 0 0
vt 0 0
vt 0 0
vt 0 0
vt 0 0
vt 0 0
vt 0 0
vt 0 0
vt 0 0
vn 0.03881374 0.9929194 -0.1122699
vn 0.03881374 0.9929194 -0.1122699
vn 0.03881374 0.9929194 -0.1122699
vn 0.03881374 0.9929194 -0.1122699
vn -0.09367302 0.9647089 -0.2460939
vn -0.09367302 0.9647089 -0.2460939
vn -0.09367302 0.9647089 -0.2460939
vn -0.09367302 0.9647089 -0.2460939
vn -0.1908067 0.9706635 -0.1463049
vn -0.1908067 0.9706635 -0.1463049
vn -0.1908067 0.9706635 -0.1463049
vn -0.1908067 0.9706635 -0.1463049
vn 0.0614624 0.9773961 -0.2022851
vn 0.0614624 0.9773961 -0.2022851
vn 0.0614624 0.9773961 -0.2022851
vn 0.0614624 0.9773961 -0.2022851
vn -0.05451488 0.992592 -0.1085784
vn -0.05451488 0.992592 -0.1085784
vn -0.05451488 0.992592 -0.1085784
vn -0.05451488 0.992592 -0.1085784
vn -0.05433143 0.9983317 -0.01954255
vn -0.05433143 0.9983317 -0.01954255
vn -0.05433143 0.9983317 -0.01954255
vn -0.05433143 0.9983317 -0.01954255
vn 0.003942795 0.9999152 0.01241294
vn 0.003942795 0.9999152 0.01241294
vn 0.003942795 0.9999152 0.01241294
vn 0.003942795 0.9999152 0.01241294
vn -0.005893411 0.9992825 0.03741331
vn -0.005893411 0.9992825 0.03741331
vn 0.003462949 0.9999885 -0.003327005
vn 0.003462949 0.9999885 -0.003327005
vn -0.006732269 0.9999774 0
vn -0.006732269 0.9999774 0
vn 0.01488528 0.9998484 0.009033822
vn 0.01488528 0.9998484 0.009033822
vn -0.0458639 0.9979436 -0.04477694
vn -0.0458639 0.9979436 -0.04477694
vn -0.0458639 0.9979436 -0.04477694
vn -0.0458639 0.9979436 -0.04477694
vn 0.04113011 0.3973409 0.9167489
vn 0.04113011 0.3973409 0.9167489
vn 0.04113011 0.3973409 0.9167489
vn 0.04113011 0.3973409 0.9167489
vn 0.4634759 0.438209 0.7701708
vn 0.4634759 0.438209 0.7701708
vn 0.4634759 0.438209 0.7701708
vn 0.4634759 0.438209 0.7701708
vn 0.03771648 0.9474194 0.3177638
vn 0.03771648 0.9474194 0.3177638
vn 0.03771648 0.9474194 0.3177638
vn 0.03771648 0.9474194 0.3177638
vn -0.5388258 0.8258212 0.1663917
vn -0.5388258 0.8258212 0.1663917
vn -0.5388258 0.8258212 0.1663917
vn -0.5388258 0.8258212 0.1663917
vn -0.4034214 0.6126369 0.6796523
vn -0.4034214 0.6126369 0.6796523
vn -0.4034214 0.6126369 0.6796523
vn -0.4034214 0.6126369 0.6796523
vn -0.06332634 0.447849 0.8918638
vn -0.06332634 0.447849 0.8918638
vn -0.06332634 0.447849 0.8918638
vn 0.01954881 0.5581555 0.829506
vn 0.01954881 0.5581555 0.829506
vn 0.01954881 0.5581555 0.829506
vn 0.01954881 0.5581555 0.829506
vn -0.2524815 0.6796371 0.6887283
vn -0.2524815 0.6796371 0.6887283
vn -0.2524815 0.6796371 0.6887283
vn -0.2524815 0.6796371 0.6887283
vn -0.3695178 0.6589681 -0.655147
vn -0.3695178 0.6589681 -0.655147
vn -0.3695178 0.6589681 -0.655147
vn -0.3695178 0.6589681 -0.655147
vn -0.8946792 0.4328921 -0.1102434
vn -0.8946792 0.4328921 -0.1102434
vn -0.8946792 0.4328921 -0.1102434
vn -0.8946792 0.4328921 -0.1102434
vn -0.6662928 0.5429875 0.5110953
vn -0.6662928 0.5429875 0.5110953
vn -0.6662928 0.5429875 0.5110953
vn -0.6662928 0.5429875 0.5110953
vn -0.657544 0.6890373 0.3047351
vn -0.657544 0.6890373 0.3047351
vn -0.657544 0.6890373 0.3047351
vn -0.657544 0.6890373 0.3047351
vn 0.1282733 0.9715698 0.1989928
vn 0.1282733 0.9715698 0.1989928
vn 0.1282733 0.9715698 0.1989928
vn 0.1282733 0.9715698 0.1989928
vn 0.04712088 0.9986278 0.02284686
vn 0.04712088 0.9986278 0.02284686
vn 0.04712088 0.9986278 0.02284686
vn 0.04712088 0.9986278 0.02284686
vn -0.4670774 0.4582342 0.7562144
vn -0.4670774 0.4582342 0.7562144
vn -0.4670774 0.4582342 0.7562144
vn -0.4670774 0.4582342 0.7562144
vn -0.05127218 0.9911842 0.1221679
vn -0.05127218 0.9911842 0.1221679
vn -0.05127218 0.9911842 0.1221679
vn -0.05127218 0.9911842 0.1221679
vn -0.06631499 0.9945233 0.08078217
vn -0.06631499 0.9945233 0.08078217
vn 0.3209583 0.6084195 0.7258178
vn 0.3209583 0.6084195 0.7258178
vn 0.3209583 0.6084195 0.7258178
vn 0.3209583 0.6084195 0.7258178
vn 0 1 0
vn 0 1 0
vn 0 1 0
vn 0.03591206 0.9990587 -0.02433116
vn 0.03591206 0.9990587 -0.02433116
vn 0.03591206 0.9990587 -0.02433116
vn 0.03591206 0.9990587 -0.02433116
vn -0.04987321 0.9977668 0.04443031
vn -0.04987321 0.9977668 0.04443031
vn -0.04987321 0.9977668 0.04443031
vn -0.04987321 0.9977668 0.04443031
vn 0 1 0
vn 0 1 0
vn 0 1 0
vn 0 1 0
vn 0.02053045 0.9814888 0.190416
vn 0.02053045 0.9814888 0.190416
vn 0.02053045 0.9814888 0.190416
vn 0.02053045 0.9814888 0.190416
vn -0.1580706 0.9651518 -0.2085562
vn -0.1580706 0.9651518 -0.2085562
vn -0.1580706 0.9651518 -0.2085562
vn -0.1580706 0.9651518 -0.2085562
vn -0.04565074 0.989655 0.1360114
vn -0.04565074 0.989655 0.1360114
vn -0.04565074 0.989655 0.1360114
vn -0.04565074 0.989655 0.1360114
vn 0.03749195 0.9965353 0.07424044
vn 0.03749195 0.9965353 0.07424044
vn 0.03749195 0.9965353 0.07424044
vn 0.03749195 0.9965353 0.07424044
vn 0.005326105 0.9956095 0.09345285
vn 0.005326105 0.9956095 0.09345285
vn -0.05662158 0.995769 0.07237414
vn -0.05662158 0.995769 0.07237414
vn -0.05662158 0.995769 0.07237414
vn -0.05662158 0.995769 0.07237414
vn -0.02211695 0.9708151 -0.2388074
vn -0.02211695 0.9708151 -0.2388074
vn -0.02211695 0.9708151 -0.2388074
vn -0.02211695 0.9708151 -0.2388074
vn -0.1126243 0.9520583 -0.2844309
vn -0.1126243 0.9520583 -0.2844309
vn -0.1126243 0.9520583 -0.2844309
vn -0.1126243 0.9520583 -0.2844309
vn 0.1177713 0.9371094 -0.3285666
vn 0.1177713 0.9371094 -0.3285666
vn 0.1177713 0.9371094 -0.3285666
vn 0.1177713 0.9371094 -0.3285666
vn -0.141955 0.9842038 -0.1057906
vn -0.141955 0.9842038 -0.1057906
vn -0.141955 0.9842038 -0.1057906
vn -0.2500906 0.96646 -0.05839292
vn -0.2500906 0.96646 -0.05839292
vn -0.2500906 0.96646 -0.05839292
vn -0.2500906 0.96646 -0.05839292
vn -0.1100427 0.9933015 0.03525215
vn -0.1100427 0.9933015 0.03525215
vn -0.1100427 0.9933015 0.03525215
vn -0.1100427 0.9933015 0.03525215
vn -0.0246788 0.9908936 -0.1323666
vn -0.0246788 0.9908936 -0.1323666
vn -0.0246788 0.9908936 -0.1323666
vn -0.0246788 0.9908936 -0.1323666
vn 0.06564949 0.9815952 -0.1793349
vn 0.06564949 0.9815952 -0.1793349
vn 0.06564949 0.9815952 -0.1793349
vn 0.06564949 0.9815952 -0.1793349
vn 0.3679989 0.8518974 0.3726227
vn 0.3679989 0.8518974 0.3726227
vn 0.3679989 0.8518974 0.3726227
vn 0.3679989 0.8518974 0.3726227
vn 0.1638457 0.9668408 -0.1958915
vn 0.1638457 0.9668408 -0.1958915
vn 0.1638457 0.9668408 -0.1958915
vn 0.1638457 0.9668408 -0.1958915
vn 0.4078255 0.904655 0.1236029
vn 0.4078255 0.904655 0.1236029
vn 0.4078255 0.904655 0.1236029
vn 0.4078255 0.904655 0.1236029
vn -0.3584806 0.8717687 -0.3339325
vn -0.3584806 0.8717687 -0.3339325
vn -0.3584806 0.8717687 -0.3339325
vn -0.294879 0.9552614 -0.02284785
vn -0.294879 0.9552614 -0.02284785
vn -0.294879 0.9552614 -0.02284785
vn -0.294879 0.9552614 -0.02284785
vn -0.06811033 0.9976544 0.006834751
vn -0.06811033 0.9976544 0.006834751
vn -0.06811033 0.9976544 0.006834751
vn -0.06811033 0.9976544 0.006834751
vn -0.1449674 0.962583 0.2289506
vn -0.1449674 0.962583 0.2289506
vn -0.1449674 0.962583 0.2289506
vn -0.1449674 0.962583 0.2289506
vn 0.0674027 0.9893304 -0.1291598
vn 0.0674027 0.9893304 -0.1291598
vn 0.0674027 0.9893304 -0.1291598
vn 0.0674027 0.9893304 -0.1291598
vn 0.06849213 0.9962144 -0.05353062
vn 0.06849213 0.9962144 -0.05353062
vn 0.06849213 0.9962144 -0.05353062
vn 0.06849213 0.9962144 -0.05353062
vn 0.00489383 0.9920074 -0.1260848
vn 0.00489383 0.9920074 -0.1260848
vn 0.00489383 0.9920074 -0.1260848
vn 0.0299863 0.9994575 -0.01362216
vn 0.0299863 0.9994575 -0.01362216
vn 0.0299863 0.9994575 -0.01362216
vn 0.0299863 0.9994575 -0.01362216
vn 0.06062536 0.9971035 -0.0459272
vn 0.06062536 0.9971035 -0.0459272
vn 0.06062536 0.9971035 -0.0459272
vn 0.02034284 0.9977539 -0.06382235
vn 0.02034284 0.9977539 -0.06382235
vn 0.02034284 0.9977539 -0.06382235
vn 0.002888433 0.9958678 -0.09076905
vn 0.01521687 0.9998332 -0.0101047
vn 0.01521687 0.9998332 -0.0101047
vn 0.01521687 0.9998332 -0.0101047
vn 0.01521687 0.9998332 -0.0101047
vn 0 1 0
vn 0 1 0
vn 0 1 0
vn 0 1 0
vn -0.03589526 0.9990482 -0.02478587
vn -0.03589526 0.9990482 -0.02478587
vn 0.04022843 0.9889393 -0.142761
vn 0.04022843 0.9889393 -0.142761
vn 0.04022843 0.9889393 -0.142761
vn 0.04022843 0.9889393 -0.142761
vn -0.1301499 0.9874836 -0.08909101
vn -0.1301499 0.9874836 -0.08909101
vn -0.1301499 0.9874836 -0.08909101
vn 0.7161674 0.4700933 0.5158648
vn 0.7161674 0.4700933 0.5158648
vn 0.7161674 0.4700933 0.5158648
vn 0.7161674 0.4700933 0.5158648
vn -0.1058124 0.9717824 -0.2108144
vn -0.1058124 0.9717824 -0.2108144
vn -0.1058124 0.9717824 -0.2108144
vn -0.1058124 0.9717824 -0.2108144
vn -0.1283639 0.9765673 -0.1727394
vn -0.2279442 0.9642966 -0.1348091
vn -0.2279442 0.9642966 -0.1348091
vn -0.2279442 0.9642966 -0.1348091
vn -0.2279442 0.9642966 -0.1348091
vn 0.7224354 0.6111568 0.3233799
vn 0.7224354 0.6111568 0.3233799
vn 0.7224354 0.6111568 0.3233799
vn 0.7224354 0.6111568 0.3233799
vn -0.9597219 0.2360734 0.152326
vn -0.9597219 0.2360734 0.152326
vn -0.9597219 0.2360734 0.152326
vn -0.9597219 0.2360734 0.152326
vn 0.007663249 0.958824 0.2838975
vn 0.007663249 0.958824 0.2838975
vn 0.007663249 0.958824 0.2838975
g Lava_Emitter_Up_0
f 3/3/3 2/2/2 1/1/1
f 4/4/4 3/3/3 1/1/1
f 7/7/7 6/6/6 5/5/5
f 8/8/8 7/7/7 5/5/5
f 11/11/11 10/10/10 9/9/9
f 12/12/12 11/11/11 9/9/9
f 15/15/15 14/14/14 13/13/13
f 16/16/16 15/15/15 13/13/13
f 19/19/19 18/18/18 17/17/17
f 20/20/20 19/19/19 17/17/17
f 23/23/23 22/22/22 21/21/21
f 24/24/24 23/23/23 21/21/21
f 27/27/27 26/26/26 25/25/25
f 28/28/28 27/27/27 25/25/25
f 29/29/29 27/27/27 28/28/28
f 30/30/30 29/29/29 28/28/28
f 31/31/31 29/29/29 30/30/30
f 32/32/32 31/31/31 30/30/30
f 33/33/33 31/31/31 32/32/32
f 34/34/34 33/33/33 32/32/32
f 25/25/25 26/26/26 35/35/35
f 26/26/26 36/36/36 35/35/35
f 39/39/39 38/38/38 37/37/37
f 40/40/40 39/39/39 37/37/37
f 43/43/43 42/42/42 41/41/41
f 44/44/44 43/43/43 41/41/41
f 47/47/47 46/46/46 45/45/45
f 48/48/48 47/47/47 45/45/45
f 51/51/51 50/50/50 49/49/49
f 52/52/52 51/51/51 49/49/49
f 55/55/55 54/54/54 53/53/53
f 56/56/56 55/55/55 53/53/53
f 59/59/59 58/58/58 57/57/57
f 60/60/60 59/59/59 57/57/57
f 63/63/63 62/62/62 61/61/61
f 66/66/66 65/65/65 64/64/64
f 67/67/67 66/66/66 64/64/64
f 70/70/70 69/69/69 68/68/68
f 71/71/71 70/70/70 68/68/68
f 74/74/74 73/73/73 72/72/72
f 75/75/75 74/74/74 72/72/72
f 78/78/78 77/77/77 76/76/76
f 79/79/79 78/78/78 76/76/76
f 82/82/82 81/81/81 80/80/80
f 83/83/83 82/82/82 80/80/80
f 86/86/86 85/85/85 84/84/84
f 87/87/87 86/86/86 84/84/84
f 90/90/90 89/89/89 88/88/88
f 91/91/91 90/90/90 88/88/88
f 94/94/94 93/93/93 92/92/92
f 95/95/95 94/94/94 92/92/92
f 98/98/98 97/97/97 96/96/96
f 99/99/99 98/98/98 96/96/96
f 102/102/102 101/101/101 100/100/100
f 103/103/103 102/102/102 100/100/100
f 104/104/104 102/102/102 103/103/103
f 105/105/105 104/104/104 103/103/103
f 108/108/108 107/107/107 106/106/106
f 109/109/109 108/108/108 106/106/106
f 112/112/112 111/111/111 110/110/110
f 115/115/115 114/114/114 113/113/113
f 116/116/116 115/115/115 113/113/113
f 119/119/119 118/118/118 117/117/117
f 120/120/120 119/119/119 117/117/117
f 123/123/123 122/122/122 121/121/121
f 124/124/124 123/123/123 121/121/121
f 127/127/127 126/126/126 125/125/125
f 128/128/128 127/127/127 125/125/125
f 131/131/131 130/130/130 129/129/129
f 132/132/132 131/131/131 129/129/129
f 135/135/135 134/134/134 133/133/133
f 136/136/136 135/135/135 133/133/133
f 139/139/139 138/138/138 137/137/137
f 140/140/140 139/139/139 137/137/137
f 141/141/141 139/139/139 140/140/140
f 142/142/142 141/141/141 140/140/140
f 145/145/145 144/144/144 143/143/143
f 146/146/146 145/145/145 143/143/143
f 149/149/149 148/148/148 147/147/147
f 150/150/150 149/149/149 147/147/147
f 153/153/153 152/152/152 151/151/151
f 154/154/154 153/153/153 151/151/151
f 157/157/157 156/156/156 155/155/155
f 158/158/158 157/157/157 155/155/155
f 161/161/161 160/160/160 159/159/159
f 164/164/164 163/163/163 162/162/162
f 165/165/165 164/164/164 162/162/162
f 168/168/168 167/167/167 166/166/166
f 169/169/169 168/168/168 166/166/166
f 172/172/172 171/171/171 170/170/170
f 173/173/173 172/172/172 170/170/170
f 176/176/176 175/175/175 174/174/174
f 177/177/177 176/176/176 174/174/174
f 180/180/180 179/179/179 178/178/178
f 181/181/181 180/180/180 178/178/178
f 184/184/184 183/183/183 182/182/182
f 185/185/185 184/184/184 182/182/182
f 188/188/188 187/187/187 186/186/186
f 189/189/189 188/188/188 186/186/186
f 192/192/192 191/191/191 190/190/190
f 195/195/195 194/194/194 193/193/193
f 196/196/196 195/195/195 193/193/193
f 199/199/199 198/198/198 197/197/197
f 200/200/200 199/199/199 197/197/197
f 203/203/203 202/202/202 201/201/201
f 204/204/204 203/203/203 201/201/201
f 207/207/207 206/206/206 205/205/205
f 208/208/208 207/207/207 205/205/205
f 211/211/211 210/210/210 209/209/209
f 212/212/212 211/211/211 209/209/209
f 215/215/215 214/214/214 213/213/213
f 218/218/218 217/217/217 216/216/216
f 219/219/219 218/218/218 216/216/216
f 220/220/220 216/216/216 217/217/217
f 216/216/216 220/220/220 221/221/221
f 220/220/220 222/222/222 221/221/221
f 221/221/221 224/224/224 223/223/223
f 224/224/224 225/225/225 223/223/223
f 225/225/225 226/226/226 223/223/223
f 229/229/229 228/228/228 227/227/227
f 230/230/230 229/229/229 227/227/227
f 233/233/233 232/232/232 231/231/231
f 234/234/234 233/233/233 231/231/231
f 231/231/231 232/232/232 235/235/235
f 232/232/232 236/236/236 235/235/235
f 239/239/239 238/238/238 237/237/237
f 240/240/240 239/239/239 237/237/237
f 243/243/243 242/242/242 241/241/241
f 246/246/246 245/245/245 244/244/244
f 247/247/247 246/246/246 244/244/244
f 250/250/250 249/249/249 248/248/248
f 251/251/251 250/250/250 248/248/248
f 248/248/248 249/249/249 252/252/252
f 255/255/255 254/254/254 253/253/253
f 256/256/256 255/255/255 253/253/253
f 259/259/259 258/258/258 257/257/257
f 260/260/260 259/259/259 257/257/257
f 263/263/263 262/262/262 261/261/261
f 264/264/264 263/263/263 261/261/261
f 267/267/267 266/266/266 265/265/265
