g Leg_BR
v 0.0004858091 0.000661101 -0.0004055301
v 0.0005393001 0.000806766 0.0001652542
v -0.0007053835 0.0007871202 -1.716855E-05
v -0.0003475998 0.0006565138 -0.000467912
v -0.0001825551 0.0005012559 -0.001558494
v -0.0004786448 -0.0003371002 -0.0009014844
v -0.000243378 -0.0001737644 -0.001589427
v -0.0003309328 0.0002448797 -0.002575848
v -0.0003431154 -9.48858E-05 -0.002571714
v 0.0004082619 0.0004304646 -0.001658464
v -2.1528E-05 0.0002388525 -0.002680856
v 0.0003113525 -4.050743E-05 -0.001661509
v -1.913488E-05 -6.431098E-05 -0.002681668
v -0.000243378 -0.0001737644 -0.001589427
v -0.0003431154 -9.48858E-05 -0.002571714
v -0.0004786448 -0.0003371002 -0.0009014844
v 0.0005289406 -0.0001875165 -0.0006424565
v 0.0007350086 -0.0005528044 0.0001044587
v -0.0006736633 -0.0008067662 -0.0001252778
v -1.913488E-05 -6.431098E-05 -0.002681668
v -2.1528E-05 0.0002388525 -0.002680856
v 0.0002581645 -0.0002612019 0.0006885157
v -0.0004786337 -0.0003940352 0.0005683533
v 0.0001558001 0.000449914 0.0007203144
v -0.0004952247 0.0004396383 0.0006248992
v -0.0004786337 -0.0003940352 0.0005683533
v -0.0006736633 -0.0008067662 -0.0001252778
v 0.0001558001 0.000449914 0.0007203144
v 0.0002581645 -0.0002612019 0.0006885157
vt 0.2224062 0.9817588
vt 0.224127 0.9820799
vt 0.2250231 0.9787009
vt 0.222932 0.9787334
vt 0.2180448 0.9781835
vt 0.2214839 0.9738544
vt 0.2177622 0.9748509
vt 0.2129082 0.9774758
vt 0.2127564 0.9757373
vt 0.2173617 0.9807746
vt 0.2124095 0.9790031
vt 0.2163909 0.9826323
vt 0.2117009 0.9803321
vt 0.2148948 0.9851292
vt 0.2109344 0.9819241
vt 0.2170899 0.9885555
vt 0.2205097 0.9846649
vt 0.223417 0.9858477
vt 0.2219843 0.9906724
vt 0.2110337 0.9761119
vt 0.2112405 0.9776542
vt 0.2269969 0.9864337
vt 0.2267757 0.9911522
vt 0.2272106 0.98262
vt 0.2275663 0.9794924
vt 0.2294865 0.9758651
vt 0.2255987 0.9740567
vt 0.2304137 0.9810207
vt 0.2324422 0.9781298
vn 0.5310243 0.8121247 -0.2417988
vn 0.6044179 0.7966233 0.008379023
vn -0.8268874 0.5588192 0.06307399
vn -0.5075084 0.7353786 -0.4490586
vn -0.5670808 0.799593 -0.1976625
vn -0.5555786 -0.6338313 -0.5381359
vn -0.6758332 -0.7102202 -0.1970698
vn -0.6762664 0.5395035 -0.5015972
vn -0.6570837 -0.6286836 -0.4159303
vn 0.7048241 0.6596696 -0.2608809
vn 0.3026946 0.4952398 -0.8143178
vn 0.7559952 -0.6183518 -0.214738
vn 0.4007343 -0.5340839 -0.7444234
vn -0.6758332 -0.7102202 -0.1970698
vn -0.6570837 -0.6286836 -0.4159303
vn -0.5555786 -0.6338313 -0.5381359
vn 0.6652799 -0.4885691 -0.5645379
vn 0.9405431 -0.3391865 0.01820023
vn -0.599854 -0.7729005 -0.2068812
vn 0.4007343 -0.5340839 -0.7444234
vn 0.3026946 0.4952398 -0.8143178
vn 0.5998825 -0.3681473 0.7103581
vn -0.5405238 -0.5262747 0.656406
vn 0.3184988 0.5519683 0.7706422
vn -0.6481863 0.2994147 0.7001466
vn -0.5405238 -0.5262747 0.656406
vn -0.599854 -0.7729005 -0.2068812
vn 0.3184988 0.5519683 0.7706422
vn 0.5998825 -0.3681473 0.7103581
g Leg_BR_0
f 3/3/3 2/2/2 1/1/1
f 4/4/4 3/3/3 1/1/1
f 5/5/5 4/4/4 1/1/1
f 6/6/6 4/4/4 5/5/5
f 7/7/7 6/6/6 5/5/5
f 7/7/7 5/5/5 8/8/8
f 9/9/9 7/7/7 8/8/8
f 8/8/8 5/5/5 10/10/10
f 10/10/10 5/5/5 1/1/1
f 11/11/11 8/8/8 10/10/10
f 11/11/11 10/10/10 12/12/12
f 13/13/13 11/11/11 12/12/12
f 13/13/13 12/12/12 14/14/14
f 15/15/15 13/13/13 14/14/14
f 14/14/14 12/12/12 16/16/16
f 12/12/12 17/17/17 16/16/16
f 12/12/12 10/10/10 17/17/17
f 17/17/17 18/18/18 16/16/16
f 18/18/18 19/19/19 16/16/16
f 10/10/10 1/1/1 17/17/17
f 20/20/20 9/9/9 8/8/8
f 21/21/21 20/20/20 8/8/8
f 2/2/2 18/18/18 17/17/17
f 1/1/1 2/2/2 17/17/17
f 18/18/18 22/22/22 19/19/19
f 22/22/22 23/23/23 19/19/19
f 24/24/24 22/22/22 18/18/18
f 2/2/2 24/24/24 18/18/18
f 25/25/25 24/24/24 2/2/2
f 3/3/3 25/25/25 2/2/2
f 26/26/26 25/25/25 3/3/3
f 27/27/27 26/26/26 3/3/3
f 27/27/27 3/3/3 4/4/4
f 6/6/6 27/27/27 4/4/4
f 28/28/28 25/25/25 26/26/26
f 29/29/29 28/28/28 26/26/26
