g Leg_FL
v 0.0007078178 -3.223091E-05 -0.0007808103
v -0.0006829738 6.691783E-05 -0.0007099877
v -0.000201664 -0.001275894 -0.0002542934
v 0.0003490829 -0.001297983 -0.0002629242
v -0.0003863907 -0.00262923 -9.70707E-05
v -1.846313E-05 -0.00262923 -5.961038E-05
v 6.415367E-05 -0.00262923 0.0002727928
v 0.0003201389 -0.00153152 0.0003042259
v 0.0008387279 -6.691754E-05 0.0007808103
v -0.0004111481 -0.00262923 0.0002491035
v -0.0002376652 -0.001599265 0.0002600708
v 0.0003201389 -0.00153152 0.0003042259
v 6.415367E-05 -0.00262923 0.0002727928
v -0.0008387279 -2.039343E-05 0.0006834593
v 0.0008387279 -6.691754E-05 0.0007808103
v -1.846313E-05 -0.00262923 -5.961038E-05
v -0.0003863907 -0.00262923 -9.70707E-05
v 0.0004822186 0.0006156964 0.0004436032
v -0.0004768991 0.0006422974 0.0003879408
v -0.0003878437 0.0006922193 -0.0004087893
v 0.0004073682 0.0006355291 -0.0004492835
v 0.0004822186 0.0006156964 0.0004436032
v -0.0003878437 0.0006922193 -0.0004087893
v 0.0004073682 0.0006355291 -0.0004492835
vt 0.2822125 0.9550296
vt 0.2837835 0.9569457
vt 0.2866235 0.9537988
vt 0.2850678 0.9524807
vt 0.2902681 0.9500756
vt 0.2892241 0.9492814
vt 0.2885088 0.9481983
vt 0.2847623 0.9502536
vt 0.2790975 0.9516963
vt 0.2912469 0.9507386
vt 0.2890212 0.9542094
vt 0.2908022 0.9555397
vt 0.292478 0.9517802
vt 0.2858345 0.9583576
vt 0.2895096 0.9617537
vt 0.2929394 0.9507151
vt 0.2920257 0.9498574
vt 0.2862682 0.9626766
vt 0.284307 0.9598826
vt 0.2826565 0.9581466
vt 0.2808055 0.9566407
vt 0.2781694 0.9548744
vt 0.2820573 0.9616371
vt 0.2834299 0.9641179
vn 0.5919524 0.1474271 -0.7923746
vn -0.6506768 0.06681349 -0.7564096
vn -0.5521996 -0.3404284 -0.7610414
vn 0.3842598 -0.3363979 -0.8597563
vn -0.6436291 -0.4672487 -0.6061519
vn 0.4094812 -0.7050622 -0.5789754
vn 0.5385148 -0.6268484 0.5630835
vn 0.7848114 -0.3165109 0.532815
vn 0.8368129 0.05271615 0.5449452
vn -0.6244091 -0.5406024 0.5637928
vn -0.6830255 -0.1511637 0.7145807
vn 0.7848114 -0.3165109 0.532815
vn 0.5385148 -0.6268484 0.5630835
vn -0.7769275 0.0380142 0.6284413
vn 0.8368129 0.05271615 0.5449452
vn 0.4094812 -0.7050622 -0.5789754
vn -0.6436291 -0.4672487 -0.6061519
vn 0.5583283 0.7658922 0.3188709
vn -0.4301652 0.7944384 0.4287488
vn -0.3561354 0.8240433 -0.4405907
vn 0.4434715 0.7241034 -0.5282115
vn 0.5583283 0.7658922 0.3188709
vn -0.3561354 0.8240433 -0.4405907
vn 0.4434715 0.7241034 -0.5282115
g Leg_FL_0
f 3/3/3 2/2/2 1/1/1
f 4/4/4 3/3/3 1/1/1
f 5/5/5 3/3/3 4/4/4
f 6/6/6 5/5/5 4/4/4
f 6/6/6 4/4/4 7/7/7
f 4/4/4 8/8/8 7/7/7
f 8/8/8 4/4/4 9/9/9
f 1/1/1 9/9/9 4/4/4
f 5/5/5 10/10/10 3/3/3
f 10/10/10 11/11/11 3/3/3
f 12/12/12 11/11/11 10/10/10
f 13/13/13 12/12/12 10/10/10
f 3/3/3 11/11/11 14/14/14
f 2/2/2 3/3/3 14/14/14
f 11/11/11 12/12/12 15/15/15
f 14/14/14 11/11/11 15/15/15
f 16/16/16 13/13/13 10/10/10
f 17/17/17 16/16/16 10/10/10
f 15/15/15 18/18/18 14/14/14
f 18/18/18 19/19/19 14/14/14
f 14/14/14 19/19/19 2/2/2
f 19/19/19 20/20/20 2/2/2
f 2/2/2 20/20/20 1/1/1
f 1/1/1 21/21/21 9/9/9
f 20/20/20 21/21/21 1/1/1
f 21/21/21 22/22/22 9/9/9
f 19/19/19 18/18/18 23/23/23
f 18/18/18 24/24/24 23/23/23
