g MistMeshA2
v -0.00965454 0 -3.927648
v -0.01212173 0 -4.778666
v 0.7473512 0 -4.772376
v 0.5952221 0 -3.922478
v 1.505427 0 -4.725192
v 1.198986 0 -3.883697
v 2.24886 0 -4.578489
v 1.791088 0 -3.763119
v 2.918113 0 -4.240786
v 2.324109 0 -3.485557
v 3.376179 0 -3.661238
v 2.688932 0 -3.009219
v 3.610255 0 -2.963559
v 2.875361 0 -2.435787
v 3.721714 0 -2.235064
v 2.964132 0 -1.837028
v 3.76906 0 -1.501391
v 3.00184 0 -1.234013
v 3.783815 0 -0.7648007
v 3.013592 0 -0.6285996
v 3.785369 0 -0.02891368
v 3.014829 0 -0.02376458
v 3.782036 0 0.707393
v 3.012174 0 0.5814154
v 3.762482 0 1.442896
v 2.9966 0 1.185935
v 2.953643 0 1.790046
v 3.708545 0 2.177903
v 3.592239 0 2.9042
v 2.861012 0 2.387
v 3.360549 0 3.603846
v 2.676484 0 2.962048
v 2.919115 0 4.196012
v 2.324907 0 3.448756
v 2.263416 0 4.557207
v 1.802681 0 3.745628
v 1.523691 0 4.71858
v 1.213532 0 3.878262
v 0.7660548 0 4.771339
v 0.6101184 0 3.921625
v 0.006491238 0 4.778666
v 0.005169621 0 3.927648
v -0.7530028 0 4.772323
v -0.5997238 0 3.922434
v -1.510719 0 4.722522
v -1.203201 0 3.881501
v -2.251883 0 4.565877
v -1.793495 0 3.752753
v -2.910759 0 4.210166
v -2.318253 0 3.46039
v -3.35623 0 3.621452
v -2.673045 0 2.976518
v -3.589974 0 2.922473
v -2.859209 0 2.402018
v -3.707323 0 2.196048
v -2.95267 0 1.80496
v -3.761887 0 1.460998
v -2.996127 0 1.200813
v -3.78185 0 0.7255467
v -3.012027 0 0.5963362
v -3.78537 0 -0.01074998
v -3.01483 0 -0.008835569
v -3.783963 0 -0.7466369
v -3.01371 0 -0.6136706
v -3.769877 0 -1.483189
v -3.002491 0 -1.219053
v -3.724055 0 -2.217268
v -2.965996 0 -1.822401
v -3.615718 0 -2.946151
v -2.879713 0 -2.421479
v -3.387512 0 -3.645902
v -2.697959 0 -2.996614
v -2.938026 0 -4.231429
v -2.33997 0 -3.477867
v -2.272454 0 -4.575506
v -1.809879 0 -3.760668
v -1.529677 0 -4.724637
v -1.2183 0 -3.88324
v -0.7716064 0 -4.772342
v -0.6145405 0 -3.922449
v -0.01212173 0 -4.778666
v -0.00965454 0 -3.927648
v -0.01458892 0 -5.629685
v -0.9286723 0 -5.622235
v -1.841053 0 -5.566034
v -2.735028 0 -5.390345
v -3.536083 0 -4.984992
v -4.077065 0 -4.295191
v -4.351725 0 -3.470822
v -4.482114 0 -2.612134
v -4.537263 0 -1.747326
v -4.554217 0 -0.8796032
v -4.55591 0 -0.01266438
v -4.551674 0 0.8547573
v -4.527646 0 1.721183
v -4.461975 0 2.587136
v -4.32074 0 3.442928
v -4.039415 0 4.266385
v -3.503266 0 4.959942
v -2.71027 0 5.379001
v -1.818236 0 5.563541
v -0.9062818 0 5.622212
v 0.007812859 0 5.629685
v 0.9219911 0 5.621053
v 1.83385 0 5.558898
v 2.724151 0 5.368787
v 3.513322 0 4.943268
v 4.044613 0 4.245645
v 4.323465 0 3.421401
v 4.463448 0 2.565759
v 4.528363 0 1.699858
v 4.551898 0 0.8333707
v 4.55591 0 -0.03406279
v 4.554039 0 -0.9010017
v 4.536281 0 -1.768769
v 4.479298 0 -2.6331
v 4.34515 0 -3.491331
v 4.063425 0 -4.313257
v 3.512117 0 -4.996016
v 2.706632 0 -5.393858
v 1.811869 0 -5.566689
v 0.8994803 0 -5.622273
v -0.01458892 0 -5.629685
vt 1.99989 0
vt 1.99989 0.5
vt 1.898487 0.5012771
vt 1.898961 0
vt 1.792104 0.4236576
vt 1.793911 0
vt 1.679045 0.336702
vt 1.680065 0
vt 1.558231 0.3477201
vt 1.555256 0
vt 1.431469 0.3905951
vt 1.431925 0
vt 1.330779 0.5110129
vt 1.325431 0
vt 1.234158 0.514608
vt 1.232184 0
vt 1.150998 0.517435
vt 1.147387 0
vt 1.078399 0.5503106
vt 1.067241 0
vt 0.997265 0.524498
vt 0.9897024 0
vt 0.9107955 0.5030784
vt 0.9127465 0
vt 0.8421404 0.5368907
vt 0.8344545 0
vt 0.7522734 0
vt 0.7293987 0.6483957
vt 0.6381583 0.6520299
vt 0.6632554 0
vt 0.5612215 0.5719631
vt 0.5621337 0
vt 0.4470271 0.560576
vt 0.4444537 0
vt 0.3233714 0.5256356
vt 0.3218399 0
vt 0.2162858 0.5366262
vt 0.2082131 0
vt 0.1137989 0.5851488
vt 0.1030507 0
vt 0.02339522 0.6301956
vt 0.002061892 0
vt -0.08183545 0.6309053
vt -0.09899498 0
vt -0.1917596 0.589316
vt -0.2043425 0
vt -0.313266 0.5249909
vt -0.3183729 0
vt -0.4440567 0.4543051
vt -0.4414943 -0.0002261901
vt -0.562428 0.3916603
vt -0.557478 -0.01237052
vt -0.6631387 0.3850932
vt -0.6605554 -0.004928525
vt -0.7586636 0.430077
vt -0.7509598 0
vt -0.8354832 0.4740082
vt -0.833284 0
vt -0.9116981 0.498357
vt -0.9116341 0
vt -0.9880481 0.4924867
vt -0.9885984 0
vt -1.062419 0.4584959
vt -1.0661 0
vt -1.143075 0.4516457
vt -1.146153 0
vt -1.222789 0.4163876
vt -1.230836 0
vt -1.320721 0.4331686
vt -1.323838 0
vt -1.43898 0.4095719
vt -1.430066 0
vt -1.539012 0.3498881
vt -1.553487 0
vt -1.677626 0.391934
vt -1.679279 0
vt -1.79513 0.4937356
vt -1.793995 0
vt -1.899574 0.5
vt -1.899574 0
vt -2.000684 0.5
vt -2.000684 0
vt -2.000684 1
vt -1.899574 1
vt -1.793995 1
vt -1.679279 1
vt -1.553487 1
vt -1.430066 1
vt -1.323838 1
vt -1.230836 1
vt -1.146153 1
vt -1.0661 1
vt -0.9885984 1
vt -0.9116341 1
vt -0.833284 1
vt -0.7509598 1
vt -0.6616537 1
vt -0.5600407 1
vt -0.441616 1
vt -0.3183729 1
vt -0.2043425 1
vt -0.09899498 1
vt 0.002061892 1
vt 0.1030507 1
vt 0.2082131 1
vt 0.3218399 1
vt 0.4444537 1
vt 0.5621337 1
vt 0.6632554 1
vt 0.7522734 1
vt 0.8344545 1
vt 0.9127465 1
vt 0.9897024 1
vt 1.067241 1
vt 1.147387 1
vt 1.232184 1
vt 1.325431 1
vt 1.431925 1
vt 1.555256 1
vt 1.680065 1
vt 1.793911 1
vt 1.898961 1
vt 1.99989 1
vn 0 1 0
vn 0 1 0
vn 0 1 0
vn 0 1 0
vn 0 1 0
vn 0 1 0
vn 0 1 0
vn 0 1 0
vn 0 1 0
vn 0 1 0
vn 0 1 0
vn 0 1 0
vn 0 1 0
vn 0 1 0
vn 0 1 0
vn 0 1 0
vn 0 1 0
vn 0 1 0
vn 0 1 0
vn 0 1 0
vn 0 1 0
vn 0 1 0
vn 0 1 0
vn 0 1 0
vn 0 1 0
vn 0 1 0
vn 0 1 0
vn 0 1 0
vn 0 1 0
vn 0 1 0
vn 0 1 0
vn 0 1 0
vn 0 1 0
vn 0 1 0
vn 0 1 0
vn 0 1 0
vn 0 1 0
vn 0 1 0
vn 0 1 0
vn 0 1 0
vn 0 1 0
vn 0 1 0
vn 0 1 0
vn 0 1 0
vn 0 1 0
vn 0 1 0
vn 0 1 0
vn 0 1 0
vn 0 1 0
vn 0 1 0
vn 0 1 0
vn 0 1 0
vn 0 1 0
vn 0 1 0
vn 0 1 0
vn 0 1 0
vn 0 1 0
vn 0 1 0
vn 0 1 0
vn 0 1 0
vn 0 1 0
vn 0 1 0
vn 0 1 0
vn 0 1 0
vn 0 1 0
vn 0 1 0
vn 0 1 0
vn 0 1 0
vn 0 1 0
vn 0 1 0
vn 0 1 0
vn 0 1 0
vn 0 1 0
vn 0 1 0
vn 0 1 0
vn 0 1 0
vn 0 1 0
vn 0 1 0
vn 0 1 0
vn 0 1 0
vn 0 1 0
vn 0 1 0
vn 0 1 0
vn 0 1 0
vn 0 1 0
vn 0 1 0
vn 0 1 0
vn 0 1 0
vn 0 1 0
vn 0 1 0
vn 0 1 0
vn 0 1 0
vn 0 1 0
vn 0 1 0
vn 0 1 0
vn 0 1 0
vn 0 1 0
vn 0 1 0
vn 0 1 0
vn 0 1 0
vn 0 1 0
vn 0 1 0
vn 0 1 0
vn 0 1 0
vn 0 1 0
vn 0 1 0
vn 0 1 0
vn 0 1 0
vn 0 1 0
vn 0 1 0
vn 0 1 0
vn 0 1 0
vn 0 1 0
vn 0 1 0
vn 0 1 0
vn 0 1 0
vn 0 1 0
vn 0 1 0
vn 0 1 0
vn 0 1 0
vn 0 1 0
vn 0 1 0
vn 0 1 0
g MistMeshA2_0
f 3/3/3 2/2/2 1/1/1
f 4/4/4 3/3/3 1/1/1
f 5/5/5 3/3/3 4/4/4
f 6/6/6 5/5/5 4/4/4
f 7/7/7 5/5/5 6/6/6
f 8/8/8 7/7/7 6/6/6
f 9/9/9 7/7/7 8/8/8
f 10/10/10 9/9/9 8/8/8
f 11/11/11 9/9/9 10/10/10
f 12/12/12 11/11/11 10/10/10
f 13/13/13 11/11/11 12/12/12
f 14/14/14 13/13/13 12/12/12
f 15/15/15 13/13/13 14/14/14
f 16/16/16 15/15/15 14/14/14
f 17/17/17 15/15/15 16/16/16
f 18/18/18 17/17/17 16/16/16
f 19/19/19 17/17/17 18/18/18
f 20/20/20 19/19/19 18/18/18
f 21/21/21 19/19/19 20/20/20
f 22/22/22 21/21/21 20/20/20
f 23/23/23 21/21/21 22/22/22
f 24/24/24 23/23/23 22/22/22
f 25/25/25 23/23/23 24/24/24
f 26/26/26 25/25/25 24/24/24
f 26/26/26 27/27/27 25/25/25
f 27/27/27 28/28/28 25/25/25
f 29/29/29 28/28/28 27/27/27
f 30/30/30 29/29/29 27/27/27
f 31/31/31 29/29/29 30/30/30
f 32/32/32 31/31/31 30/30/30
f 33/33/33 31/31/31 32/32/32
f 34/34/34 33/33/33 32/32/32
f 35/35/35 33/33/33 34/34/34
f 36/36/36 35/35/35 34/34/34
f 37/37/37 35/35/35 36/36/36
f 38/38/38 37/37/37 36/36/36
f 39/39/39 37/37/37 38/38/38
f 40/40/40 39/39/39 38/38/38
f 41/41/41 39/39/39 40/40/40
f 42/42/42 41/41/41 40/40/40
f 43/43/43 41/41/41 42/42/42
f 44/44/44 43/43/43 42/42/42
f 45/45/45 43/43/43 44/44/44
f 46/46/46 45/45/45 44/44/44
f 47/47/47 45/45/45 46/46/46
f 48/48/48 47/47/47 46/46/46
f 49/49/49 47/47/47 48/48/48
f 50/50/50 49/49/49 48/48/48
f 51/51/51 49/49/49 50/50/50
f 52/52/52 51/51/51 50/50/50
f 53/53/53 51/51/51 52/52/52
f 54/54/54 53/53/53 52/52/52
f 55/55/55 53/53/53 54/54/54
f 56/56/56 55/55/55 54/54/54
f 57/57/57 55/55/55 56/56/56
f 58/58/58 57/57/57 56/56/56
f 59/59/59 57/57/57 58/58/58
f 60/60/60 59/59/59 58/58/58
f 61/61/61 59/59/59 60/60/60
f 62/62/62 61/61/61 60/60/60
f 63/63/63 61/61/61 62/62/62
f 64/64/64 63/63/63 62/62/62
f 65/65/65 63/63/63 64/64/64
f 66/66/66 65/65/65 64/64/64
f 67/67/67 65/65/65 66/66/66
f 68/68/68 67/67/67 66/66/66
f 69/69/69 67/67/67 68/68/68
f 70/70/70 69/69/69 68/68/68
f 71/71/71 69/69/69 70/70/70
f 72/72/72 71/71/71 70/70/70
f 73/73/73 71/71/71 72/72/72
f 74/74/74 73/73/73 72/72/72
f 75/75/75 73/73/73 74/74/74
f 76/76/76 75/75/75 74/74/74
f 77/77/77 75/75/75 76/76/76
f 78/78/78 77/77/77 76/76/76
f 79/79/79 77/77/77 78/78/78
f 80/80/80 79/79/79 78/78/78
f 81/81/81 79/79/79 80/80/80
f 82/82/82 81/81/81 80/80/80
f 81/81/81 83/83/83 79/79/79
f 83/83/83 84/84/84 79/79/79
f 79/79/79 84/84/84 77/77/77
f 84/84/84 85/85/85 77/77/77
f 77/77/77 85/85/85 75/75/75
f 85/85/85 86/86/86 75/75/75
f 75/75/75 86/86/86 73/73/73
f 86/86/86 87/87/87 73/73/73
f 73/73/73 87/87/87 71/71/71
f 87/87/87 88/88/88 71/71/71
f 71/71/71 88/88/88 69/69/69
f 88/88/88 89/89/89 69/69/69
f 69/69/69 89/89/89 67/67/67
f 89/89/89 90/90/90 67/67/67
f 67/67/67 90/90/90 65/65/65
f 90/90/90 91/91/91 65/65/65
f 65/65/65 91/91/91 63/63/63
f 91/91/91 92/92/92 63/63/63
f 63/63/63 92/92/92 61/61/61
f 92/92/92 93/93/93 61/61/61
f 61/61/61 93/93/93 59/59/59
f 93/93/93 94/94/94 59/59/59
f 59/59/59 94/94/94 57/57/57
f 94/94/94 95/95/95 57/57/57
f 57/57/57 95/95/95 55/55/55
f 95/95/95 96/96/96 55/55/55
f 55/55/55 96/96/96 53/53/53
f 96/96/96 97/97/97 53/53/53
f 53/53/53 97/97/97 51/51/51
f 97/97/97 98/98/98 51/51/51
f 51/51/51 98/98/98 49/49/49
f 98/98/98 99/99/99 49/49/49
f 49/49/49 99/99/99 47/47/47
f 99/99/99 100/100/100 47/47/47
f 47/47/47 100/100/100 45/45/45
f 100/100/100 101/101/101 45/45/45
f 45/45/45 101/101/101 43/43/43
f 101/101/101 102/102/102 43/43/43
f 43/43/43 102/102/102 41/41/41
f 102/102/102 103/103/103 41/41/41
f 41/41/41 103/103/103 39/39/39
f 103/103/103 104/104/104 39/39/39
f 39/39/39 104/104/104 37/37/37
f 104/104/104 105/105/105 37/37/37
f 37/37/37 105/105/105 35/35/35
f 105/105/105 106/106/106 35/35/35
f 35/35/35 106/106/106 33/33/33
f 106/106/106 107/107/107 33/33/33
f 33/33/33 107/107/107 31/31/31
f 107/107/107 108/108/108 31/31/31
f 31/31/31 108/108/108 29/29/29
f 108/108/108 109/109/109 29/29/29
f 29/29/29 109/109/109 28/28/28
f 109/109/109 110/110/110 28/28/28
f 28/28/28 110/110/110 111/111/111
f 25/25/25 28/28/28 111/111/111
f 25/25/25 111/111/111 23/23/23
f 111/111/111 112/112/112 23/23/23
f 23/23/23 112/112/112 21/21/21
f 112/112/112 113/113/113 21/21/21
f 21/21/21 113/113/113 19/19/19
f 113/113/113 114/114/114 19/19/19
f 19/19/19 114/114/114 17/17/17
f 114/114/114 115/115/115 17/17/17
f 17/17/17 115/115/115 15/15/15
f 115/115/115 116/116/116 15/15/15
f 15/15/15 116/116/116 13/13/13
f 116/116/116 117/117/117 13/13/13
f 13/13/13 117/117/117 11/11/11
f 117/117/117 118/118/118 11/11/11
f 11/11/11 118/118/118 9/9/9
f 118/118/118 119/119/119 9/9/9
f 9/9/9 119/119/119 7/7/7
f 119/119/119 120/120/120 7/7/7
f 7/7/7 120/120/120 5/5/5
f 120/120/120 121/121/121 5/5/5
f 5/5/5 121/121/121 3/3/3
f 121/121/121 122/122/122 3/3/3
f 3/3/3 122/122/122 2/2/2
f 122/122/122 123/123/123 2/2/2
