g MshArenaV8_HoleLid02
v -0.3240086 0.1452845 -0.2101674
v 2.212388E-07 0.1452845 -0.0451724
v 3.601558E-08 0.106164 -7.016754E-08
v -0.3413896 0.106164 -0.1971014
v 2.212388E-07 0.1452845 -0.0451724
v 0.3267334 0.1452845 -0.2180689
v 0.3413895 0.106164 -0.1971019
v 3.601558E-08 0.106164 -7.016754E-08
v -0.3413894 -5.592367E-08 -0.1971013
v -0.3413896 0.106164 -0.1971014
v 3.601558E-08 0.106164 -7.016754E-08
v 1.087985E-08 -5.592367E-08 -1.877182E-08
v 2.212388E-07 0.1452845 -0.0451724
v 0.1980416 0.1452845 -0.3432303
v 0.3267334 0.1452845 -0.2180689
v -4.604893E-07 0.1452845 -0.3942027
v -0.2005022 0.1452845 -0.3520127
v -0.3240086 0.1452845 -0.2101674
v 1.087985E-08 -5.592367E-08 -1.877182E-08
v 3.601558E-08 0.106164 -7.016754E-08
v 0.3413895 0.106164 -0.1971019
v 0.3413897 -5.592367E-08 -0.1971014
vt 0.1689831 0.5333281
vt 0.1832958 0.5334853
vt 0.1832206 0.5323067
vt 0.168861 0.5324558
vt 0.1844766 0.5353068
vt 0.1699593 0.5352659
vt 0.1695032 0.5367026
vt 0.1844532 0.5367867
vt 0.1800363 0.4980775
vt 0.1799502 0.5235038
vt 0.1829811 0.5229111
vt 0.1828496 0.497528
vt 0.1814579 0.5378701
vt 0.1789154 0.5197263
vt 0.1776661 0.5215299
vt 0.1810667 0.5183637
vt 0.1833204 0.5194638
vt 0.1850644 0.5211411
vt 0.1828496 0.497528
vt 0.1829811 0.5229111
vt 0.1856855 0.5223834
vt 0.1856628 0.4969788
vn -0.3679247 0.6678672 0.6469814
vn -0.3679247 0.6678673 0.6469813
vn -0.3679247 0.6678672 0.6469814
vn -0.3679246 0.6678672 0.6469813
vn 0.3784536 0.6249826 0.6827662
vn 0.3784536 0.6249825 0.6827662
vn 0.3784536 0.6249825 0.6827662
vn 0.3784536 0.6249826 0.6827662
vn -0.4999995 0 0.8660257
vn -0.4999994 0 0.8660258
vn -0.4999995 0 0.8660257
vn -0.4999994 0 0.8660258
vn 0 1 0
vn 0 1 0
vn 0 1 0
vn 0 1 0
vn 0 1 0
vn 0 1 0
vn 0.5000003 0 0.8660253
vn 0.5000003 0 0.8660253
vn 0.5000003 0 0.8660253
vn 0.5000003 0 0.8660253
g MshArenaV8_HoleLid02_0
f 3/3/3 2/2/2 1/1/1
f 4/4/4 3/3/3 1/1/1
f 7/7/7 6/6/6 5/5/5
f 8/8/8 7/7/7 5/5/5
f 11/11/11 10/10/10 9/9/9
f 12/12/12 11/11/11 9/9/9
f 15/15/15 14/14/14 13/13/13
f 14/14/14 16/16/16 13/13/13
f 16/16/16 17/17/17 13/13/13
f 17/17/17 18/18/18 13/13/13
f 21/21/21 20/20/20 19/19/19
f 22/22/22 21/21/21 19/19/19
