g MshArenaV8_HoleLid01
v -0.3187461 0.1452845 -0.2216477
v -0.0003002211 0.1452845 -0.04351433
v 2.133829E-07 0.106164 -8.363283E-08
v -0.3413894 0.106164 -0.1971012
v -0.0003002211 0.1452845 -0.04351433
v 0.3203521 0.1452845 -0.2133791
v 0.3413894 0.106164 -0.1971018
v 2.133829E-07 0.106164 -8.363283E-08
v -0.3413894 -5.592367E-08 -0.197101
v -0.3413894 0.106164 -0.1971012
v 2.133829E-07 0.106164 -8.363283E-08
v 1.882471E-07 -5.592367E-08 -3.22372E-08
v -0.0003002211 0.1452845 -0.04351433
v 0.1980418 0.1452845 -0.3432304
v 0.3203521 0.1452845 -0.2133791
v -1.490116E-08 0.1452845 -0.3942024
v -0.2005022 0.1452845 -0.3520128
v -0.3187461 0.1452845 -0.2216477
v 1.882471E-07 -5.592367E-08 -3.22372E-08
v 2.133829E-07 0.106164 -8.363283E-08
v 0.3413894 0.106164 -0.1971018
v 0.3413894 -5.592367E-08 -0.1971016
vt 0.1694507 0.5321168
vt 0.1816472 0.5322998
vt 0.1814329 0.5311384
vt 0.1691918 0.5311064
vt 0.1783164 0.5253195
vt 0.1693669 0.5252404
vt 0.1692585 0.5267153
vt 0.178311 0.5267994
vt 0.1800363 0.4980775
vt 0.1799502 0.5235038
vt 0.1829811 0.5229111
vt 0.1828496 0.497528
vt 0.1814631 0.5378875
vt 0.1789154 0.5163677
vt 0.1776661 0.5204005
vt 0.1810667 0.5132817
vt 0.1833204 0.5157731
vt 0.1850644 0.5209118
vt 0.1828496 0.497528
vt 0.1829811 0.5229111
vt 0.1856855 0.5223834
vt 0.1856628 0.4969788
vn -0.3679245 0.6678674 0.6469812
vn -0.3679244 0.6678675 0.6469812
vn -0.3679244 0.6678674 0.6469812
vn -0.3679245 0.6678675 0.6469811
vn 0.3784544 0.6249813 0.682767
vn 0.3784544 0.6249812 0.6827669
vn 0.3784544 0.6249813 0.6827669
vn 0.3784544 0.6249813 0.682767
vn -0.4999994 0 0.8660258
vn -0.4999994 0 0.8660258
vn -0.4999994 0 0.8660258
vn -0.4999994 0 0.8660258
vn 0 1 0
vn 0 1 0
vn 0 1 0
vn 0 1 0
vn 0 1 0
vn 0 1 0
vn 0.500001 0 0.8660249
vn 0.500001 0 0.8660249
vn 0.500001 0 0.8660249
vn 0.500001 0 0.8660249
g MshArenaV8_HoleLid01_0
f 3/3/3 2/2/2 1/1/1
f 4/4/4 3/3/3 1/1/1
f 7/7/7 6/6/6 5/5/5
f 8/8/8 7/7/7 5/5/5
f 11/11/11 10/10/10 9/9/9
f 12/12/12 11/11/11 9/9/9
f 15/15/15 14/14/14 13/13/13
f 14/14/14 16/16/16 13/13/13
f 16/16/16 17/17/17 13/13/13
f 17/17/17 18/18/18 13/13/13
f 21/21/21 20/20/20 19/19/19
f 22/22/22 21/21/21 19/19/19
