g MshBombDispenser02
v 0.3822762 0.9590441 -0.1915161
v 0.2435553 0.2883097 -0.08705792
v 0.1971719 0.2883093 -0.1673962
v 0.3583221 0.9590441 -0.2330058
v 0.2734269 0.2992638 -0.1132566
v 0.2106694 0.2992638 -0.08726208
v 0.1612395 0.2992638 -0.1612391
v 0.209272 0.2992638 -0.2092717
v 0.08726221 0.2992638 -0.2106692
v 0.1132572 0.2992638 -0.2734266
v 1.096068E-07 0.2992638 -0.2280271
v 1.411884E-07 0.2992638 -0.2959551
v -0.08726205 0.2992635 -0.2106692
v -0.1132571 0.2992638 -0.2734269
v -0.1612394 0.2992637 -0.1612391
v -0.2092718 0.2992637 -0.2092721
v -0.2106694 0.2992637 -0.08726208
v -0.2734269 0.2992637 -0.113257
v -0.2280269 0.2992638 1.417345E-15
v -0.2959551 0.2992637 1.417345E-15
v -0.2106694 0.2992636 0.08726245
v -0.2734269 0.2992637 0.113257
v -0.1612395 0.2992636 0.1612394
v -0.209272 0.2992635 0.2092721
v -0.08726218 0.2992636 0.2106695
v -0.1132572 0.2992638 0.2734269
v -7.022266E-08 0.2992637 0.2280271
v -6.947955E-08 0.2992637 0.2959554
v -6.947955E-08 0.2992637 0.2959554
v -7.022266E-08 0.2992637 0.2280271
v 0.08726208 0.2992638 0.2106695
v 0.1132571 0.2992638 0.2734273
v 0.1612394 0.2992638 0.1612394
v 0.2092718 0.2992638 0.2092721
v 0.2106694 0.2992638 0.08726245
v 0.2734269 0.2992638 0.1132574
v 0.2280269 0.2992636 1.417345E-15
v 0.2959551 0.2992638 1.417345E-15
v 0.2106694 0.2992638 -0.08726208
v 0.1828364 0.2345236 -0.07592686
v 0.1399776 0.2345237 -0.1400699
v 0.1612395 0.2992638 -0.1612391
v 0.07583481 0.2345237 -0.1829286
v 0.08726221 0.2992638 -0.2106692
v 0.0001732244 0.2345234 -0.1979787
v 1.096068E-07 0.2992638 -0.2280271
v -0.07548841 0.2345237 -0.182929
v -0.08726205 0.2992635 -0.2106692
v -0.1396313 0.2345235 -0.1400699
v -0.1612394 0.2992637 -0.1612391
v -0.1824902 0.2345236 -0.07592686
v -0.2106694 0.2992637 -0.08726208
v -0.1975402 0.2345235 -0.0002651846
v -0.2280269 0.2992638 1.417345E-15
v -0.1824902 0.2345236 0.07539611
v -0.2106694 0.2992636 0.08726245
v -0.1396314 0.2345237 0.1395388
v -0.1612395 0.2992636 0.1612394
v -0.07548852 0.2345237 0.1823979
v -0.08726218 0.2992636 0.2106695
v 0.0001730643 0.2345233 0.197448
v -7.022266E-08 0.2992637 0.2280271
v -7.022266E-08 0.2992637 0.2280271
v 0.0001730643 0.2345233 0.197448
v 0.07583469 0.2345235 0.1823979
v 0.08726208 0.2992638 0.2106695
v 0.1399775 0.2345237 0.1395392
v 0.1612394 0.2992638 0.1612394
v 0.1828364 0.2345236 0.07539611
v 0.2106694 0.2992638 0.08726245
v 0.1978864 0.2345239 -0.0002651846
v 0.2280269 0.2992636 1.417345E-15
v -0.1751427 0.269102 0.1751427
v -0.1751427 0.264951 0.1050856
v -0.1008578 0.2536091 0.1050856
v -0.1050856 0.2649512 0.1751427
v -0.03502853 0.2476958 0.1050856
v -0.03502853 0.2621128 0.1751427
v -0.03502853 0.2476958 0.1050856
v 0.03502853 0.2476956 0.1050856
v 0.03502853 0.2621126 0.1751427
v -0.03502853 0.2621128 0.1751427
v -0.03887693 0.2404911 0.03685663
v 0.03502853 0.2404912 0.03502853
v 0.03502853 0.2684505 0.2217054
v -0.03502853 0.2684509 0.2217054
v 0.03502853 0.2621126 0.1751427
v 0.03502853 0.2476956 0.1050856
v 0.1026164 0.2536092 0.104478
v 0.1050856 0.2649509 0.1751427
v 0.1751427 0.2649508 0.1050856
v 0.1751427 0.2691022 0.1751427
v -0.1751427 0.264951 0.1050856
v -0.1751427 0.2621128 0.03502853
v -0.09649274 0.2476958 0.03502853
v -0.1008578 0.2536091 0.1050856
v -0.1012689 0.2476958 -0.03502853
v -0.1751427 0.2621128 -0.03502853
v -0.1050856 0.2536091 -0.1050856
v -0.1751427 0.264951 -0.1050856
v 0.1026164 0.2536092 0.104478
v 0.1012889 0.2476961 0.03502853
v 0.1751427 0.2621128 0.03502853
v 0.1751427 0.2649508 0.1050856
v 0.1751427 0.2621128 -0.03502853
v 0.1038419 0.2476961 -0.03502853
v 0.1751427 0.2649508 -0.1050856
v 0.1050856 0.2536092 -0.1050856
v -0.09649274 0.2476958 0.03502853
v -0.1012689 0.2476958 -0.03502853
v -0.03707954 0.2404911 -0.0373522
v -0.03887693 0.2404911 0.03685663
v 0.03811782 0.2404912 -0.03792018
v 0.03502853 0.2404912 0.03502853
v 0.1038419 0.2476961 -0.03502853
v 0.1012889 0.2476961 0.03502853
v 0.1751427 0.2621128 0.03502853
v 0.1751427 0.2621128 -0.03502853
v 0.2451997 0.2861226 -0.03502853
v 0.2451997 0.2861226 0.03502853
v -0.03502853 0.2476958 -0.1050856
v 0.03951992 0.2476956 -0.1050856
v 0.03811782 0.2404912 -0.03792018
v -0.03707954 0.2404911 -0.0373522
v -0.03502853 0.2621128 -0.1751427
v 0.0406162 0.2621126 -0.1751427
v 0.03502853 0.2693388 -0.2451997
v -0.03502853 0.2693387 -0.2451997
v -0.1751427 0.264951 -0.1050856
v -0.1751427 0.269102 -0.1751427
v -0.1050856 0.2649512 -0.1751427
v -0.1050856 0.2536091 -0.1050856
v -0.03502853 0.2621128 -0.1751427
v -0.03502853 0.2476958 -0.1050856
v 0.03951992 0.2476956 -0.1050856
v 0.0406162 0.2621126 -0.1751427
v 0.1050856 0.2649509 -0.1751427
v 0.1050856 0.2536092 -0.1050856
v 0.1751427 0.2691022 -0.1751427
v 0.1751427 0.2649508 -0.1050856
v -0.2253787 0.2847381 -0.03502853
v -0.1751427 0.2621128 -0.03502853
v -0.1751427 0.2621128 0.03502853
v -0.2253787 0.2847381 0.03502853
v 0.209272 0.2992638 -0.2092717
v 0.2159592 0.253661 -0.2159589
v 0.2821642 0.253661 -0.1168757
v 0.2734269 0.2992638 -0.1132566
v 0.1132572 0.2992638 -0.2734266
v 0.1168763 0.253661 -0.2821638
v 1.411884E-07 0.2992638 -0.2959551
v 1.448976E-07 0.2536609 -0.3054122
v -0.1132571 0.2992638 -0.2734269
v -0.1168761 0.2536609 -0.2821642
v -0.2092718 0.2992637 -0.2092721
v -0.2159591 0.253661 -0.2159593
v -0.2734269 0.2992637 -0.113257
v -0.2821641 0.2536613 -0.1168761
v -0.2959551 0.2992637 1.417345E-15
v -0.3054123 0.253661 -6.078829E-09
v -0.2734269 0.2992637 0.113257
v -0.2821642 0.2536613 0.1168761
v -0.209272 0.2992635 0.2092721
v -0.2159592 0.2536611 0.2159593
v -0.1132572 0.2992638 0.2734269
v -0.1168763 0.2536609 0.2821642
v -6.947955E-08 0.2992637 0.2959554
v -7.494103E-08 0.253661 0.3054126
v 0.1132571 0.2992638 0.2734273
v 0.1168762 0.2536612 0.2821646
v -7.494103E-08 0.253661 0.3054126
v -6.947955E-08 0.2992637 0.2959554
v 0.2092718 0.2992638 0.2092721
v 0.2159591 0.253661 0.2159593
v 0.2734269 0.2992638 0.1132574
v 0.2821641 0.253661 0.1168765
v 0.2959551 0.2992638 1.417345E-15
v 0.3054123 0.2536613 -6.078829E-09
v -0.3590673 0.9590441 -0.2317154
v -0.1969733 0.2883098 -0.1677403
v -0.2437539 0.2883094 -0.08671384
v -0.3788786 0.9590441 -0.1974011
v -0.02297722 0.9590441 0.4268189
v -0.04747575 0.2883095 0.2544539
v 0.04747575 0.2883092 0.2544539
v 0.02032456 0.9590441 0.4268189
vt 0.7344994 0.9258797
vt 0.7344994 0.9116893
vt 0.7259373 0.9116893
vt 0.7259373 0.9258797
vt 0.7482991 0.9240716
vt 0.7483004 0.9200402
vt 0.7471361 0.9200398
vt 0.7471361 0.9240712
vt 0.7459718 0.9200397
vt 0.745973 0.9240711
vt 0.7447039 0.9200394
vt 0.7447039 0.9240707
vt 0.7434359 0.9200391
vt 0.7434347 0.9240705
vt 0.7422715 0.9200388
vt 0.7422715 0.9240703
vt 0.7411073 0.9200386
vt 0.7411085 0.9240701
vt 0.7398394 0.9200382
vt 0.7398394 0.9240696
vt 0.7385815 0.920038
vt 0.7385703 0.9240693
vt 0.7374814 0.9200392
vt 0.7374814 0.9240706
vt 0.7363814 0.9200408
vt 0.7363924 0.9240723
vt 0.7351232 0.9200408
vt 0.7351232 0.9240723
vt 0.7544327 0.9240721
vt 0.7544327 0.9200408
vt 0.7531648 0.9200407
vt 0.7531635 0.9240721
vt 0.7520004 0.9200408
vt 0.7520004 0.9240723
vt 0.7508362 0.9200406
vt 0.7508373 0.924072
vt 0.7495682 0.9200404
vt 0.7495682 0.9240717
vt 0.7483004 0.9200402
vt 0.7484239 0.911175
vt 0.7471355 0.911175
vt 0.7471361 0.9200398
vt 0.7458471 0.911175
vt 0.7459718 0.9200397
vt 0.7447058 0.911175
vt 0.7447039 0.9200394
vt 0.7435646 0.911175
vt 0.7434359 0.9200391
vt 0.7422742 0.911175
vt 0.7422715 0.9200388
vt 0.7409837 0.911175
vt 0.7411073 0.9200386
vt 0.7398425 0.911175
vt 0.7398394 0.9200382
vt 0.738716 0.911175
vt 0.7385815 0.920038
vt 0.737482 0.911175
vt 0.7374814 0.9200392
vt 0.7362478 0.911175
vt 0.7363814 0.9200408
vt 0.7351213 0.911175
vt 0.7351232 0.9200408
vt 0.7544327 0.9200408
vt 0.7544307 0.911175
vt 0.7532894 0.911175
vt 0.7531648 0.9200407
vt 0.751998 0.911175
vt 0.7520004 0.9200408
vt 0.7507065 0.911175
vt 0.7508362 0.9200406
vt 0.7495652 0.911175
vt 0.7495682 0.9200404
vt 0.7259373 0.9289803
vt 0.7344994 0.9289803
vt 0.7344994 0.9195065
vt 0.7259373 0.9195065
vt 0.7344994 0.9100608
vt 0.7259373 0.9100608
vt 0.7259373 0.9227527
vt 0.7344994 0.9227527
vt 0.7344994 0.916489
vt 0.7259373 0.916489
vt 0.7259373 0.9289803
vt 0.7344994 0.9289803
vt 0.7344994 0.9100608
vt 0.7259373 0.9100608
vt 0.7344994 0.9100608
vt 0.7259373 0.9100608
vt 0.7259373 0.9195065
vt 0.7344994 0.9195065
vt 0.7259373 0.9289803
vt 0.7344994 0.9289803
vt 0.7259373 0.9100608
vt 0.7259373 0.9164316
vt 0.7344994 0.9164316
vt 0.7344994 0.9100608
vt 0.7344994 0.9227645
vt 0.7259373 0.9227645
vt 0.7344994 0.9289803
vt 0.7259373 0.9289803
vt 0.7259373 0.9100608
vt 0.7259373 0.9164316
vt 0.7344994 0.9164316
vt 0.7344994 0.9100608
vt 0.7344994 0.9227645
vt 0.7259373 0.9227645
vt 0.7344994 0.9289803
vt 0.7259373 0.9289803
vt 0.7259373 0.9289803
vt 0.7344994 0.9289803
vt 0.7344994 0.9226425
vt 0.7259373 0.9226425
vt 0.7344994 0.9164222
vt 0.7259373 0.9164222
vt 0.7344994 0.9100608
vt 0.7259373 0.9100608
vt 0.7344994 0.9100608
vt 0.7259373 0.9100608
vt 0.7259373 0.9164222
vt 0.7344994 0.9164222
vt 0.7259373 0.916489
vt 0.7344994 0.916489
vt 0.7344994 0.9100608
vt 0.7259373 0.9100608
vt 0.7259373 0.9227527
vt 0.7344994 0.9227527
vt 0.7344994 0.9289803
vt 0.7259373 0.9289803
vt 0.7344994 0.9100608
vt 0.7259373 0.9100608
vt 0.7259373 0.919553
vt 0.7344994 0.919553
vt 0.7259373 0.9289803
vt 0.7344994 0.9289803
vt 0.7259373 0.9289803
vt 0.7344994 0.9289803
vt 0.7344994 0.919553
vt 0.7259373 0.919553
vt 0.7344994 0.9100608
vt 0.7259373 0.9100608
vt 0.7344994 0.9164222
vt 0.7344994 0.9100608
vt 0.7259373 0.9100608
vt 0.7259373 0.9164222
vt 0.7471361 0.9240712
vt 0.7471361 0.9286786
vt 0.7482312 0.9286788
vt 0.7482991 0.9240716
vt 0.745973 0.9240711
vt 0.7460409 0.9286783
vt 0.7447039 0.9240707
vt 0.7447039 0.9286781
vt 0.7434347 0.9240705
vt 0.7433668 0.9286778
vt 0.7422715 0.9240703
vt 0.7422715 0.9286777
vt 0.7411085 0.9240701
vt 0.7411763 0.9286773
vt 0.7398394 0.9240696
vt 0.7398393 0.928677
vt 0.7385703 0.9240693
vt 0.7385024 0.9286766
vt 0.7374814 0.9240706
vt 0.7374814 0.9286779
vt 0.7363924 0.9240723
vt 0.7364602 0.9286796
vt 0.7351232 0.9240723
vt 0.7351232 0.9286796
vt 0.7531635 0.9240721
vt 0.7530956 0.9286795
vt 0.7544327 0.9286796
vt 0.7544327 0.9240721
vt 0.7520004 0.9240723
vt 0.7520004 0.9286796
vt 0.7508373 0.924072
vt 0.7509051 0.9286793
vt 0.7495682 0.9240717
vt 0.7495682 0.928679
vt 0.7344994 0.9258797
vt 0.7344994 0.9116893
vt 0.7259373 0.9116893
vt 0.7259373 0.9258797
vt 0.7344994 0.9258797
vt 0.7344994 0.9116893
vt 0.7259373 0.9116893
vt 0.7259373 0.9258797
vn -0.8387728 0.2488925 0.4842651
vn -0.8387728 0.2488925 0.4842651
vn -0.8387728 0.2488925 0.4842651
vn -0.8387728 0.2488925 0.4842651
vn 0 1 0
vn 0 1 0
vn 0 1 0
vn 0 1 0
vn 0 1 0
vn 0 1 0
vn 0 1 0
vn 0 1 0
vn 0 1 0
vn 0 1 0
vn 0 1 0
vn 0 1 0
vn 0 1 0
vn 0 1 0
vn 0 1 0
vn 0 1 0
vn 0 1 0
vn 0 1 0
vn 0 1 0
vn 0 1 0
vn 0 1 0
vn 0 1 0
vn 0 1 0
vn 0 1 0
vn 0 1 0
vn 0 1 0
vn 0 1 0
vn 0 1 0
vn 0 1 0
vn 0 1 0
vn 0 1 0
vn 0 1 0
vn 0 1 0
vn 0 1 0
vn -0.8381099 0.4210448 0.3468332
vn -0.837893 0.4210435 0.3473582
vn -0.6414888 0.4204817 0.6416286
vn -0.641636 0.420482 0.6414812
vn -0.347294 0.4204663 0.8382095
vn -0.3471229 0.4204665 0.8382801
vn -0.0002624158 0.4209979 0.9070616
vn 0.0002873372 0.420999 0.907061
vn 0.3465779 0.421991 0.8377394
vn 0.3473446 0.4219938 0.8374205
vn 0.640303 0.4232981 0.6409609
vn 0.6409972 0.4233019 0.6402641
vn 0.836233 0.4247186 0.3468841
vn 0.8366083 0.4247224 0.345973
vn 0.9047072 0.4260336 0.0003969343
vn 0.9047059 0.4260364 -0.0004410317
vn 0.835502 0.4270463 -0.3457859
vn 0.8352848 0.4270476 -0.3463087
vn 0.6392702 0.4276026 -0.639132
vn 0.6391241 0.4276027 -0.6392779
vn 0.3458508 0.4276175 -0.8351829
vn 0.3460209 0.4276176 -0.8351124
vn -0.0002593683 0.4270901 -0.904209
vn 0.0002871588 0.4270914 -0.9042085
vn 0.0002871588 0.4270914 -0.9042085
vn -0.0002593683 0.4270901 -0.904209
vn -0.3465662 0.4261 -0.8356617
vn -0.3458024 0.4261028 -0.8359768
vn -0.6404635 0.4247981 -0.6398072
vn -0.6397686 0.4248019 -0.6404993
vn -0.8371692 0.4233806 -0.3462608
vn -0.8367894 0.4233845 -0.347173
vn -0.9065669 0.4220621 0.0003982881
vn -0.9065655 0.4220649 -0.0004430654
vn 0.1061178 0.9886746 -0.1061208
vn 0.1368591 0.9873033 -0.08063292
vn 0.1142211 0.9871494 -0.111757
vn 0.08624472 0.9863928 -0.1399681
vn 0.01979323 0.9868284 -0.1605553
vn 0.02340868 0.9840126 -0.1765538
vn 0.01979323 0.9868284 -0.1605553
vn -0.02124851 0.9866645 -0.1613745
vn -0.02365301 0.984003 -0.1765745
vn 0.02340868 0.9840126 -0.1765538
vn 0.03502888 0.9987526 -0.03558541
vn -0.03334271 0.9988375 -0.0348134
vn 0 0.9908628 -0.1348734
vn 0 0.9908628 -0.1348734
vn -0.02365301 0.984003 -0.1765745
vn -0.02124851 0.9866645 -0.1613745
vn -0.1156985 0.9866524 -0.1145897
vn -0.08606109 0.9861987 -0.1414415
vn -0.1400123 0.9866204 -0.08352701
vn -0.1069521 0.9884947 -0.1069554
vn 0.1368591 0.9873033 -0.08063292
vn 0.2386542 0.9708242 -0.0233331
vn 0.1577398 0.9872291 -0.02228823
vn 0.1142211 0.9871494 -0.111757
vn 0.1627894 0.9865389 0.01551604
vn 0.2437848 0.9696639 0.01791435
vn 0.1170428 0.9864926 0.1146012
vn 0.1430619 0.9862521 0.08270509
vn -0.1156985 0.9866524 -0.1145897
vn -0.1595377 0.9869257 -0.02292111
vn -0.2311327 0.9726883 -0.02133067
vn -0.1400123 0.9866204 -0.08352701
vn -0.233719 0.9721287 0.01846813
vn -0.1623212 0.9865907 0.01704264
vn -0.1443121 0.9859163 0.08451627
vn -0.1201326 0.9861084 0.1147104
vn 0.1577398 0.9872291 -0.02228823
vn 0.1627894 0.9865389 0.01551604
vn 0.03398734 0.9988106 0.03495987
vn 0.03502888 0.9987526 -0.03558541
vn -0.03375451 0.9988231 0.03482672
vn -0.03334271 0.9988375 -0.0348134
vn -0.1623212 0.9865907 0.01704264
vn -0.1595377 0.9869257 -0.02292111
vn -0.2311327 0.9726883 -0.02133067
vn -0.233719 0.9721287 0.01846813
vn -0.3242074 0.945986 0
vn -0.3242074 0.945986 0
vn 0.01973483 0.9863977 0.1631876
vn -0.01992427 0.9863725 0.1633167
vn -0.03375451 0.9988231 0.03482672
vn 0.03398734 0.9988106 0.03495987
vn 0.01987303 0.9865486 0.1622559
vn -0.02091494 0.9864712 0.1625949
vn 0 0.9947227 0.1026003
vn 0 0.9947227 0.1026003
vn 0.1430619 0.9862521 0.08270509
vn 0.1092444 0.9879932 0.1092472
vn 0.08540364 0.9857495 0.1449285
vn 0.1170428 0.9864926 0.1146012
vn 0.01987303 0.9865486 0.1622559
vn 0.01973483 0.9863977 0.1631876
vn -0.01992427 0.9863725 0.1633167
vn -0.02091494 0.9864712 0.1625949
vn -0.08857446 0.9857048 0.1433199
vn -0.1201326 0.9861084 0.1147104
vn -0.1092452 0.987993 0.1092486
vn -0.1443121 0.9859163 0.08451627
vn 0.4106526 0.9117919 0
vn 0.2437848 0.9696639 0.01791435
vn 0.2386542 0.9708242 -0.0233331
vn 0.4106526 0.9117919 0
vn 0.6923755 0.203061 -0.6923745
vn 0.6923755 0.203061 -0.6923744
vn 0.9046314 0.203061 -0.3747109
vn 0.9046314 0.203061 -0.3747109
vn 0.374711 0.2030607 -0.9046314
vn 0.3747111 0.2030608 -0.9046314
vn 0 0.2030607 -0.9791661
vn 0 0.2030607 -0.9791661
vn -0.3747095 0.203061 -0.904632
vn -0.3747095 0.203061 -0.904632
vn -0.6923749 0.2030618 -0.6923748
vn -0.6923748 0.2030618 -0.6923749
vn -0.9046313 0.2030621 -0.3747105
vn -0.9046313 0.2030621 -0.3747105
vn -0.9791659 0.2030621 0
vn -0.9791659 0.2030621 0
vn -0.9046316 0.2030624 0.3747097
vn -0.9046316 0.2030624 0.3747097
vn -0.6923747 0.2030623 0.6923749
vn -0.6923745 0.2030623 0.6923749
vn -0.3747107 0.2030611 0.9046315
vn -0.3747106 0.2030611 0.9046315
vn 0 0.2030609 0.9791661
vn 0 0.2030609 0.9791661
vn 0.3747111 0.2030614 0.9046312
vn 0.374711 0.2030614 0.9046312
vn 0 0.2030609 0.9791661
vn 0 0.2030609 0.9791661
vn 0.6923752 0.2030613 0.6923746
vn 0.6923754 0.2030613 0.6923745
vn 0.9046313 0.2030614 0.3747109
vn 0.9046312 0.2030614 0.374711
vn 0.979166 0.2030614 0
vn 0.979166 0.2030614 0
vn 0.8387724 0.2488925 0.4842657
vn 0.8387724 0.2488925 0.4842657
vn 0.8387724 0.2488926 0.4842658
vn 0.8387724 0.2488925 0.4842657
vn 0 0.2488925 -0.9685311
vn 0 0.2488925 -0.9685311
vn 0 0.2488925 -0.9685311
vn 0 0.2488925 -0.9685311
g MshBombDispenser02_0
f 3/3/3 2/2/2 1/1/1
f 4/4/4 3/3/3 1/1/1
f 7/7/7 6/6/6 5/5/5
f 8/8/8 7/7/7 5/5/5
f 9/9/9 7/7/7 8/8/8
f 10/10/10 9/9/9 8/8/8
f 11/11/11 9/9/9 10/10/10
f 12/12/12 11/11/11 10/10/10
f 13/13/13 11/11/11 12/12/12
f 14/14/14 13/13/13 12/12/12
f 15/15/15 13/13/13 14/14/14
f 16/16/16 15/15/15 14/14/14
f 17/17/17 15/15/15 16/16/16
f 18/18/18 17/17/17 16/16/16
f 19/19/19 17/17/17 18/18/18
f 20/20/20 19/19/19 18/18/18
f 21/21/21 19/19/19 20/20/20
f 22/22/22 21/21/21 20/20/20
f 23/23/23 21/21/21 22/22/22
f 24/24/24 23/23/23 22/22/22
f 25/25/25 23/23/23 24/24/24
f 26/26/26 25/25/25 24/24/24
f 27/27/27 25/25/25 26/26/26
f 28/28/28 27/27/27 26/26/26
f 31/31/31 30/30/30 29/29/29
f 32/32/32 31/31/31 29/29/29
f 33/33/33 31/31/31 32/32/32
f 34/34/34 33/33/33 32/32/32
f 35/35/35 33/33/33 34/34/34
f 36/36/36 35/35/35 34/34/34
f 37/37/37 35/35/35 36/36/36
f 38/38/38 37/37/37 36/36/36
f 6/6/6 37/37/37 38/38/38
f 5/5/5 6/6/6 38/38/38
f 41/41/41 40/40/40 39/39/39
f 42/42/42 41/41/41 39/39/39
f 43/43/43 41/41/41 42/42/42
f 44/44/44 43/43/43 42/42/42
f 45/45/45 43/43/43 44/44/44
f 46/46/46 45/45/45 44/44/44
f 47/47/47 45/45/45 46/46/46
f 48/48/48 47/47/47 46/46/46
f 49/49/49 47/47/47 48/48/48
f 50/50/50 49/49/49 48/48/48
f 51/51/51 49/49/49 50/50/50
f 52/52/52 51/51/51 50/50/50
f 53/53/53 51/51/51 52/52/52
f 54/54/54 53/53/53 52/52/52
f 55/55/55 53/53/53 54/54/54
f 56/56/56 55/55/55 54/54/54
f 57/57/57 55/55/55 56/56/56
f 58/58/58 57/57/57 56/56/56
f 59/59/59 57/57/57 58/58/58
f 60/60/60 59/59/59 58/58/58
f 61/61/61 59/59/59 60/60/60
f 62/62/62 61/61/61 60/60/60
f 65/65/65 64/64/64 63/63/63
f 66/66/66 65/65/65 63/63/63
f 67/67/67 65/65/65 66/66/66
f 68/68/68 67/67/67 66/66/66
f 69/69/69 67/67/67 68/68/68
f 70/70/70 69/69/69 68/68/68
f 71/71/71 69/69/69 70/70/70
f 72/72/72 71/71/71 70/70/70
f 40/40/40 71/71/71 72/72/72
f 39/39/39 40/40/40 72/72/72
f 75/75/75 74/74/74 73/73/73
f 76/76/76 75/75/75 73/73/73
f 77/77/77 75/75/75 76/76/76
f 78/78/78 77/77/77 76/76/76
f 81/81/81 80/80/80 79/79/79
f 82/82/82 81/81/81 79/79/79
f 79/79/79 80/80/80 83/83/83
f 80/80/80 84/84/84 83/83/83
f 85/85/85 81/81/81 82/82/82
f 86/86/86 85/85/85 82/82/82
f 89/89/89 88/88/88 87/87/87
f 90/90/90 89/89/89 87/87/87
f 91/91/91 89/89/89 90/90/90
f 92/92/92 91/91/91 90/90/90
f 95/95/95 94/94/94 93/93/93
f 96/96/96 95/95/95 93/93/93
f 95/95/95 97/97/97 94/94/94
f 97/97/97 98/98/98 94/94/94
f 97/97/97 99/99/99 98/98/98
f 99/99/99 100/100/100 98/98/98
f 103/103/103 102/102/102 101/101/101
f 104/104/104 103/103/103 101/101/101
f 103/103/103 105/105/105 102/102/102
f 105/105/105 106/106/106 102/102/102
f 105/105/105 107/107/107 106/106/106
f 107/107/107 108/108/108 106/106/106
f 111/111/111 110/110/110 109/109/109
f 112/112/112 111/111/111 109/109/109
f 113/113/113 111/111/111 112/112/112
f 114/114/114 113/113/113 112/112/112
f 115/115/115 113/113/113 114/114/114
f 116/116/116 115/115/115 114/114/114
f 119/119/119 118/118/118 117/117/117
f 120/120/120 119/119/119 117/117/117
f 123/123/123 122/122/122 121/121/121
f 124/124/124 123/123/123 121/121/121
f 121/121/121 122/122/122 125/125/125
f 122/122/122 126/126/126 125/125/125
f 125/125/125 126/126/126 127/127/127
f 128/128/128 125/125/125 127/127/127
f 131/131/131 130/130/130 129/129/129
f 132/132/132 131/131/131 129/129/129
f 133/133/133 131/131/131 132/132/132
f 134/134/134 133/133/133 132/132/132
f 137/137/137 136/136/136 135/135/135
f 138/138/138 137/137/137 135/135/135
f 139/139/139 137/137/137 138/138/138
f 140/140/140 139/139/139 138/138/138
f 143/143/143 142/142/142 141/141/141
f 144/144/144 143/143/143 141/141/141
f 147/147/147 146/146/146 145/145/145
f 148/148/148 147/147/147 145/145/145
f 145/145/145 146/146/146 149/149/149
f 146/146/146 150/150/150 149/149/149
f 149/149/149 150/150/150 151/151/151
f 150/150/150 152/152/152 151/151/151
f 151/151/151 152/152/152 153/153/153
f 152/152/152 154/154/154 153/153/153
f 153/153/153 154/154/154 155/155/155
f 154/154/154 156/156/156 155/155/155
f 155/155/155 156/156/156 157/157/157
f 156/156/156 158/158/158 157/157/157
f 157/157/157 158/158/158 159/159/159
f 158/158/158 160/160/160 159/159/159
f 159/159/159 160/160/160 161/161/161
f 160/160/160 162/162/162 161/161/161
f 161/161/161 162/162/162 163/163/163
f 162/162/162 164/164/164 163/163/163
f 163/163/163 164/164/164 165/165/165
f 164/164/164 166/166/166 165/165/165
f 165/165/165 166/166/166 167/167/167
f 166/166/166 168/168/168 167/167/167
f 171/171/171 170/170/170 169/169/169
f 172/172/172 171/171/171 169/169/169
f 169/169/169 170/170/170 173/173/173
f 170/170/170 174/174/174 173/173/173
f 173/173/173 174/174/174 175/175/175
f 174/174/174 176/176/176 175/175/175
f 175/175/175 176/176/176 177/177/177
f 176/176/176 178/178/178 177/177/177
f 177/177/177 178/178/178 148/148/148
f 178/178/178 147/147/147 148/148/148
f 181/181/181 180/180/180 179/179/179
f 182/182/182 181/181/181 179/179/179
f 185/185/185 184/184/184 183/183/183
f 186/186/186 185/185/185 183/183/183
