g MshBombDispenserArm01
v 0.02870831 0.8045803 0.1989534
v -0.4738233 0.8045803 0.1989534
v -0.4738233 0.7681825 0.1989534
v 0.02870828 0.7681825 0.1989534
v 0.02870831 0.8227791 0.2304749
v -0.4738233 0.8227791 0.2304749
v 0.02870831 0.8045803 0.2619962
v -0.4738233 0.8045803 0.2619962
v 0.02870828 0.7681825 0.2619962
v -0.4738233 0.7681825 0.2619962
v 0.02870828 0.7499837 0.2304749
v -0.4738233 0.7499837 0.2304749
v -0.4738233 0.7499837 0.2304749
v 0.02870828 0.7499837 0.2304749
v -0.4738233 0.7499837 0.2304749
v -0.4738233 0.8227791 0.2304749
v -0.4738233 0.8045803 0.2619962
v -0.4738233 0.7681825 0.2619962
v -0.4738233 0.8045803 0.1989534
v -0.4738233 0.7681825 0.1989534
v 0.02870828 0.7681825 0.1989534
v 0.02870828 0.7499837 0.2304749
v 0.02870831 0.8227791 0.2304749
v 0.02870831 0.8045803 0.1989534
v 0.02870831 0.8045803 0.2619962
v 0.02870828 0.7681825 0.2619962
v -0.3436792 0.6948274 0.1776162
v -0.1014358 0.6948274 0.1776162
v -0.1014358 0.7335227 0.138921
v -0.3436792 0.7335228 0.138921
v -0.3436792 0.6806639 0.2304749
v -0.1014358 0.6806639 0.2304749
v -0.3436792 0.7335228 0.138921
v -0.1014358 0.7335227 0.138921
v -0.1014358 0.7863814 0.1247575
v -0.3436792 0.7863814 0.1247575
v -0.3436792 0.7863814 0.1247575
v -0.1014358 0.7863814 0.1247575
v -0.1014358 0.8392401 0.138921
v -0.3436792 0.8392401 0.138921
v -0.1014358 0.8779355 0.1776162
v -0.3436792 0.8779353 0.1776162
v -0.1014358 0.8920988 0.2304749
v -0.3436792 0.8920988 0.2304749
v -0.1014358 0.8779355 0.2833336
v -0.3436792 0.8779353 0.2833336
v -0.1014358 0.8392401 0.3220288
v -0.3436792 0.8392401 0.3220288
v -0.1014358 0.7863814 0.3361923
v -0.3436792 0.7863814 0.3361923
v -0.3436792 0.7863814 0.3361923
v -0.1014358 0.7863814 0.3361923
v -0.1014358 0.7335227 0.3220288
v -0.3436792 0.7335228 0.3220288
v -0.3436792 0.7335228 0.3220288
v -0.1014358 0.7335227 0.3220288
v -0.1014358 0.6948274 0.2833336
v -0.3436792 0.6948274 0.2833336
v -0.1014358 0.6806639 0.2304749
v -0.3436792 0.6806639 0.2304749
v -0.3436792 0.6948274 0.1776162
v -0.3436792 0.7335228 0.3220288
v -0.3436792 0.6948274 0.2833336
v -0.3436792 0.6806639 0.2304749
v -0.3436792 0.7863814 0.3361923
v -0.3436792 0.7335228 0.138921
v -0.3436792 0.8392401 0.3220288
v -0.3436792 0.7863814 0.1247575
v -0.3436792 0.8779353 0.2833336
v -0.3436792 0.8392401 0.138921
v -0.3436792 0.8920988 0.2304749
v -0.3436792 0.8779353 0.1776162
v -0.1014358 0.8779355 0.2833336
v -0.1014358 0.8920988 0.2304749
v -0.1014358 0.8779355 0.1776162
v -0.1014358 0.8392401 0.138921
v -0.1014358 0.8392401 0.3220288
v -0.1014358 0.7863814 0.1247575
v -0.1014358 0.7863814 0.3361923
v -0.1014358 0.7335227 0.138921
v -0.1014358 0.6948274 0.1776162
v -0.1014358 0.7335227 0.3220288
v -0.1014358 0.6948274 0.2833336
v -0.1014358 0.6806639 0.2304749
v -0.4451152 0.8303887 0.2826499
v -0.4451152 0.8418915 0.1865068
v -0.3579339 0.8418915 0.1865069
v -0.3579339 0.8303887 0.2826499
v -0.3579339 0 0.238499
v -0.4451152 0 0.238499
v -0.4451152 0.8303887 0.2826499
v -0.3579339 0.8303887 0.2826499
v -0.3579339 0 -5.960464E-08
v -0.3579339 0 0.238499
v -0.3579339 0.8303887 0.2826499
v -0.3579339 0.8418915 0.1865069
v -0.4451152 0 -5.960464E-08
v -0.3579339 0 -5.960464E-08
v -0.3579339 0.8418915 0.1865069
v -0.4451152 0.8418915 0.1865068
v -0.4451152 0.8303887 0.2826499
v -0.4451152 0 0.238499
v -0.4451152 0 -5.960464E-08
v -0.4451152 0.8418915 0.1865068
v 0 0.8303887 0.2826499
v -0.08718127 0.8303887 0.2826499
v -0.08718127 0.8418915 0.1865069
v 0 0.8418915 0.1865069
v -0.08718127 0 0.238499
v -0.08718127 0.8303887 0.2826499
v 0 0.8303887 0.2826499
v -2.980232E-08 0 0.238499
v -0.08718129 0 -5.960464E-08
v -0.08718127 0.8418915 0.1865069
v -0.08718127 0.8303887 0.2826499
v -0.08718127 0 0.238499
v 0 0 0
v 0 0.8418915 0.1865069
v -0.08718127 0.8418915 0.1865069
v -0.08718129 0 -5.960464E-08
v 0 0.8303887 0.2826499
v 0 0.8418915 0.1865069
v 0 0 0
v -2.980232E-08 0 0.238499
vt 0.7307848 0.912297
vt 0.7307848 0.9269423
vt 0.7318456 0.9269423
vt 0.7318456 0.912297
vt 0.7298662 0.912297
vt 0.7298662 0.9269423
vt 0.7289476 0.912297
vt 0.7289476 0.9269423
vt 0.7278869 0.912297
vt 0.7278869 0.9269423
vt 0.7269682 0.912297
vt 0.7269682 0.9269423
vt 0.7327642 0.9269423
vt 0.7327642 0.912297
vt 0.7323759 0.927861
vt 0.7302545 0.927861
vt 0.7307848 0.9287796
vt 0.7318456 0.9287796
vt 0.7307848 0.9269423
vt 0.7318456 0.9269423
vt 0.7318456 0.912297
vt 0.7323759 0.9113784
vt 0.7302545 0.9113784
vt 0.7307848 0.912297
vt 0.7307848 0.9104598
vt 0.7318456 0.9104598
vt 0.7743927 1.918218
vt 0.7554706 1.918218
vt 0.7554706 1.920323
vt 0.7743927 1.920323
vt 0.7743927 1.915341
vt 0.7554706 1.915341
vt 0.7743927 1.920323
vt 0.7554706 1.920323
vt 0.7554706 1.914653
vt 0.7743927 1.914653
vt 0.7743927 1.914653
vt 0.7554706 1.914653
vt 0.7554706 1.91678
vt 0.7743927 1.91678
vt 0.7554704 1.918886
vt 0.7743927 1.918886
vt 0.7554704 1.921762
vt 0.7743927 1.921762
vt 0.7554704 1.924638
vt 0.7743927 1.924638
vt 0.7554704 1.926744
vt 0.7743927 1.926744
vt 0.7554704 1.928622
vt 0.7743927 1.928622
vt 0.7743927 1.928622
vt 0.7554704 1.928622
vt 0.7554704 1.922672
vt 0.7743927 1.922672
vt 0.7743927 1.922672
vt 0.7554704 1.922672
vt 0.7554704 1.925213
vt 0.7743927 1.925213
vt 0.7554704 1.927871
vt 0.7743927 1.927871
vt 0.775463 1.919953
vt 0.7841877 1.914755
vt 0.7809396 1.914755
vt 0.7773656 1.916658
vt 0.7877618 1.916658
vt 0.7754631 1.923759
vt 0.7896645 1.919953
vt 0.7773658 1.927054
vt 0.7896646 1.923759
vt 0.7806613 1.928957
vt 0.787762 1.927054
vt 0.7844665 1.928957
vt 0.7896645 1.920086
vt 0.7877619 1.91679
vt 0.7844664 1.914888
vt 0.7806611 1.914888
vt 0.7896645 1.923891
vt 0.7773656 1.91679
vt 0.7877618 1.927186
vt 0.7754629 1.920086
vt 0.7754629 1.923891
vt 0.7841877 1.929089
vt 0.7809396 1.929089
vt 0.7773656 1.927186
vt 0.7128186 1.919381
vt 0.7128184 1.918478
vt 0.7244555 1.918478
vt 0.7244557 1.919381
vt 0.7244563 1.927177
vt 0.7128192 1.927177
vt 0.7128186 1.919381
vt 0.7244557 1.919381
vt 0.7127525 1.914062
vt 0.7169958 1.914062
vt 0.7177813 1.928836
vt 0.7160707 1.929041
vt 0.7128184 1.910574
vt 0.7244555 1.910574
vt 0.7244555 1.918478
vt 0.7128184 1.918478
vt 0.7107295 1.928583
vt 0.7115058 1.913983
vt 0.7156991 1.913983
vt 0.7124199 1.928785
vt 0.7128186 1.919381
vt 0.7244557 1.919381
vt 0.7244555 1.918478
vt 0.7128184 1.918478
vt 0.7244563 1.927177
vt 0.7244557 1.919381
vt 0.7128186 1.919381
vt 0.7128192 1.927177
vt 0.7127525 1.914062
vt 0.7160707 1.929041
vt 0.7177813 1.928836
vt 0.7169958 1.914062
vt 0.7128184 1.910574
vt 0.7128184 1.918478
vt 0.7244555 1.918478
vt 0.7244555 1.910574
vt 0.7107295 1.928583
vt 0.7124199 1.928785
vt 0.7156991 1.913983
vt 0.7115058 1.913983
vn 0 0.5000018 -0.8660244
vn 0 0.5000016 -0.8660246
vn 0 -0.500001 -0.8660248
vn 0 -0.5000008 -0.8660249
vn 0 1 0
vn 0 1 0
vn 0 0.5000004 0.8660251
vn 0 0.5000002 0.8660253
vn 0 -0.4999994 0.8660258
vn 0 -0.4999996 0.8660256
vn 0 -1 0
vn 0 -1 0
vn 0 -1 0
vn 0 -1 0
vn -1 0 0
vn -1 0 0
vn -1 0 0
vn -1 0 0
vn -1 0 0
vn -1 0 0
vn 1 0 0
vn 1 0 0
vn 1 0 0
vn 1 0 0
vn 1 0 0
vn 1 0 0
vn 0 -0.8660249 -0.500001
vn 0 -0.8660249 -0.5000009
vn 0 -0.4999996 -0.8660256
vn 0 -0.4999995 -0.8660257
vn 0 -1 0
vn 0 -1 0
vn 0 -0.4999995 -0.8660257
vn 0 -0.4999996 -0.8660256
vn 0 0 -1
vn 0 0 -1
vn 0 0 -1
vn 0 0 -1
vn 0 0.4999993 -0.8660258
vn 0 0.4999993 -0.8660258
vn 0 0.8660253 -0.5000001
vn 0 0.8660253 -0.5000001
vn 0 1 0
vn 0 1 0
vn 0 0.8660253 0.5000001
vn 0 0.8660253 0.5000001
vn 0 0.4999993 0.8660258
vn 0 0.4999993 0.8660258
vn 0 0 1
vn 0 0 1
vn 0 0 1
vn 0 0 1
vn 0 -0.4999996 0.8660256
vn 0 -0.4999995 0.8660257
vn 0 -0.4999995 0.8660257
vn 0 -0.4999996 0.8660256
vn 0 -0.8660249 0.5000009
vn 0 -0.8660249 0.500001
vn 0 -1 0
vn 0 -1 0
vn -1 0 0
vn -1 0 0
vn -1 0 0
vn -1 0 0
vn -1 0 0
vn -1 0 0
vn -1 0 0
vn -1 0 0
vn -1 0 0
vn -1 0 0
vn -1 0 0
vn -1 0 0
vn 1 0 0
vn 1 0 0
vn 1 0 0
vn 1 0 0
vn 1 0 0
vn 1 0 0
vn 1 0 0
vn 1 0 0
vn 1 0 0
vn 1 0 0
vn 1 0 0
vn 1 0 0
vn 0 0.9929186 0.1187964
vn 0 0.9929186 0.1187964
vn 0 0.9929186 0.1187964
vn 0 0.9929186 0.1187964
vn 0 -0.05309391 0.9985895
vn 0 -0.05309391 0.9985895
vn 0 -0.05309391 0.9985895
vn 0 -0.05309391 0.9985895
vn 1 0 0
vn 1 0 0
vn 1 0 0
vn 1 0 0
vn 0 0.2162893 -0.9763293
vn 0 0.2162893 -0.9763293
vn 0 0.2162893 -0.9763293
vn 0 0.2162893 -0.9763293
vn -1 0 0
vn -1 0 0
vn -1 0 0
vn -1 0 0
vn 0 0.9929187 0.1187958
vn 0 0.9929187 0.1187958
vn 0 0.9929187 0.1187958
vn 0 0.9929187 0.1187958
vn 0 -0.05309394 0.9985895
vn 0 -0.05309394 0.9985895
vn 0 -0.05309395 0.9985895
vn 0 -0.05309394 0.9985895
vn -1 0 0
vn -1 0 0
vn -1 0 0
vn -1 0 0
vn 0 0.2162893 -0.9763293
vn 0 0.2162893 -0.9763293
vn 0 0.2162893 -0.9763293
vn 0 0.2162893 -0.9763293
vn 1 0 0
vn 1 0 0
vn 1 0 0
vn 1 0 0
g MshBombDispenserArm01_0
f 3/3/3 2/2/2 1/1/1
f 4/4/4 3/3/3 1/1/1
f 1/1/1 2/2/2 5/5/5
f 2/2/2 6/6/6 5/5/5
f 5/5/5 6/6/6 7/7/7
f 6/6/6 8/8/8 7/7/7
f 7/7/7 8/8/8 9/9/9
f 8/8/8 10/10/10 9/9/9
f 9/9/9 10/10/10 11/11/11
f 10/10/10 12/12/12 11/11/11
f 13/13/13 3/3/3 4/4/4
f 14/14/14 13/13/13 4/4/4
f 17/17/17 16/16/16 15/15/15
f 18/18/18 17/17/17 15/15/15
f 16/16/16 19/19/19 15/15/15
f 19/19/19 20/20/20 15/15/15
f 23/23/23 22/22/22 21/21/21
f 24/24/24 23/23/23 21/21/21
f 23/23/23 25/25/25 22/22/22
f 25/25/25 26/26/26 22/22/22
f 29/29/29 28/28/28 27/27/27
f 30/30/30 29/29/29 27/27/27
f 27/27/27 28/28/28 31/31/31
f 28/28/28 32/32/32 31/31/31
f 35/35/35 34/34/34 33/33/33
f 36/36/36 35/35/35 33/33/33
f 39/39/39 38/38/38 37/37/37
f 40/40/40 39/39/39 37/37/37
f 41/41/41 39/39/39 40/40/40
f 42/42/42 41/41/41 40/40/40
f 43/43/43 41/41/41 42/42/42
f 44/44/44 43/43/43 42/42/42
f 45/45/45 43/43/43 44/44/44
f 46/46/46 45/45/45 44/44/44
f 47/47/47 45/45/45 46/46/46
f 48/48/48 47/47/47 46/46/46
f 49/49/49 47/47/47 48/48/48
f 50/50/50 49/49/49 48/48/48
f 53/53/53 52/52/52 51/51/51
f 54/54/54 53/53/53 51/51/51
f 57/57/57 56/56/56 55/55/55
f 58/58/58 57/57/57 55/55/55
f 59/59/59 57/57/57 58/58/58
f 60/60/60 59/59/59 58/58/58
f 63/63/63 62/62/62 61/61/61
f 64/64/64 63/63/63 61/61/61
f 62/62/62 65/65/65 61/61/61
f 65/65/65 66/66/66 61/61/61
f 65/65/65 67/67/67 66/66/66
f 67/67/67 68/68/68 66/66/66
f 67/67/67 69/69/69 68/68/68
f 69/69/69 70/70/70 68/68/68
f 69/69/69 71/71/71 70/70/70
f 71/71/71 72/72/72 70/70/70
f 75/75/75 74/74/74 73/73/73
f 76/76/76 75/75/75 73/73/73
f 76/76/76 73/73/73 77/77/77
f 78/78/78 76/76/76 77/77/77
f 78/78/78 77/77/77 79/79/79
f 80/80/80 78/78/78 79/79/79
f 80/80/80 79/79/79 81/81/81
f 79/79/79 82/82/82 81/81/81
f 82/82/82 83/83/83 81/81/81
f 83/83/83 84/84/84 81/81/81
f 87/87/87 86/86/86 85/85/85
f 88/88/88 87/87/87 85/85/85
f 91/91/91 90/90/90 89/89/89
f 92/92/92 91/91/91 89/89/89
f 95/95/95 94/94/94 93/93/93
f 96/96/96 95/95/95 93/93/93
f 99/99/99 98/98/98 97/97/97
f 100/100/100 99/99/99 97/97/97
f 103/103/103 102/102/102 101/101/101
f 104/104/104 103/103/103 101/101/101
f 107/107/107 106/106/106 105/105/105
f 108/108/108 107/107/107 105/105/105
f 111/111/111 110/110/110 109/109/109
f 112/112/112 111/111/111 109/109/109
f 115/115/115 114/114/114 113/113/113
f 116/116/116 115/115/115 113/113/113
f 119/119/119 118/118/118 117/117/117
f 120/120/120 119/119/119 117/117/117
f 123/123/123 122/122/122 121/121/121
f 124/124/124 123/123/123 121/121/121
