g MshFireBallHinge01
v 0.574433 0.03066742 0.05311756
v 0.5744328 -0.03066745 0.05311756
v 0.3840912 -0.03066739 0.05311756
v 0.3840912 0.03066748 0.05311756
v 0.5744327 0.06133491 7.265729E-09
v 0.3840914 0.06133491 7.265729E-09
v 0.574433 0.03066748 -0.05311756
v 0.3840912 0.03066748 -0.05311756
v 0.3840912 -0.03066739 -0.05311756
v 0.5744328 -0.03066739 -0.05311756
v 0.5744327 -0.06133491 -1.873905E-09
v 0.3840914 -0.06133482 -1.873906E-09
v 0.3840914 -0.06133482 -1.873906E-09
v 0.5744327 -0.06133491 -1.873905E-09
v 0.5744327 0.06133491 7.265729E-09
v 0.5744327 -0.06133491 -1.873905E-09
v 0.5744328 -0.03066745 0.05311756
v 0.574433 0.03066742 0.05311756
v 0.574433 0.03066748 -0.05311756
v 0.5744328 -0.03066739 -0.05311756
v -0.574433 0.03066742 -0.05311756
v -0.5744328 -0.03066745 -0.05311756
v -0.3840912 -0.03066739 -0.05311756
v -0.3840912 0.03066748 -0.05311756
v -0.5744327 0.06133491 -7.265728E-09
v -0.3840914 0.06133491 -7.265728E-09
v -0.574433 0.03066748 0.05311756
v -0.3840912 0.03066748 0.05311756
v -0.3840912 -0.03066739 0.05311756
v -0.5744328 -0.03066739 0.05311756
v -0.5744327 -0.06133491 1.873906E-09
v -0.3840914 -0.06133482 1.873906E-09
v -0.3840914 -0.06133482 1.873906E-09
v -0.5744327 -0.06133491 1.873906E-09
v -0.5744327 0.06133491 -7.265728E-09
v -0.5744327 -0.06133491 1.873906E-09
v -0.5744328 -0.03066745 -0.05311756
v -0.574433 0.03066742 -0.05311756
v -0.574433 0.03066748 0.05311756
v -0.5744328 -0.03066739 0.05311756
vt 0.8004587 0.9219183
vt 0.8027406 0.9219183
vt 0.8028196 0.9154627
vt 0.8004587 0.9154627
vt 0.798414 0.9219183
vt 0.798414 0.9154627
vt 0.7963694 0.9219183
vt 0.7963694 0.9154627
vt 0.7940197 0.9154626
vt 0.7939973 0.9219183
vt 0.7920207 0.9219047
vt 0.7919863 0.9154486
vt 0.8048643 0.9154627
vt 0.8049433 0.9219183
vt 0.8030699 0.9218717
vt 0.8035778 0.9209616
vt 0.8030876 0.9209616
vt 0.8028072 0.9214166
vt 0.8035954 0.9218717
vt 0.8038582 0.9214166
vt 0.8004587 0.9219183
vt 0.8027406 0.9219183
vt 0.8028196 0.9154627
vt 0.8004587 0.9154627
vt 0.798414 0.9219183
vt 0.798414 0.9154627
vt 0.7963694 0.9219183
vt 0.7963694 0.9154627
vt 0.7940197 0.9154626
vt 0.7939973 0.9219183
vt 0.7920207 0.9219047
vt 0.7919863 0.9154486
vt 0.8048643 0.9154627
vt 0.8049433 0.9219183
vt 0.8030699 0.9218717
vt 0.8035778 0.9209616
vt 0.8030876 0.9209616
vt 0.8028072 0.9214166
vt 0.8035954 0.9218717
vt 0.8038582 0.9214166
vn 0 0.4999991 0.8660259
vn 0 -0.4999987 0.8660262
vn 0 -0.4999991 0.866026
vn 0 0.4999993 0.8660258
vn 0 1 0
vn 0 1 0
vn 0 0.4999995 -0.8660257
vn 0 0.4999994 -0.8660258
vn 0 -0.499999 -0.866026
vn 0 -0.4999985 -0.8660263
vn 0 -1 0
vn 0 -1 0
vn 0 -1 0
vn 0 -1 0
vn 1 0 0
vn 1 0 0
vn 1 0 0
vn 1 0 0
vn 1 0 0
vn 1 0 0
vn 0 0.4999991 -0.8660259
vn 0 -0.4999987 -0.8660262
vn 0 -0.4999991 -0.866026
vn 0 0.4999993 -0.8660258
vn 0 1 0
vn 0 1 0
vn 0 0.4999995 0.8660257
vn 0 0.4999994 0.8660258
vn 0 -0.499999 0.866026
vn 0 -0.4999985 0.8660263
vn 0 -1 0
vn 0 -1 0
vn 0 -1 0
vn 0 -1 0
vn -1 0 0
vn -1 0 0
vn -1 0 0
vn -1 0 0
vn -1 0 0
vn -1 0 0
g MshFireBallHinge01_0
f 3/3/3 2/2/2 1/1/1
f 4/4/4 3/3/3 1/1/1
f 1/1/1 5/5/5 4/4/4
f 5/5/5 6/6/6 4/4/4
f 5/5/5 7/7/7 6/6/6
f 7/7/7 8/8/8 6/6/6
f 8/8/8 7/7/7 9/9/9
f 7/7/7 10/10/10 9/9/9
f 10/10/10 11/11/11 9/9/9
f 11/11/11 12/12/12 9/9/9
f 2/2/2 3/3/3 13/13/13
f 14/14/14 2/2/2 13/13/13
f 17/17/17 16/16/16 15/15/15
f 18/18/18 17/17/17 15/15/15
f 15/15/15 16/16/16 19/19/19
f 16/16/16 20/20/20 19/19/19
f 23/23/23 22/22/22 21/21/21
f 24/24/24 23/23/23 21/21/21
f 21/21/21 25/25/25 24/24/24
f 25/25/25 26/26/26 24/24/24
f 25/25/25 27/27/27 26/26/26
f 27/27/27 28/28/28 26/26/26
f 28/28/28 27/27/27 29/29/29
f 27/27/27 30/30/30 29/29/29
f 30/30/30 31/31/31 29/29/29
f 31/31/31 32/32/32 29/29/29
f 22/22/22 23/23/23 33/33/33
f 34/34/34 22/22/22 33/33/33
f 37/37/37 36/36/36 35/35/35
f 38/38/38 37/37/37 35/35/35
f 35/35/35 36/36/36 39/39/39
f 36/36/36 40/40/40 39/39/39
