g MshSpringPillarPartA
v 0.5332466 -0.2637594 -0.1732621
v 0.5332466 3.278255E-07 -0.1732621
v 0.4536069 3.278255E-07 -0.3295643
v 0.4536069 -0.2637594 -0.3295643
v 0.3295645 3.278255E-07 -0.4536067
v 0.3295645 -0.2637594 -0.4536067
v 0.5606886 -0.2637594 8.237363E-08
v 0.5606886 3.278255E-07 8.237363E-08
v 0.1732623 3.278255E-07 -0.5332464
v 0.1732623 -0.2637594 -0.5332464
v 3.592117E-08 3.278255E-07 -0.5606881
v 3.592117E-08 -0.2637594 -0.5606881
v 0.3827704 3.278255E-07 -0.2780987
v 0 2.980232E-08 7.105427E-15
v 0.2780989 3.278255E-07 -0.3827702
v 0.3827704 3.278255E-07 -0.2780987
v 0.4536069 3.278255E-07 -0.3295643
v 0.5332466 3.278255E-07 -0.1732621
v 0.4499733 3.278255E-07 -0.1462051
v 0.2780989 3.278255E-07 -0.3827702
v 0.3295645 3.278255E-07 -0.4536067
v 0.5606886 3.278255E-07 8.237363E-08
v 0.4731298 3.278255E-07 7.816092E-08
v 0.1462052 3.278255E-07 -0.4499731
v 0.1732623 3.278255E-07 -0.5332464
v 3.712643E-08 3.278255E-07 -0.4731295
v 3.592117E-08 3.278255E-07 -0.5606881
v 0.4499733 3.278255E-07 -0.1462051
v 0.4499733 -0.2637594 -0.1462051
v 0.3827704 -0.2637594 -0.2780987
v 0.3827704 3.278255E-07 -0.2780987
v 0.4731298 3.278255E-07 7.816092E-08
v 0.4731298 -0.2637594 7.816092E-08
v 0.2780989 3.278255E-07 -0.3827702
v 0.2780989 -0.2637594 -0.3827702
v 0.1462052 -0.2637594 -0.4499731
v 0.1462052 3.278255E-07 -0.4499731
v 3.712643E-08 -0.2637594 -0.4731295
v 3.712643E-08 3.278255E-07 -0.4731295
v 3.712643E-08 3.278255E-07 -0.4731295
v 3.712643E-08 -0.2637594 -0.4731295
v 3.592117E-08 -0.2637594 -0.5606881
v 3.592117E-08 3.278255E-07 -0.5606881
v 0.5606886 3.278255E-07 8.237363E-08
v 0.5606886 -0.2637594 8.237363E-08
v 0.4731298 -0.2637594 7.816092E-08
v 0.4731298 3.278255E-07 7.816092E-08
vt 0.6342151 0.248805
vt 0.6341176 0.2617997
vt 0.6390131 0.2617997
vt 0.6392109 0.2488049
vt 0.6434691 0.2617997
vt 0.6431763 0.248805
vt 0.6286767 0.2488035
vt 0.6286209 0.2617993
vt 0.6483123 0.2618004
vt 0.6481721 0.248805
vt 0.6537278 0.2617998
vt 0.6537106 0.248805
vt 0.2505102 0.4202176
vt 0.2466044 0.3926338
vt 0.2417951 0.4200743
vt 0.6389139 0.2660605
vt 0.6390131 0.2617997
vt 0.6341176 0.2617997
vt 0.6340408 0.2660613
vt 0.6433902 0.2660604
vt 0.6434691 0.2617997
vt 0.6286209 0.2617993
vt 0.6290033 0.2660609
vt 0.6483035 0.2660617
vt 0.6483123 0.2618004
vt 0.6533077 0.2660598
vt 0.6537278 0.2617998
vt 0.6212049 0.2618003
vt 0.6212049 0.2488047
vt 0.6169891 0.2488047
vt 0.6169882 0.2617993
vt 0.6258771 0.2617991
vt 0.6258771 0.2488035
vt 0.6653986 0.2618005
vt 0.6653991 0.2488049
vt 0.6611831 0.248805
vt 0.6611829 0.2617995
vt 0.6565099 0.2488044
vt 0.6565094 0.2617997
vt 0.6565094 0.2617997
vt 0.6565099 0.2488044
vt 0.6537106 0.248805
vt 0.6537278 0.2617998
vt 0.6286209 0.2617993
vt 0.6286767 0.2488035
vt 0.6258771 0.2488035
vt 0.6258771 0.2617991
vn 0.9510568 0 -0.3090163
vn 0.9510568 0 -0.3090163
vn 0.8090173 0 -0.5877849
vn 0.8090173 0 -0.5877849
vn 0.5877849 0 -0.8090172
vn 0.5877849 0 -0.8090172
vn 0.9876884 0 -0.1564341
vn 0.9876884 0 -0.1564341
vn 0.3090155 0 -0.951057
vn 0.3090155 0 -0.951057
vn 0.1564326 0 -0.9876887
vn 0.1564326 0 -0.9876887
vn 0 1 0
vn 0 1 0
vn 0 1 0
vn 0 1 0
vn 0 1 0
vn 0 1 0
vn 0 1 0
vn 0 1 0
vn 0 1 0
vn 0 1 0
vn 0 1 0
vn 0 1 0
vn 0 1 0
vn 0 1 0
vn 0 1 0
vn -0.9510569 0 0.3090157
vn -0.9510569 0 0.3090157
vn -0.8910072 0 0.453989
vn -0.8910072 0 0.453989
vn -0.9876885 0 0.1564337
vn -0.9876885 0 0.1564337
vn -0.4539889 0 0.8910074
vn -0.4539889 0 0.8910074
vn -0.3090156 0 0.951057
vn -0.3090156 0 0.951057
vn -0.1564333 0 0.9876886
vn -0.1564333 0 0.9876886
vn -1 0 0
vn -1 0 0
vn -1 0 0
vn -1 0 0
vn 0 0 1
vn 0 0 1
vn 0 0 1
vn 0 0 1
g MshSpringPillarPartA_0
f 3/3/3 2/2/2 1/1/1
f 4/4/4 3/3/3 1/1/1
f 5/5/5 3/3/3 4/4/4
f 6/6/6 5/5/5 4/4/4
f 1/1/1 2/2/2 7/7/7
f 2/2/2 8/8/8 7/7/7
f 5/5/5 6/6/6 9/9/9
f 6/6/6 10/10/10 9/9/9
f 11/11/11 9/9/9 10/10/10
f 12/12/12 11/11/11 10/10/10
f 15/15/15 14/14/14 13/13/13
f 18/18/18 17/17/17 16/16/16
f 19/19/19 18/18/18 16/16/16
f 16/16/16 17/17/17 20/20/20
f 17/17/17 21/21/21 20/20/20
f 22/22/22 18/18/18 19/19/19
f 23/23/23 22/22/22 19/19/19
f 20/20/20 21/21/21 24/24/24
f 21/21/21 25/25/25 24/24/24
f 24/24/24 25/25/25 26/26/26
f 25/25/25 27/27/27 26/26/26
f 30/30/30 29/29/29 28/28/28
f 31/31/31 30/30/30 28/28/28
f 28/28/28 29/29/29 32/32/32
f 29/29/29 33/33/33 32/32/32
f 36/36/36 35/35/35 34/34/34
f 37/37/37 36/36/36 34/34/34
f 38/38/38 36/36/36 37/37/37
f 39/39/39 38/38/38 37/37/37
f 42/42/42 41/41/41 40/40/40
f 43/43/43 42/42/42 40/40/40
f 46/46/46 45/45/45 44/44/44
f 47/47/47 46/46/46 44/44/44
