g MshSpiral
v -0.2279864 0.08786814 3.57549E-09
v -0.01172605 0.8499371 -0.12674
v 0.3594774 0.6742014 -0.3418249
v 0.2008848 -0.08786781 1.125715E-08
v 0.2709263 1.361008 -0.5892853
v 0.03132876 1.536744 -0.218492
v -0.02436488 1.784085 -0.6740672
v -0.01326117 1.959821 -0.249927
v -0.3565845 2.207162 -0.5727656
v -0.1322228 2.382898 -0.212367
v -0.5970312 2.630239 -0.3133461
v -0.221364 2.805975 -0.1161807
v -0.6734767 3.053316 0.03257607
v -0.2497081 3.229052 0.0120784
v -0.5640017 3.476393 0.3695052
v -0.2091175 3.652129 0.1370032
v -0.2988279 3.89947 0.6044286
v -0.1107978 4.075205 0.2241068
v 0.04884055 4.322546 0.6724929
v 0.01810886 4.498282 0.2493433
v 0.3830261 4.745624 0.5549082
v 0.1420164 4.921359 0.2057458
v 0.6114731 5.1687 0.284135
v 0.2267187 5.344436 0.10535
v 0.6711163 5.591777 -0.06507667
v 0.2488329 5.767513 -0.0241288
v 0.5454905 6.014854 -0.3963233
v 0.202254 6.19059 -0.1469466
vt 2.980232E-08 0
vt 2.980232E-08 0.07692304
vt 1 0.07692304
vt 1 0
vt 1 0.1538461
vt 2.980232E-08 0.1538461
vt 1 0.2307692
vt 2.980232E-08 0.2307692
vt 1 0.3076923
vt 2.980232E-08 0.3076923
vt 1 0.3846154
vt 2.980232E-08 0.3846154
vt 1 0.4615384
vt 2.980232E-08 0.4615384
vt 1 0.5384616
vt 2.980232E-08 0.5384616
vt 1 0.6153846
vt 2.980232E-08 0.6153846
vt 1 0.6923077
vt 2.980232E-08 0.6923077
vt 1 0.7692308
vt 2.980232E-08 0.7692308
vt 1 0.8461539
vt 2.980232E-08 0.8461539
vt 1 0.923077
vt 2.980232E-08 0.923077
vt 1 1
vt 2.980232E-08 1
vn 0.3355103 0.20046 0.9204611
vn 0.5558172 0.1986886 0.8072113
vn 0.5129904 0.2000607 0.8347554
vn 0.3355103 0.2004601 0.9204611
vn 0.818707 0.2512374 0.5163319
vn 0.8637595 0.2929306 0.4100137
vn 0.8903509 0.4377577 -0.1250736
vn 0.8518126 0.4596651 -0.2512433
vn 0.6444988 0.4938425 -0.5837301
vn 0.5673975 0.4957412 -0.6574959
vn 0.2562431 0.4992138 -0.8277228
vn 0.1549243 0.4992317 -0.8525059
vn -0.1987902 0.4994832 -0.8432076
vn -0.2985565 0.4994031 -0.8133022
vn -0.5988235 0.4994833 -0.6260406
vn -0.6696582 0.4994032 -0.5496857
vn -0.8335451 0.4994833 -0.2360485
vn -0.8558936 0.4994032 -0.1343223
vn -0.8381577 0.4994834 0.2191076
vn -0.8058503 0.4994032 0.3181222
vn -0.6113876 0.4994833 0.6137766
vn -0.5333431 0.4994033 0.6827456
vn -0.2158373 0.4994833 0.8390058
vn -0.1136008 0.4994032 0.8588896
vn 0.2392973 0.4994833 0.8326183
vn 0.3375023 0.4994033 0.7979277
vn 0.4961533 0.4867756 0.7189446
vn 0.4961533 0.4867757 0.7189446
g MshSpiral_0
f 3/3/3 2/2/2 1/1/1
f 4/4/4 3/3/3 1/1/1
f 3/3/3 5/5/5 2/2/2
f 5/5/5 6/6/6 2/2/2
f 5/5/5 7/7/7 6/6/6
f 7/7/7 8/8/8 6/6/6
f 7/7/7 9/9/9 8/8/8
f 9/9/9 10/10/10 8/8/8
f 9/9/9 11/11/11 10/10/10
f 11/11/11 12/12/12 10/10/10
f 11/11/11 13/13/13 12/12/12
f 13/13/13 14/14/14 12/12/12
f 13/13/13 15/15/15 14/14/14
f 15/15/15 16/16/16 14/14/14
f 15/15/15 17/17/17 16/16/16
f 17/17/17 18/18/18 16/16/16
f 17/17/17 19/19/19 18/18/18
f 19/19/19 20/20/20 18/18/18
f 19/19/19 21/21/21 20/20/20
f 21/21/21 22/22/22 20/20/20
f 21/21/21 23/23/23 22/22/22
f 23/23/23 24/24/24 22/22/22
f 23/23/23 25/25/25 24/24/24
f 25/25/25 26/26/26 24/24/24
f 25/25/25 27/27/27 26/26/26
f 27/27/27 28/28/28 26/26/26
