g MshSpikeBall
v 0.1447586 -0.1219875 -0.07735558
v 0.04648256 -0.08051018 -0.1090051
v 0.1983102 -0.3434835 -0.2516694
v 0.04648256 -0.08051018 -0.1090051
v 0.03326498 -0.1863584 -0.07735559
v 0.1983102 -0.3434835 -0.2516694
v 0.1780236 0.06437086 -0.07735558
v 0.0929651 0 -0.1090051
v 0.3966205 0 -0.2516694
v 0.0929651 0 -0.1090051
v 0.1780235 -0.06437086 -0.07735558
v 0.3966205 0 -0.2516694
v 0.03326498 0.1863584 -0.07735558
v 0.04648255 0.08051018 -0.1090051
v 0.1983102 0.3434835 -0.2516694
v 0.04648255 0.08051018 -0.1090051
v 0.1447586 0.1219875 -0.07735559
v 0.1983102 0.3434835 -0.2516694
v -0.1447586 0.1219875 -0.0773556
v -0.04648255 0.08051018 -0.1090052
v -0.1983102 0.3434835 -0.2516694
v -0.04648255 0.08051018 -0.1090052
v -0.03326498 0.1863584 -0.07735558
v -0.1983102 0.3434835 -0.2516694
v -0.1780236 -0.06437086 -0.07735559
v -0.0929651 0 -0.1090052
v -0.3966205 0 -0.2516694
v -0.0929651 0 -0.1090052
v -0.1780235 0.06437086 -0.0773556
v -0.3966205 0 -0.2516694
v -0.03326498 -0.1863584 -0.07735559
v -0.04648255 -0.08051018 -0.1090052
v -0.1983102 -0.3434835 -0.2516694
v -0.04648255 -0.08051018 -0.1090052
v -0.1447586 -0.1219875 -0.07735559
v -0.1983102 -0.3434835 -0.2516694
v 0.1066976 0.1668065 -0.0005786866
v 0.1438399 0.083046 -0.09445482
v 0.3735373 0.2156619 -0.0005786717
v 0.1438399 0.083046 -0.09445482
v 0.1978074 0.008999602 -0.0005786717
v 0.3735373 0.2156619 -0.0005786717
v -0.09110984 0.1758061 -0.0005787015
v 0 0.166092 -0.09445484
v 0 0.4313237 -0.0005787015
v 0 0.166092 -0.09445484
v 0.09110984 0.1758061 -0.0005787015
v 0 0.4313237 -0.0005787015
v -0.1978074 0.008999602 -0.0005787015
v -0.1438399 0.083046 -0.09445484
v -0.3735374 0.2156619 -0.0005787015
v -0.1438399 0.083046 -0.09445484
v -0.1066976 0.1668065 -0.0005786866
v -0.3735374 0.2156619 -0.0005787015
v -0.1066976 -0.1668065 -0.0005786866
v -0.1438399 -0.083046 -0.09445482
v -0.3735374 -0.2156619 -0.0005787015
v -0.1438399 -0.083046 -0.09445482
v -0.1978074 -0.008999602 -0.0005787015
v -0.3735374 -0.2156619 -0.0005787015
v 0.09110984 -0.1758061 -0.0005786717
v 0 -0.166092 -0.09445482
v 0 -0.4313237 -0.0005787015
v 0 -0.166092 -0.09445482
v -0.09110984 -0.1758061 -0.0005786717
v 0 -0.4313237 -0.0005787015
v 0.1978074 -0.008999602 -0.0005786717
v 0.1438399 -0.083046 -0.09445482
v 0.3735374 -0.2156619 -0.0005786717
v 0.1438399 -0.083046 -0.09445482
v 0.1066976 -0.1668065 -0.0005786866
v 0.3735374 -0.2156619 -0.0005786717
v 0.0737493 0 -0.1028464
v 0 0.07503066 -0.1028464
v -1.862645E-09 0 -0.3825141
v 0 0.07503066 -0.1028464
v -0.0737493 0 -0.1028464
v -1.862645E-09 0 -0.3825141
v -0.0737493 0 -0.1028464
v 0 -0.07503062 -0.1028464
v -1.862645E-09 0 -0.3825141
v 0 -0.07503062 -0.1028464
v 0.0737493 0 -0.1028464
v -1.862645E-09 0 -0.3825141
v -0.1758062 -0.2419765 -0.0005786866
v -0.09242678 -0.2844604 -0.0005787015
v -0.0788317 -0.154716 -0.1012593
v -0.2419765 -0.1758062 -0.0005787015
v -0.1547159 -0.0788317 -0.1012593
v -0.2844604 -0.09242678 -0.0005787015
v -0.2990993 0 -0.0005787015
v -0.1715039 0.02716355 -0.1012594
v -0.2844604 0.09242678 -0.0005787015
v -0.2419764 0.1758062 -0.0005787015
v -0.1227832 0.1227832 -0.1012594
v -0.1758061 0.2419764 -0.0005787015
v -0.09242675 0.2844603 -0.0005787313
v -0.02716354 0.1715039 -0.1012593
v 0 0.2990992 -0.0005787015
v 0.09242675 0.2844603 -0.0005787313
v 0.07883166 0.1547159 -0.1012594
v 0.1758061 0.2419764 -0.0005787015
v 0.2419764 0.1758061 -0.0005787015
v 0.1547158 0.07883166 -0.1012593
v 0.2844603 0.09242675 -0.0005786717
v 0.2990992 8.905772E-09 -0.0005787015
v 0.1715038 -0.02716354 -0.1012593
v 0.2844602 -0.09242672 -0.0005786717
v 0.2419763 -0.1758061 -0.0005786717
v 0.1227832 -0.1227832 -0.1012593
v 0.1758061 -0.2419763 -0.0005786717
v 0.09242673 -0.2844602 -0.0005787015
v 0.02716354 -0.1715038 -0.1012593
v 0 -0.2990992 -0.0005787015
v 0 0 -0.1250268
vt 0.1584528 0.6251659
vt 0.05474029 0.7726066
vt 0.615342 0.9137328
vt 0.05474029 0.7726066
vt 0.0746225 0.9511612
vt 0.615342 0.9137328
vt 0.1584528 0.6251659
vt 0.05474029 0.7726066
vt 0.615342 0.9137328
vt 0.05474029 0.7726066
vt 0.0746225 0.9511612
vt 0.615342 0.9137328
vt 0.1584528 0.6251659
vt 0.05474029 0.7726066
vt 0.615342 0.9137328
vt 0.05474029 0.7726066
vt 0.0746225 0.9511612
vt 0.615342 0.9137328
vt 0.1584528 0.6251659
vt 0.05474029 0.7726066
vt 0.615342 0.9137328
vt 0.05474029 0.7726066
vt 0.0746225 0.9511612
vt 0.615342 0.9137328
vt 0.1584528 0.6251659
vt 0.05474029 0.7726066
vt 0.615342 0.9137328
vt 0.05474029 0.7726066
vt 0.0746225 0.9511612
vt 0.615342 0.9137328
vt 0.1584528 0.6251659
vt 0.05474029 0.7726066
vt 0.615342 0.9137328
vt 0.05474029 0.7726066
vt 0.0746225 0.9511612
vt 0.615342 0.9137328
vt 0.1584528 0.6251659
vt 0.05440889 0.7725876
vt 0.4796964 0.8796699
vt 0.05440889 0.7725876
vt 0.0746225 0.9511612
vt 0.4796964 0.8796699
vt 0.1584528 0.6251659
vt 0.05440889 0.7725876
vt 0.4796964 0.8796699
vt 0.05440889 0.7725876
vt 0.0746225 0.9511612
vt 0.4796964 0.8796699
vt 0.1584528 0.6251659
vt 0.05440889 0.7725876
vt 0.4796964 0.8796699
vt 0.05440889 0.7725876
vt 0.0746225 0.9511612
vt 0.4796964 0.8796699
vt 0.1584528 0.6251659
vt 0.05440889 0.7725876
vt 0.4796964 0.8796699
vt 0.05440889 0.7725876
vt 0.0746225 0.9511612
vt 0.4796964 0.8796699
vt 0.1584528 0.6251659
vt 0.05440889 0.7725876
vt 0.4796964 0.8796699
vt 0.05440889 0.7725876
vt 0.0746225 0.9511612
vt 0.4796964 0.8796699
vt 0.1584528 0.6251659
vt 0.05440889 0.7725876
vt 0.4796964 0.8796699
vt 0.05440889 0.7725876
vt 0.0746225 0.9511612
vt 0.4796964 0.8796699
vt 0.1584528 0.6251659
vt 0.05474029 0.7726066
vt 0.5222955 0.89072
vt 0.05474029 0.7726066
vt 0.0746225 0.9511612
vt 0.5222955 0.89072
vt 0.1584528 0.6251659
vt 0.05474029 0.7726066
vt 0.5222955 0.89072
vt 0.05474029 0.7726066
vt 0.0746225 0.9511612
vt 0.5222955 0.89072
vt 0.9005954 0.5922002
vt 0.9512349 0.4928158
vt 0.7965865 0.4766105
vt 0.8217244 0.6710709
vt 0.7061351 0.5670617
vt 0.7223395 0.7217103
vt 0.6121722 0.739158
vt 0.579794 0.5870715
vt 0.502005 0.7217103
vt 0.402621 0.6710709
vt 0.4658208 0.5289984
vt 0.3237499 0.5922002
vt 0.2731115 0.4928158
vt 0.4077489 0.4150252
vt 0.255662 0.382648
vt 0.2731115 0.2724798
vt 0.4277583 0.2886846
vt 0.3237499 0.1730955
vt 0.402621 0.09422471
vt 0.5182095 0.198234
vt 0.502005 0.04358538
vt 0.6121722 0.02613796
vt 0.6445503 0.1782251
vt 0.7223395 0.04358538
vt 0.8217235 0.09422471
vt 0.7585236 0.2362971
vt 0.9005954 0.1730955
vt 0.9512349 0.2724798
vt 0.8165958 0.3502699
vt 0.9686823 0.382648
vt 0.6121722 0.382648
vn 0.4646501 0.614269 -0.6377884
vn 0.4646501 0.6142689 -0.6377884
vn 0.4646501 0.6142689 -0.6377884
vn -0.7642976 -0.0952644 -0.6377882
vn -0.7642976 -0.0952644 -0.6377883
vn -0.7642976 -0.0952644 -0.6377883
vn -0.2996476 0.7095333 -0.6377882
vn -0.2996476 0.7095333 -0.6377883
vn -0.2996476 0.7095333 -0.6377882
vn -0.2996476 -0.7095333 -0.6377882
vn -0.2996476 -0.7095333 -0.6377882
vn -0.2996477 -0.7095333 -0.6377883
vn -0.7642979 0.09526446 -0.6377879
vn -0.7642979 0.09526446 -0.6377879
vn -0.7642979 0.09526445 -0.6377879
vn 0.4646502 -0.614269 -0.6377881
vn 0.4646502 -0.614269 -0.6377881
vn 0.4646502 -0.614269 -0.6377881
vn -0.4646502 -0.614269 -0.6377882
vn -0.4646502 -0.6142691 -0.6377882
vn -0.4646501 -0.614269 -0.6377882
vn 0.7642978 0.09526445 -0.6377881
vn 0.7642978 0.09526444 -0.637788
vn 0.7642978 0.09526444 -0.637788
vn 0.2996476 -0.7095333 -0.6377882
vn 0.2996476 -0.7095333 -0.6377883
vn 0.2996476 -0.7095333 -0.6377883
vn 0.2996475 0.7095333 -0.6377882
vn 0.2996475 0.7095334 -0.6377882
vn 0.2996476 0.7095334 -0.6377882
vn 0.7642975 -0.09526439 -0.6377883
vn 0.7642975 -0.09526438 -0.6377883
vn 0.7642975 -0.09526439 -0.6377884
vn -0.4646499 0.614269 -0.6377884
vn -0.46465 0.6142691 -0.6377883
vn -0.4646499 0.6142691 -0.6377884
vn -0.1306399 0.7135329 -0.6883342
vn -0.1306399 0.7135329 -0.6883342
vn -0.1306399 0.7135329 -0.6883342
vn 0.5526177 -0.4699043 -0.6883339
vn 0.5526178 -0.4699043 -0.6883339
vn 0.5526178 -0.4699043 -0.6883339
vn -0.6832578 0.243629 -0.688334
vn -0.6832578 0.243629 -0.688334
vn -0.6832577 0.243629 -0.688334
vn 0.6832577 0.243629 -0.688334
vn 0.6832578 0.243629 -0.688334
vn 0.6832578 0.243629 -0.688334
vn -0.5526177 -0.4699043 -0.688334
vn -0.5526177 -0.4699043 -0.688334
vn -0.5526177 -0.4699043 -0.688334
vn 0.13064 0.7135331 -0.6883339
vn 0.13064 0.7135331 -0.6883339
vn 0.13064 0.7135331 -0.6883339
vn 0.1306399 -0.7135328 -0.6883343
vn 0.1306399 -0.7135328 -0.6883342
vn 0.1306399 -0.7135328 -0.6883343
vn -0.5526177 0.4699042 -0.688334
vn -0.5526177 0.4699043 -0.688334
vn -0.5526177 0.4699043 -0.688334
vn 0.6832579 -0.2436289 -0.688334
vn 0.6832578 -0.2436289 -0.688334
vn 0.6832578 -0.2436289 -0.688334
vn -0.6832578 -0.2436289 -0.688334
vn -0.6832579 -0.2436289 -0.688334
vn -0.6832578 -0.2436289 -0.688334
vn 0.5526177 0.4699042 -0.688334
vn 0.5526177 0.4699042 -0.6883339
vn 0.5526177 0.4699042 -0.6883339
vn -0.1306399 -0.7135331 -0.688334
vn -0.1306399 -0.7135331 -0.6883339
vn -0.1306399 -0.7135331 -0.6883339
vn 0.7008833 0.6889138 -0.1848252
vn 0.7008833 0.6889138 -0.1848252
vn 0.7008833 0.6889138 -0.1848252
vn -0.7008834 0.6889138 -0.1848252
vn -0.7008834 0.6889138 -0.1848252
vn -0.7008834 0.6889138 -0.1848252
vn -0.7008832 -0.6889139 -0.1848252
vn -0.7008832 -0.688914 -0.1848252
vn -0.7008832 -0.688914 -0.1848252
vn 0.7008832 -0.6889139 -0.1848252
vn 0.7008832 -0.6889139 -0.1848252
vn 0.7008832 -0.6889139 -0.1848252
vn -0.3963585 -0.4696921 -0.7888532
vn -0.1470148 -0.5967389 -0.7888532
vn -0.2145113 -0.4210028 -0.8813294
vn -0.4696922 -0.3963583 -0.7888532
vn -0.4210027 -0.2145115 -0.8813294
vn -0.5967388 -0.1470152 -0.7888533
vn -0.6129625 -0.04458239 -0.7888532
vn -0.4666851 0.07391576 -0.8813294
vn -0.5691851 0.2318164 -0.7888532
vn -0.5221019 0.3242224 -0.7888532
vn -0.3341096 0.3341097 -0.8813294
vn -0.3242224 0.5221021 -0.7888531
vn -0.2318163 0.5691853 -0.7888531
vn -0.07391575 0.4666852 -0.8813294
vn 0.04458245 0.6129627 -0.788853
vn 0.1470153 0.5967389 -0.7888531
vn 0.2145116 0.4210027 -0.8813294
vn 0.3963587 0.4696922 -0.788853
vn 0.4696924 0.3963583 -0.7888531
vn 0.4210029 0.2145114 -0.8813294
vn 0.5967389 0.1470152 -0.7888531
vn 0.6129626 0.04458229 -0.7888531
vn 0.4666853 -0.07391579 -0.8813292
vn 0.5691854 -0.2318165 -0.7888529
vn 0.5221024 -0.3242225 -0.788853
vn 0.3341099 -0.3341098 -0.8813292
vn 0.3242226 -0.5221021 -0.788853
vn 0.2318166 -0.5691853 -0.788853
vn 0.07391613 -0.4666852 -0.8813294
vn -0.04458192 -0.6129627 -0.7888531
vn 0 0 -1
g MshSpikeBall_0
f 3/3/3 2/2/2 1/1/1
f 6/6/6 5/5/5 4/4/4
f 9/9/9 8/8/8 7/7/7
f 12/12/12 11/11/11 10/10/10
f 15/15/15 14/14/14 13/13/13
f 18/18/18 17/17/17 16/16/16
f 21/21/21 20/20/20 19/19/19
f 24/24/24 23/23/23 22/22/22
f 27/27/27 26/26/26 25/25/25
f 30/30/30 29/29/29 28/28/28
f 33/33/33 32/32/32 31/31/31
f 36/36/36 35/35/35 34/34/34
f 39/39/39 38/38/38 37/37/37
f 42/42/42 41/41/41 40/40/40
f 45/45/45 44/44/44 43/43/43
f 48/48/48 47/47/47 46/46/46
f 51/51/51 50/50/50 49/49/49
f 54/54/54 53/53/53 52/52/52
f 57/57/57 56/56/56 55/55/55
f 60/60/60 59/59/59 58/58/58
f 63/63/63 62/62/62 61/61/61
f 66/66/66 65/65/65 64/64/64
f 69/69/69 68/68/68 67/67/67
f 72/72/72 71/71/71 70/70/70
f 75/75/75 74/74/74 73/73/73
f 78/78/78 77/77/77 76/76/76
f 81/81/81 80/80/80 79/79/79
f 84/84/84 83/83/83 82/82/82
f 87/87/87 86/86/86 85/85/85
f 87/87/87 85/85/85 88/88/88
f 89/89/89 87/87/87 88/88/88
f 89/89/89 88/88/88 90/90/90
f 89/89/89 90/90/90 91/91/91
f 92/92/92 89/89/89 91/91/91
f 92/92/92 91/91/91 93/93/93
f 92/92/92 93/93/93 94/94/94
f 95/95/95 92/92/92 94/94/94
f 95/95/95 94/94/94 96/96/96
f 95/95/95 96/96/96 97/97/97
f 98/98/98 95/95/95 97/97/97
f 98/98/98 97/97/97 99/99/99
f 98/98/98 99/99/99 100/100/100
f 101/101/101 98/98/98 100/100/100
f 101/101/101 100/100/100 102/102/102
f 101/101/101 102/102/102 103/103/103
f 104/104/104 101/101/101 103/103/103
f 104/104/104 103/103/103 105/105/105
f 104/104/104 105/105/105 106/106/106
f 107/107/107 104/104/104 106/106/106
f 107/107/107 106/106/106 108/108/108
f 107/107/107 108/108/108 109/109/109
f 110/110/110 107/107/107 109/109/109
f 110/110/110 109/109/109 111/111/111
f 110/110/110 111/111/111 112/112/112
f 113/113/113 110/110/110 112/112/112
f 113/113/113 112/112/112 114/114/114
f 113/113/113 114/114/114 86/86/86
f 87/87/87 113/113/113 86/86/86
f 115/115/115 101/101/101 104/104/104
f 115/115/115 104/104/104 107/107/107
f 115/115/115 107/107/107 110/110/110
f 115/115/115 110/110/110 113/113/113
f 115/115/115 113/113/113 87/87/87
f 115/115/115 87/87/87 89/89/89
f 115/115/115 89/89/89 92/92/92
f 115/115/115 92/92/92 95/95/95
f 115/115/115 95/95/95 98/98/98
f 115/115/115 98/98/98 101/101/101
