g MshSpikeBallCage
v 0.4518655 0.01544292 0.02704145
v 0.3657048 0.01544292 5.033958E-08
v 0.3933063 0.4887372 1.859433E-08
v 0.4631037 0.5031888 0.02190581
v 0.4631037 0.5031888 -0.02190579
v 0.3933063 0.4887372 1.859433E-08
v 0.3657048 0.01544292 5.033958E-08
v 0.4518655 0.01544292 -0.02704139
v 0.4518655 0.01544292 -0.02704139
v 0.4518655 0.01544292 0.02704145
v 0.4631037 0.5031888 0.02190581
v 0.4631037 0.5031888 -0.02190579
v 0.3013809 0.5656985 -0.02502044
v 0.4631037 0.5031888 -0.02190579
v 0.4631037 0.5031888 0.02190581
v 0.3013809 0.5656985 0.02502046
v 0.4531505 0.02448939 -0.1472375
v -2.165236E-08 0.02448903 -5.225017E-08
v 0.3854731 0.02448939 -0.2800624
v 0.2800626 0.02448939 -0.385473
v 0.1472376 0.02448939 -0.4531504
v 1.573622E-08 0.02448939 -0.4764704
v -0.1472376 0.02448939 -0.4531504
v -0.2800623 0.02448939 -0.385473
v -0.385473 0.02448939 -0.2800624
v -0.4531504 0.02448939 -0.1472375
v -0.4764705 0.02448939 2.646263E-08
v -0.4531504 0.02448939 0.1472376
v -0.3854727 0.02448939 0.2800624
v -0.2800623 0.02448939 0.3854727
v -0.1472375 0.02448939 0.4531505
v 1.961486E-09 0.02448939 0.4764705
v 0.1472375 0.02448939 0.4531505
v 0.2800623 0.02448939 0.3854727
v 0.3854728 0.02448939 0.2800624
v 0.4531505 0.02448939 0.1472375
v 0.4764705 0.02448939 2.646263E-08
v 0.2131973 0.551191 -0.2415213
v 0.2416149 0.5347167 -0.2727949
v 0.3313352 0.5347167 -0.1493056
v 0.2926319 0.551191 -0.1321888
v 0.09616078 0.551191 -0.3090924
v 0.1094238 0.5347167 -0.3491157
v -0.03824108 0.551191 -0.3232187
v -0.04238131 0.5347167 -0.365071
v -0.1667689 0.551191 -0.2814575
v -0.1875517 0.5347167 -0.3179021
v -0.2671993 0.551191 -0.1910297
v -0.3009865 0.5347167 -0.2157655
v -0.3221665 0.551191 -0.06757114
v -0.3630711 0.5347167 -0.07632065
v -0.3221665 0.551191 0.06757109
v -0.3630711 0.5347167 0.07632064
v -0.2671993 0.551191 0.1910297
v -0.3009865 0.5347167 0.2157655
v -0.1667691 0.551191 0.2814574
v -0.1875518 0.5347167 0.3179021
v -0.03824118 0.551191 0.3232188
v -0.04238137 0.5347167 0.365071
v 0.09616075 0.551191 0.3090926
v 0.1094237 0.5347167 0.3491157
v 0.2131973 0.551191 0.2415215
v 0.2416149 0.5347167 0.2727952
v 0.292632 0.551191 0.132189
v 0.3313354 0.5347167 0.1493057
v 0.3207296 0.551191 1.140247E-08
v 0.3630711 0.5347167 9.652006E-09
v 0.2926319 0.551191 -0.1321888
v 0.3313352 0.5347167 -0.1493056
v 0.300396 0.01544292 0.3386384
v 0.2585923 0.01544292 0.2585924
v 0.2781096 0.4887372 0.2781096
v 0.311974 0.5031888 0.3429535
v 0.3429535 0.5031888 0.311974
v 0.2781096 0.4887372 0.2781096
v 0.2585923 0.01544292 0.2585924
v 0.3386383 0.01544292 0.300396
v 0.3386383 0.01544292 0.300396
v 0.300396 0.01544292 0.3386384
v 0.311974 0.5031888 0.3429535
v 0.3429535 0.5031888 0.311974
v 0.2308006 0.5656985 0.1954163
v 0.3429535 0.5031888 0.311974
v 0.311974 0.5031888 0.3429535
v 0.1954163 0.5656985 0.2308006
v -0.02704145 0.01544292 0.4518655
v -5.033958E-08 0.01544292 0.3657048
v -1.859433E-08 0.4887372 0.3933063
v -0.02190581 0.5031888 0.4631037
v 0.02190579 0.5031888 0.4631037
v -1.859433E-08 0.4887372 0.3933063
v -5.033958E-08 0.01544292 0.3657048
v 0.02704139 0.01544292 0.4518655
v 0.02704139 0.01544292 0.4518655
v -0.02704145 0.01544292 0.4518655
v -0.02190581 0.5031888 0.4631037
v 0.02190579 0.5031888 0.4631037
v 0.02502044 0.5656985 0.3013809
v 0.02190579 0.5031888 0.4631037
v -0.02190581 0.5031888 0.4631037
v -0.02502046 0.5656985 0.3013809
v -0.3386384 0.01544292 0.300396
v -0.2585924 0.01544292 0.2585923
v -0.2781096 0.4887372 0.2781096
v -0.3429535 0.5031888 0.311974
v -0.311974 0.5031888 0.3429535
v -0.2781096 0.4887372 0.2781096
v -0.2585924 0.01544292 0.2585923
v -0.300396 0.01544292 0.3386383
v -0.300396 0.01544292 0.3386383
v -0.3386384 0.01544292 0.300396
v -0.3429535 0.5031888 0.311974
v -0.311974 0.5031888 0.3429535
v -0.1954163 0.5656985 0.2308006
v -0.311974 0.5031888 0.3429535
v -0.3429535 0.5031888 0.311974
v -0.2308006 0.5656985 0.1954163
v -0.4518655 0.01544292 -0.02704145
v -0.3657048 0.01544292 -5.033958E-08
v -0.3933063 0.4887372 -1.859433E-08
v -0.4631037 0.5031888 -0.02190581
v -0.4631037 0.5031888 0.02190579
v -0.3933063 0.4887372 -1.859433E-08
v -0.3657048 0.01544292 -5.033958E-08
v -0.4518655 0.01544292 0.02704139
v -0.4518655 0.01544292 0.02704139
v -0.4518655 0.01544292 -0.02704145
v -0.4631037 0.5031888 -0.02190581
v -0.4631037 0.5031888 0.02190579
v -0.3013809 0.5656985 0.02502044
v -0.4631037 0.5031888 0.02190579
v -0.4631037 0.5031888 -0.02190581
v -0.3013809 0.5656985 -0.02502046
v -0.300396 0.01544292 -0.3386384
v -0.2585923 0.01544292 -0.2585924
v -0.2781096 0.4887372 -0.2781096
v -0.311974 0.5031888 -0.3429535
v -0.3429535 0.5031888 -0.311974
v -0.2781096 0.4887372 -0.2781096
v -0.2585923 0.01544292 -0.2585924
v -0.3386383 0.01544292 -0.300396
v -0.3386383 0.01544292 -0.300396
v -0.300396 0.01544292 -0.3386384
v -0.311974 0.5031888 -0.3429535
v -0.3429535 0.5031888 -0.311974
v -0.2308006 0.5656985 -0.1954163
v -0.3429535 0.5031888 -0.311974
v -0.311974 0.5031888 -0.3429535
v -0.1954163 0.5656985 -0.2308006
v 0.02704145 0.01544292 -0.4518655
v 5.033958E-08 0.01544292 -0.3657048
v 1.859433E-08 0.4887372 -0.3933063
v 0.02190581 0.5031888 -0.4631037
v -0.02190579 0.5031888 -0.4631037
v 1.859433E-08 0.4887372 -0.3933063
v 5.033958E-08 0.01544292 -0.3657048
v -0.02704139 0.01544292 -0.4518655
v -0.02704139 0.01544292 -0.4518655
v 0.02704145 0.01544292 -0.4518655
v 0.02190581 0.5031888 -0.4631037
v -0.02190579 0.5031888 -0.4631037
v -0.02502044 0.5656985 -0.3013809
v -0.02190579 0.5031888 -0.4631037
v 0.02190581 0.5031888 -0.4631037
v 0.02502046 0.5656985 -0.3013809
v 0.3386384 0.01544292 -0.300396
v 0.2585924 0.01544292 -0.2585923
v 0.2781096 0.4887372 -0.2781096
v 0.3429535 0.5031888 -0.311974
v 0.311974 0.5031888 -0.3429535
v 0.2781096 0.4887372 -0.2781096
v 0.2585924 0.01544292 -0.2585923
v 0.300396 0.01544292 -0.3386383
v 0.300396 0.01544292 -0.3386383
v 0.3386384 0.01544292 -0.300396
v 0.3429535 0.5031888 -0.311974
v 0.311974 0.5031888 -0.3429535
v 0.1954163 0.5656985 -0.2308006
v 0.311974 0.5031888 -0.3429535
v 0.3429535 0.5031888 -0.311974
v 0.2308006 0.5656985 -0.1954163
vt 0.3151779 0.07610572
vt 0.3151779 0.07991898
vt 0.3115484 0.07991898
vt 0.3115478 0.07610572
vt 0.3115489 0.07991898
vt 0.3115484 0.07610572
vt 0.3151779 0.07610572
vt 0.3151779 0.07991898
vt 0.3151779 0.07991898
vt 0.3151779 0.07610572
vt 0.3115478 0.07610572
vt 0.3115489 0.07991898
vt 0.3105457 0.07991898
vt 0.3115489 0.07991898
vt 0.3115478 0.07610572
vt 0.3105457 0.07610572
vt 0.3300554 0.08083546
vt 0.3364207 0.06061208
vt 0.3241175 0.07787869
vt 0.3193841 0.07323181
vt 0.3163182 0.06734953
vt 0.3152201 0.06080763
vt 0.3161972 0.05424679
vt 0.3191541 0.04830899
vt 0.3238011 0.04357547
vt 0.3297412 0.04052493
vt 0.3361761 0.0394447
vt 0.342786 0.04038876
vt 0.3487238 0.0433456
vt 0.3534573 0.04799243
vt 0.3565231 0.05387473
vt 0.3576211 0.06041653
vt 0.3566439 0.06697746
vt 0.3536872 0.07291524
vt 0.3490402 0.07764868
vt 0.343158 0.08071452
vt 0.3366163 0.08181268
vt 0.3157141 0.08092637
vt 0.3157141 0.07829098
vt 0.315703 0.07829098
vt 0.315703 0.08092637
vt 0.3157251 0.08092637
vt 0.3157251 0.07829098
vt 0.3157361 0.08092637
vt 0.3157361 0.07829098
vt 0.3157472 0.08092637
vt 0.3157472 0.07829098
vt 0.3157582 0.08092637
vt 0.3157582 0.07829098
vt 0.3157693 0.08092637
vt 0.3157693 0.07829098
vt 0.3157803 0.08092637
vt 0.3157803 0.07829098
vt 0.3157913 0.08092637
vt 0.3157913 0.07829098
vt 0.3158024 0.08092637
vt 0.3158024 0.07829098
vt 0.3158134 0.08092637
vt 0.3158134 0.07829098
vt 0.3158245 0.08092637
vt 0.3158245 0.07829098
vt 0.3158355 0.08092637
vt 0.3158355 0.07829098
vt 0.3158466 0.08092637
vt 0.3158466 0.07829098
vt 0.3158576 0.08092637
vt 0.3158576 0.07829098
vt 0.3158686 0.08092637
vt 0.3158686 0.07829098
vt 0.3151779 0.07610572
vt 0.3151779 0.07991898
vt 0.3115484 0.07991898
vt 0.3115478 0.07610572
vt 0.3115489 0.07991898
vt 0.3115484 0.07610572
vt 0.3151779 0.07610572
vt 0.3151779 0.07991898
vt 0.3151779 0.07991898
vt 0.3151779 0.07610572
vt 0.3115478 0.07610572
vt 0.3115489 0.07991898
vt 0.3105457 0.07991898
vt 0.3115489 0.07991898
vt 0.3115478 0.07610572
vt 0.3105457 0.07610572
vt 0.3151779 0.07610572
vt 0.3151779 0.07991898
vt 0.3115484 0.07991898
vt 0.3115478 0.07610572
vt 0.3115489 0.07991898
vt 0.3115484 0.07610572
vt 0.3151779 0.07610572
vt 0.3151779 0.07991898
vt 0.3151779 0.07991898
vt 0.3151779 0.07610572
vt 0.3115478 0.07610572
vt 0.3115489 0.07991898
vt 0.3105457 0.07991898
vt 0.3115489 0.07991898
vt 0.3115478 0.07610572
vt 0.3105457 0.07610572
vt 0.3151779 0.07610572
vt 0.3151779 0.07991898
vt 0.3115484 0.07991898
vt 0.3115478 0.07610572
vt 0.3115489 0.07991898
vt 0.3115484 0.07610572
vt 0.3151779 0.07610572
vt 0.3151779 0.07991898
vt 0.3151779 0.07991898
vt 0.3151779 0.07610572
vt 0.3115478 0.07610572
vt 0.3115489 0.07991898
vt 0.3105457 0.07991898
vt 0.3115489 0.07991898
vt 0.3115478 0.07610572
vt 0.3105457 0.07610572
vt 0.3151779 0.07610572
vt 0.3151779 0.07991898
vt 0.3115484 0.07991898
vt 0.3115478 0.07610572
vt 0.3115489 0.07991898
vt 0.3115484 0.07610572
vt 0.3151779 0.07610572
vt 0.3151779 0.07991898
vt 0.3151779 0.07991898
vt 0.3151779 0.07610572
vt 0.3115478 0.07610572
vt 0.3115489 0.07991898
vt 0.3105457 0.07991898
vt 0.3115489 0.07991898
vt 0.3115478 0.07610572
vt 0.3105457 0.07610572
vt 0.3151779 0.07610572
vt 0.3151779 0.07991898
vt 0.3115484 0.07991898
vt 0.3115478 0.07610572
vt 0.3115489 0.07991898
vt 0.3115484 0.07610572
vt 0.3151779 0.07610572
vt 0.3151779 0.07991898
vt 0.3151779 0.07991898
vt 0.3151779 0.07610572
vt 0.3115478 0.07610572
vt 0.3115489 0.07991898
vt 0.3105457 0.07991898
vt 0.3115489 0.07991898
vt 0.3115478 0.07610572
vt 0.3105457 0.07610572
vt 0.3151779 0.07610572
vt 0.3151779 0.07991898
vt 0.3115484 0.07991898
vt 0.3115478 0.07610572
vt 0.3115489 0.07991898
vt 0.3115484 0.07610572
vt 0.3151779 0.07610572
vt 0.3151779 0.07991898
vt 0.3151779 0.07991898
vt 0.3151779 0.07610572
vt 0.3115478 0.07610572
vt 0.3115489 0.07991898
vt 0.3105457 0.07991898
vt 0.3115489 0.07991898
vt 0.3115478 0.07610572
vt 0.3105457 0.07610572
vt 0.3151779 0.07610572
vt 0.3151779 0.07991898
vt 0.3115484 0.07991898
vt 0.3115478 0.07610572
vt 0.3115489 0.07991898
vt 0.3115484 0.07610572
vt 0.3151779 0.07610572
vt 0.3151779 0.07991898
vt 0.3151779 0.07991898
vt 0.3151779 0.07610572
vt 0.3115478 0.07610572
vt 0.3115489 0.07991898
vt 0.3105457 0.07991898
vt 0.3115489 0.07991898
vt 0.3115478 0.07610572
vt 0.3105457 0.07610572
vn -0.3008574 0.01725434 0.953513
vn -0.3008574 0.01725433 0.953513
vn -0.3008574 0.01725434 0.953513
vn -0.3008574 0.01725434 0.953513
vn -0.3008578 0.01725429 -0.9535129
vn -0.3008577 0.01725429 -0.9535129
vn -0.3008577 0.01725429 -0.9535129
vn -0.3008577 0.01725429 -0.9535129
vn 0.9997347 -0.02303489 0
vn 0.9997347 -0.02303489 0
vn 0.9997347 -0.02303489 0
vn 0.9997347 -0.02303489 0
vn 0.360529 0.932748 0
vn 0.360529 0.932748 0
vn 0.360529 0.932748 0
vn 0.360529 0.932748 0
vn 0 1 0
vn 0 1 0
vn 0 1 0
vn 0 1 0
vn 0 1 0
vn 0 1 0
vn 0 1 0
vn 0 1 0
vn 0 1 0
vn 0 1 0
vn 0 1 0
vn 0 1 0
vn 0 1 0
vn 0 1 0
vn 0 1 0
vn 0 1 0
vn 0 1 0
vn 0 1 0
vn 0 1 0
vn 0 1 0
vn 0 1 0
vn 0.2429188 0.9316949 -0.2700649
vn 0.2432312 0.9316955 -0.2697813
vn 0.3314587 0.931879 -0.1474335
vn 0.3313655 0.9318788 -0.147644
vn 0.1122375 0.9314229 -0.3461994
vn 0.1127522 0.931424 -0.3460293
vn -0.03837383 0.931109 -0.3627171
vn -0.03780742 0.9311101 -0.3627736
vn -0.1829445 0.9308068 -0.3164333
vn -0.1825125 0.9308077 -0.31668
vn -0.2962802 0.9305698 -0.2150769
vn -0.2960801 0.9305702 -0.2153505
vn -0.3584492 0.9304393 -0.07613675
vn -0.3584241 0.9304394 -0.07625422
vn -0.3584494 0.9304393 0.07613675
vn -0.3584242 0.9304393 0.07625431
vn -0.2962806 0.9305696 0.2150769
vn -0.2960804 0.9305699 0.2153506
vn -0.1829447 0.9308065 0.316434
vn -0.1825125 0.9308075 0.3166808
vn -0.03837406 0.931109 0.3627169
vn -0.03780758 0.9311101 0.3627734
vn 0.1122374 0.9314231 0.3461989
vn 0.1127521 0.9314243 0.3460288
vn 0.2429186 0.9316949 0.2700651
vn 0.243231 0.9316955 0.2697816
vn 0.3313655 0.9318788 0.1476442
vn 0.3314587 0.931879 0.1474335
vn 0.3626031 0.9319437 0
vn 0.362603 0.9319437 0
vn 0.3313655 0.9318788 -0.147644
vn 0.3314587 0.931879 -0.1474335
vn -0.886974 0.01725436 0.4614969
vn -0.886974 0.01725436 0.4614969
vn -0.886974 0.01725436 0.4614969
vn -0.886974 0.01725436 0.4614969
vn 0.4614972 0.01725422 -0.8869739
vn 0.4614972 0.01725422 -0.8869738
vn 0.4614972 0.01725422 -0.8869739
vn 0.4614972 0.01725421 -0.8869738
vn 0.7069191 -0.02303496 0.7069191
vn 0.7069191 -0.02303496 0.7069191
vn 0.7069191 -0.02303496 0.7069191
vn 0.7069191 -0.02303496 0.7069191
vn 0.2549323 0.9327481 0.2549323
vn 0.2549323 0.9327481 0.2549323
vn 0.2549323 0.9327481 0.2549323
vn 0.2549323 0.9327481 0.2549323
vn -0.953513 0.01725434 -0.3008574
vn -0.953513 0.01725435 -0.3008574
vn -0.953513 0.01725435 -0.3008574
vn -0.953513 0.01725434 -0.3008574
vn 0.9535129 0.01725426 -0.3008578
vn 0.9535129 0.01725427 -0.3008578
vn 0.9535129 0.01725426 -0.3008578
vn 0.9535129 0.01725426 -0.3008577
vn 0 -0.0230349 0.9997347
vn 0 -0.0230349 0.9997347
vn 0 -0.02303489 0.9997347
vn 0 -0.02303489 0.9997347
vn 0 0.932748 0.3605289
vn 0 0.932748 0.3605289
vn 0 0.932748 0.3605289
vn 0 0.932748 0.3605289
vn -0.4614967 0.01725438 -0.8869741
vn -0.4614967 0.01725438 -0.8869741
vn -0.4614967 0.01725439 -0.8869741
vn -0.4614966 0.01725438 -0.8869741
vn 0.8869737 0.01725427 0.4614974
vn 0.8869737 0.01725427 0.4614974
vn 0.8869737 0.01725427 0.4614974
vn 0.8869737 0.01725428 0.4614974
vn -0.7069188 -0.02303493 0.7069194
vn -0.7069188 -0.02303493 0.7069194
vn -0.7069188 -0.02303493 0.7069195
vn -0.7069188 -0.02303493 0.7069195
vn -0.2549326 0.9327477 0.2549333
vn -0.2549326 0.9327477 0.2549333
vn -0.2549326 0.9327477 0.2549333
vn -0.2549326 0.9327477 0.2549333
vn 0.3008574 0.01725434 -0.953513
vn 0.3008574 0.01725433 -0.953513
vn 0.3008574 0.01725434 -0.953513
vn 0.3008574 0.01725434 -0.953513
vn 0.3008578 0.01725429 0.9535129
vn 0.3008577 0.01725429 0.9535129
vn 0.3008577 0.01725429 0.9535129
vn 0.3008577 0.01725429 0.9535129
vn -0.9997347 -0.02303489 0
vn -0.9997347 -0.02303489 0
vn -0.9997347 -0.02303489 0
vn -0.9997347 -0.02303489 0
vn -0.360529 0.932748 0
vn -0.360529 0.932748 0
vn -0.360529 0.932748 0
vn -0.360529 0.932748 0
vn 0.886974 0.01725436 -0.4614969
vn 0.886974 0.01725436 -0.4614969
vn 0.886974 0.01725436 -0.4614969
vn 0.886974 0.01725436 -0.4614969
vn -0.4614972 0.01725422 0.8869739
vn -0.4614972 0.01725422 0.8869738
vn -0.4614972 0.01725422 0.8869739
vn -0.4614972 0.01725421 0.8869738
vn -0.7069191 -0.02303496 -0.7069191
vn -0.7069191 -0.02303496 -0.7069191
vn -0.7069191 -0.02303496 -0.7069191
vn -0.7069191 -0.02303496 -0.7069191
vn -0.2549323 0.9327481 -0.2549323
vn -0.2549323 0.9327481 -0.2549323
vn -0.2549323 0.9327481 -0.2549323
vn -0.2549323 0.9327481 -0.2549323
vn 0.953513 0.01725434 0.3008574
vn 0.953513 0.01725435 0.3008574
vn 0.953513 0.01725435 0.3008574
vn 0.953513 0.01725434 0.3008574
vn -0.9535129 0.01725426 0.3008578
vn -0.9535129 0.01725427 0.3008578
vn -0.9535129 0.01725426 0.3008578
vn -0.9535129 0.01725426 0.3008577
vn 0 -0.0230349 -0.9997347
vn 0 -0.0230349 -0.9997347
vn 0 -0.02303489 -0.9997347
vn 0 -0.02303489 -0.9997347
vn 0 0.932748 -0.3605289
vn 0 0.932748 -0.3605289
vn 0 0.932748 -0.3605289
vn 0 0.932748 -0.3605289
vn 0.4614967 0.01725438 0.8869741
vn 0.4614967 0.01725438 0.8869741
vn 0.4614967 0.01725439 0.8869741
vn 0.4614966 0.01725438 0.8869741
vn -0.8869737 0.01725427 -0.4614974
vn -0.8869737 0.01725427 -0.4614974
vn -0.8869737 0.01725427 -0.4614974
vn -0.8869737 0.01725428 -0.4614974
vn 0.7069188 -0.02303493 -0.7069194
vn 0.7069188 -0.02303493 -0.7069194
vn 0.7069188 -0.02303493 -0.7069195
vn 0.7069188 -0.02303493 -0.7069195
vn 0.2549326 0.9327477 -0.2549333
vn 0.2549326 0.9327477 -0.2549333
vn 0.2549326 0.9327477 -0.2549333
vn 0.2549326 0.9327477 -0.2549333
g MshSpikeBallCage_0
f 3/3/3 2/2/2 1/1/1
f 4/4/4 3/3/3 1/1/1
f 7/7/7 6/6/6 5/5/5
f 8/8/8 7/7/7 5/5/5
f 11/11/11 10/10/10 9/9/9
f 12/12/12 11/11/11 9/9/9
f 15/15/15 14/14/14 13/13/13
f 16/16/16 15/15/15 13/13/13
f 19/19/19 18/18/18 17/17/17
f 20/20/20 18/18/18 19/19/19
f 21/21/21 18/18/18 20/20/20
f 22/22/22 18/18/18 21/21/21
f 23/23/23 18/18/18 22/22/22
f 24/24/24 18/18/18 23/23/23
f 25/25/25 18/18/18 24/24/24
f 26/26/26 18/18/18 25/25/25
f 27/27/27 18/18/18 26/26/26
f 28/28/28 18/18/18 27/27/27
f 29/29/29 18/18/18 28/28/28
f 30/30/30 18/18/18 29/29/29
f 31/31/31 18/18/18 30/30/30
f 32/32/32 18/18/18 31/31/31
f 33/33/33 18/18/18 32/32/32
f 34/34/34 18/18/18 33/33/33
f 35/35/35 18/18/18 34/34/34
f 36/36/36 18/18/18 35/35/35
f 37/37/37 18/18/18 36/36/36
f 17/17/17 18/18/18 37/37/37
f 40/40/40 39/39/39 38/38/38
f 41/41/41 40/40/40 38/38/38
f 38/38/38 39/39/39 42/42/42
f 39/39/39 43/43/43 42/42/42
f 42/42/42 43/43/43 44/44/44
f 43/43/43 45/45/45 44/44/44
f 44/44/44 45/45/45 46/46/46
f 45/45/45 47/47/47 46/46/46
f 46/46/46 47/47/47 48/48/48
f 47/47/47 49/49/49 48/48/48
f 48/48/48 49/49/49 50/50/50
f 49/49/49 51/51/51 50/50/50
f 50/50/50 51/51/51 52/52/52
f 51/51/51 53/53/53 52/52/52
f 52/52/52 53/53/53 54/54/54
f 53/53/53 55/55/55 54/54/54
f 54/54/54 55/55/55 56/56/56
f 55/55/55 57/57/57 56/56/56
f 56/56/56 57/57/57 58/58/58
f 57/57/57 59/59/59 58/58/58
f 58/58/58 59/59/59 60/60/60
f 59/59/59 61/61/61 60/60/60
f 60/60/60 61/61/61 62/62/62
f 61/61/61 63/63/63 62/62/62
f 62/62/62 63/63/63 64/64/64
f 63/63/63 65/65/65 64/64/64
f 64/64/64 65/65/65 66/66/66
f 65/65/65 67/67/67 66/66/66
f 66/66/66 67/67/67 68/68/68
f 67/67/67 69/69/69 68/68/68
f 72/72/72 71/71/71 70/70/70
f 73/73/73 72/72/72 70/70/70
f 76/76/76 75/75/75 74/74/74
f 77/77/77 76/76/76 74/74/74
f 80/80/80 79/79/79 78/78/78
f 81/81/81 80/80/80 78/78/78
f 84/84/84 83/83/83 82/82/82
f 85/85/85 84/84/84 82/82/82
f 88/88/88 87/87/87 86/86/86
f 89/89/89 88/88/88 86/86/86
f 92/92/92 91/91/91 90/90/90
f 93/93/93 92/92/92 90/90/90
f 96/96/96 95/95/95 94/94/94
f 97/97/97 96/96/96 94/94/94
f 100/100/100 99/99/99 98/98/98
f 101/101/101 100/100/100 98/98/98
f 104/104/104 103/103/103 102/102/102
f 105/105/105 104/104/104 102/102/102
f 108/108/108 107/107/107 106/106/106
f 109/109/109 108/108/108 106/106/106
f 112/112/112 111/111/111 110/110/110
f 113/113/113 112/112/112 110/110/110
f 116/116/116 115/115/115 114/114/114
f 117/117/117 116/116/116 114/114/114
f 120/120/120 119/119/119 118/118/118
f 121/121/121 120/120/120 118/118/118
f 124/124/124 123/123/123 122/122/122
f 125/125/125 124/124/124 122/122/122
f 128/128/128 127/127/127 126/126/126
f 129/129/129 128/128/128 126/126/126
f 132/132/132 131/131/131 130/130/130
f 133/133/133 132/132/132 130/130/130
f 136/136/136 135/135/135 134/134/134
f 137/137/137 136/136/136 134/134/134
f 140/140/140 139/139/139 138/138/138
f 141/141/141 140/140/140 138/138/138
f 144/144/144 143/143/143 142/142/142
f 145/145/145 144/144/144 142/142/142
f 148/148/148 147/147/147 146/146/146
f 149/149/149 148/148/148 146/146/146
f 152/152/152 151/151/151 150/150/150
f 153/153/153 152/152/152 150/150/150
f 156/156/156 155/155/155 154/154/154
f 157/157/157 156/156/156 154/154/154
f 160/160/160 159/159/159 158/158/158
f 161/161/161 160/160/160 158/158/158
f 164/164/164 163/163/163 162/162/162
f 165/165/165 164/164/164 162/162/162
f 168/168/168 167/167/167 166/166/166
f 169/169/169 168/168/168 166/166/166
f 172/172/172 171/171/171 170/170/170
f 173/173/173 172/172/172 170/170/170
f 176/176/176 175/175/175 174/174/174
f 177/177/177 176/176/176 174/174/174
f 180/180/180 179/179/179 178/178/178
f 181/181/181 180/180/180 178/178/178
