g MshTriangel_01
v -2.245227 -0.1049115 1.296282
v 2.245227 -0.1049115 1.296283
v 2.245227 0.1049115 1.296283
v -2.245227 0.1049115 1.296282
v 2.245227 -0.1049115 1.296283
v -5.51729E-09 -0.1049115 -2.592565
v -5.51729E-09 0.1049115 -2.592565
v 2.245227 0.1049115 1.296283
v -5.51729E-09 -0.1049115 -2.592565
v -2.245227 -0.1049115 1.296282
v -2.245227 0.1049115 1.296282
v -5.51729E-09 0.1049115 -2.592565
vt 0.375 0.3125
vt 0.4583333 0.3125
vt 0.4583333 0.6884398
vt 0.375 0.6884398
vt 0.4583333 0.3125
vt 0.5416667 0.3125
vt 0.5416667 0.6884398
vt 0.4583333 0.6884398
vt 0.5416667 0.3125
vt 0.625 0.3125
vt 0.625 0.6884398
vt 0.5416667 0.6884398
vn 0 0 -1
vn 0 0 -1
vn 0 0 -1
vn 0 0 -1
vn -0.8660254 0 0.5
vn -0.8660254 0 0.5
vn -0.8660254 0 0.5
vn -0.8660254 0 0.5
vn 0.8660253 0 0.5000001
vn 0.8660253 0 0.5000001
vn 0.8660253 0 0.5000001
vn 0.8660253 0 0.5000001
g MshTriangel_01_0
f 3/3/3 2/2/2 1/1/1
f 4/4/4 3/3/3 1/1/1
f 7/7/7 6/6/6 5/5/5
f 8/8/8 7/7/7 5/5/5
f 11/11/11 10/10/10 9/9/9
f 12/12/12 11/11/11 9/9/9
