g PigHead
v -0.07432634 -0.1607453 0.1318273
v -0.2221411 -0.1353248 0.07667531
v -0.1954153 -0.1029225 0.1032523
v -0.3377884 -0.09140628 0.08949937
v -0.2802075 -0.05176907 0.06840505
v -0.3422268 0.00991429 0.04357041
v -0.2984932 0.001498293 0.02368917
v -0.3424748 0.01163576 -0.000913723
v -0.2977331 0.004217487 -0.0008488732
v -0.1604842 -0.03624674 0.1354693
v -0.2254313 0.002215188 0.07891549
v -0.1521881 0.05266387 0.1426782
v -0.09147627 0.06622583 0.1591519
v -0.05883105 -0.07332613 0.1881379
v -0.1271838 0.1525034 0.1394547
v -0.1922959 0.1319156 0.08156194
v -0.1268967 0.1807572 0.06131352
v -0.01670344 0.1791148 0.1757449
v -0.02106459 0.2306514 0.09836282
v -0.0222357 0.07697145 0.2004632
v -0.2010363 0.137704 -0.0007096367
v -0.129238 0.1907021 -0.0005484658
v -0.02598364 0.2505764 -0.0003996926
v -0.2500237 0.01951338 0.03319253
v -0.2501629 0.01958315 -0.0007802086
v -0.1267184 0.1807572 -0.06240378
v -0.1920594 0.1319156 -0.08295546
v -0.1267803 0.1525034 -0.140545
v -0.01670344 0.1791148 -0.1764985
v -0.02078135 0.2306514 -0.09914695
v -0.1517752 0.05266387 -0.1439563
v -0.0910166 0.06622583 -0.1601401
v -0.1600912 -0.03624674 -0.1367713
v -0.05828745 -0.07332613 -0.1890308
v -0.2252024 0.002215188 -0.08040439
v -0.02165682 0.07697145 -0.2012511
v -0.2499254 0.01951338 -0.03475295
v -0.2799938 -0.05176907 -0.0700513
v -0.1951159 -0.1029225 -0.1046554
v -0.3375872 -0.09140628 -0.09131251
v -0.2219179 -0.1353248 -0.07815467
v -0.07394487 -0.1607453 -0.1327649
v -0.3421286 0.00991429 -0.04540072
v -0.2984226 0.001498293 -0.02538977
v 0.05323021 -0.07901668 -0.2085249
v 0.09292357 0.07952181 -0.2086648
v -0.02165682 0.07697145 -0.2012511
v -0.01670344 0.1791148 -0.1764985
v 0.08000081 0.1872658 -0.1648399
v -0.02078135 0.2306514 -0.09914695
v -0.02598364 0.2505764 -0.0003996926
v 0.06750076 0.2321447 -0.0002680259
v 0.07952612 0.1872658 0.164339
v -0.02106459 0.2306514 0.09836282
v -0.01670344 0.1791148 0.1757449
v 0.09232395 0.07952181 0.2082001
v -0.0222357 0.07697145 0.2004632
v 0.05263059 -0.07901668 0.2079466
v 0.007677961 -0.1712292 0.1529434
v -0.3424748 0.01163576 -0.000913723
v -0.3422268 0.00991429 0.04357041
v -0.3377884 -0.09140628 0.08949937
v -0.3372095 -0.1017084 -0.0009060936
v -0.3375872 -0.09140628 -0.09131251
v -0.3421286 0.00991429 -0.04540072
v 0.008119751 -0.1712292 -0.1536515
vt 0.2879946 0.915934
vt 0.2754443 0.9092746
vt 0.2761347 0.9135072
vt 0.2655977 0.9068832
vt 0.267178 0.9121537
vt 0.2618008 0.9118839
vt 0.2620884 0.9142001
vt 0.2600794 0.9119537
vt 0.2601259 0.9144596
vt 0.2758733 0.920265
vt 0.268071 0.9187185
vt 0.2722963 0.9258794
vt 0.2749267 0.9295596
vt 0.2845691 0.9241717
vt 0.2692471 0.931728
vt 0.2656111 0.9279355
vt 0.2644478 0.9328231
vt 0.2725223 0.9382293
vt 0.2670775 0.9396761
vt 0.2782939 0.9341664
vt 0.2605058 0.9277024
vt 0.2607092 0.9331651
vt 0.2610193 0.9403782
vt 0.2633248 0.9183935
vt 0.2602269 0.9184263
vt 0.256939 0.93313
vt 0.255396 0.928305
vt 0.2520084 0.9324216
vt 0.249262 0.939272
vt 0.2548819 0.9402509
vt 0.2484724 0.9267111
vt 0.2460435 0.9306842
vt 0.2444242 0.921203
vt 0.2355891 0.9258945
vt 0.2523437 0.9191436
vt 0.2429679 0.9357024
vt 0.2571229 0.9185557
vt 0.2529151 0.912399
vt 0.2437271 0.9141986
vt 0.2543793 0.9069611
vt 0.2442375 0.9097311
vt 0.231354 0.9174658
vt 0.2583513 0.9119358
vt 0.258151 0.9142763
vt 0.229148 0.9332709
vt 0.238566 0.9435801
vt 0.2429679 0.9357024
vt 0.249262 0.939272
vt 0.2479827 0.9464074
vt 0.2548819 0.9402509
vt 0.2610193 0.9403782
vt 0.2613619 0.9473275
vt 0.2744298 0.9450331
vt 0.2670775 0.9396761
vt 0.2725223 0.9382293
vt 0.2832352 0.9413562
vt 0.2782939 0.9341664
vt 0.2912626 0.930631
vt 0.2942398 0.9207481
vt 0.2600794 0.9119537
vt 0.2618008 0.9118839
vt 0.2655977 0.9068832
vt 0.2600057 0.905712
vt 0.2543793 0.9069611
vt 0.2583513 0.9119358
vt 0.2249658 0.9230797
vn -0.3460874 -0.3931751 0.8518432
vn -0.1647942 -0.06481867 0.9841958
vn -0.4034197 -0.1691623 0.8992422
vn 0.03367276 0.2678152 0.9628817
vn -0.2069735 0.2698596 0.9403923
vn 0.1938706 0.6488881 0.7357706
vn -0.1006962 0.7544209 0.6486211
vn 0.1902342 0.9817387 0.0002109373
vn -0.07407606 0.9972525 -0.0001324936
vn -0.4650285 -0.1084803 0.8786241
vn -0.6533534 0.1760018 0.7363102
vn -0.5555012 0.1112379 0.8240415
vn -0.4464151 0.1037032 0.8887965
vn -0.285397 -0.1968449 0.9379768
vn -0.5002146 0.4909045 0.7133008
vn -0.7670798 0.449133 0.4581136
vn -0.4949961 0.8308334 0.2543516
vn -0.4613858 0.5312406 0.7105678
vn -0.4536558 0.8311833 0.3214513
vn -0.449182 0.1177572 0.885646
vn -0.7926568 0.609667 -0.001167697
vn -0.5257834 0.8506181 -0.0007344906
vn -0.4901252 0.8716518 -0.000703343
vn -0.8016157 0.4211714 0.4242958
vn -0.854933 0.5187369 -0.001231082
vn -0.4944094 0.8308993 -0.2552759
vn -0.7655606 0.449283 -0.4605016
vn -0.4984752 0.4909863 -0.7144611
vn -0.4603116 0.5311404 -0.711339
vn -0.4531395 0.8313386 -0.3217775
vn -0.5524832 0.1115154 -0.8260307
vn -0.4435979 0.1034447 -0.890236
vn -0.4619141 -0.1085623 -0.8802554
vn -0.2823975 -0.1969113 -0.9388704
vn -0.6512491 0.1759895 -0.738175
vn -0.4472367 0.1168405 -0.8867512
vn -0.8003997 0.4211499 -0.4266066
vn -0.2042255 0.2698243 -0.9410031
vn -0.400467 -0.1693551 -0.9005249
vn 0.03652485 0.2680168 -0.9627216
vn -0.161779 -0.06488443 -0.9846917
vn -0.3432494 -0.3933536 -0.8529084
vn 0.1958707 0.648733 -0.7353777
vn -0.09872549 0.7543113 -0.6490515
vn -0.1491342 -0.1368836 -0.9792966
vn -0.06755765 0.1279994 -0.9894706
vn -0.07631778 0.1045765 -0.9915843
vn 0.001789884 0.4585073 -0.8886889
vn 0.09085657 0.6656544 -0.7407088
vn 0.2029952 0.9439907 -0.2601432
vn 0.2336395 0.9723232 0.0003387577
vn 0.2336394 0.9723232 0.0003307553
vn 0.08902507 0.6661031 0.7405277
vn 0.2025112 0.9440444 0.2603254
vn -0.0006195166 0.4582655 0.888815
vn -0.07038344 0.1277548 0.9893053
vn -0.07924034 0.1041109 0.9914039
vn -0.1518954 -0.1368989 0.9788699
vn -0.2204301 -0.459115 0.8605951
vn -0.9989831 -0.04507149 -0.001109021
vn -0.9989838 -0.04506906 0.0004161214
vn -0.9989838 -0.04506906 0.0004161215
vn -0.9989831 -0.04507149 -0.001108987
vn -0.9989801 -0.04507382 -0.002634092
vn -0.9989801 -0.04507381 -0.002634092
vn -0.2180078 -0.459094 -0.861223
g PigHead_0
f 3/3/3 2/2/2 1/1/1
f 4/4/4 2/2/2 3/3/3
f 5/5/5 4/4/4 3/3/3
f 6/6/6 4/4/4 5/5/5
f 7/7/7 6/6/6 5/5/5
f 8/8/8 6/6/6 7/7/7
f 9/9/9 8/8/8 7/7/7
f 5/5/5 3/3/3 10/10/10
f 11/11/11 5/5/5 10/10/10
f 7/7/7 5/5/5 11/11/11
f 12/12/12 11/11/11 10/10/10
f 12/12/12 10/10/10 13/13/13
f 10/10/10 14/14/14 13/13/13
f 14/14/14 10/10/10 3/3/3
f 1/1/1 14/14/14 3/3/3
f 12/12/12 13/13/13 15/15/15
f 16/16/16 12/12/12 15/15/15
f 12/12/12 16/16/16 11/11/11
f 16/16/16 15/15/15 17/17/17
f 15/15/15 18/18/18 17/17/17
f 18/18/18 15/15/15 13/13/13
f 18/18/18 19/19/19 17/17/17
f 20/20/20 18/18/18 13/13/13
f 20/20/20 13/13/13 14/14/14
f 21/21/21 16/16/16 17/17/17
f 22/22/22 21/21/21 17/17/17
f 22/22/22 17/17/17 19/19/19
f 23/23/23 22/22/22 19/19/19
f 16/16/16 24/24/24 11/11/11
f 16/16/16 21/21/21 25/25/25
f 24/24/24 16/16/16 25/25/25
f 24/24/24 7/7/7 11/11/11
f 9/9/9 7/7/7 24/24/24
f 25/25/25 9/9/9 24/24/24
f 21/21/21 22/22/22 26/26/26
f 27/27/27 21/21/21 26/26/26
f 21/21/21 27/27/27 25/25/25
f 28/28/28 27/27/27 26/26/26
f 29/29/29 28/28/28 26/26/26
f 30/30/30 29/29/29 26/26/26
f 22/22/22 23/23/23 30/30/30
f 26/26/26 22/22/22 30/30/30
f 31/31/31 27/27/27 28/28/28
f 32/32/32 31/31/31 28/28/28
f 28/28/28 29/29/29 32/32/32
f 33/33/33 31/31/31 32/32/32
f 34/34/34 33/33/33 32/32/32
f 35/35/35 31/31/31 33/33/33
f 27/27/27 31/31/31 35/35/35
f 29/29/29 36/36/36 32/32/32
f 32/32/32 36/36/36 34/34/34
f 37/37/37 27/27/27 35/35/35
f 27/27/27 37/37/37 25/25/25
f 9/9/9 25/25/25 37/37/37
f 38/38/38 35/35/35 33/33/33
f 39/39/39 38/38/38 33/33/33
f 33/33/33 34/34/34 39/39/39
f 40/40/40 38/38/38 39/39/39
f 41/41/41 40/40/40 39/39/39
f 41/41/41 39/39/39 42/42/42
f 34/34/34 42/42/42 39/39/39
f 40/40/40 43/43/43 38/38/38
f 43/43/43 44/44/44 38/38/38
f 44/44/44 37/37/37 35/35/35
f 38/38/38 44/44/44 35/35/35
f 43/43/43 8/8/8 44/44/44
f 8/8/8 9/9/9 44/44/44
f 44/44/44 9/9/9 37/37/37
f 34/34/34 45/45/45 42/42/42
f 46/46/46 45/45/45 34/34/34
f 47/47/47 46/46/46 34/34/34
f 47/47/47 48/48/48 46/46/46
f 48/48/48 49/49/49 46/46/46
f 50/50/50 49/49/49 48/48/48
f 49/49/49 50/50/50 51/51/51
f 52/52/52 49/49/49 51/51/51
f 53/53/53 52/52/52 51/51/51
f 54/54/54 53/53/53 51/51/51
f 53/53/53 54/54/54 55/55/55
f 53/53/53 55/55/55 56/56/56
f 55/55/55 57/57/57 56/56/56
f 56/56/56 57/57/57 14/14/14
f 58/58/58 56/56/56 14/14/14
f 58/58/58 14/14/14 1/1/1
f 59/59/59 58/58/58 1/1/1
f 62/62/62 61/61/61 60/60/60
f 63/63/63 62/62/62 60/60/60
f 64/64/64 63/63/63 60/60/60
f 65/65/65 64/64/64 60/60/60
f 45/45/45 66/66/66 42/42/42
