g Plug01
v 0.01011574 -0.1781188 -0.2451594
v 0.1078204 -0.1485676 -0.2044858
v 0.1078204 4.768372E-08 -0.2527583
v 0.01011574 4.768372E-08 -0.3030336
v 0.01011574 -0.288202 -0.09364247
v 0.1078204 -0.2403873 -0.07810664
v 0.01011574 -0.288202 0.09364253
v 0.1078204 -0.2403873 0.0781067
v 0.01011574 -0.1781187 0.2451594
v 0.1078204 -0.1485675 0.2044857
v 0.01011574 4.768372E-08 0.3030336
v 0.1078204 4.768372E-08 0.2527583
v 0.01011574 0.1781186 0.2451593
v 0.1078204 0.1485675 0.2044857
v 0.01011574 0.288202 0.09364253
v 0.1078204 0.2403873 0.07810652
v 0.01011574 0.288202 -0.09364259
v 0.1078204 0.2403873 -0.07810664
v 0.01011574 0.1781186 -0.2451594
v 0.1078204 0.1485675 -0.2044858
v 0.01011574 4.768372E-08 -0.3030336
v 0.1078204 4.768372E-08 -0.2527583
v -0.08286893 4.768372E-08 -0.3030336
v -0.08286893 0.1781186 -0.2451594
v -0.08286893 0.288202 -0.09364259
v -0.08286893 0.288202 0.09364253
v -0.08286893 0.1781186 0.2451593
v -0.08286893 4.768372E-08 0.3030336
v -0.08286893 -0.1781187 0.2451594
v -0.08286893 -0.288202 0.09364253
v -0.08286893 -0.288202 -0.09364247
v -0.08286893 -0.1781188 -0.2451594
v -0.08286893 4.768372E-08 -0.3030336
v 0.1078204 -0.1485676 -0.2044858
v 0.1078204 -0.2403873 -0.07810664
v 0.1078204 -0.2403873 0.0781067
v 0.1078204 -0.1485675 0.2044857
v 0.1078204 4.768372E-08 0.2527583
v 0.1078204 4.768372E-08 -0.2527583
v 0.1078204 0.1485675 -0.2044858
v 0.1078204 0.1485675 0.2044857
v 0.1078204 0.2403873 -0.07810664
v 0.1078204 0.2403873 0.07810652
vt 0.005348387 0.07312222
vt 0.01115942 0.07316106
vt 0.01115942 0.06361728
vt 0.005356733 0.06393476
vt 0.005344568 0.08192866
vt 0.01115936 0.08196276
vt 0.005344978 0.09068649
vt 0.01115935 0.09066825
vt 0.00534995 0.09908909
vt 0.01115935 0.09937375
vt 0.005344543 0.1078764
vt 0.01115935 0.1080792
vt 0.005345936 0.1167075
vt 0.01115947 0.1167846
vt 0.005345935 0.1255392
vt 0.01115775 0.1255299
vt 0.005315098 0.1343558
vt 0.01116108 0.1341556
vt 0.005289843 0.1432205
vt 0.01115942 0.142901
vt 0.005267717 0.1524237
vt 0.01115935 0.1525432
vt 0.000945027 0.1522804
vt 0.0009299051 0.1434275
vt 0.0009090118 0.1345322
vt 0.0008769874 0.1255924
vt 0.0009066705 0.1166065
vt 0.0009392845 0.1076501
vt 0.001058818 0.09911418
vt 0.001159369 0.09070828
vt 0.001155803 0.08189771
vt 0.001144013 0.07308724
vt 0.001123038 0.06425542
vt 0.03244674 0.1410125
vt 0.03746432 0.1340947
vt 0.03745747 0.1255489
vt 0.03242886 0.118639
vt 0.02429915 0.1160046
vt 0.02432114 0.1436598
vt 0.01619142 0.1410255
vt 0.01617355 0.1186519
vt 0.01116108 0.1341556
vt 0.01115775 0.1255299
vn 0.2337038 -0.5715084 -0.7866135
vn 0.4575443 -0.5226507 -0.7193674
vn 0.457544 0 -0.889187
vn 0.2337037 0 -0.9723078
vn 0.2337039 -0.9247199 -0.300459
vn 0.4575444 -0.845667 -0.2747735
vn 0.2337039 -0.9247196 0.3004596
vn 0.4575444 -0.8456667 0.2747742
vn 0.2337037 -0.5715079 0.7866138
vn 0.4575441 -0.5226505 0.7193676
vn 0.2337039 0 0.9723078
vn 0.4575442 0 0.8891868
vn 0.2337039 0.5715083 0.7866135
vn 0.4575443 0.5226508 0.7193673
vn 0.233704 0.9247196 0.3004598
vn 0.4575445 0.8456667 0.274774
vn 0.2337038 0.9247198 -0.3004596
vn 0.4575442 0.845667 -0.2747737
vn 0.2337036 0.5715083 -0.7866135
vn 0.457544 0.5226511 -0.7193673
vn 0.2337037 0 -0.9723078
vn 0.457544 0 -0.889187
vn 0 0 -1
vn 0 0.5877854 -0.809017
vn 0 0.9510565 -0.309017
vn 0 0.9510565 0.309017
vn 0 0.5877856 0.8090168
vn 0 0 1
vn 0 -0.5877852 0.8090171
vn 0 -0.9510565 0.3090171
vn 0 -0.9510567 -0.3090163
vn 0 -0.5877857 -0.8090166
vn 0 0 -1
vn 1 0 0
vn 1 0 0
vn 1 0 0
vn 1 0 0
vn 1 0 0
vn 1 0 0
vn 1 0 0
vn 1 0 0
vn 1 0 0
vn 1 0 0
g Plug01_0
f 3/3/3 2/2/2 1/1/1
f 4/4/4 3/3/3 1/1/1
f 1/1/1 2/2/2 5/5/5
f 2/2/2 6/6/6 5/5/5
f 5/5/5 6/6/6 7/7/7
f 6/6/6 8/8/8 7/7/7
f 7/7/7 8/8/8 9/9/9
f 8/8/8 10/10/10 9/9/9
f 9/9/9 10/10/10 11/11/11
f 10/10/10 12/12/12 11/11/11
f 11/11/11 12/12/12 13/13/13
f 12/12/12 14/14/14 13/13/13
f 13/13/13 14/14/14 15/15/15
f 14/14/14 16/16/16 15/15/15
f 15/15/15 16/16/16 17/17/17
f 16/16/16 18/18/18 17/17/17
f 17/17/17 18/18/18 19/19/19
f 18/18/18 20/20/20 19/19/19
f 19/19/19 20/20/20 21/21/21
f 20/20/20 22/22/22 21/21/21
f 21/21/21 23/23/23 19/19/19
f 23/23/23 24/24/24 19/19/19
f 19/19/19 24/24/24 17/17/17
f 24/24/24 25/25/25 17/17/17
f 17/17/17 25/25/25 15/15/15
f 25/25/25 26/26/26 15/15/15
f 15/15/15 26/26/26 13/13/13
f 26/26/26 27/27/27 13/13/13
f 13/13/13 27/27/27 11/11/11
f 27/27/27 28/28/28 11/11/11
f 11/11/11 28/28/28 9/9/9
f 28/28/28 29/29/29 9/9/9
f 9/9/9 29/29/29 7/7/7
f 29/29/29 30/30/30 7/7/7
f 7/7/7 30/30/30 5/5/5
f 30/30/30 31/31/31 5/5/5
f 5/5/5 31/31/31 1/1/1
f 31/31/31 32/32/32 1/1/1
f 1/1/1 32/32/32 4/4/4
f 32/32/32 33/33/33 4/4/4
f 36/36/36 35/35/35 34/34/34
f 37/37/37 36/36/36 34/34/34
f 38/38/38 37/37/37 34/34/34
f 39/39/39 38/38/38 34/34/34
f 39/39/39 40/40/40 38/38/38
f 40/40/40 41/41/41 38/38/38
f 40/40/40 42/42/42 41/41/41
f 42/42/42 43/43/43 41/41/41
