g Rockshell
v -0.3653083 0.0501719 -0.08117841
v -0.3121876 0.4336512 -0.07657001
v -0.2811238 0.2950296 0.1758254
v -0.3340348 -0.02650209 0.1850432
v -0.05855399 0.8012034 0.0966855
v -0.0611736 0.5920595 -0.261257
v -0.2331206 -0.05947544 -0.2516781
v -0.08411821 0.2900423 0.3673937
v -0.1949717 -0.04010512 0.3724563
v 0.1515506 0.3729322 0.223868
v 0.2253718 0.5920595 -0.04879034
v 0.2891835 0.02194397 -0.09370898
v 0.06109512 -0.1484611 -0.3494648
v -0.2168362 -0.583344 0.5111173
v 0.1893746 -0.583344 0.5111173
v 0.4766087 -0.583344 0.223883
v 0.4766087 -0.583344 -0.1823277
v 0.1893746 -0.583344 -0.469562
v -0.2168364 -0.583344 -0.469562
v -0.5040704 -0.583344 -0.1823277
v -0.5040704 -0.583344 0.223883
vt 0.3658496 0.5194536
vt 0.4189144 0.4880921
vt 0.4024876 0.4530865
vt 0.3132689 0.4042362
vt 0.4516904 0.4770902
vt 0.4530436 0.4916461
vt 0.4224179 0.607479
vt 0.4305049 0.4303092
vt 0.4110548 0.3526641
vt 0.4712695 0.4598552
vt 0.472755 0.4791841
vt 0.5776777 0.500589
vt 0.5163746 0.6133658
vt 0.3815934 0.2141413
vt 0.6184065 0.2141413
vt 0.7858585 0.3815933
vt 0.7858585 0.6184063
vt 0.6184065 0.7858584
vt 0.3815933 0.7858584
vt 0.2141414 0.6184063
vt 0.2141414 0.3815933
vn -0.9296936 0.2125458 -0.3008226
vn -0.8835553 0.3000309 -0.3595991
vn -0.854095 0.2596376 0.4506773
vn -0.8391589 0.2322416 0.4918092
vn -0.1421899 0.9407928 0.307719
vn 0.1682568 0.3774442 -0.9106182
vn -0.6766051 0.239305 -0.6963754
vn 0.2360159 0.3101393 0.920929
vn -0.4062526 0.2096727 0.8893797
vn 0.7392162 0.2979276 0.6039855
vn 0.8135973 0.3526469 -0.4622766
vn 0.8871663 0.2899381 -0.3589871
vn 0.2772838 0.301575 -0.9122314
vn -0.4036221 0.214406 0.8894489
vn 0.3882704 0.2431566 0.8888875
vn 0.8479305 0.3094743 0.4303947
vn 0.8860713 0.347808 -0.3064429
vn 0.4870723 0.3301383 -0.8085601
vn -0.3900141 0.3172336 -0.8644373
vn -0.8049446 0.2953377 -0.5146258
vn -0.9262503 0.2713192 0.2616225
g Rockshell_0
f 3/3/3 2/2/2 1/1/1
f 4/4/4 3/3/3 1/1/1
f 3/3/3 5/5/5 2/2/2
f 1/1/1 2/2/2 6/6/6
f 5/5/5 6/6/6 2/2/2
f 7/7/7 1/1/1 6/6/6
f 8/8/8 3/3/3 4/4/4
f 5/5/5 3/3/3 8/8/8
f 9/9/9 8/8/8 4/4/4
f 5/5/5 8/8/8 10/10/10
f 5/5/5 11/11/11 6/6/6
f 5/5/5 10/10/10 11/11/11
f 11/11/11 12/12/12 6/6/6
f 12/12/12 11/11/11 10/10/10
f 12/12/12 13/13/13 6/6/6
f 13/13/13 7/7/7 6/6/6
f 8/8/8 9/9/9 14/14/14
f 15/15/15 8/8/8 14/14/14
f 16/16/16 10/10/10 8/8/8
f 15/15/15 16/16/16 8/8/8
f 10/10/10 16/16/16 17/17/17
f 12/12/12 10/10/10 17/17/17
f 12/12/12 17/17/17 13/13/13
f 17/17/17 18/18/18 13/13/13
f 19/19/19 13/13/13 18/18/18
f 13/13/13 19/19/19 7/7/7
f 19/19/19 20/20/20 7/7/7
f 7/7/7 20/20/20 1/1/1
f 20/20/20 21/21/21 1/1/1
f 14/14/14 9/9/9 21/21/21
f 4/4/4 1/1/1 21/21/21
f 9/9/9 4/4/4 21/21/21
