g Shell
v 0.6587052 0.1122095 0.05801793
v 0.2620608 0.7389765 0.07662077
v 0.4722807 0.1122095 -0.2719477
v 0.2199596 0.1122095 -0.3637611
v 0.1348701 0.6164771 0.552234
v 0.1731368 1.064767 0.366003
v 0.2620698 0.6957477 0.5198098
v 0.4138819 0.4847617 0.3166649
v 0.2524941 0.1122095 0.704174
v 0.5017759 0.1122095 0.5939545
v 0.5702174 0.1122095 0.3922006
v -0.2182254 0.1122095 -0.4248331
v -0.1763898 0.6662672 -0.04980278
v -0.4572753 0.1122095 -0.1463752
v -0.3872481 0.3622142 -0.03303791
v -0.3986289 0.3868706 0.2483124
v -0.2259112 0.9929187 0.3216942
v -0.3494121 0.6000957 0.4819345
v -0.1180862 0.4504219 0.5941028
v -0.3450905 0.1122095 0.7109461
v -0.5494058 0.1122095 0.369944
v 0.4138819 0.4847617 0.3166649
v 0.2620608 0.7389765 0.07662077
v 0.6587052 0.1122095 0.05801793
v 0.5702175 0.1122095 0.3922005
v -0.1180862 0.4504219 0.5941028
v -0.04421643 0.988319 0.4983743
v 0.01979666 0.6170396 0.6531707
v 0.1348701 0.6164771 0.552234
v -0.3450905 0.1122095 0.7109461
v 0.01230266 0.1122095 0.8223747
v 0.252494 0.1122095 0.704174
v 0.2199596 0.1122095 -0.3637612
v -0.1763898 0.6662672 -0.04980278
v -0.2182254 0.1122095 -0.4248331
v -0.3872481 0.3622142 -0.03303791
v -0.294436 0.7641848 0.08781052
v -0.6041079 0.1122095 0.1255895
v -0.3986289 0.3868706 0.2483124
v -0.5494058 0.1122095 0.369944
v -0.4572753 0.1122095 -0.1463752
vt -0.4842563 0.0143721
vt -0.4586408 0.1191446
vt -0.4568966 0.008354604
vt -0.4311317 0.01098067
vt -0.4695903 0.07248756
vt -0.4586408 0.1191446
vt -0.4579174 0.07438104
vt -0.4473579 0.07320809
vt -0.4842563 0.0143721
vt -0.4568966 0.008354604
vt -0.4311317 0.01098067
vt -0.4841792 0.01449074
vt -0.4585732 0.1192239
vt -0.4568298 0.008475516
vt -0.4434481 0.05855255
vt -0.4734295 0.05708838
vt -0.4585732 0.1192239
vt -0.4575123 0.0526216
vt -0.4427346 0.05581784
vt -0.4439519 0.009788021
vt -0.4841792 0.01449074
vt -0.4689848 0.07488867
vt -0.4586408 0.1191446
vt -0.4568966 0.008354604
vt -0.4842563 0.0143721
vt -0.4692929 0.07366806
vt -0.4586408 0.1191446
vt -0.4578575 0.07048713
vt -0.4469211 0.07153244
vt -0.4842563 0.0143721
vt -0.4568966 0.008354604
vt -0.4311317 0.01098067
vt -0.4842563 0.0143721
vt -0.4586408 0.1191446
vt -0.4568966 0.008354604
vt -0.4708477 0.06731847
vt -0.4585732 0.1192239
vt -0.4568298 0.008475516
vt -0.4432209 0.05768117
vt -0.4310744 0.01110058
vt -0.4841792 0.01449074
vn 0.8355382 0.5041775 -0.2183595
vn 0.7489921 0.5590063 -0.3557001
vn 0.5713673 0.5368576 -0.620744
vn 0.2883601 0.5374388 -0.7924695
vn 0.258307 0.2957389 0.9196825
vn 0.7688699 0.3948986 0.5028857
vn 0.6181028 0.3847318 0.6855146
vn 0.8770834 0.3967351 0.2707879
vn 0.2867522 0.2843303 0.9148385
vn 0.6827937 0.3905655 0.6174555
vn 0.8753002 0.4041481 0.2655441
vn -0.2120643 0.5587234 -0.8017835
vn -0.2566636 0.5554689 -0.790935
vn -0.6798918 0.4461212 -0.5819991
vn -0.7591649 0.3850123 -0.5248182
vn -0.8966825 0.4185705 0.1440805
vn -0.7461478 0.4388267 0.500694
vn -0.7271829 0.41672 0.5454809
vn -0.3504451 0.3949078 0.8492562
vn -0.5866979 0.3446884 0.7327861
vn -0.8769994 0.3497205 0.329496
vn 0.8568975 0.509717 0.07690911
vn 0.7489921 0.5590063 -0.3557001
vn 0.8355382 0.5041775 -0.2183595
vn 0.8790396 0.4160677 0.2327596
vn -0.3504451 0.3949078 0.8492562
vn -0.08118016 0.371594 0.9248393
vn 0.09251466 0.3748954 0.9224395
vn 0.5213484 0.3281584 0.7877232
vn -0.5866979 0.3446884 0.7327861
vn 0.02442678 0.3989726 0.9166375
vn 0.499179 0.3117723 0.8084667
vn 0.1152112 0.5508285 -0.8266283
vn -0.2566636 0.5554689 -0.790935
vn -0.2120643 0.5587234 -0.8017835
vn -0.7591649 0.3850123 -0.5248182
vn -0.901651 0.4230655 -0.08967314
vn -0.8740757 0.476588 -0.09410525
vn -0.8966825 0.4185705 0.1440805
vn -0.8769994 0.3497205 0.329496
vn -0.7988593 0.4192896 -0.4313006
g Shell_0
f 3/3/3 2/2/2 1/1/1
f 3/3/3 4/4/4 2/2/2
f 7/7/7 6/6/6 5/5/5
f 7/7/7 8/8/8 6/6/6
f 7/7/7 5/5/5 9/9/9
f 10/10/10 7/7/7 9/9/9
f 7/7/7 10/10/10 8/8/8
f 10/10/10 11/11/11 8/8/8
f 14/14/14 13/13/13 12/12/12
f 14/14/14 15/15/15 13/13/13
f 18/18/18 17/17/17 16/16/16
f 18/18/18 19/19/19 17/17/17
f 18/18/18 20/20/20 19/19/19
f 20/20/20 18/18/18 21/21/21
f 18/18/18 16/16/16 21/21/21
f 24/24/24 23/23/23 22/22/22
f 24/24/24 22/22/22 25/25/25
f 28/28/28 27/27/27 26/26/26
f 28/28/28 29/29/29 27/27/27
f 28/28/28 26/26/26 30/30/30
f 31/31/31 28/28/28 30/30/30
f 28/28/28 31/31/31 29/29/29
f 31/31/31 32/32/32 29/29/29
f 35/35/35 34/34/34 33/33/33
f 38/38/38 37/37/37 36/36/36
f 38/38/38 39/39/39 37/37/37
f 38/38/38 40/40/40 39/39/39
f 38/38/38 36/36/36 41/41/41
